<?xml version="1.0" standalone="no"?>
<!DOCTYPE svg PUBLIC "-//W3C//DTD SVG 20010904//EN"
 "http://www.w3.org/TR/2001/REC-SVG-20010904/DTD/svg10.dtd">
<svg version="1.0" xmlns="http://www.w3.org/2000/svg"
 width="512.000000pt" height="512.000000pt" viewBox="0 0 512.000000 512.000000"
 preserveAspectRatio="xMidYMid meet">
<metadata>
Created by potrace 1.11, written by Peter Selinger 2001-2013
</metadata>
<g transform="translate(0.000000,512.000000) scale(0.100000,-0.100000)"
fill="#000000" stroke="none">
<path d="M1745 4014 c-531 -80 -958 -438 -1129 -948 -88 -263 -87 -596 4 -866
78 -235 244 -474 435 -629 100 -82 148 -113 261 -169 228 -114 453 -161 703
-148 307 16 560 112 790 299 l73 60 -531 531 c-292 292 -531 536 -531 541 0 5
228 238 506 516 l506 506 -39 31 c-96 76 -271 169 -403 215 -200 70 -439 93
-645 61z"/>
<path d="M2770 3005 l0 -165 -162 -2 -163 -3 0 -165 0 -165 162 -3 163 -2 2
-163 3 -162 168 -3 167 -2 0 165 0 165 168 2 167 3 0 165 0 165 -167 3 -168 2
0 165 0 165 -170 0 -170 0 0 -165z"/>
<path d="M3960 3005 l0 -165 -167 -2 -168 -3 0 -165 0 -165 168 -3 167 -2 0
-165 0 -165 168 2 167 3 3 162 2 163 163 2 162 3 3 168 2 167 -165 0 -165 0
-2 163 -3 162 -167 3 -168 2 0 -165z"/>
</g>
</svg>
