<?xml version="1.0" standalone="no"?>
<!DOCTYPE svg PUBLIC "-//W3C//DTD SVG 20010904//EN"
 "http://www.w3.org/TR/2001/REC-SVG-20010904/DTD/svg10.dtd">
<svg version="1.0" xmlns="http://www.w3.org/2000/svg"
 width="512.000000pt" height="512.000000pt" viewBox="0 0 512.000000 512.000000"
 preserveAspectRatio="xMidYMid meet">
<metadata>
Created by potrace 1.11, written by Peter Selinger 2001-2013
</metadata>
<g transform="translate(0.000000,512.000000) scale(0.100000,-0.100000)"
fill="#000000" stroke="none">
<path d="M0 2560 l0 -2560 280 0 280 0 0 2560 0 2560 -280 0 -280 0 0 -2560z"/>
<path d="M3140 4415 l0 -705 708 -2 707 -3 3 -1853 2 -1852 280 0 280 0 0
2560 0 2560 -877 0 -878 0 600 -600 600 -600 -608 0 -607 0 0 600 0 600 -105
0 -105 0 0 -705z"/>
<path d="M1490 2453 c-128 -538 -259 -1084 -290 -1213 l-56 -235 159 -3 c88
-1 162 0 165 3 5 5 102 400 411 1680 95 391 174 718 177 728 5 16 -7 17 -163
17 l-169 0 -234 -977z"/>
<path d="M2210 2867 l0 -224 523 -203 c287 -112 539 -210 560 -218 20 -8 37
-18 37 -22 0 -4 -82 -39 -182 -78 -101 -39 -264 -103 -363 -142 -99 -39 -260
-102 -358 -140 -97 -38 -186 -74 -197 -80 -19 -10 -20 -21 -20 -230 0 -121 4
-220 8 -220 5 0 368 157 808 348 l799 349 0 192 0 193 -380 165 c-209 90 -558
241 -775 335 -217 94 -410 177 -427 184 l-33 14 0 -223z"/>
</g>
</svg>
