<?xml version="1.0" standalone="no"?>
<!DOCTYPE svg PUBLIC "-//W3C//DTD SVG 20010904//EN"
 "http://www.w3.org/TR/2001/REC-SVG-20010904/DTD/svg10.dtd">
<svg version="1.0" xmlns="http://www.w3.org/2000/svg"
 width="320.000000pt" height="247.000000pt" viewBox="0 0 320.000000 247.000000"
 preserveAspectRatio="xMidYMid meet">
<metadata>
Created by potrace 1.11, written by Peter Selinger 2001-2013
</metadata>
<g transform="translate(0.000000,247.000000) scale(0.100000,-0.100000)"
fill="#000000" stroke="none">
<path d="M1760 1405 l-43 -95 -98 0 c-88 0 -100 -2 -126 -24 -16 -13 -50 -69
-77 -125 -47 -98 -49 -101 -82 -101 -21 0 -34 5 -34 13 0 6 23 59 50 116 28
57 50 105 50 107 0 2 -67 4 -149 4 l-149 0 -29 -33 c-16 -18 -46 -72 -68 -120
-38 -84 -40 -87 -72 -87 -18 0 -33 1 -33 3 0 2 18 38 40 81 42 80 47 104 30
137 -10 18 -23 19 -169 19 l-158 0 -27 -38 c-14 -21 -26 -41 -26 -45 0 -4 63
-7 140 -7 110 0 140 -3 140 -13 0 -26 -64 -109 -96 -124 -62 -30 -82 7 -44 82
11 22 20 41 20 43 0 2 -21 2 -47 0 -42 -3 -50 -7 -62 -32 -8 -17 -16 -49 -19
-73 l-5 -43 -73 0 c-41 0 -74 2 -74 4 0 2 7 21 16 42 16 38 16 39 -9 60 l-25
21 51 24 c33 15 83 56 140 112 57 57 82 77 72 58 -33 -65 -6 -70 48 -9 36 41
37 42 22 10 -9 -18 -13 -37 -10 -42 3 -6 33 -10 65 -10 49 0 61 4 70 20 11 20
40 17 40 -5 0 -18 166 -31 186 -14 8 7 13 17 11 23 -2 6 9 19 25 29 68 41 39
80 -56 75 -39 -2 -61 -8 -64 -16 -3 -10 5 -13 29 -11 57 4 99 -1 99 -10 0 -5
-16 -19 -34 -31 -22 -13 -33 -26 -29 -36 3 -8 -1 -14 -11 -14 -20 0 -20 17 -1
50 17 29 18 40 7 40 -5 0 -17 -18 -27 -40 -17 -38 -20 -40 -64 -40 -39 0 -47
3 -48 20 -1 11 6 22 17 25 25 8 37 45 19 56 -19 12 -136 11 -144 -1 -4 -6 18
-10 59 -10 36 0 67 -4 70 -9 3 -5 -10 -18 -29 -30 -37 -22 -41 -21 -25 10 7
13 7 19 1 19 -6 0 -20 -18 -31 -40 -20 -39 -22 -40 -70 -40 l-50 0 20 40 c11
21 20 44 20 50 0 24 -32 7 -65 -36 -36 -48 -46 -49 -20 -4 27 47 11 68 -27 33
-16 -14 -18 -14 -18 -1 0 11 -13 18 -42 21 -24 3 -65 10 -93 16 -27 5 -147 10
-266 10 l-216 1 -27 -37 -26 -38 259 -5 c286 -5 298 -8 271 -58 -11 -18 -51
-45 -125 -84 -114 -59 -151 -91 -139 -122 8 -20 43 -36 80 -36 22 0 23 -2 14
-20 -18 -33 -8 -73 20 -87 32 -16 596 -18 652 -3 21 6 58 26 83 45 46 36 61
43 50 25 -12 -20 8 -52 41 -66 20 -8 68 -14 121 -14 95 0 142 15 208 66 l35
26 0 -24 c0 -14 9 -33 21 -44 20 -18 44 -19 405 -22 438 -3 418 -6 493 81 101
119 113 130 122 116 13 -21 11 -75 -3 -87 -7 -6 -29 -13 -49 -17 -28 -5 -41
-15 -58 -45 -11 -21 -21 -40 -21 -44 0 -3 137 -6 304 -6 l304 0 31 42 c17 23
29 43 27 45 -2 3 -103 4 -225 3 -122 0 -221 1 -221 4 0 3 5 17 10 31 7 19 6
43 -5 85 -20 79 -19 94 11 129 l26 31 -59 -1 -58 -1 -120 -136 -121 -137 -87
-3 c-48 -1 -87 1 -87 5 0 4 34 30 76 57 99 65 126 114 84 156 -18 18 -33 20
-133 20 l-114 0 -46 -99 c-26 -54 -47 -106 -47 -115 0 -13 -11 -16 -55 -16
-30 0 -55 2 -55 5 0 2 23 52 50 111 28 59 50 108 50 110 0 2 -21 4 -47 4 l-48
0 -50 -111 c-27 -61 -55 -113 -61 -116 -6 -2 -40 -3 -76 -1 l-65 3 74 160 c41
88 85 184 98 213 l24 52 -48 0 -48 0 -43 -95z"/>
<path d="M266 1288 c-19 -40 -59 -127 -90 -192 -31 -65 -56 -121 -56 -123 0
-2 18 -3 41 -1 l40 3 90 189 c49 104 89 190 89 192 0 2 -18 4 -41 4 l-40 0
-33 -72z"/>
</g>
</svg>
