<?xml version="1.0" standalone="no"?>
<!DOCTYPE svg PUBLIC "-//W3C//DTD SVG 20010904//EN"
 "http://www.w3.org/TR/2001/REC-SVG-20010904/DTD/svg10.dtd">
<svg version="1.0" xmlns="http://www.w3.org/2000/svg"
 width="400.000000pt" height="335.000000pt" viewBox="0 0 400.000000 335.000000"
 preserveAspectRatio="xMidYMid meet">
<metadata>
Created by potrace 1.11, written by Peter Selinger 2001-2013
</metadata>
<g transform="translate(0.000000,335.000000) scale(0.100000,-0.100000)"
fill="#000000" stroke="none">
<path d="M1277 3214 c-131 -47 -266 -135 -363 -236 -116 -120 -143 -169 -166
-299 -11 -60 -18 -113 -15 -115 2 -3 150 -34 328 -69 178 -36 335 -67 348 -70
22 -6 23 -4 18 24 -4 19 -2 31 4 31 6 0 8 4 5 9 -3 5 1 14 9 21 10 9 15 9 15
1 0 -6 -3 -11 -7 -11 -5 0 -8 -15 -9 -33 0 -17 -4 -45 -8 -61 -7 -27 -8 -27
-26 -11 -10 9 -23 14 -29 11 -6 -4 -18 -2 -28 3 -28 14 -141 28 -158 18 -10
-5 -15 -4 -15 4 0 15 -84 5 -135 -17 -20 -8 -40 -12 -45 -9 -6 3 -7 -1 -4 -9
7 -17 -11 -22 -21 -6 -4 6 -65 10 -151 10 l-144 0 0 -42 c0 -24 8 -64 17 -90
15 -41 15 -57 5 -125 -7 -43 -26 -179 -42 -302 -17 -124 -32 -226 -34 -229 -6
-5 -139 -23 -201 -26 -28 -2 -64 -10 -80 -18 -17 -8 -43 -18 -60 -22 -29 -7
-102 -61 -138 -101 -56 -64 -72 -152 -40 -219 16 -35 62 -64 82 -52 12 8 47
-9 70 -31 8 -8 23 -12 36 -9 21 5 24 1 35 -58 15 -79 0 -214 -30 -283 -24 -54
-26 -99 -5 -107 9 -3 15 0 15 9 0 8 5 14 11 13 6 -2 14 3 16 10 3 7 1 12 -4
11 -17 -3 -33 1 -33 9 0 10 30 9 48 -1 8 -6 10 -3 6 7 -3 9 -16 16 -28 17 -19
1 -18 2 4 8 21 6 22 8 8 14 -18 6 -26 37 -10 37 5 0 17 7 28 16 19 15 18 15
-3 11 -27 -6 -28 -4 -6 18 14 14 14 18 2 27 -10 7 -5 8 16 4 21 -5 26 -4 16 3
-13 8 -13 12 -1 28 12 15 12 16 0 5 -21 -19 -32 -14 -20 9 9 15 8 24 -1 35 -6
8 -8 14 -3 14 5 0 10 12 11 26 0 15 7 30 15 35 10 7 10 9 0 9 -7 0 -11 4 -7 9
3 5 -3 12 -12 14 -17 4 -17 5 0 6 17 1 17 2 2 17 -11 11 -13 20 -6 27 15 15
-10 37 -31 26 -20 -11 -50 -1 -41 14 4 6 0 8 -10 4 -10 -3 -17 -2 -17 3 0 5 8
11 18 13 9 2 -4 3 -30 2 -26 -1 -45 1 -43 5 3 4 -2 13 -10 20 -13 11 -14 10
-9 -4 5 -12 0 -16 -17 -15 -13 0 -18 3 -11 6 6 2 12 9 12 14 0 6 -4 8 -9 4 -5
-3 -13 0 -17 6 -4 7 -3 9 4 5 17 -10 31 25 21 52 -8 20 -7 23 10 17 11 -3 23
0 27 6 4 8 3 9 -4 5 -7 -4 -20 -2 -29 3 -10 6 -12 11 -5 11 16 0 15 35 -2 49
-8 7 -13 20 -11 29 2 9 4 22 5 27 0 6 7 -1 14 -14 l14 -24 6 21 c8 23 21 29
29 12 3 -6 4 -5 3 2 -2 7 -14 12 -27 11 -13 -1 -18 1 -11 3 6 3 12 12 12 20 0
8 5 14 10 14 6 0 10 -5 10 -11 0 -6 10 -9 22 -7 18 2 23 9 22 30 -1 18 5 28
17 31 15 4 17 2 9 -13 -5 -9 -6 -20 -3 -24 3 -3 11 4 18 17 7 14 19 21 33 20
12 -2 22 2 22 7 0 6 7 10 15 10 7 0 19 8 24 18 10 16 10 16 11 -2 0 -15 3 -16
15 -6 8 7 31 10 50 8 25 -3 35 0 35 10 0 12 3 12 15 2 8 -7 15 -8 15 -3 0 5 9
9 19 10 14 1 18 -3 15 -15 -5 -15 -4 -16 8 -1 7 9 20 16 28 16 14 0 14 -10 4
-86 -7 -47 -13 -96 -13 -109 -1 -32 -21 -17 -21 16 0 37 -15 60 -24 37 -3 -10
-1 -23 5 -31 13 -16 3 -54 -16 -54 -7 0 -15 -7 -19 -15 -4 -12 -2 -13 14 -3
22 14 25 12 34 -19 5 -15 3 -23 -4 -23 -6 0 -9 4 -5 9 3 5 0 13 -6 17 -9 5
-10 -1 -5 -19 5 -22 3 -26 -11 -21 -15 5 -16 4 -3 -5 8 -6 23 -8 34 -5 12 4
16 2 12 -5 -4 -6 -3 -11 3 -11 5 0 13 -9 16 -21 4 -12 12 -18 21 -15 8 3 14 1
14 -4 0 -5 -6 -10 -12 -13 -7 -2 -1 -2 14 0 38 6 71 -6 64 -23 -3 -7 -1 -16 4
-19 6 -4 10 4 11 17 0 22 1 22 8 3 5 -11 6 -24 4 -30 -2 -5 3 -1 11 9 9 11 17
17 17 13 1 -4 2 -10 3 -14 1 -5 7 -17 14 -28 11 -19 12 -18 8 6 -3 17 1 26 10
26 7 0 11 -4 8 -8 -7 -12 37 -38 54 -32 10 4 13 2 8 -5 -4 -7 -1 -12 8 -12 19
0 21 -26 4 -33 -8 -3 -6 -6 5 -6 9 -1 17 4 17 9 0 6 8 10 18 10 13 0 14 2 4 9
-11 7 -10 10 3 15 24 9 27 8 19 -6 -4 -6 -3 -8 4 -4 6 3 18 -2 28 -11 13 -13
18 -15 22 -5 3 10 7 10 18 1 17 -14 18 -29 3 -29 -5 0 -7 5 -4 10 9 15 -7 12
-29 -5 -16 -12 -17 -18 -8 -27 9 -9 12 -8 12 5 0 10 5 14 15 11 8 -4 12 -10 9
-15 -3 -5 0 -9 5 -9 6 0 11 4 11 8 0 5 7 17 16 28 8 10 13 13 9 7 -3 -7 -9
-23 -11 -35 -3 -13 -8 -33 -11 -45 -3 -14 -1 -23 6 -23 7 0 9 5 6 10 -3 6 0
10 7 10 8 0 9 3 3 8 -7 4 -5 19 6 40 17 33 17 33 25 10 7 -22 7 -22 15 -3 4
11 8 15 8 9 1 -10 27 -22 48 -22 3 0 9 -6 14 -14 6 -10 11 -10 21 0 17 17 33
15 18 -3 -17 -21 -5 -31 16 -14 15 12 16 11 10 -9 -7 -20 -5 -21 18 -12 23 8
26 7 26 -12 0 -21 0 -21 15 -2 13 17 14 17 15 2 0 -10 5 -18 11 -18 5 0 8 4 4
9 -3 6 3 9 14 8 11 0 17 -6 14 -14 -3 -7 -4 -13 -2 -14 53 -9 89 -8 89 2 0 7
3 9 6 6 10 -9 -16 -38 -28 -31 -5 3 -14 2 -21 -4 -18 -13 -202 -72 -227 -72
-12 0 -35 9 -51 20 -59 43 -171 81 -249 86 -41 3 -81 1 -88 -4 -18 -12 -22
-44 -8 -61 9 -12 8 -13 -3 -6 -11 6 -13 3 -8 -16 4 -13 7 -32 7 -41 0 -10 4
-18 9 -18 4 0 7 12 5 28 -2 15 -1 19 2 10 3 -9 11 -15 17 -12 7 2 22 -5 34
-16 12 -11 26 -20 30 -20 13 0 57 -42 76 -72 10 -16 22 -28 28 -28 6 0 7 5 3
12 -4 6 -3 8 4 5 11 -8 -1 -55 -50 -197 -52 -150 -53 -153 -37 -188 14 -32 44
-47 32 -16 -4 11 -1 15 13 12 10 -2 19 2 19 9 0 22 12 23 29 4 14 -15 21 -17
31 -8 6 6 10 19 7 29 -2 10 1 32 8 49 10 24 18 30 36 26 13 -2 25 1 28 7 3 7
10 5 18 -6 13 -15 15 -15 26 3 7 10 8 19 3 19 -5 0 -11 -5 -13 -12 -3 -8 -6
-9 -11 -1 -3 5 1 19 9 29 9 10 13 13 9 6 -4 -7 0 -12 9 -12 9 0 16 5 16 10 0
6 5 10 10 10 6 0 9 -3 9 -8 -3 -19 2 -25 11 -12 8 13 10 12 10 -2 0 -10 6 -18
13 -18 18 0 33 -30 46 -91 14 -67 42 -115 81 -137 16 -9 32 -27 35 -39 3 -12
14 -27 25 -33 18 -10 22 -7 36 26 27 63 20 178 -15 288 -17 52 -31 102 -31
110 0 18 16 21 25 6 4 -7 13 -6 27 1 16 9 19 8 13 -2 -6 -9 -2 -11 13 -7 26 7
27 5 6 -16 -8 -9 -11 -16 -5 -16 5 0 18 -8 27 -17 17 -17 18 -17 11 0 -7 18 7
24 18 7 3 -5 12 -10 18 -10 7 0 6 4 -3 10 -13 8 -12 10 3 10 9 0 17 -4 17 -10
0 -5 6 -7 14 -4 15 6 40 -29 29 -40 -3 -3 3 -6 14 -6 11 0 23 -3 26 -6 4 -4
23 -8 44 -10 21 -2 39 -8 41 -14 4 -11 42 5 53 23 20 29 -80 155 -152 193 -17
8 -56 31 -86 51 -51 32 -53 36 -39 52 9 10 16 27 16 38 0 16 5 19 28 15 23 -3
30 2 44 32 17 35 17 35 -8 55 -23 18 -24 20 -5 18 12 -1 21 -7 21 -14 0 -7 3
-12 8 -12 20 3 32 -3 32 -17 0 -10 -6 -14 -15 -10 -8 3 -15 1 -15 -4 0 -13 16
-13 39 -1 13 7 17 5 17 -9 0 -13 -7 -17 -26 -14 -14 1 -19 1 -12 -2 10 -5 10
-9 0 -22 -12 -15 -11 -16 5 -3 16 13 20 13 28 0 6 -9 12 -10 17 -4 11 15 47
41 39 29 -3 -6 4 -16 18 -22 20 -9 23 -9 18 3 -3 8 -10 12 -17 8 -6 -3 -8 -2
-3 2 4 5 18 9 31 10 17 0 22 -4 18 -15 -4 -12 -2 -13 9 -3 7 7 20 13 29 13 13
0 13 -1 0 -10 -8 -5 -10 -10 -5 -10 6 0 16 5 23 12 6 6 32 11 56 11 25 0 43 4
40 9 -9 14 20 9 46 -9 14 -9 19 -10 13 -3 -20 22 -16 28 26 32 28 2 37 0 31
-8 -11 -12 38 -11 100 1 19 4 33 4 30 2 -3 -3 -18 -8 -34 -11 -34 -6 -46 -15
-23 -17 9 -1 23 -2 30 -3 7 -1 11 -11 9 -25 -3 -16 0 -21 8 -16 7 4 10 18 7
32 -3 18 -1 23 10 19 9 -4 17 1 20 14 3 11 10 20 15 20 5 0 6 -5 3 -10 -3 -6
-1 -10 4 -10 6 0 11 -6 11 -12 0 -9 19 -13 60 -13 57 0 75 7 48 18 -10 4 -10
6 -1 6 6 1 15 -3 18 -9 3 -5 11 -10 16 -10 6 0 7 5 4 10 -3 6 -1 10 4 10 6 0
11 -4 11 -10 0 -5 12 -10 26 -10 14 0 23 4 20 8 -7 12 45 13 60 1 10 -9 14 -9
14 0 0 6 5 11 11 11 6 0 9 -7 5 -15 -7 -19 -2 -19 34 0 40 21 38 31 -7 33 -21
1 -61 6 -88 10 -28 5 -63 5 -78 1 -15 -4 -29 -3 -32 1 -3 5 3 10 12 13 10 2 3
4 -14 4 -26 0 -31 -3 -22 -13 8 -10 6 -11 -15 -1 -18 9 -22 15 -14 24 14 17
-2 16 -26 -2 -11 -8 -27 -15 -35 -15 -12 1 -10 6 8 20 27 23 44 25 69 9 14 -9
26 -9 48 -1 27 11 27 11 -11 6 -30 -4 -36 -3 -25 5 11 8 4 11 -30 11 -26 0
-51 -5 -58 -12 -9 -9 -12 -8 -12 6 0 17 7 18 75 13 50 -4 73 -2 69 5 -4 7 0 7
13 0 11 -6 25 -7 33 -2 21 13 111 10 126 -4 6 -7 26 -38 43 -68 l32 -57 -44
-19 c-52 -23 -58 -30 -46 -57 8 -18 9 -17 5 4 -4 18 -2 21 7 12 13 -13 31 -15
23 -2 -3 5 6 12 21 16 17 4 29 2 31 -4 2 -6 9 -8 15 -4 19 12 37 12 37 0 0 -8
4 -7 12 1 15 15 32 16 23 2 -10 -16 52 -12 69 5 19 20 26 19 26 -2 0 -15 2
-15 9 -4 5 8 16 11 26 8 9 -4 13 -11 10 -17 -3 -5 -1 -10 4 -10 21 0 6 34 -18
41 -8 3 -15 17 -17 31 -2 22 2 27 27 30 16 3 29 1 29 -3 0 -12 31 -3 41 12 6
10 9 11 9 1 0 -10 5 -10 23 -1 19 11 20 10 10 -2 -8 -10 -9 -19 -2 -29 9 -13
10 -13 6 0 -4 15 19 39 38 40 6 0 4 -4 -3 -9 -10 -6 -7 -10 11 -13 20 -4 24
-1 19 11 -5 14 -4 14 14 0 10 -9 28 -15 39 -13 10 1 25 -2 32 -7 7 -6 18 -7
25 -3 10 6 10 5 1 -7 -9 -12 -5 -14 25 -14 21 -1 58 -4 85 -7 26 -3 50 -2 53
3 3 5 10 9 16 9 6 0 6 -6 -2 -15 -11 -14 -10 -14 14 -5 45 17 58 14 44 -11
-11 -17 -20 -19 -54 -14 -32 4 -46 1 -67 -15 -14 -11 -30 -19 -35 -18 -12 4
-82 -68 -110 -113 -34 -57 -112 -123 -177 -153 -88 -40 -89 -40 -96 -74 -4
-17 -3 -30 1 -27 10 6 80 -17 80 -26 0 -5 -12 -4 -26 1 -14 6 -39 10 -55 10
-16 0 -29 5 -29 10 0 6 -9 10 -21 10 -18 0 -19 -2 -5 -15 8 -9 13 -22 10 -29
-3 -8 -1 -17 5 -21 6 -3 11 -1 11 5 0 7 12 9 35 4 19 -3 43 -7 52 -8 10 0 21
-5 26 -11 4 -6 10 -5 16 3 7 11 12 12 29 1 11 -7 18 -18 15 -26 -4 -9 3 -12
26 -9 17 2 33 1 36 -2 3 -3 27 -5 53 -3 38 2 45 0 35 -10 -17 -17 -16 -26 1
-32 10 -4 12 0 9 14 -6 22 0 23 28 9 12 -7 19 -7 19 -1 0 5 -9 13 -20 16 -24
8 -16 28 8 23 10 -2 23 3 30 12 11 13 12 12 8 -5 -8 -28 9 -53 18 -29 6 16 8
16 16 4 8 -13 10 -12 10 3 0 20 -11 22 -29 5 -11 -11 -13 -10 -9 1 2 8 24 21
49 29 24 8 46 19 47 24 2 4 11 8 20 8 10 0 24 5 32 11 13 9 12 10 -3 5 -11 -3
-16 -2 -12 4 4 6 18 9 33 8 18 -2 27 2 27 12 0 10 9 14 29 12 16 -2 25 1 22 7
-4 5 -2 12 4 16 5 3 10 1 10 -4 0 -6 5 -11 11 -11 5 0 7 5 4 11 -4 6 2 5 13
-2 17 -10 23 -10 36 0 9 8 16 20 16 27 0 8 6 11 17 7 10 -4 14 -2 10 4 -9 15
29 23 44 9 9 -8 11 -7 6 5 -4 13 4 18 36 23 23 4 50 7 60 7 9 0 17 4 17 10 0
5 7 9 15 9 8 0 15 4 15 9 0 5 -9 7 -20 4 -12 -3 -20 0 -20 7 0 9 -4 9 -12 2
-9 -7 -17 -5 -28 6 -13 14 -12 15 2 9 9 -3 22 0 28 8 8 10 8 14 -2 18 -7 2 2
7 20 11 17 4 32 14 32 22 0 8 5 14 12 14 6 0 9 3 5 6 -7 8 -87 -27 -87 -38 0
-4 -4 -8 -8 -8 -5 0 -9 15 -10 34 -1 24 6 40 24 57 21 20 24 29 19 60 -5 27 0
47 18 82 14 25 22 48 20 51 -3 3 -22 -3 -42 -13 -20 -10 -42 -16 -49 -14 -7 3
-19 0 -26 -6 -7 -6 -20 -9 -29 -5 -8 3 -21 -1 -28 -9 -7 -8 -22 -12 -32 -9
-11 3 -29 -6 -47 -23 -31 -30 -55 -28 -99 6 l-24 19 44 1 c83 1 -7 19 -106 20
-76 1 -94 5 -124 25 -20 13 -41 24 -47 24 -9 0 -8 19 2 73 8 39 16 82 18 95
12 60 28 76 52 52 6 -6 10 -1 12 15 1 13 -3 27 -8 30 -6 3 -10 12 -10 18 0 7
5 4 11 -6 9 -15 13 -16 26 -5 14 11 15 10 8 -11 -5 -16 -4 -21 4 -17 6 4 11
14 11 23 0 12 7 9 25 -11 13 -14 29 -26 35 -26 5 0 10 -4 10 -10 0 -5 8 -10
18 -10 14 0 15 2 2 10 -13 8 -12 10 3 10 9 0 17 -5 17 -10 0 -7 8 -7 22 1 19
10 25 8 47 -18 14 -16 23 -24 19 -17 -4 6 -5 14 -1 17 9 10 65 8 59 -1 -3 -5
13 -8 34 -8 22 1 40 -2 40 -6 0 -5 -5 -8 -12 -8 -6 0 -9 -2 -7 -4 2 -3 29 4
58 14 l55 18 -57 6 c-31 3 -82 9 -113 12 -31 3 -106 23 -167 45 -62 21 -124
39 -139 39 -20 0 -28 5 -28 18 0 9 29 179 64 377 55 315 66 365 90 399 31 46
33 55 40 158 2 43 12 92 20 109 19 37 22 167 6 250 -21 113 -111 237 -205 284
-22 11 -42 23 -45 26 -15 21 -332 107 -400 110 -25 1 -63 5 -85 10 -310 67
-1124 249 -1233 275 -79 19 -145 34 -145 33 -1 0 -19 -7 -40 -15z m7 -69 c-6
-18 -6 -18 19 -2 33 21 36 21 32 0 -1 -10 -8 -17 -15 -15 -12 3 -88 -44 -162
-101 -21 -16 -42 -26 -47 -22 -6 3 -39 -31 -73 -76 -35 -45 -74 -93 -87 -108
l-23 -26 17 29 c9 16 12 25 6 22 -6 -4 -11 -1 -12 6 0 7 -7 -8 -16 -34 -9 -27
-20 -48 -24 -48 -12 0 -12 0 6 51 11 34 12 40 1 27 -7 -10 -19 -18 -26 -18
-16 0 25 46 54 62 16 9 18 8 12 -8 -6 -15 -5 -17 5 -6 10 9 10 15 1 24 -9 9
-22 2 -57 -32 -25 -24 -45 -49 -45 -56 0 -6 -6 -17 -14 -23 -11 -9 -13 -6 -12
18 1 33 33 74 49 64 5 -3 7 -2 4 4 -3 5 5 21 18 35 13 14 22 28 19 31 -3 3 0
8 7 13 8 5 10 3 4 -6 -5 -8 -3 -11 6 -8 8 3 14 10 14 17 0 15 99 107 137 127
17 9 55 22 86 30 56 15 85 31 78 43 -2 3 7 6 20 6 19 0 23 -4 18 -20z m251
-27 c22 -6 78 -19 125 -29 l85 -18 -85 4 c-83 4 -84 4 -25 -5 56 -9 212 -29
245 -31 8 0 44 -6 80 -11 48 -8 60 -13 45 -19 -30 -11 -87 -11 -80 1 3 6 2 10
-4 10 -5 0 -17 3 -27 7 -12 5 -15 3 -9 -6 5 -10 2 -11 -13 -7 -11 4 -23 3 -26
-2 -5 -9 51 -19 149 -27 41 -3 45 -2 20 5 -30 9 -30 9 5 6 19 -2 46 -7 60 -11
19 -5 22 -4 10 4 -13 10 -13 11 0 10 8 0 33 -6 55 -14 22 -8 50 -15 62 -15 45
0 124 -23 111 -32 -9 -6 -6 -7 8 -3 12 3 59 -4 105 -16 46 -11 96 -23 112 -26
15 -3 27 -10 27 -15 0 -5 10 -7 23 -3 21 6 21 5 4 -8 -10 -9 -34 -14 -55 -12
-33 2 -34 2 -7 -4 l30 -7 -25 -14 c-14 -8 -29 -13 -35 -11 -5 2 -164 36 -351
77 -188 40 -353 78 -365 83 -13 5 -53 14 -89 20 -122 20 -350 75 -342 83 8 8
110 46 127 47 6 1 28 -4 50 -11z m-121 -82 c140 -34 246 -57 506 -111 305 -63
563 -126 553 -135 -4 -4 -39 -33 -76 -64 -64 -54 -70 -57 -98 -47 -16 6 -36 8
-44 5 -8 -4 -15 -2 -15 4 0 5 -12 7 -27 5 -23 -4 -25 -2 -13 7 12 10 11 11 -7
7 -12 -3 -69 8 -127 23 -58 15 -107 25 -110 23 -5 -5 -255 45 -268 54 -14 8
-8 31 10 37 9 3 -28 4 -83 3 -55 0 -127 4 -160 11 -33 7 -120 25 -192 40 -73
15 -133 30 -133 33 0 3 21 21 48 39 26 19 49 37 52 40 6 7 73 50 79 50 2 0 49
-11 105 -24z m-99 -169 l140 -33 -2 -28 c-1 -16 3 -38 9 -50 10 -18 5 -25 -33
-58 -43 -37 -44 -37 -52 -16 -6 16 -3 26 8 34 14 10 14 15 3 33 -17 28 -1 54
38 62 28 6 27 7 -7 8 -20 0 -52 3 -70 6 l-34 5 33 -12 c34 -12 43 -28 15 -28
-15 0 -16 -2 -3 -10 12 -8 12 -10 -5 -10 -17 -1 -17 -3 5 -12 l25 -11 -23 -4
c-12 -3 -44 2 -70 11 -82 26 -209 56 -241 56 -35 0 -38 5 -17 26 9 9 26 12 48
9 l33 -5 -28 11 -28 11 23 25 c27 29 19 29 233 -20z m1385 -21 c-56 -13 -130
-41 -130 -50 0 -6 27 -1 54 10 12 4 17 4 13 -2 -3 -5 3 -10 14 -10 19 0 19 1
3 13 -14 10 -15 13 -3 14 8 0 23 3 34 6 11 3 40 5 64 5 25 0 38 3 31 8 -8 5
-9 9 -1 14 6 4 11 5 11 2 0 -2 3 -11 6 -20 4 -11 1 -16 -10 -16 -9 0 -24 -4
-34 -10 -22 -13 -101 -40 -127 -44 -11 -2 -24 -4 -28 -5 -5 0 -5 -6 -2 -11 4
-6 12 -7 18 -3 7 4 6 -1 -2 -11 -8 -9 -20 -15 -27 -12 -8 3 -13 2 -11 -3 1 -4
-22 -29 -52 -54 -29 -25 -59 -55 -65 -65 -25 -45 -102 -132 -121 -137 -22 -6
-107 16 -106 28 1 4 4 6 7 5 3 -2 12 11 19 27 32 73 161 203 191 191 6 -2 28
16 48 40 20 24 42 44 49 44 7 0 31 12 54 28 32 21 55 27 100 29 l58 2 -55 -13z
m326 -39 c4 -4 2 -13 -5 -20 -7 -7 -14 -8 -19 -2 -10 14 -35 12 -45 -2 -4 -7
-24 -13 -44 -13 -32 0 -34 2 -22 18 13 15 12 16 -3 3 -10 -7 -18 -20 -18 -27
0 -8 -6 -14 -14 -14 -7 0 -35 -11 -61 -26 -38 -20 -50 -22 -58 -12 -7 10 -8 9
-4 -3 3 -9 -4 -21 -15 -28 -54 -33 -87 -49 -92 -44 -3 4 -6 0 -6 -8 0 -9 -13
-25 -30 -37 -32 -24 -36 -22 -19 11 10 21 10 21 -5 3 -9 -11 -16 -25 -16 -31
0 -6 -12 -27 -26 -46 l-26 -34 6 30 c4 23 3 25 -4 10 -5 -11 -11 -31 -14 -45
-11 -51 -27 -62 -79 -53 l-47 8 35 44 c37 47 45 48 19 3 l-16 -27 19 25 c10
13 32 40 48 59 17 19 24 32 18 27 -25 -14 -13 0 18 23 29 21 30 22 20 3 -6
-12 -11 -27 -10 -34 0 -14 18 26 25 56 12 59 203 170 324 189 42 6 158 2 166
-6z m64 -7 c0 -5 12 -10 28 -10 21 0 24 -2 12 -10 -11 -7 -8 -10 16 -10 17 0
37 -7 44 -15 7 -8 19 -15 26 -15 8 0 22 -8 32 -17 9 -10 29 -26 44 -35 30 -20
81 -106 74 -125 -3 -7 0 -15 6 -19 7 -5 8 -2 3 7 -5 8 -4 11 1 6 5 -5 9 -12 9
-15 0 -4 3 -11 7 -17 3 -5 8 -28 9 -50 3 -31 1 -39 -11 -37 -11 3 -11 -1 3
-16 25 -27 22 -52 -5 -47 -21 4 -21 3 5 -21 15 -13 27 -27 27 -29 0 -3 -19 -5
-43 -5 l-43 0 0 55 c1 30 5 55 10 55 6 0 21 -10 35 -22 15 -14 10 -5 -12 23
-45 56 -47 67 -7 39 34 -24 37 -20 14 15 -9 14 -22 21 -30 18 -12 -5 -20 19
-15 50 0 4 -4 7 -9 7 -5 0 -10 5 -10 10 0 7 6 7 19 0 30 -15 20 20 -10 38 -24
14 -24 14 1 -7 29 -24 15 -29 -18 -6 -26 19 -28 69 -2 60 11 -5 12 -3 3 6 -13
13 -37 3 -28 -12 4 -5 2 -9 -4 -9 -6 0 -15 9 -21 21 -16 30 -45 56 -69 64 -12
3 -21 11 -21 16 0 5 -9 9 -19 9 -11 0 -23 5 -26 10 -3 6 -17 10 -31 10 -17 0
-23 4 -18 12 5 8 2 9 -9 5 -11 -4 -17 -1 -17 8 0 9 10 15 25 15 14 0 25 -4 25
-10z m-1900 -29 c36 -10 58 -21 50 -23 -8 -3 -2 -4 13 -2 15 2 25 0 22 -6 -3
-5 6 -8 19 -7 14 1 25 -2 25 -6 0 -5 11 -19 26 -33 14 -13 23 -24 19 -24 -11
0 -379 82 -382 85 -2 2 2 13 8 25 11 20 17 22 73 15 34 -3 91 -14 127 -24z
m-240 -41 c154 -35 363 -82 460 -102 52 -11 99 -23 103 -27 6 -6 -65 -59 -104
-79 -3 -1 -21 22 -40 52 -19 31 -38 56 -42 56 -10 0 8 -34 27 -50 22 -17 21
-22 -18 -62 l-34 -35 -98 18 c-77 15 -122 31 -206 74 -97 49 -116 55 -170 55
l-60 0 7 58 c4 31 9 60 11 64 6 9 58 2 164 -22z m972 6 c120 -24 300 -64 345
-78 l42 -13 -23 -28 c-22 -27 -24 -27 -52 -13 -46 24 -96 46 -105 46 -4 0 -20
5 -36 11 -22 8 -25 12 -13 21 12 8 10 8 -5 3 -11 -4 -31 -7 -45 -7 -14 0 11
-12 55 -27 156 -54 201 -80 143 -82 -18 0 -20 -2 -6 -7 14 -6 14 -10 -7 -37
l-24 -29 -90 23 c-50 13 -102 24 -116 24 -14 0 -25 2 -25 6 0 3 -26 7 -58 8
-31 1 -70 7 -87 13 -27 9 -26 10 13 5 26 -3 41 -2 38 4 -4 5 2 11 11 14 14 3
12 6 -9 15 -16 6 -28 16 -28 22 0 12 48 7 78 -9 13 -7 28 -10 35 -7 7 2 4 5
-5 5 -10 1 -18 6 -18 11 0 6 -9 10 -19 10 -22 0 -36 16 -22 25 10 6 142 -27
185 -46 14 -7 23 -15 21 -20 -3 -4 3 -5 13 -2 10 2 34 0 53 -5 l34 -10 -43 1
c-23 0 -44 -2 -47 -5 -3 -3 17 -6 44 -6 105 -3 63 24 -124 79 -60 17 -114 35
-120 39 -5 4 -19 10 -30 13 -18 4 -17 5 3 6 14 1 20 5 16 12 -3 6 -16 8 -28 5
-13 -3 -31 3 -46 15 l-25 21 27 -6 c15 -4 60 -13 100 -20z m-205 -110 c13 -27
22 -50 21 -51 -2 -1 -66 13 -143 31 -77 18 -150 33 -162 34 -30 0 -29 11 4 34
22 16 30 17 58 8 42 -16 40 -16 75 18 19 19 38 29 48 26 9 -3 24 -1 32 4 12 7
18 2 29 -23 8 -17 25 -54 38 -81z m1333 99 c14 -8 49 -26 78 -40 53 -26 69
-42 32 -32 -11 3 -18 1 -14 -4 3 -5 16 -9 29 -9 16 0 30 -11 44 -36 l22 -36
-68 7 c-37 4 -71 12 -74 17 -4 6 -18 8 -31 5 -13 -4 -49 -2 -79 3 -30 5 -103
17 -164 25 -60 9 -112 19 -114 21 -3 3 5 7 17 11 12 3 22 10 22 15 0 5 12 8
28 5 15 -2 21 -2 14 0 -7 3 -10 8 -7 13 3 5 18 2 33 -6 31 -16 172 -20 172 -4
0 6 -2 10 -4 10 -2 0 -13 3 -23 6 -15 5 -15 4 -3 -5 15 -10 -24 -8 -115 6
l-40 7 40 11 c49 14 121 3 187 -31 46 -23 121 -35 88 -14 -8 5 -23 7 -33 4
-11 -4 -17 -1 -15 8 2 8 -5 12 -20 11 -14 -2 -21 1 -17 7 4 6 3 10 -2 9 -4 -1
-15 1 -23 4 -8 4 -33 11 -55 16 l-40 9 55 1 c31 0 66 -6 80 -14z m-260 -115
c70 -8 209 -27 389 -54 70 -10 75 -13 82 -40 l8 -28 -62 6 c-43 5 -57 4 -47
-4 8 -5 36 -10 63 -10 47 0 47 0 47 -33 l0 -33 -122 17 c-154 21 -308 48 -319
55 -9 5 -13 44 -5 44 2 0 20 -7 39 -15 20 -8 44 -15 54 -14 10 0 0 6 -22 13
-22 7 -50 19 -63 27 -17 10 -25 11 -30 3 -4 -7 -18 -14 -32 -17 -25 -4 -25 -4
3 -6 29 -1 30 -2 22 -23 -5 -12 -22 -12 -113 3 -59 10 -113 18 -121 19 -13 0
14 28 80 83 23 18 41 25 54 21 11 -3 54 -9 95 -14z m-690 -130 c119 -28 219
-50 222 -50 3 0 0 -24 -8 -52 -7 -29 -14 -63 -14 -75 0 -31 -18 -29 -95 8 -43
20 -86 33 -127 36 -42 3 -75 13 -100 29 -20 13 -47 25 -60 28 -63 13 -89 15
-83 7 8 -14 -70 26 -83 42 -10 12 -7 23 14 54 l26 40 46 -9 c26 -4 144 -31
262 -58z m580 3 c77 -12 103 -19 80 -21 -19 -2 -39 -8 -45 -14 -7 -8 -4 -9 9
-4 10 3 26 1 34 -6 12 -10 14 -10 8 0 -4 7 -1 12 8 12 11 0 16 -10 16 -30 0
-29 -1 -30 -37 -24 -36 5 -62 7 -173 13 -39 3 -42 4 -20 11 19 7 13 8 -22 5
-33 -2 -48 1 -48 9 0 21 9 24 53 16 23 -5 60 -5 82 0 34 7 29 8 -37 9 -50 1
-78 5 -78 12 0 7 17 10 44 8 24 -2 42 -1 39 4 -2 4 -17 7 -34 7 -16 0 -29 5
-29 11 0 6 8 8 18 5 9 -2 69 -13 132 -23z m362 -53 c112 -17 210 -34 218 -37
9 -4 -3 -9 -30 -13 l-45 -7 43 -1 c35 -2 42 -5 42 -22 0 -14 -7 -20 -24 -20
-13 0 -77 9 -141 20 -64 11 -139 20 -165 20 -64 0 -100 14 -100 39 0 15 5 19
17 14 11 -4 14 -3 9 5 -4 7 -14 12 -22 12 -8 0 -14 5 -14 10 0 13 -22 15 212
-20z m-492 -51 c158 -23 148 -20 121 -30 -14 -6 -31 -7 -38 -4 -9 3 -11 0 -7
-7 5 -8 1 -9 -12 -5 -14 5 -12 2 6 -13 l25 -20 -31 9 c-29 8 -31 7 -28 -16 2
-23 0 -25 -32 -19 -23 5 -34 3 -34 -5 0 -7 -3 -9 -6 -6 -4 4 -1 14 6 22 10 12
11 18 1 28 -10 9 -11 8 -6 -5 5 -13 2 -18 -9 -18 -10 0 -13 -5 -9 -17 4 -11 3
-14 -5 -9 -7 4 -12 2 -12 -3 0 -12 -45 -14 -115 -5 l-47 7 7 46 c14 99 9 94
84 87 36 -3 100 -11 141 -17z m-1830 -8 c0 -5 19 -11 43 -15 52 -8 661 -128
665 -132 5 -3 -9 -69 -17 -83 -6 -8 -15 -9 -34 -2 -15 6 -68 17 -118 26 -51 9
-105 23 -121 31 -27 14 -174 34 -293 39 -27 1 -58 3 -67 4 -35 2 -68 44 -74
94 -5 32 -3 47 5 47 6 0 11 -4 11 -9z m2101 -48 c7 -16 14 -50 17 -77 l5 -49
-64 7 c-35 3 -101 9 -147 13 -81 6 -125 23 -60 23 35 0 128 51 128 69 0 15 51
40 83 41 21 0 30 -7 38 -27z m192 -4 c53 -7 97 -16 97 -21 0 -4 -4 -8 -9 -8
-5 0 -35 -25 -66 -55 -63 -63 -90 -70 -100 -26 -3 16 -19 50 -36 75 -35 56
-35 60 -6 53 12 -3 66 -11 120 -18z m-128 -53 c51 -88 50 -205 -5 -436 -46
-189 -68 -257 -116 -353 -37 -75 -44 -98 -44 -150 -1 -61 -1 -62 -16 -34 -33
60 -12 233 41 336 36 71 91 228 110 316 14 63 16 106 12 206 -4 69 -9 133 -13
142 -12 32 5 17 31 -27z m434 13 c41 -5 76 -10 77 -12 1 -1 -3 -35 -9 -75
l-12 -74 -80 7 c-86 7 -256 33 -264 40 -2 3 10 8 27 11 34 7 44 33 15 35 -14
0 -15 2 -3 6 8 3 18 11 22 17 5 8 8 7 8 -1 0 -7 10 -13 23 -12 19 0 20 1 4 8
-24 9 -23 23 2 33 12 4 21 14 21 22 0 17 -1 17 169 -5z m-2575 -83 c-3 -14 -1
-33 6 -43 10 -16 11 -14 7 10 -2 15 -1 27 3 27 10 0 20 -54 19 -99 l-2 -36 -7
35 c-6 28 -7 20 -8 -35 0 -38 2 -61 5 -50 8 38 45 125 53 125 4 0 4 -17 -1
-37 -4 -21 -13 -100 -19 -176 -6 -77 -15 -150 -21 -164 -5 -13 -7 -28 -5 -31
2 -4 -5 -56 -15 -117 -10 -60 -21 -137 -23 -170 -6 -72 -23 -195 -28 -200 -2
-3 -20 1 -40 7 -60 18 -63 34 -42 217 18 158 34 210 34 112 0 -28 5 -53 11
-57 14 -8 3 90 -13 123 -7 15 -7 31 1 54 6 17 11 49 11 70 0 52 37 300 50 333
5 15 10 47 10 70 0 38 6 56 17 56 2 0 1 -11 -3 -24z m987 -31 c91 -19 169 -35
173 -35 12 0 6 20 -6 20 -7 0 -22 7 -32 15 -16 12 -17 17 -6 30 18 22 49 18
59 -7 11 -32 7 -78 -8 -88 -10 -6 -10 -12 -1 -29 10 -20 9 -23 -9 -28 -12 -3
-21 -12 -21 -19 0 -8 -3 -14 -7 -14 -19 0 -331 65 -361 75 -10 4 -8 12 7 34
24 33 27 61 9 80 -11 10 -8 11 12 7 14 -3 100 -22 191 -41z m-691 1 c63 -14
196 -43 295 -65 99 -22 260 -56 358 -77 130 -27 177 -41 177 -52 0 -9 -6 -12
-15 -8 -40 16 -47 15 -16 -2 l34 -19 -29 -12 c-17 -6 -20 -10 -7 -7 16 3 22
-2 26 -23 3 -14 1 -28 -4 -29 -5 -2 -7 -7 -4 -12 3 -4 -35 -6 -83 -4 l-87 3
95 -12 c92 -12 95 -13 85 -33 -8 -16 -15 -19 -30 -13 -11 4 -29 7 -40 7 -11 0
2 -7 28 -15 40 -12 48 -18 44 -34 -3 -10 -1 -19 4 -19 5 0 9 -4 9 -9 0 -4 -20
-4 -45 2 -25 6 -45 14 -45 19 0 5 -8 7 -17 4 -10 -3 -67 5 -128 18 -104 23
-107 24 -56 25 86 2 53 11 -40 12 -81 1 -306 40 -341 59 -10 6 -29 10 -42 10
-14 0 -80 14 -148 30 -67 17 -132 31 -143 31 -14 1 -10 4 10 9 l30 8 -27 1
c-29 1 -34 14 -22 59 6 19 11 22 43 17 l36 -4 -38 10 c-32 10 -37 14 -31 33 4
11 8 23 10 25 2 3 39 -1 81 -7 42 -7 78 -10 81 -7 3 3 -6 5 -19 6 -22 0 -23 1
-4 9 14 6 1 9 -45 10 -36 1 -73 2 -82 1 -30 -3 -14 33 18 40 l29 7 -27 1 c-16
0 -28 7 -28 14 0 18 9 27 23 21 7 -2 64 -15 127 -28z m1103 -83 c58 -11 91
-22 97 -33 5 -9 4 -36 -2 -64 l-10 -48 -52 7 c-28 3 -95 16 -149 28 -92 21
-96 23 -80 40 13 12 14 20 6 28 -8 8 -6 19 6 41 18 33 14 33 184 1z m1227 -47
c-22 -67 -30 -70 -241 -74 -160 -4 -189 -7 -189 -19 0 -12 7 -14 30 -9 17 3
30 1 30 -4 0 -5 8 -6 18 -3 15 6 15 5 3 -10 -7 -9 -20 -17 -27 -17 -8 0 -14
-5 -14 -11 0 -6 -6 -9 -14 -6 -8 3 -22 -1 -33 -9 -17 -14 -16 -14 5 -4 16 8
22 8 22 0 0 -6 20 3 45 20 25 17 44 34 41 38 -2 4 33 8 78 9 55 2 76 0 66 -7
-8 -5 -39 -10 -69 -10 -74 0 -60 -9 17 -11 34 -1 62 -6 62 -12 0 -5 -10 -7
-23 -4 -12 4 -29 2 -37 -3 -11 -7 -6 -10 19 -10 26 0 32 -3 27 -16 -3 -9 -6
-19 -6 -24 0 -4 -10 -6 -22 -4 l-23 5 22 -10 c15 -7 20 -16 16 -30 -5 -19 -13
-21 -85 -21 -60 0 -78 3 -72 13 6 10 4 10 -7 0 -7 -7 -37 -13 -66 -13 -54 0
-60 6 -45 40 4 8 13 15 20 16 27 2 32 4 32 13 0 5 -10 7 -21 4 -19 -5 -21 -3
-16 23 3 16 11 61 17 99 7 39 14 76 16 83 2 9 41 12 146 13 79 1 175 4 213 8
39 3 71 3 73 -1 2 -4 -1 -23 -8 -42z m-657 5 c-2 -12 -9 -37 -17 -56 -13 -31
-19 -35 -50 -35 -32 0 -36 3 -36 25 0 31 -17 33 -22 3 -2 -17 -11 -24 -30 -26
-27 -3 -28 -1 -28 37 0 23 -4 41 -10 41 -5 0 -10 -17 -10 -39 l0 -38 -52 -7
c-29 -3 -70 -6 -91 -6 l-38 0 46 47 c25 26 45 53 45 60 0 15 37 18 180 17 111
-2 115 -3 113 -23z m-713 -81 c25 -6 55 -13 68 -15 13 -3 20 -10 17 -15 -3 -5
1 -12 9 -17 9 -5 12 -18 9 -35 -5 -26 -7 -27 -57 -23 l-51 4 48 -9 c55 -10 62
-14 52 -30 -5 -8 -24 -10 -54 -7 l-46 5 49 -11 c48 -11 48 -11 42 -45 -7 -45
-9 -46 -47 -33 -18 6 -49 11 -70 11 -32 0 -39 3 -39 20 0 25 33 27 90 4 23 -9
43 -14 46 -11 8 7 -86 37 -118 37 -30 0 -31 1 -22 24 4 11 15 14 37 11 22 -3
19 -1 -11 8 -33 9 -40 15 -31 24 7 7 26 10 43 7 l31 -4 -32 10 c-47 15 -50 30
-6 31 30 2 32 3 11 6 -16 2 -28 7 -28 11 0 4 -3 17 -6 30 -7 25 -1 26 66 12z
m1310 -45 c0 -13 -7 -58 -16 -98 -14 -63 -21 -77 -45 -91 -29 -17 -39 -49 -19
-61 6 -3 7 1 4 10 -4 10 2 24 15 37 26 24 37 18 22 -10 -6 -11 -8 -28 -5 -36
4 -11 0 -16 -11 -16 -13 0 -16 -6 -11 -25 8 -33 -4 -135 -17 -135 -5 0 -7 9
-4 20 3 11 1 20 -4 20 -5 0 -12 -12 -15 -27 -4 -16 -11 -34 -17 -40 -6 -9 -6
-13 2 -13 8 0 9 -5 2 -19 -6 -10 -8 -21 -5 -24 3 -3 -4 -10 -15 -17 -14 -7
-21 -7 -21 0 0 5 5 10 11 10 6 0 8 9 4 20 -3 11 -3 20 2 20 4 0 9 23 11 52 2
29 8 58 14 65 5 7 8 19 5 26 -3 7 3 13 13 14 15 1 17 -3 10 -28 -5 -17 -5 -29
1 -29 5 0 9 8 9 18 0 9 3 27 6 39 5 18 3 21 -16 16 -22 -6 -22 -5 -15 58 4 35
11 66 16 67 5 2 9 18 9 35 0 26 17 92 28 107 2 2 8 -2 13 -10 9 -13 10 -13 6
0 -3 9 1 24 9 34 7 11 11 23 8 27 -3 5 0 9 5 9 6 0 11 -11 11 -25z m-2330 -14
c133 -28 142 -31 80 -25 -92 9 -178 9 -173 1 3 -4 28 -7 56 -7 96 3 321 -29
502 -70 99 -22 187 -43 195 -47 8 -3 24 -6 35 -7 21 -2 180 -35 203 -42 11 -3
10 -7 -3 -20 -11 -11 -26 -15 -48 -11 -18 3 -26 3 -19 0 6 -2 10 -9 7 -14 -4
-5 7 -6 24 -3 23 5 32 2 37 -10 3 -9 14 -16 23 -16 12 0 13 -2 3 -9 -18 -11
23 -19 57 -11 19 4 15 7 -25 18 l-49 14 28 14 c15 8 25 19 22 24 -8 12 -7 12
57 -1 42 -9 49 -13 33 -20 -16 -6 -13 -8 15 -10 28 -2 24 -4 -20 -9 l-55 -7
53 -1 c55 -2 58 -5 42 -47 -7 -18 -15 -25 -25 -21 -8 3 -15 2 -15 -3 0 -5 10
-12 23 -16 41 -13 -48 -24 -223 -26 l-165 -3 170 -6 c94 -3 172 -2 173 3 2 4
15 7 28 7 17 0 24 -6 24 -20 0 -17 -7 -20 -42 -21 l-43 -2 35 -6 c31 -5 35 -9
36 -38 1 -33 -9 -43 -21 -22 -4 6 -14 8 -22 5 -14 -6 -312 51 -323 61 -3 3 29
2 70 -1 41 -3 86 -5 99 -5 14 -1 21 -4 17 -8 -4 -4 12 -13 36 -20 23 -6 44
-10 47 -8 2 3 -2 5 -10 5 -12 0 -11 2 1 11 12 8 12 10 -5 8 -11 -1 -33 4 -50
11 -18 8 -80 14 -155 16 -90 2 -154 9 -230 27 -58 14 -178 39 -267 57 -89 18
-160 37 -158 41 3 4 -4 5 -15 2 -11 -3 -20 -1 -20 5 0 5 -17 12 -37 15 -21 3
-47 8 -58 11 -83 19 -105 23 -110 18 -4 -4 -4 7 -1 23 2 17 5 40 5 53 1 18 7
22 39 24 l37 1 -38 4 c-34 4 -37 6 -31 30 7 25 9 46 12 106 2 22 6 27 20 23 9
-2 60 -14 112 -25z m1171 -4 c-5 -12 -5 -31 0 -42 7 -18 8 -17 8 7 1 43 10 56
33 50 22 -5 22 3 2 -172 -14 -132 -56 -408 -64 -425 -5 -11 -12 -31 -15 -45
-5 -20 -4 -22 5 -10 9 12 10 9 5 -15 -4 -16 -9 -55 -11 -85 -2 -30 -10 -91
-19 -135 -8 -44 -15 -93 -15 -108 0 -32 -23 -45 -45 -27 -12 10 -15 9 -15 -4
0 -9 -6 -16 -14 -16 -11 0 -14 11 -11 48 5 69 24 228 36 297 5 33 16 116 24
185 8 69 18 137 23 150 11 31 27 138 24 164 -3 22 25 194 34 207 11 18 23 -2
15 -24z m349 -2 c0 -19 -5 -35 -11 -35 -5 0 -7 -4 -4 -10 4 -6 -13 -11 -42
-12 l-48 -2 49 -3 c44 -4 48 -6 42 -26 -3 -12 -6 -25 -6 -28 0 -4 -18 -9 -39
-11 -22 -2 -37 0 -35 4 7 11 -4 10 -27 -2 -16 -9 -19 -7 -19 9 0 11 7 27 16
35 9 10 11 16 4 16 -14 0 -3 41 14 52 8 6 8 8 -1 8 -9 0 -11 15 -4 38 1 1 26
2 56 2 l55 0 0 -35z m-226 -7 c-4 -25 -3 -29 5 -18 6 8 11 23 11 33 0 12 8 17
30 17 28 0 29 -1 26 -42 -2 -24 -4 -58 -5 -77 -1 -24 -5 -32 -15 -28 -18 7
-25 -11 -15 -43 l7 -25 1 28 c1 15 5 27 10 27 9 0 6 -46 -6 -100 l-6 -25 -7
25 c-8 23 -8 23 -9 -7 -1 -18 -5 -33 -10 -33 -4 0 -24 -13 -42 -30 -19 -16
-36 -30 -39 -30 -3 0 -4 -18 -2 -40 4 -35 2 -39 -13 -34 -19 8 -18 25 16 249
29 187 28 185 50 185 15 0 18 -5 13 -32z m856 -139 c0 -8 5 -8 16 2 15 12 16
9 10 -26 -3 -22 -5 -41 -6 -41 0 -1 -18 -14 -40 -29 -46 -32 -47 -38 -4 -26
16 5 22 10 14 10 -13 1 -13 2 0 11 24 15 27 12 22 -21 -2 -17 -12 -33 -21 -37
-9 -3 -25 -14 -35 -24 -13 -11 -35 -18 -60 -18 -38 1 -40 2 -22 15 11 8 15 15
9 15 -7 0 -19 -7 -28 -17 -14 -14 -18 -14 -26 -2 -5 8 -9 10 -10 4 0 -5 -4 -1
-8 9 -8 22 14 56 36 56 7 0 13 5 13 10 0 12 -35 -4 -45 -20 -11 -18 -25 -11
-45 23 -24 39 -25 47 -4 47 8 0 12 5 9 10 -4 7 3 9 22 5 23 -4 24 -4 8 4 -11
5 -15 10 -9 10 7 1 15 9 18 18 6 15 5 16 -11 1 -10 -9 -29 -19 -42 -23 -20 -6
-23 -4 -18 10 4 9 7 20 7 23 0 4 56 9 125 10 91 2 125 0 125 -9z m-697 -12
c-4 -6 3 -8 15 -5 25 7 25 7 12 -26 -5 -14 -17 -26 -27 -27 -16 0 -16 -2 2
-10 14 -6 8 -8 -25 -4 -43 4 -44 4 -11 -6 39 -12 35 -19 -16 -29 l-38 -8 33
-1 c20 -1 44 7 59 19 15 11 29 17 32 14 3 -4 0 -9 -8 -12 -11 -3 -11 -6 0 -12
19 -12 20 -40 1 -40 -11 0 -13 -3 -6 -8 7 -4 8 -15 3 -29 -7 -21 -15 -23 -73
-23 -64 0 -65 1 -57 23 7 18 18 23 62 28 52 5 52 6 14 9 l-40 3 50 7 50 7 -62
1 c-56 2 -63 4 -63 22 0 11 6 20 13 20 8 0 7 3 -3 10 -16 10 -8 15 40 23 20 4
19 5 -7 6 -48 2 -42 45 7 53 41 6 49 5 43 -5z m108 -145 c-35 -137 -24 -268
39 -439 16 -45 32 -104 36 -133 4 -28 15 -61 26 -73 18 -20 19 -20 12 -2 -5
11 -7 57 -6 102 4 97 -6 135 -64 265 -45 100 -56 171 -34 223 l8 20 7 -20 c19
-56 62 -147 95 -205 21 -36 48 -98 60 -139 21 -68 22 -80 11 -172 -13 -120
-13 -129 -2 -129 5 0 18 26 29 58 11 31 35 95 52 142 41 110 66 192 80 257 13
61 0 148 -31 201 -22 38 -23 47 -6 86 l13 29 30 -59 c56 -106 67 -220 33 -329
-22 -74 -86 -233 -99 -250 -27 -34 -63 -122 -86 -212 -4 -14 -72 -18 -90 -5
-6 4 -19 30 -28 59 -10 28 -30 68 -47 89 -16 20 -29 43 -29 50 0 8 -21 56 -47
106 l-48 93 1 120 c0 136 18 221 68 327 39 83 46 57 17 -60z m-1581 18 c115
-23 882 -189 998 -216 60 -13 72 -20 72 -36 0 -15 -4 -18 -17 -13 -40 16 -55
15 -20 -2 40 -19 48 -33 20 -33 -15 0 -16 -2 -3 -10 32 -20 -3 -21 -96 -1 -54
12 -99 19 -102 17 -2 -2 23 -10 55 -16 32 -7 68 -16 81 -21 13 -5 34 -9 47 -9
27 0 28 -3 19 -37 -5 -18 -12 -21 -38 -18 l-31 5 33 -10 c39 -13 43 -33 5 -25
-26 5 -26 5 -5 -4 36 -17 27 -37 -15 -35 l-38 3 35 -7 c19 -4 36 -14 38 -22 2
-13 -12 -16 -95 -14 -54 0 -71 0 -38 -2 100 -6 125 -13 125 -33 0 -17 -21 -14
-252 33 -219 44 -246 52 -208 57 l45 6 -56 1 c-56 2 -226 34 -272 51 -14 6
-35 7 -47 4 -15 -4 -21 -2 -16 5 7 11 -31 28 -41 18 -4 -3 2 -6 12 -6 10 0 16
-3 13 -6 -4 -3 -46 3 -94 13 -73 15 -83 19 -59 24 27 6 26 7 -11 8 -82 2 -224
36 -224 53 0 7 30 9 91 6 56 -3 82 -1 69 4 -13 5 -54 9 -92 9 l-69 1 6 41 c4
23 8 43 9 44 5 6 307 -61 376 -83 41 -13 76 -21 78 -19 8 8 -162 55 -304 85
-144 30 -162 35 -153 45 4 3 101 -11 196 -30 26 -5 26 -5 5 5 -13 5 -53 15
-90 20 -100 16 -102 17 -102 53 0 18 3 42 6 55 6 21 11 23 63 18 l56 -5 -57
11 c-48 8 -58 14 -58 30 0 16 5 19 23 15 12 -3 69 -15 127 -27z m1356 -12 c-3
-13 -6 -29 -6 -35 0 -7 -7 -13 -15 -13 -8 0 -15 -6 -15 -12 0 -9 -4 -8 -10 2
-6 9 -10 10 -10 3 0 -6 -3 -20 -7 -30 -6 -16 -5 -16 10 -4 14 11 17 11 18 0 0
-8 5 -3 10 10 5 13 11 22 14 19 5 -5 -43 -376 -52 -398 -4 -10 -9 -3 -14 20
-4 19 -4 39 0 45 12 15 20 65 10 59 -5 -3 -9 -16 -9 -30 0 -16 -8 -28 -25 -36
-14 -6 -25 -15 -25 -20 0 -4 -4 -8 -10 -8 -15 0 -12 27 4 33 10 4 14 32 15
119 2 128 7 158 27 158 10 0 14 13 14 44 0 36 5 47 32 70 39 32 52 33 44 4z
m784 -218 c0 -6 -10 -15 -22 -19 -19 -7 -20 -10 -7 -15 9 -4 15 -16 13 -29 -1
-12 -3 -26 -3 -31 -1 -4 -13 -6 -28 -3 -31 6 -112 -31 -92 -43 6 -4 27 -2 45
6 18 8 44 14 56 13 13 0 18 -3 12 -5 -7 -3 -10 -14 -7 -24 4 -16 0 -20 -18
-21 -17 -1 -19 -3 -6 -6 9 -2 17 -12 17 -21 0 -15 -2 -15 -10 -2 -7 12 -12 12
-22 2 -6 -6 -28 -12 -47 -11 l-36 1 28 11 c15 6 27 15 27 19 0 5 12 13 26 19
15 5 24 12 21 15 -3 4 -27 -5 -53 -20 -52 -29 -84 -35 -65 -12 7 8 14 24 16
36 2 13 6 23 7 24 2 0 12 7 23 14 11 7 37 20 58 29 20 9 37 19 37 24 0 9 -39
-1 -46 -12 -3 -5 -14 -9 -25 -9 -11 0 -17 -4 -14 -10 3 -5 4 -10 1 -10 -2 0
-11 -3 -19 -6 -12 -4 -14 0 -10 15 4 15 13 21 32 21 17 0 22 3 13 8 -9 6 0 14
28 28 22 10 40 22 40 27 0 4 7 7 15 7 8 0 15 -5 15 -10z m108 -45 c1 -13 -2
-26 -7 -29 -4 -3 -6 -17 -3 -31 3 -18 0 -25 -11 -25 -23 0 -27 -10 -33 -87 -3
-37 -7 -74 -10 -82 -3 -9 1 -11 13 -7 16 5 16 4 -1 -8 -10 -8 -22 -33 -26 -55
-6 -33 -5 -38 9 -34 9 3 5 -5 -9 -17 -17 -15 -19 -20 -7 -16 11 3 17 0 17 -9
0 -8 -3 -14 -7 -13 -5 1 -18 -3 -30 -10 -12 -7 -24 -8 -27 -3 -3 5 3 11 13 14
13 3 17 11 14 28 -2 13 3 46 11 72 9 30 10 47 4 45 -6 -2 -12 -18 -14 -34 -2
-17 -8 -42 -14 -55 -10 -24 -10 -11 4 76 2 11 7 41 11 68 4 26 13 47 19 47 7
0 17 21 22 48 7 36 13 47 27 46 9 -1 17 4 17 12 0 18 -10 18 -39 -3 l-24 -16
8 39 c6 36 19 53 38 54 13 0 7 -18 -8 -24 -8 -3 -15 -13 -14 -23 0 -16 1 -16
9 2 5 11 9 16 9 11 1 -5 7 -3 15 4 8 6 12 18 9 26 -3 8 -1 14 4 14 5 0 10 -11
11 -25z m-790 -10 c-2 -11 -10 -23 -18 -27 -11 -5 -9 -7 8 -7 15 -1 22 -7 22
-21 0 -21 -15 -27 -25 -10 -3 6 -27 10 -52 10 -40 0 -45 -2 -40 -19 3 -13 -1
-21 -12 -24 -9 -2 -1 -4 17 -4 23 0 29 3 20 9 -9 7 -5 8 12 4 14 -3 31 -6 38
-6 7 0 10 -4 7 -10 -4 -6 5 -10 20 -10 20 0 26 -4 21 -15 -3 -8 -1 -15 4 -15
6 0 10 -5 10 -11 0 -7 -26 -9 -73 -8 -40 2 -78 0 -85 -5 -7 -4 -12 -1 -12 8 0
9 8 17 18 17 15 1 15 2 -1 6 -15 4 -18 11 -12 31 3 15 7 45 9 67 2 22 4 46 5
53 1 10 17 12 61 10 54 -2 60 -5 58 -23z m-1243 -115 c154 -33 294 -65 310
-71 17 -6 64 -17 105 -24 41 -8 104 -20 140 -28 l65 -15 -65 -2 c-50 -3 -38
-5 55 -10 66 -4 138 -12 161 -18 36 -11 41 -15 36 -37 -4 -21 -9 -24 -31 -20
-24 5 -25 5 -3 -4 12 -6 22 -19 22 -31 0 -18 -5 -20 -37 -16 l-38 5 40 -11 40
-11 -35 -14 c-27 -10 -29 -12 -7 -8 22 4 27 2 27 -14 0 -16 -10 -21 -56 -27
-35 -4 -71 -2 -95 5 -22 7 -44 9 -49 6 -6 -4 -20 -3 -31 0 -17 6 -19 9 -8 16
10 6 7 9 -12 9 -15 0 -32 7 -39 15 -7 8 -30 18 -52 21 -22 4 -45 13 -53 20 -7
8 -20 14 -27 14 -7 0 -23 7 -36 15 -12 9 -77 27 -144 40 -241 48 -320 71 -296
86 8 6 1 9 -21 9 -49 0 -205 51 -189 61 9 6 7 9 -8 9 -12 0 -37 7 -55 15 -32
15 -32 16 -5 10 89 -19 107 -15 29 5 -32 8 -43 16 -43 30 0 12 7 20 18 21 16
1 16 2 0 6 -10 2 -18 10 -18 17 0 11 12 11 63 0 34 -8 188 -41 342 -74z m1209
-80 c-5 -5 -16 -10 -24 -12 -16 -3 -40 -23 -40 -33 0 -3 14 2 32 11 26 13 77
20 120 15 17 -2 -28 -41 -47 -41 -11 0 -27 -5 -35 -10 -11 -8 -5 -9 20 -5 19
4 42 13 51 21 22 20 32 18 19 -5 -5 -11 -26 -25 -45 -32 -19 -7 -35 -17 -35
-21 0 -5 13 -2 30 7 16 8 36 15 45 15 9 0 13 5 10 10 -9 14 11 12 23 -2 5 -7
12 -29 16 -48 5 -28 4 -31 -4 -12 -5 12 -15 22 -22 22 -9 0 -9 3 2 10 8 5 10
10 5 10 -6 0 -19 -6 -30 -14 -11 -7 -49 -16 -85 -19 -62 -5 -64 -5 -35 9 l30
15 -30 -6 c-16 -4 -32 -10 -35 -14 -6 -8 -57 -41 -65 -41 -3 0 -5 7 -5 15 0 8
7 15 15 15 8 0 15 5 15 10 0 6 21 20 46 31 26 11 45 22 42 24 -3 3 -26 -4 -52
-16 -26 -11 -52 -18 -59 -16 -7 3 3 10 21 17 17 7 32 16 32 21 0 12 -7 11 -32
-2 -19 -10 -20 -9 -13 22 10 46 23 56 79 57 28 0 45 -3 40 -8z m-1392 -242
c48 -17 93 -37 99 -44 10 -12 8 -13 -7 -8 -10 3 -5 -3 11 -14 17 -11 45 -36
64 -55 42 -45 39 -55 -44 -127 -78 -67 -94 -96 -21 -36 31 25 70 53 87 61 28
15 33 15 56 0 28 -19 53 -70 54 -112 0 -15 5 -37 10 -48 9 -18 7 11 -6 137 -2
16 3 29 11 32 18 7 172 -12 195 -25 10 -5 24 -9 31 -9 27 1 -40 28 -112 45
-116 27 -122 30 -114 62 9 37 19 48 54 63 17 7 30 16 30 21 0 11 -63 -16 -111
-48 -44 -29 -85 -26 -115 9 -11 12 -13 18 -6 14 8 -5 48 5 95 22 93 35 203 62
251 62 38 0 70 -29 60 -54 -7 -19 -16 -20 -32 -4 -16 16 -45 -9 -39 -34 3 -10
-3 -28 -14 -41 -18 -24 -18 -24 9 -49 15 -14 51 -39 80 -56 68 -38 152 -110
175 -151 l18 -31 -37 25 c-20 14 -44 25 -53 25 -9 0 1 -11 22 -26 21 -14 36
-28 34 -30 -12 -12 -64 13 -109 52 -27 24 -54 44 -62 44 -7 0 -23 11 -36 25
-31 33 -82 42 -115 21 -23 -15 -25 -15 -25 -1 0 9 -4 13 -10 10 -17 -11 -11
-47 25 -155 28 -84 35 -120 36 -188 1 -93 -14 -130 -25 -60 -7 45 -46 161 -52
155 -2 -2 5 -39 16 -82 11 -43 20 -82 20 -87 0 -4 -18 5 -40 20 -41 29 -63 69
-75 141 -5 31 -19 56 -48 88 -55 59 -80 64 -122 23 -28 -27 -39 -32 -64 -27
-29 6 -33 3 -66 -48 -19 -30 -39 -55 -45 -55 -13 0 -13 -3 10 65 27 79 19 81
-13 3 -14 -35 -26 -56 -27 -47 0 9 11 42 25 73 13 30 36 95 50 143 14 49 28
95 31 104 3 9 -2 23 -11 30 -10 8 -33 29 -52 47 -19 17 -50 39 -69 48 -43 20
-84 59 -84 79 0 22 77 20 123 -5 20 -11 37 -16 37 -12 0 10 -48 35 -95 51 -28
10 -27 10 10 5 22 -3 79 -19 127 -36z m2388 -160 c0 -5 11 -20 25 -34 14 -14
32 -39 41 -56 9 -16 24 -33 35 -35 10 -3 19 -10 19 -15 0 -18 54 -58 79 -58
40 0 72 -11 68 -23 -5 -16 -60 -29 -68 -15 -4 6 -20 8 -43 4 -29 -6 -35 -4
-30 8 4 11 0 13 -18 9 -16 -3 -19 -2 -10 4 7 6 10 17 6 27 -5 13 -14 17 -35
12 -25 -5 -27 -3 -26 22 1 15 7 30 12 34 6 4 -1 8 -14 8 -20 0 -22 -3 -13 -12
21 -21 13 -27 -19 -15 -26 10 -30 16 -25 40 4 19 2 27 -7 26 -35 -4 -57 22
-38 45 13 16 -28 19 -46 4 -22 -18 -15 -39 17 -51 16 -6 29 -16 28 -22 -4 -16
33 -65 47 -65 8 0 16 -9 20 -19 6 -21 38 -36 55 -26 5 3 10 0 10 -8 0 -25 35
-48 70 -45 18 2 35 -2 37 -8 5 -14 -38 -31 -95 -37 -39 -5 -43 -3 -39 13 4 14
-2 20 -24 25 -16 4 -29 11 -29 16 0 6 4 7 10 4 6 -3 7 1 4 10 -5 11 -14 15
-27 11 -13 -3 -26 2 -33 12 -11 13 -13 14 -14 3 0 -11 -4 -9 -15 5 -13 16 -14
16 -9 2 7 -21 -16 -24 -48 -7 -11 6 -18 7 -15 2 3 -5 -7 -17 -24 -27 -26 -15
-30 -16 -35 -2 -3 9 -11 16 -17 16 -7 0 -7 -4 1 -12 18 -18 15 -27 -8 -21 -12
3 -20 0 -20 -7 0 -10 -3 -10 -14 -1 -11 10 -16 8 -21 -9 -3 -11 -11 -18 -16
-15 -5 4 -9 0 -9 -7 -1 -16 -76 -52 -95 -44 -8 3 -17 1 -20 -3 -9 -15 -55 -18
-72 -5 -16 12 -16 14 2 14 3 0 15 10 27 22 14 14 23 18 26 10 2 -7 8 -12 13
-12 6 0 8 4 5 9 -6 9 36 31 61 31 9 0 14 3 10 6 -9 10 21 36 33 29 6 -4 9 -3
8 2 -2 4 10 25 26 46 21 27 35 37 48 34 14 -4 16 -2 9 6 -6 8 -4 19 5 32 13
17 16 18 24 5 5 -8 12 -11 17 -6 4 4 0 12 -10 18 -18 9 -18 11 2 25 12 8 21
22 22 31 0 10 3 12 6 5 7 -18 40 1 48 27 6 17 14 20 66 19 32 -1 59 -6 59 -11z
m-104 -331 c-3 -13 2 -21 15 -24 24 -7 25 -29 2 -38 -10 -4 -42 -10 -70 -15
-29 -5 -68 -16 -87 -25 -42 -20 -117 -12 -142 16 -9 10 -24 19 -33 19 -9 1 0
9 19 20 19 10 44 17 55 15 11 -3 14 -2 8 1 -10 4 -10 9 1 19 9 10 26 12 50 8
25 -4 52 1 92 17 47 19 57 21 65 9 8 -12 10 -12 8 1 -3 34 3 44 12 20 6 -14 8
-33 5 -43z"/>
</g>
</svg>
