<?xml version="1.0" standalone="no"?>
<!DOCTYPE svg PUBLIC "-//W3C//DTD SVG 20010904//EN"
 "http://www.w3.org/TR/2001/REC-SVG-20010904/DTD/svg10.dtd">
<svg version="1.0" xmlns="http://www.w3.org/2000/svg"
 width="450.000000pt" height="402.000000pt" viewBox="0 0 450.000000 402.000000"
 preserveAspectRatio="xMidYMid meet">
<metadata>
Created by potrace 1.11, written by Peter Selinger 2001-2013
</metadata>
<g transform="translate(0.000000,402.000000) scale(0.100000,-0.100000)"
fill="#000000" stroke="none">
<path d="M10 1935 l0 -1725 2228 2 c1476 2 2227 6 2227 13 0 7 -747 11 -2217
13 l-2218 2 3 328 2 327 87 3 c49 1 88 7 88 12 0 5 -39 11 -88 12 l-87 3 -2
327 -3 327 88 3 c114 4 114 22 0 26 l-88 3 3 327 2 327 88 3 c48 1 87 7 87 12
0 5 -39 11 -87 12 l-88 3 -2 328 -3 327 91 0 c68 0 90 3 87 13 -3 8 -33 13
-91 15 l-87 3 3 327 2 327 88 3 c121 4 111 22 -13 22 l-100 0 0 -1725z"/>
<path d="M2590 2669 c-19 -27 -47 -66 -62 -87 -15 -20 -27 -49 -28 -63 0 -25
-3 -27 -62 -31 -35 -3 -101 -15 -147 -28 -100 -27 -159 -71 -239 -176 -172
-227 -192 -242 -333 -249 -65 -4 -111 -12 -147 -27 -52 -22 -54 -22 -118 -5
-112 30 -183 33 -237 9 -65 -29 -86 -76 -87 -191 l0 -84 -45 -46 c-25 -25 -56
-62 -68 -81 -17 -27 -33 -37 -65 -44 -23 -6 -42 -13 -42 -17 0 -16 24 -21 92
-21 124 1 142 29 152 230 6 131 18 185 48 210 9 7 44 13 80 13 51 1 75 -4 119
-26 90 -45 91 -47 63 -110 -33 -71 -40 -139 -21 -190 8 -22 20 -56 27 -75 7
-19 16 -42 21 -52 6 -11 0 -24 -17 -44 -20 -21 -24 -33 -19 -53 9 -33 8 -99
-1 -178 -6 -52 -4 -64 12 -81 40 -42 94 -54 128 -29 17 13 16 15 -12 43 -45
46 -63 89 -69 169 l-6 72 44 7 c24 4 54 16 66 27 l21 21 17 -26 c10 -15 21
-41 24 -59 7 -34 4 -34 149 -37 16 0 22 -6 22 -23 0 -14 13 -31 35 -45 28 -19
42 -23 74 -17 21 3 47 12 57 19 16 12 14 15 -22 40 -21 14 -43 26 -47 26 -5 0
-20 9 -33 19 -16 12 -49 22 -92 26 -37 4 -71 10 -75 12 -4 3 1 19 13 37 11 19
20 49 20 68 0 32 4 37 43 51 24 9 86 17 147 19 91 4 113 8 161 32 31 16 79 48
106 71 l49 43 80 -5 c77 -5 80 -4 118 26 31 25 48 31 86 31 41 0 48 -3 59 -27
11 -23 10 -29 -4 -39 -9 -7 -16 -16 -16 -21 0 -4 -2 -18 -5 -30 -3 -12 -3 -31
1 -42 7 -24 53 -81 65 -81 8 0 25 67 21 84 -1 4 3 23 9 41 10 29 8 40 -15 85
-14 28 -24 54 -21 59 3 4 24 13 48 20 24 8 67 23 97 34 l54 21 16 -21 c20 -24
66 -34 100 -21 27 10 71 46 71 59 0 21 -140 35 -196 20 -30 -8 -44 -7 -68 4
-16 8 -35 15 -43 15 -8 0 -32 9 -53 20 -68 35 -109 157 -69 206 6 8 19 14 27
14 9 0 62 47 119 105 123 126 149 164 98 145 l-25 -10 21 29 c36 49 24 64 -62
78 -42 6 -90 18 -107 27 l-30 16 14 47 c19 64 9 91 -15 38 -18 -40 -47 -72
-56 -63 -3 3 2 22 10 42 9 21 15 46 13 56 -2 14 -12 6 -38 -31z"/>
</g>
</svg>
