<?xml version="1.0" standalone="no"?>
<!DOCTYPE svg PUBLIC "-//W3C//DTD SVG 20010904//EN"
 "http://www.w3.org/TR/2001/REC-SVG-20010904/DTD/svg10.dtd">
<svg version="1.0" xmlns="http://www.w3.org/2000/svg"
 width="250.000000pt" height="291.000000pt" viewBox="0 0 250.000000 291.000000"
 preserveAspectRatio="xMidYMid meet">
<metadata>
Created by potrace 1.11, written by Peter Selinger 2001-2013
</metadata>
<g transform="translate(0.000000,291.000000) scale(0.100000,-0.100000)"
fill="#000000" stroke="none">
<path d="M1144 2901 c3 -4 -7 -6 -22 -5 -22 1 -65 -7 -167 -31 -44 -10 -135
-48 -135 -56 0 -5 -7 -6 -15 -3 -8 4 -15 1 -15 -7 0 -7 -3 -9 -6 -6 -4 3 -32
-7 -63 -23 -54 -29 -60 -30 -198 -30 -149 0 -215 -14 -227 -47 -4 -8 -1 -33 5
-55 16 -59 8 -68 -56 -68 -40 0 -57 -4 -61 -15 -3 -8 4 -72 15 -142 20 -118
24 -196 10 -188 -10 7 -61 -113 -53 -126 4 -7 3 -10 -3 -6 -11 7 -46 -71 -37
-84 3 -5 1 -9 -3 -9 -12 0 -46 -127 -37 -141 4 -7 3 -10 -3 -6 -13 8 -36 -105
-37 -179 -1 -29 -5 -50 -9 -47 -11 7 -7 -300 4 -367 6 -30 12 -66 14 -80 6
-40 12 -73 20 -105 12 -50 55 -187 63 -199 3 -6 7 -17 8 -25 4 -26 84 -182
127 -249 24 -37 65 -93 90 -124 40 -49 47 -64 47 -102 0 -57 15 -72 88 -86 73
-15 97 -31 122 -80 18 -35 24 -40 56 -40 23 0 72 -17 129 -45 140 -67 262 -96
425 -101 198 -5 324 21 495 102 l90 42 186 10 c102 6 197 16 212 23 l26 12 -2
181 -2 181 27 42 c15 23 29 48 30 55 2 7 6 15 9 18 32 25 155 356 146 391 -3
10 -2 17 2 14 9 -5 30 106 41 218 9 97 4 305 -11 397 -23 147 -58 269 -116
408 l-35 82 22 123 c33 187 39 166 -65 202 l-90 30 -3 40 c-1 22 -6 47 -9 55
-3 8 -5 20 -4 26 5 33 -70 53 -214 57 -115 4 -122 5 -175 37 -30 18 -59 33
-65 34 -5 1 -20 7 -31 14 -12 6 -24 8 -28 5 -3 -3 -6 -2 -6 4 0 13 -117 46
-132 37 -6 -4 -8 -3 -5 3 11 17 -114 36 -250 39 -68 1 -121 -1 -119 -5z m266
-34 c0 -4 3 -6 8 -3 6 4 38 -1 122 -20 14 -3 36 -12 48 -20 13 -9 26 -13 29
-10 4 3 12 1 19 -4 6 -6 16 -10 20 -8 5 1 21 -6 36 -16 15 -10 31 -15 36 -12
5 3 9 -1 9 -9 0 -14 2 -14 -302 -33 -118 -7 -142 -6 -151 6 -9 12 -55 15 -267
16 -142 1 -257 4 -257 9 0 4 3 6 8 5 4 -1 29 8 56 20 27 12 53 22 58 22 5 0 7
3 5 8 -3 4 5 8 16 9 24 2 62 10 62 13 0 1 7 3 15 5 8 2 26 7 40 10 71 17 127
22 253 22 75 -1 137 -5 137 -10z m-525 -188 c-49 -10 -142 -25 -205 -34 -63
-9 -146 -23 -183 -31 -98 -20 -137 -19 -137 5 0 11 -3 26 -6 34 -3 10 4 17 23
22 33 8 297 21 473 22 l125 1 -90 -19z m1100 -4 c163 -19 157 -15 147 -84 -4
-31 -7 -265 -7 -521 0 -402 3 -488 20 -635 18 -152 20 -224 18 -669 -2 -274
-5 -501 -7 -504 -3 -2 -51 -10 -108 -18 -71 -9 -304 -15 -739 -20 l-637 -7
-30 134 c-17 74 -49 213 -71 309 -54 238 -83 392 -126 675 -38 248 -94 566
-169 955 -24 124 -43 225 -42 226 0 0 75 13 166 28 91 16 201 36 245 47 186
43 496 77 790 88 321 12 422 11 550 -4z m294 -200 c2 -2 8 -26 13 -52 11 -57
6 -102 -32 -293 -23 -115 -55 -395 -61 -533 -2 -58 -18 51 -28 193 -8 107 -8
196 -1 285 5 72 10 195 10 274 l0 143 48 -7 c26 -4 49 -8 51 -10z m-1991 -530
c112 -528 126 -657 120 -1108 -3 -213 -9 -362 -15 -368 -7 -7 -16 0 -27 18
l-17 28 20 -24 c12 -13 21 -19 21 -14 0 15 -46 54 -54 46 -4 -4 -4 0 -1 9 4 9
1 19 -6 24 -8 5 -10 3 -4 -7 5 -8 4 -11 -1 -6 -5 5 -9 12 -9 15 -2 23 -18 51
-26 47 -5 -4 -9 1 -9 10 0 9 -4 13 -10 10 -6 -4 -7 1 -3 11 4 12 3 15 -5 10
-7 -4 -10 -2 -7 6 3 8 -2 22 -11 33 -8 11 -12 14 -8 6 4 -9 3 -12 -4 -7 -6 4
-8 14 -5 23 4 11 3 14 -5 9 -8 -5 -10 -1 -5 10 4 12 3 15 -5 10 -8 -5 -10 -1
-5 10 4 12 3 15 -5 10 -8 -5 -10 -1 -5 10 4 12 3 15 -5 10 -8 -5 -10 -1 -5 10
3 10 2 15 -3 12 -5 -3 -10 7 -10 24 -1 17 -7 34 -13 38 -7 4 -13 11 -14 16 -1
5 -5 8 -8 7 -3 -1 -6 4 -6 12 0 8 4 12 9 9 4 -3 5 2 2 10 -3 9 -10 14 -15 11
-4 -3 -6 4 -4 15 2 11 0 20 -5 20 -5 0 -7 6 -4 13 3 8 -2 19 -10 26 -8 7 -12
19 -9 27 3 8 -1 22 -8 31 -12 14 -12 16 1 8 12 -6 12 -5 3 5 -6 7 -9 19 -6 28
4 9 2 13 -4 9 -7 -4 -10 4 -8 23 1 17 -1 30 -5 30 -4 0 -6 11 -5 25 2 14 -1
27 -5 30 -5 3 -7 14 -5 25 2 11 -1 22 -6 26 -6 4 -6 11 2 20 9 11 9 14 -1 14
-10 0 -10 3 -1 14 7 9 8 17 3 20 -6 3 -8 22 -6 41 2 26 0 34 -9 28 -8 -4 -8
-2 1 9 9 11 10 18 2 23 -6 3 -7 12 -3 18 11 19 13 58 1 51 -7 -4 -7 0 0 12 5
11 9 36 8 57 -1 20 1 37 6 37 4 0 3 11 -2 24 -5 13 -6 27 -2 30 3 4 7 14 9 24
11 64 15 90 18 112 1 14 6 33 9 42 4 9 8 22 10 30 1 7 6 19 10 27 7 11 6 12
-5 6 -12 -8 -12 -6 -1 8 8 9 10 22 6 28 -5 8 -3 9 6 4 8 -5 11 -3 8 6 -2 7 1
25 8 38 7 14 11 28 8 33 -3 4 0 8 6 8 6 0 8 5 5 10 -3 6 -1 10 6 10 7 0 10 3
6 6 -3 3 3 22 14 41 11 20 14 31 7 27 -7 -4 -2 4 11 19 12 14 20 30 16 36 -3
6 -1 11 5 11 6 0 8 6 4 13 -4 6 0 5 8 -3 9 -9 37 -116 66 -255z m2058 163 c5
-7 3 -8 -7 -3 -12 8 -12 6 0 -8 7 -9 10 -17 5 -17 -5 0 -2 -5 8 -10 10 -7 14
-17 10 -32 -4 -16 -2 -19 9 -13 8 5 11 5 7 0 -4 -4 -2 -15 5 -23 10 -13 9 -14
-1 -8 -7 4 -3 -9 8 -29 11 -20 17 -34 12 -31 -5 3 -7 -6 -4 -19 2 -14 8 -23
12 -20 5 3 6 -3 3 -14 -3 -10 0 -22 6 -25 5 -4 7 -14 4 -23 -4 -9 -2 -14 3
-10 5 3 9 -7 8 -21 -1 -15 4 -33 10 -41 9 -12 8 -13 -4 -6 -12 7 -13 6 -4 -6
6 -8 10 -22 9 -31 -2 -10 0 -18 4 -18 4 0 6 -15 6 -32 -1 -18 2 -43 7 -56 5
-15 4 -21 -2 -17 -6 4 -7 -2 -1 -17 4 -13 7 -48 5 -77 -2 -36 0 -50 7 -40 5 9
9 9 9 2 0 -6 -4 -14 -8 -17 -5 -3 -8 -26 -7 -51 0 -26 -3 -49 -7 -51 -4 -3 -4
-13 2 -23 5 -10 7 -21 3 -25 -3 -3 -7 -16 -7 -28 -1 -13 -6 -29 -10 -37 -7
-11 -6 -12 5 -6 12 8 12 6 0 -8 -7 -9 -10 -17 -6 -17 4 0 1 -8 -6 -17 -12 -15
-12 -16 1 -8 12 7 13 6 4 -6 -6 -8 -10 -24 -9 -36 1 -13 -3 -23 -8 -23 -5 0
-7 -13 -5 -29 2 -17 1 -28 -4 -25 -4 3 -8 3 -8 0 0 -2 -3 -12 -7 -22 -5 -13
-3 -15 8 -9 8 5 6 -1 -4 -13 -11 -11 -16 -26 -12 -31 3 -6 2 -11 -4 -11 -5 0
-8 -9 -6 -20 3 -13 0 -18 -7 -14 -7 5 -9 1 -5 -9 3 -10 3 -17 -2 -17 -7 0 -9
-7 -13 -49 -1 -11 -7 -17 -12 -14 -5 4 -7 -1 -3 -11 5 -11 3 -15 -5 -10 -8 5
-9 1 -4 -12 4 -10 4 -15 0 -11 -11 11 -34 -26 -23 -39 6 -7 4 -16 -6 -24 -8
-7 -12 -17 -8 -23 3 -5 1 -7 -5 -3 -9 5 -25 -22 -27 -46 0 -3 -4 -10 -9 -15
-5 -5 -6 -2 -1 6 6 10 4 12 -4 7 -7 -5 -10 -14 -8 -20 3 -7 1 -19 -3 -26 -4
-7 -9 54 -9 136 -1 82 -4 196 -7 254 -4 66 -1 164 9 265 9 88 19 234 22 325 7
207 33 426 60 508 5 15 22 16 31 0z m-1851 -1358 c8 -30 30 -127 50 -215 19
-88 38 -168 41 -178 5 -16 0 -18 -53 -15 l-58 3 -13 75 c-9 52 -12 120 -7 220
5 144 15 226 22 185 2 -11 10 -45 18 -75z m1231 -602 c4 -7 4 -10 -1 -6 -4 4
-15 2 -23 -5 -13 -10 -14 -9 -8 2 6 9 5 12 -5 9 -8 -3 -13 -12 -11 -19 2 -8 0
-11 -4 -7 -4 4 -14 2 -22 -5 -13 -9 -14 -9 -8 0 5 9 2 11 -8 7 -9 -3 -14 -10
-11 -14 3 -5 1 -11 -4 -14 -5 -4 -13 -1 -17 5 -5 8 -3 9 6 4 8 -5 11 -4 6 3
-4 6 -13 9 -21 6 -8 -4 -12 -11 -9 -16 4 -6 -1 -8 -14 -4 -12 4 -23 2 -28 -5
-5 -8 -3 -9 6 -4 9 6 11 4 5 -4 -5 -9 -10 -10 -18 -2 -7 7 -15 5 -24 -7 -8 -9
-12 -11 -8 -5 9 19 -6 16 -21 -4 -13 -17 -14 -17 -7 2 6 19 6 19 -14 2 -13
-11 -23 -14 -27 -8 -4 6 -13 8 -21 5 -8 -4 -13 -9 -10 -13 2 -4 -2 -8 -10 -8
-8 0 -12 4 -9 9 3 4 -2 8 -11 8 -10 0 -14 -5 -9 -12 5 -10 4 -10 -6 -1 -11 10
-18 9 -34 -5 -11 -9 -16 -11 -12 -4 8 13 -10 17 -18 4 -6 -10 -46 -10 -63 1
-6 4 -14 1 -16 -5 -3 -7 -6 -4 -6 7 -1 15 -3 17 -10 6 -6 -9 -11 -10 -15 -2
-4 6 -13 11 -19 11 -7 0 -6 -4 3 -10 12 -7 10 -9 -7 -7 -12 0 -19 5 -17 9 3 4
-2 8 -11 8 -9 0 -14 -4 -11 -9 4 -5 -1 -8 -10 -7 -8 1 -20 9 -25 17 -7 12 -9
12 -9 -1 0 -13 -1 -13 -10 0 -9 13 -10 13 -10 0 0 -13 -1 -13 -10 0 -5 8 -17
15 -27 15 -10 0 -22 3 -28 6 -5 3 -19 9 -29 13 -17 6 -17 4 -5 -11 7 -10 0 -7
-15 7 -16 14 -25 18 -21 10 5 -9 -1 -7 -15 5 -13 11 -20 15 -17 8 4 -6 2 -15
-4 -19 -7 -4 -9 -3 -6 3 4 6 -1 17 -10 24 -14 12 -16 12 -8 -1 8 -13 7 -13
-10 0 -10 8 -20 14 -22 13 -8 -6 -26 -2 -19 4 15 15 116 20 503 21 313 2 403
-1 409 -10z"/>
<path d="M1653 2471 c-15 -24 -33 -129 -33 -193 0 -63 -13 -94 -44 -102 -33
-8 -37 -55 -6 -63 16 -4 20 -14 20 -52 0 -54 18 -85 45 -80 15 3 21 19 30 73
12 69 30 96 65 96 29 0 48 -24 80 -102 24 -59 37 -78 51 -78 27 0 25 39 -6
100 -34 66 -32 89 5 103 41 16 35 41 -10 45 -42 3 -53 18 -86 115 -28 81 -70
157 -87 157 -7 0 -18 -9 -24 -19z"/>
<path d="M1925 2430 c-3 -5 -3 -25 1 -45 6 -33 5 -35 -20 -35 -15 0 -30 -8
-36 -21 -18 -33 -5 -49 38 -49 37 0 40 -2 56 -45 19 -49 34 -55 60 -26 14 15
16 29 11 58 -6 37 -4 40 30 56 31 15 35 20 24 33 -7 8 -24 14 -38 14 -44 -3
-48 -1 -70 35 -20 34 -44 45 -56 25z"/>
<path d="M1165 2379 c-33 -5 -171 -15 -307 -23 -136 -8 -252 -17 -257 -21 -6
-3 -8 -12 -4 -21 6 -17 48 -16 443 12 255 18 372 34 378 52 4 14 -153 15 -253
1z"/>
<path d="M1085 2223 c-91 -6 -298 -34 -313 -42 -27 -15 41 -23 105 -12 32 5
99 12 148 15 116 8 246 26 265 37 15 8 -95 9 -205 2z"/>
<path d="M1858 1822 c-24 -22 -54 -45 -67 -52 -21 -11 -26 -10 -37 6 -34 49
-54 54 -54 12 0 -25 38 -95 56 -102 15 -6 189 140 189 157 0 28 -45 17 -87
-21z"/>
<path d="M1255 1800 c-27 -5 -90 -15 -140 -25 -49 -9 -155 -20 -234 -25 -148
-10 -265 -34 -258 -54 5 -14 30 -13 277 13 345 37 510 64 510 86 0 13 -89 15
-155 5z"/>
<path d="M1250 1616 c-52 -7 -158 -20 -235 -30 -77 -9 -173 -20 -214 -25 -70
-9 -103 -23 -88 -37 7 -8 217 9 392 31 61 7 176 22 258 31 91 11 146 22 144
29 -5 15 -145 15 -257 1z"/>
<path d="M1855 1470 c-54 -55 -72 -60 -98 -30 -20 24 -35 26 -43 5 -8 -20 44
-125 61 -125 8 0 27 16 42 36 15 20 51 58 80 86 51 49 60 78 24 78 -9 0 -39
-22 -66 -50z"/>
<path d="M1385 1445 c-88 -12 -212 -27 -275 -34 -513 -51 -478 -45 -486 -76
-5 -19 23 -164 52 -272 4 -16 83 -17 374 -3 221 11 348 22 483 42 l77 11 0 55
c0 30 -7 81 -16 115 -8 33 -17 83 -19 110 -6 77 -7 78 -190 52z"/>
<path d="M1470 993 c-19 -2 -100 -12 -180 -23 -80 -11 -188 -22 -240 -25 -119
-8 -282 -33 -294 -45 -23 -23 48 -20 367 14 188 20 388 42 445 48 74 8 102 14
102 24 0 11 -19 14 -82 12 -46 0 -99 -3 -118 -5z"/>
<path d="M2070 932 c-8 -3 -44 -25 -78 -50 l-64 -45 -22 28 c-27 33 -46 27
-46 -15 0 -19 11 -42 29 -62 l29 -32 40 36 c22 20 51 42 64 48 33 17 78 61 78
76 0 17 -11 23 -30 16z"/>
<path d="M1430 819 c-74 -10 -242 -30 -374 -43 -131 -14 -241 -27 -243 -30 -3
-3 -2 -10 2 -17 13 -21 313 4 640 52 193 28 197 29 192 42 -6 18 -69 17 -217
-4z"/>
<path d="M965 637 c-66 -30 -125 -123 -125 -197 0 -44 42 -113 88 -145 38 -26
52 -30 110 -29 79 1 116 17 165 74 83 98 68 238 -31 286 -47 23 -166 29 -207
11z m182 -73 c45 -33 58 -69 43 -118 -25 -84 -77 -126 -155 -126 -71 0 -135
59 -135 123 0 37 33 100 67 127 24 19 38 21 90 18 43 -3 72 -10 90 -24z"/>
<path d="M1094 489 c-69 -46 -91 -48 -104 -13 -15 39 -46 28 -42 -16 4 -54 28
-83 60 -75 44 11 172 101 172 121 0 26 -30 20 -86 -17z"/>
<path d="M1646 621 c-9 -17 -23 -61 -31 -98 -9 -37 -20 -80 -26 -95 -8 -19 -7
-32 0 -47 11 -19 19 -21 106 -18 61 1 96 6 99 14 11 27 -95 262 -122 271 -6 2
-18 -10 -26 -27z"/>
<path d="M1860 621 c-34 -5 -47 -12 -57 -31 -29 -58 -2 -132 55 -151 62 -21
146 -17 179 7 24 19 28 28 28 73 -1 35 -7 59 -21 78 -19 25 -28 28 -80 29 -32
1 -79 -1 -104 -5z"/>
</g>
</svg>
