<?xml version="1.0" standalone="no"?>
<!DOCTYPE svg PUBLIC "-//W3C//DTD SVG 20010904//EN"
 "http://www.w3.org/TR/2001/REC-SVG-20010904/DTD/svg10.dtd">
<svg version="1.0" xmlns="http://www.w3.org/2000/svg"
 width="512.000000pt" height="512.000000pt" viewBox="0 0 512.000000 512.000000"
 preserveAspectRatio="xMidYMid meet">
<metadata>
Created by potrace 1.11, written by Peter Selinger 2001-2013
</metadata>
<g transform="translate(0.000000,512.000000) scale(0.100000,-0.100000)"
fill="#000000" stroke="none">
<path d="M2620 5049 c-734 -83 -1352 -583 -1580 -1279 -51 -153 -78 -300 -91
-484 -25 -362 -63 -457 -277 -693 -178 -196 -238 -288 -249 -382 -4 -40 -2
-51 18 -75 22 -24 41 -30 202 -61 98 -18 181 -36 184 -38 3 -3 -1 -55 -7 -115
-7 -61 -10 -174 -8 -258 l5 -149 58 -155 c53 -143 58 -164 65 -270 9 -127 31
-200 80 -269 57 -79 40 -75 450 -81 l365 -5 53 -30 c134 -74 259 -281 344
-569 l23 -79 175 7 c482 18 973 105 1435 253 93 29 383 139 393 148 2 1 -21
40 -51 86 -165 254 -236 493 -208 704 24 181 79 303 246 555 388 583 529 1180
414 1755 -45 228 -169 511 -307 704 -79 112 -244 287 -351 373 -385 311 -896
461 -1381 407z m449 -885 l-3 -136 74 -22 c41 -12 99 -33 128 -46 34 -15 56
-20 60 -13 50 77 150 202 159 198 20 -7 222 -159 223 -168 0 -4 -36 -55 -80
-113 l-79 -106 44 -54 c24 -30 58 -79 75 -109 17 -30 32 -55 34 -55 1 0 61 20
133 44 l132 44 45 -136 c25 -75 43 -139 38 -143 -4 -3 -63 -25 -132 -48 l-125
-41 -3 -138 c-1 -75 -3 -152 -5 -170 l-2 -34 125 -50 c69 -27 127 -52 129 -54
2 -2 -20 -64 -49 -139 l-53 -134 -36 15 c-20 9 -76 31 -126 51 -49 19 -95 37
-101 39 -6 3 -24 -14 -39 -38 -16 -24 -52 -68 -81 -98 l-53 -56 79 -119 c44
-66 80 -123 80 -127 0 -7 -240 -162 -244 -157 -2 2 -36 54 -76 114 -40 61 -76
113 -79 118 -4 4 -34 -2 -67 -14 -32 -11 -86 -26 -119 -33 l-60 -13 -6 -119
c-4 -65 -7 -131 -8 -146 l-1 -28 -132 0 c-73 0 -139 4 -147 9 -12 7 -13 34 -7
149 l7 139 -68 17 c-37 10 -92 28 -122 42 -29 13 -55 24 -56 24 -2 0 -148
-196 -167 -224 -6 -9 -238 156 -238 169 0 3 36 53 80 112 44 58 80 109 80 113
0 4 -23 35 -50 69 -28 35 -61 81 -73 102 -12 21 -24 39 -27 39 -3 0 -60 -18
-125 -40 -65 -22 -125 -40 -131 -40 -17 0 -106 270 -91 276 7 2 64 21 127 42
l115 39 0 149 c1 82 4 160 9 175 7 24 4 26 -116 74 -68 26 -125 49 -127 51 -3
2 95 259 104 271 1 2 57 -20 125 -47 68 -27 124 -49 125 -47 1 1 16 23 33 48
17 26 54 71 82 102 27 30 50 58 50 61 0 4 -31 54 -70 111 -38 57 -70 106 -70
108 0 5 235 157 243 157 3 0 36 -47 73 -105 37 -58 72 -105 78 -105 6 0 34 9
62 19 28 11 82 26 120 34 l69 14 9 131 8 132 145 0 145 0 -3 -136z"/>
<path d="M2741 3540 c-248 -91 -359 -366 -245 -606 76 -161 275 -265 452 -236
294 49 457 363 324 626 -37 75 -125 161 -201 198 -59 29 -77 33 -171 35 -86 3
-115 0 -159 -17z"/>
</g>
</svg>
