<?xml version="1.0" standalone="no"?>
<!DOCTYPE svg PUBLIC "-//W3C//DTD SVG 20010904//EN"
 "http://www.w3.org/TR/2001/REC-SVG-20010904/DTD/svg10.dtd">
<svg version="1.0" xmlns="http://www.w3.org/2000/svg"
 width="512.000000pt" height="512.000000pt" viewBox="0 0 512.000000 512.000000"
 preserveAspectRatio="xMidYMid meet">
<metadata>
Created by potrace 1.11, written by Peter Selinger 2001-2013
</metadata>
<g transform="translate(0.000000,512.000000) scale(0.100000,-0.100000)"
fill="#000000" stroke="none">
<path d="M0 2560 l0 -2560 2560 0 2560 0 0 2560 0 2560 -2560 0 -2560 0 0
-2560z m2770 4 l0 -1456 -27 6 c-16 3 -379 69 -808 146 -429 77 -805 146 -835
153 l-55 12 -3 1134 c-1 624 1 1138 5 1142 5 4 274 55 598 114 325 58 707 128
850 155 143 26 263 48 268 49 4 1 7 -654 7 -1455z m1281 870 l24 -26 3 -672
c3 -775 11 -715 -92 -726 -31 -3 -59 -4 -61 -1 -3 2 -5 294 -5 648 l0 643
-535 0 -535 0 0 80 0 80 588 0 589 0 24 -26z m-216 -209 l25 -24 0 -736 0
-736 -25 -24 -24 -25 -474 0 c-260 0 -476 2 -478 4 -2 2 -3 43 -1 90 l3 86
340 0 339 0 0 68 0 67 -339 -3 -339 -3 -4 57 c-1 30 -1 58 1 60 2 2 159 4 348
4 l343 0 0 65 0 65 -344 0 -345 0 -3 86 c-3 81 -2 85 17 79 107 -31 144 -37
195 -31 69 8 165 52 219 101 42 38 96 135 107 193 l7 32 -207 0 -206 0 -2 204
-3 203 -50 -14 c-27 -7 -56 -15 -63 -16 -10 -1 -13 17 -13 81 0 45 0 84 1 87
0 3 214 5 475 5 l476 0 24 -25z"/>
<path d="M1838 3038 l-138 -10 -2 -433 -3 -433 59 -6 c112 -12 101 -27 98 144
-2 118 0 150 10 151 7 0 32 0 54 -1 54 -2 161 18 196 36 94 49 149 139 156
256 8 139 -32 229 -122 273 -64 31 -130 36 -308 23z m183 -165 c64 -38 76
-163 21 -224 -29 -33 -72 -46 -142 -45 l-45 1 -3 129 c-1 72 0 136 2 143 8 20
131 17 167 -4z"/>
<path d="M3070 2945 l0 -165 166 0 166 0 -7 37 c-11 61 -60 146 -110 192 -48
44 -125 84 -182 95 l-33 6 0 -165z"/>
</g>
</svg>
