<?xml version="1.0" standalone="no"?>
<!DOCTYPE svg PUBLIC "-//W3C//DTD SVG 20010904//EN"
 "http://www.w3.org/TR/2001/REC-SVG-20010904/DTD/svg10.dtd">
<svg version="1.0" xmlns="http://www.w3.org/2000/svg"
 width="450.000000pt" height="470.000000pt" viewBox="0 0 450.000000 470.000000"
 preserveAspectRatio="xMidYMid meet">
<metadata>
Created by potrace 1.11, written by Peter Selinger 2001-2013
</metadata>
<g transform="translate(0.000000,470.000000) scale(0.100000,-0.100000)"
fill="#000000" stroke="none">
<path d="M2170 3695 c-8 -2 -49 -9 -90 -15 -241 -39 -487 -172 -659 -356 -226
-242 -333 -535 -318 -873 14 -307 127 -563 346 -782 228 -229 518 -349 841
-349 447 0 859 253 1061 652 90 179 122 319 123 538 0 145 -3 177 -26 270
-123 491 -506 839 -1003 910 -64 9 -238 12 -275 5z m395 -110 c55 -14 143 -47
195 -72 l95 -46 -75 -19 -74 -19 -291 47 c-281 46 -291 48 -334 80 -29 23 -39
35 -30 39 87 33 370 27 514 -10z m-152 -162 l288 -46 68 -141 69 -141 -162
-162 -161 -162 -184 29 c-100 15 -187 32 -191 37 -10 9 -204 358 -222 398 -11
25 -7 31 93 130 57 58 106 105 109 105 3 0 135 -21 293 -47z m-904 -192 c-9
-64 -27 -109 -128 -316 -102 -210 -122 -244 -153 -263 -19 -12 -37 -22 -40
-22 -12 0 17 134 48 230 38 114 82 201 149 295 47 66 126 158 131 153 2 -2 -2
-37 -7 -77z m467 -213 c57 -104 104 -193 104 -199 0 -7 -37 -83 -82 -171 -78
-150 -85 -159 -118 -167 -68 -16 -135 -31 -160 -35 -14 -2 -83 -16 -153 -30
-71 -14 -134 -26 -140 -26 -11 0 -127 216 -127 235 0 4 57 123 126 265 l126
258 147 30 c80 17 152 29 160 29 7 -1 60 -86 117 -189z m1034 -32 c69 -38 126
-70 128 -71 3 -2 23 -121 72 -427 l23 -137 -46 -53 c-25 -29 -73 -79 -106
-111 l-60 -59 -185 104 c-102 57 -195 110 -206 118 -17 12 -25 47 -49 200
l-28 185 161 163 c88 89 163 161 166 160 3 -2 62 -34 130 -72z m334 -131 c60
-186 71 -397 30 -588 -6 -27 -6 -27 -46 30 -45 63 -46 67 -103 426 -28 176
-28 177 12 265 l26 55 27 -54 c15 -30 39 -90 54 -134z m-1293 -561 l135 -135
-47 -240 c-25 -132 -48 -242 -51 -244 -2 -3 -71 -16 -153 -30 l-148 -26 -204
203 -204 203 5 40 c20 147 38 251 47 261 6 7 29 16 52 19 23 4 92 18 152 31
61 14 124 27 140 30 17 3 46 9 65 13 68 17 70 15 211 -125z m737 -95 c108 -61
201 -115 206 -120 6 -5 -3 -68 -24 -163 l-34 -154 -269 -105 -269 -106 -129
56 c-99 43 -128 60 -125 72 3 9 23 111 46 226 23 116 44 218 46 228 6 18 311
177 340 177 8 0 103 -50 212 -111z m-1331 -331 c253 -248 316 -319 300 -334
-11 -11 -175 113 -252 190 -76 76 -185 217 -185 240 0 25 48 -9 137 -96z
m1578 -183 c-117 -102 -242 -176 -379 -224 -87 -31 -263 -67 -273 -57 -3 2 14
30 38 61 l44 55 230 92 c253 100 270 106 335 107 l45 1 -40 -35z"/>
</g>
</svg>
