<?xml version="1.0" standalone="no"?>
<!DOCTYPE svg PUBLIC "-//W3C//DTD SVG 20010904//EN"
 "http://www.w3.org/TR/2001/REC-SVG-20010904/DTD/svg10.dtd">
<svg version="1.0" xmlns="http://www.w3.org/2000/svg"
 width="389.000000pt" height="203.000000pt" viewBox="0 0 389.000000 203.000000"
 preserveAspectRatio="xMidYMid meet">
<metadata>
Created by potrace 1.11, written by Peter Selinger 2001-2013
</metadata>
<g transform="translate(0.000000,203.000000) scale(0.100000,-0.100000)"
fill="#000000" stroke="none">
<path d="M1200 1929 c-74 -55 -178 -131 -230 -167 -121 -84 -400 -292 -400
-298 0 -3 29 11 63 31 35 19 67 35 70 35 4 0 7 -21 7 -48 l0 -47 -257 -146
c-142 -81 -293 -166 -335 -189 -127 -68 -95 -60 80 21 47 21 86 38 87 37 4 -5
9 -343 7 -479 l-2 -135 -27 -11 -28 -11 28 -1 c23 -1 462 71 885 145 51 9 94
15 96 13 2 -2 -4 -122 -11 -267 -8 -145 -12 -270 -9 -277 13 -36 252 -70 385
-55 40 4 75 10 78 13 3 3 -2 151 -10 329 -9 178 -13 326 -9 329 10 9 969 156
1415 216 l69 10 -4 -123 c-2 -87 1 -127 9 -135 8 -8 46 -12 100 -13 l88 -1 -3
147 -4 147 34 5 c43 7 245 36 261 37 7 1 1 4 -13 9 -14 4 -85 5 -157 2 -93 -3
-133 -2 -133 6 0 6 25 13 58 15 l57 3 -57 2 c-53 2 -58 4 -58 25 0 12 -4 83
-10 157 -5 74 -10 167 -11 205 -3 118 -1 115 -74 115 -56 0 -64 -3 -70 -21 -4
-11 -34 -61 -66 -110 -144 -215 -329 -340 -505 -343 -64 -1 -78 3 -156 42
-170 83 -376 263 -577 502 -113 134 -246 315 -260 353 l-11 27 -128 0 -128 0
-134 -101z m527 -262 l2 -102 -53 59 c-49 54 -54 65 -60 119 -3 33 -6 87 -6
119 l0 60 57 -77 58 -77 2 -101z m-477 184 l0 -59 -102 -73 c-57 -40 -109 -77
-115 -82 -10 -7 -13 3 -13 44 l0 54 113 87 c61 47 113 86 115 87 1 1 2 -26 2
-58z m310 -166 c0 -16 -72 -105 -92 -113 -4 -2 -21 12 -37 30 -24 25 -30 43
-31 75 0 50 14 90 42 120 l20 22 49 -59 c27 -32 49 -66 49 -75z m-305 -792
c-2 -7 -16 -13 -30 -13 l-25 0 -2 123 c-1 67 -1 253 1 412 3 283 3 290 24 309
l22 18 8 -418 c4 -231 5 -425 2 -431z m568 757 l67 -79 0 -83 0 -82 -70 69
-70 69 0 93 c0 51 2 93 3 93 2 0 34 -36 70 -80z m-823 17 c0 -29 -6 -49 -17
-59 -27 -23 -231 -148 -243 -148 -5 0 -10 19 -10 43 l0 43 123 81 c67 45 128
82 135 82 8 1 12 -14 12 -42z m179 -443 c0 -94 -2 -212 -5 -261 l-7 -91 -103
-16 c-56 -9 -108 -16 -115 -16 -9 0 -10 82 -7 345 4 326 6 346 24 360 10 8 22
15 27 15 4 0 8 -145 9 -322 l3 -323 5 330 5 330 75 53 75 54 6 -143 c4 -79 7
-221 8 -315z m497 53 l11 -302 1 289 c2 288 2 289 22 271 19 -17 20 -31 20
-302 0 -155 -3 -284 -7 -284 -74 -11 -73 -12 -73 34 0 42 -14 367 -25 557 l-5
95 23 -28 c21 -27 22 -41 33 -330z m352 83 l-3 -64 -55 45 -55 45 -3 80 -3 79
61 -61 61 -60 -3 -64z m1138 88 c-4 -51 -6 -155 -6 -230 1 -91 -2 -138 -9
-138 -6 0 -11 10 -12 23 -1 21 -1 21 -8 -3 -6 -22 -13 -25 -51 -26 -25 -1 -87
-5 -137 -9 -77 -6 -93 -5 -93 7 0 8 17 20 38 28 20 8 40 16 44 18 3 2 10 -7
14 -20 8 -21 9 -20 14 11 3 19 14 39 25 45 11 6 27 20 35 31 14 19 15 18 21
-25 l6 -45 1 46 c2 34 8 51 26 68 18 17 25 19 29 9 7 -16 9 24 7 122 -1 65 2
82 27 127 15 29 30 53 32 53 2 0 1 -42 -3 -92z m-2251 -70 c3 -68 5 -217 3
-333 l-3 -210 -65 -12 c-36 -7 -77 -12 -92 -13 l-28 0 0 293 0 292 83 52 c45
28 85 52 88 52 4 1 10 -54 14 -121z m603 63 c23 -27 42 -59 42 -71 0 -12 -21
-44 -49 -72 l-48 -51 -31 34 c-27 29 -31 42 -32 89 0 48 4 58 32 87 18 18 35
33 38 33 4 0 26 -22 48 -49z m324 -221 l2 -195 6 189 c5 175 6 187 21 170 20
-24 29 -153 20 -309 -6 -109 -6 -110 -31 -111 -14 -1 -43 -5 -66 -9 l-41 -7
-6 143 c-9 181 -9 293 -1 352 l7 46 43 -37 44 -36 2 -196z m-1122 -130 c0
-244 -2 -290 -14 -290 -8 0 -22 -3 -31 -6 -15 -6 -16 16 -14 277 2 244 5 286
18 296 40 31 41 25 41 -277z m1262 66 l2 -141 3 133 c2 72 7 132 11 132 26 0
32 -31 32 -162 0 -136 0 -138 -22 -138 -13 0 -40 -3 -60 -6 l-38 -7 0 192 0
192 35 -27 35 -26 2 -142z m-1343 -178 c1 -214 15 -186 -101 -208 -32 -6 -58
-13 -58 -16 0 -4 38 0 118 12 l32 5 0 -71 c0 -38 -1 -70 -2 -70 -2 0 -71 -18
-154 -39 l-152 -38 -7 158 c-4 86 -4 226 0 312 l8 154 66 33 c36 17 104 53
151 79 l85 47 6 -86 c4 -47 7 -169 8 -272z m2361 262 l0 -60 -47 -31 c-70 -44
-162 -69 -252 -69 l-76 0 85 29 c61 21 87 26 93 17 4 -7 9 -4 13 9 4 16 54 59
86 73 4 2 9 -14 11 -35 4 -38 4 -38 5 7 2 36 9 51 39 82 20 21 38 38 40 38 2
0 3 -27 3 -60z m-919 -10 c12 -7 19 -21 19 -40 0 -16 5 -32 10 -35 6 -4 10 5
10 19 0 28 9 33 28 14 7 -7 12 -45 12 -99 0 -97 -2 -99 -71 -99 l-39 0 0 125
c0 69 3 125 6 125 3 0 14 -5 25 -10z m-521 -227 c0 -39 -3 -74 -8 -77 -4 -2
-40 -8 -80 -11 l-72 -8 0 99 c0 97 1 100 32 138 l31 38 48 -53 c48 -54 48 -54
49 -126z m663 150 c13 -4 17 -18 19 -62 l2 -56 3 48 c3 39 8 47 24 47 17 0 19
-7 19 -59 l0 -58 -37 -7 c-86 -14 -83 -16 -83 80 0 78 2 85 18 79 9 -4 25 -10
35 -12z m160 -55 c39 -10 47 -15 47 -35 0 -13 5 -23 10 -23 6 0 10 9 10 20 0
18 7 20 55 20 51 0 55 -2 55 -23 0 -23 -4 -24 -99 -30 -54 -4 -112 -10 -130
-13 l-31 -6 0 57 c0 50 2 56 18 50 9 -3 38 -11 65 -17z m-1213 -311 l0 -43
-97 -19 c-54 -10 -104 -20 -110 -22 -10 -4 -13 10 -13 50 l0 55 73 10 c39 5
89 10 110 11 l37 1 0 -43z m-260 -42 c0 -30 -3 -55 -6 -55 -3 0 -55 -11 -116
-25 -61 -14 -113 -25 -117 -25 -6 0 -15 129 -9 131 10 3 198 27 221 28 26 1
27 0 27 -54z m640 -295 c0 -29 -8 -44 -43 -78 -23 -23 -45 -42 -48 -42 -3 0
-29 21 -57 48 -68 61 -68 81 0 149 l52 53 48 -47 c40 -39 48 -54 48 -83z"/>
</g>
</svg>
