<?xml version="1.0" standalone="no"?>
<!DOCTYPE svg PUBLIC "-//W3C//DTD SVG 20010904//EN"
 "http://www.w3.org/TR/2001/REC-SVG-20010904/DTD/svg10.dtd">
<svg version="1.0" xmlns="http://www.w3.org/2000/svg"
 width="256.000000pt" height="256.000000pt" viewBox="0 0 256.000000 256.000000"
 preserveAspectRatio="xMidYMid meet">
<metadata>
Created by potrace 1.11, written by Peter Selinger 2001-2013
</metadata>
<g transform="translate(0.000000,256.000000) scale(0.100000,-0.100000)"
fill="#000000" stroke="none">
<path d="M1190 2410 l0 -120 -330 0 -330 0 0 -161 0 -160 -26 20 c-36 28 -65
26 -96 -6 -37 -41 -54 -79 -72 -165 -20 -98 -20 -198 0 -296 18 -86 35 -124
72 -164 31 -33 60 -35 96 -7 l26 20 0 -180 0 -181 745 0 745 0 0 180 0 179 25
-24 c74 -75 150 21 176 224 21 158 -14 347 -78 413 -33 35 -63 36 -97 2 l-26
-27 0 167 0 166 -330 0 -330 0 0 120 0 120 -85 0 -85 0 0 -120z m-215 -514
c69 -53 92 -143 56 -221 -63 -140 -250 -151 -326 -21 -53 91 -24 197 70 258
47 30 150 22 200 -16z m793 15 c46 -23 67 -46 87 -94 42 -100 -19 -218 -127
-248 -112 -30 -228 58 -228 172 0 79 28 129 95 170 40 25 124 25 173 0z m-238
-551 l0 -80 -255 0 -255 0 0 80 0 80 255 0 255 0 0 -80z"/>
<path d="M221 869 c-89 -44 -150 -137 -151 -227 l0 -42 111 56 c61 30 112 54
113 52 13 -17 76 -138 76 -145 0 -4 -52 -35 -116 -68 l-116 -60 33 -27 c44
-37 110 -58 184 -58 111 0 215 75 250 180 15 46 17 47 73 59 31 7 67 15 80 18
l22 5 0 -166 0 -166 -222 0 c-204 0 -226 -2 -255 -20 -86 -52 -82 -189 7 -235
26 -14 78 -15 390 -13 l359 3 31 30 c39 38 56 92 42 134 l-11 31 149 0 149 0
-5 -53 c-4 -41 -1 -59 15 -84 40 -64 43 -64 441 -61 l359 3 31 30 c62 59 62
141 -1 201 l-30 29 -235 3 -234 3 0 165 0 165 36 -7 c116 -22 125 -26 145 -79
55 -145 234 -217 374 -151 28 13 58 33 69 44 18 21 18 21 -93 76 -61 31 -111
61 -111 66 0 14 69 150 75 150 3 0 52 -25 109 -55 56 -30 106 -55 109 -55 13
0 7 57 -10 111 -23 71 -98 149 -167 172 -110 38 -211 13 -295 -70 l-53 -54
-77 16 c-119 26 -111 21 -111 71 l0 44 -490 0 -490 0 0 -44 c0 -50 7 -45 -113
-71 l-78 -17 -17 23 c-51 74 -138 119 -228 119 -48 0 -74 -6 -123 -31z"/>
</g>
</svg>
