<?xml version="1.0" standalone="no"?>
<!DOCTYPE svg PUBLIC "-//W3C//DTD SVG 20010904//EN"
 "http://www.w3.org/TR/2001/REC-SVG-20010904/DTD/svg10.dtd">
<svg version="1.0" xmlns="http://www.w3.org/2000/svg"
 width="600.000000pt" height="426.000000pt" viewBox="0 0 600.000000 426.000000"
 preserveAspectRatio="xMidYMid meet">
<metadata>
Created by potrace 1.11, written by Peter Selinger 2001-2013
</metadata>
<g transform="translate(0.000000,426.000000) scale(0.100000,-0.100000)"
fill="#000000" stroke="none">
<path d="M1231 4248 c-78 -22 -146 -90 -193 -193 -20 -43 -23 -67 -24 -165 0
-95 -3 -114 -15 -111 -8 3 -43 5 -79 5 -84 -1 -128 -23 -207 -107 -105 -113
-129 -187 -139 -431 l-7 -155 -63 -6 c-41 -5 -68 -13 -79 -25 -20 -22 -31
-102 -41 -291 -6 -132 -6 -137 14 -148 11 -6 30 -11 41 -11 27 0 27 -22 0 -46
-21 -19 -21 -23 -15 -211 l7 -192 -26 -44 c-25 -43 -25 -48 -20 -177 3 -73 7
-136 10 -140 2 -3 -2 -74 -10 -156 -8 -82 -19 -190 -23 -240 -8 -88 -11 -95
-74 -205 -93 -161 -107 -190 -128 -278 -11 -43 -35 -112 -54 -154 -44 -95 -52
-138 -36 -186 11 -33 8 -60 -29 -240 -23 -111 -41 -215 -41 -231 0 -44 19 -77
54 -92 36 -15 262 -16 276 -2 6 6 6 33 0 69 -15 90 -12 237 6 317 14 59 24 79
60 118 66 71 162 301 183 438 15 94 28 126 80 185 22 27 41 54 41 61 0 7 14
25 30 41 19 18 36 50 46 84 32 112 107 294 145 350 22 32 39 64 39 71 0 6 21
-6 48 -28 26 -21 61 -46 78 -55 39 -20 73 -59 163 -185 82 -117 105 -137 163
-146 63 -10 78 -28 78 -97 0 -35 -8 -79 -20 -109 -12 -29 -20 -74 -20 -107 0
-72 25 -231 57 -363 22 -91 25 -118 19 -208 -3 -56 -15 -148 -27 -204 l-21
-102 27 -23 c22 -20 37 -23 103 -23 42 0 118 -7 167 -16 109 -20 276 -22 327
-5 41 14 53 36 39 72 -11 31 -32 48 -106 89 -88 49 -142 95 -176 153 l-30 52
5 149 c3 81 15 286 27 454 22 294 22 307 5 371 -10 36 -26 75 -36 86 -10 11
-41 76 -70 144 -82 197 -147 320 -212 400 -68 83 -93 135 -101 204 l-5 49 49
-7 c43 -6 51 -4 73 18 14 14 32 49 40 78 16 57 34 227 37 346 2 68 0 74 -28
100 -42 40 -64 78 -57 97 8 22 15 21 82 -13 98 -49 235 -100 288 -107 58 -7
73 -1 152 59 62 47 97 102 113 177 13 67 33 100 59 100 28 0 30 9 15 80 -27
125 -23 141 50 218 l65 69 187 7 c103 4 196 12 206 17 10 6 130 13 267 16
l250 6 0 39 0 38 -205 0 c-124 0 -205 4 -205 10 0 5 -12 20 -27 34 -19 18 -28
39 -34 81 -8 64 -12 70 -34 62 -11 -5 -15 -21 -15 -62 l0 -56 -317 6 c-621 10
-635 12 -647 80 -10 52 -39 48 -52 -7 -11 -51 -47 -76 -121 -84 -53 -7 -66 1
-78 48 -6 24 -1 30 50 64 l57 38 -6 81 c-14 172 -17 188 -47 216 -87 81 -270
128 -378 97z"/>
<path d="M2670 2271 c-58 -5 -108 -14 -128 -25 -48 -25 -137 -120 -164 -174
l-23 -47 -3 -519 c-3 -492 -2 -520 16 -548 33 -52 119 -133 172 -162 45 -25
65 -28 198 -36 203 -13 899 -12 1001 0 106 14 160 39 228 109 91 93 92 98 104
364 5 128 6 272 2 321 l-8 90 -35 9 c-41 11 -1046 4 -1072 -8 -67 -28 72 -216
180 -244 20 -5 160 -13 310 -17 l272 -7 0 -153 0 -154 -522 2 -523 3 -3 446
-2 447 677 4 c373 3 686 8 696 12 9 5 17 16 17 25 -1 63 -114 197 -205 242
l-50 24 -520 1 c-286 1 -563 -2 -615 -5z"/>
<path d="M4668 2270 c-105 -10 -169 -41 -232 -111 -71 -79 -70 -63 -73 -652
l-4 -528 36 -49 c41 -56 90 -101 154 -142 l45 -28 576 0 576 0 60 36 c67 40
135 103 167 154 22 35 22 37 22 555 l0 520 -28 57 c-33 67 -100 130 -177 167
l-55 26 -490 2 c-269 0 -529 -3 -577 -7z m720 -297 l272 -6 0 -454 0 -453
-480 0 -480 0 0 460 0 460 208 0 c115 0 331 -3 480 -7z"/>
</g>
</svg>
