<?xml version="1.0" standalone="no"?>
<!DOCTYPE svg PUBLIC "-//W3C//DTD SVG 20010904//EN"
 "http://www.w3.org/TR/2001/REC-SVG-20010904/DTD/svg10.dtd">
<svg version="1.0" xmlns="http://www.w3.org/2000/svg"
 width="869.000000pt" height="500.000000pt" viewBox="0 0 869.000000 500.000000"
 preserveAspectRatio="xMidYMid meet">
<metadata>
Created by potrace 1.11, written by Peter Selinger 2001-2013
</metadata>
<g transform="translate(0.000000,500.000000) scale(0.100000,-0.100000)"
fill="#000000" stroke="none">
<path d="M2885 4994 c-119 -17 -177 -32 -310 -81 -295 -109 -503 -237 -627
-389 -161 -197 -339 -598 -487 -1096 -76 -255 -86 -296 -79 -303 8 -8 1816
-24 2781 -25 l777 0 0 44 c0 80 -20 300 -36 386 -8 47 -18 100 -21 119 l-6 33
144 -6 c141 -7 1515 -45 2354 -66 231 -6 452 -13 491 -16 l70 -5 90 -87 c49
-48 99 -95 111 -105 22 -19 57 -8 513 156 l35 13 3 405 2 404 -142 59 c-79 32
-191 79 -251 103 -72 30 -112 42 -120 36 -6 -6 -71 -57 -143 -115 l-132 -105
-203 -7 c-112 -4 -501 -15 -864 -26 -1421 -43 -2042 -60 -2134 -60 l-96 1 -40
56 c-61 86 -223 244 -335 328 -159 118 -300 195 -500 272 -182 71 -208 75
-530 78 -157 2 -298 1 -315 -1z"/>
<path d="M1030 3015 c-174 -140 -292 -303 -436 -603 -51 -107 -134 -291 -134
-299 0 -2 1407 -3 3127 -3 l3126 0 -59 41 c-92 65 -169 125 -299 234 -361 302
-522 402 -930 578 l-70 30 -785 8 c-1622 16 -2767 29 -3130 35 l-375 7 -35
-28z"/>
<path d="M555 2019 c-222 -31 -390 -146 -474 -323 -66 -138 -85 -288 -79 -642
4 -238 5 -252 31 -326 42 -123 101 -212 212 -323 178 -179 417 -309 694 -378
l86 -21 2530 -3 c2826 -4 2592 -10 2865 67 180 51 261 81 410 152 179 85 334
191 461 318 213 211 320 436 347 733 12 120 0 300 -24 387 -53 192 -254 308
-617 355 -104 13 -498 15 -3250 14 -1723 -1 -3159 -5 -3192 -10z m189 -233
c-21 -17 -29 -36 -33 -70 l-6 -48 -75 -29 c-41 -16 -79 -29 -84 -29 -4 0 -21
11 -38 25 -39 33 -88 33 -125 1 -23 -20 -28 -32 -28 -69 0 -37 6 -52 29 -76
23 -24 27 -33 17 -44 -6 -8 -22 -43 -34 -78 -23 -64 -23 -64 -67 -70 -25 -3
-52 -9 -61 -13 -14 -6 -16 2 -12 71 9 164 61 300 137 358 75 57 199 93 329 94
l78 1 -27 -24z m6241 9 c288 -43 402 -105 426 -230 17 -86 14 -306 -4 -385
-27 -113 -77 -238 -127 -314 -184 -283 -534 -492 -1022 -613 l-113 -28 -2500
-3 c-2269 -3 -2509 -1 -2599 13 -406 67 -777 351 -816 625 -5 36 -10 112 -10
169 0 103 0 103 23 96 12 -4 41 -10 63 -12 39 -4 42 -8 54 -46 7 -23 21 -59
32 -80 l19 -38 -30 -35 c-36 -40 -39 -75 -12 -121 33 -53 100 -56 152 -6 l27
25 38 -20 c22 -11 58 -25 82 -32 39 -12 42 -16 42 -47 0 -50 24 -90 63 -102
68 -23 127 24 127 102 0 31 3 35 43 47 23 7 59 21 81 32 l38 20 27 -26 c52
-49 127 -42 156 15 22 42 18 72 -15 114 l-29 37 18 36 c10 21 24 56 31 80 12
39 16 42 47 42 19 0 46 6 61 14 l27 14 1 -111 c1 -139 18 -209 86 -347 44 -90
64 -117 137 -191 74 -73 101 -93 191 -137 139 -69 208 -86 345 -85 139 0 222
19 344 80 196 99 346 287 398 501 24 98 22 275 -5 375 -71 261 -279 469 -539
539 -108 29 -287 29 -395 0 -235 -63 -423 -235 -518 -475 l-23 -58 -18 30
c-18 30 -35 38 -94 43 -26 3 -31 9 -52 67 -12 35 -28 70 -34 78 -10 11 -6 20
17 44 23 24 29 39 29 76 0 88 -86 122 -160 63 -26 -21 -41 -27 -50 -20 -6 5
-41 20 -76 34 l-64 24 -6 47 c-4 35 -12 54 -33 71 l-27 24 3023 0 c2636 0
3036 -2 3123 -15z"/>
<path d="M3627 1760 c-280 -47 -515 -253 -603 -525 -35 -107 -43 -267 -20
-380 25 -126 101 -269 193 -366 159 -166 330 -239 560 -239 135 0 213 18 328
75 123 61 221 145 294 255 91 137 131 266 131 426 0 161 -41 297 -127 425
-167 248 -466 377 -756 329z"/>
<path d="M5207 1754 c-271 -49 -516 -278 -588 -550 -28 -104 -30 -279 -4 -379
25 -101 108 -254 178 -331 97 -106 236 -189 375 -225 104 -26 271 -26 376 1
240 61 450 254 531 487 93 267 25 577 -172 779 -184 188 -431 266 -696 218z"/>
<path d="M6875 1758 c-29 -16 -28 -15 -34 -59 -6 -38 -9 -42 -51 -56 -25 -8
-50 -20 -57 -25 -9 -7 -21 -3 -42 11 -83 59 -173 -23 -110 -102 l20 -27 -23
-60 c-19 -49 -27 -60 -46 -60 -26 0 -63 -17 -74 -34 -4 -6 -8 -26 -8 -43 0
-43 30 -73 73 -73 30 0 33 -4 55 -60 l23 -61 -20 -33 c-26 -41 -26 -67 -3 -94
27 -33 62 -36 102 -10 l35 24 50 -21 c71 -29 75 -33 75 -66 0 -60 77 -92 120
-49 11 11 20 33 20 49 0 33 4 37 75 66 l50 21 35 -24 c79 -53 156 30 99 107
l-21 29 24 61 c20 53 26 61 50 61 41 0 59 11 73 43 23 56 -14 107 -78 107 -18
0 -27 12 -45 60 l-23 60 20 27 c62 77 -27 162 -107 103 l-27 -20 -42 20 c-23
11 -49 20 -57 20 -9 0 -18 10 -20 23 -3 12 -7 34 -10 48 -3 15 -17 31 -31 37
-32 15 -44 15 -70 0z"/>
</g>
</svg>
