<?xml version="1.0" standalone="no"?>
<!DOCTYPE svg PUBLIC "-//W3C//DTD SVG 20010904//EN"
 "http://www.w3.org/TR/2001/REC-SVG-20010904/DTD/svg10.dtd">
<svg version="1.0" xmlns="http://www.w3.org/2000/svg"
 width="512.000000pt" height="512.000000pt" viewBox="0 0 512.000000 512.000000"
 preserveAspectRatio="xMidYMid meet">
<metadata>
Created by potrace 1.11, written by Peter Selinger 2001-2013
</metadata>
<g transform="translate(0.000000,512.000000) scale(0.100000,-0.100000)"
fill="#000000" stroke="none">
<path d="M2728 3763 c0 -4 -2 -51 -3 -103 -3 -167 -55 -243 -295 -435 -204
-163 -269 -248 -270 -350 0 -110 50 -196 205 -352 81 -82 108 -104 126 -101
13 2 25 10 27 19 1 9 -29 64 -67 122 -39 59 -80 125 -91 147 -58 114 -29 208
102 330 216 201 274 264 314 345 36 72 39 87 42 174 3 89 1 100 -25 151 -24
48 -60 77 -65 53z"/>
<path d="M2940 3254 c-159 -54 -304 -137 -375 -215 -21 -23 -49 -66 -62 -96
-22 -47 -25 -66 -21 -127 5 -80 26 -128 94 -220 65 -86 68 -117 19 -190 -28
-42 -32 -64 -11 -72 29 -11 125 60 170 125 64 92 59 164 -19 281 -70 105 -81
137 -61 184 25 59 105 134 231 217 141 92 145 96 145 113 0 24 -37 24 -110 0z"/>
<path d="M3097 2460 c-39 -12 -57 -29 -57 -52 0 -25 20 -32 62 -20 62 17 140
-26 155 -85 17 -71 -70 -184 -199 -258 -83 -48 -100 -85 -38 -85 70 0 237 80
305 146 55 53 75 93 82 158 6 66 -25 129 -84 170 -36 25 -53 30 -120 32 -43 2
-91 -1 -106 -6z"/>
<path d="M2087 2440 c-107 -18 -247 -70 -289 -108 -23 -20 -23 -54 0 -75 31
-28 132 -47 310 -59 410 -28 902 42 902 128 0 13 -4 25 -8 28 -5 3 -67 -4
-138 -14 -71 -10 -195 -24 -275 -30 -177 -15 -525 -10 -554 7 -19 11 -18 13
15 26 19 8 68 25 108 37 63 19 72 25 72 46 0 22 -4 24 -47 23 -27 -1 -70 -5
-96 -9z"/>
<path d="M2038 2145 c-73 -39 -91 -95 -42 -134 102 -80 497 -98 797 -37 157
32 184 56 110 96 -21 11 -46 26 -55 32 -13 9 -45 8 -150 -8 -221 -32 -578 -23
-578 15 0 4 5 12 11 18 17 17 3 43 -23 43 -13 -1 -44 -12 -70 -25z"/>
<path d="M2120 1894 c-154 -67 -77 -177 151 -213 84 -14 267 -14 366 0 43 6
116 23 163 38 74 23 85 30 88 52 3 22 -6 29 -66 58 l-68 33 -124 -17 c-93 -14
-154 -16 -254 -11 -170 8 -184 11 -188 44 -4 32 -22 36 -68 16z"/>
<path d="M1824 1725 c-137 -30 -234 -93 -234 -150 0 -60 37 -75 260 -106 198
-26 668 -37 857 -20 269 26 472 74 551 131 35 25 42 36 42 64 0 37 -25 66 -58
66 -18 0 -22 -6 -22 -30 0 -35 -23 -49 -121 -73 -162 -40 -311 -51 -684 -52
-372 0 -467 8 -580 49 l-40 14 48 22 c26 12 75 26 108 32 46 9 59 15 59 29 0
40 -72 49 -186 24z"/>
<path d="M3321 1554 c-72 -51 -308 -108 -566 -135 -154 -16 -553 -14 -700 4
-66 8 -123 13 -127 10 -15 -8 -8 -42 10 -52 72 -38 403 -66 682 -57 366 11
599 54 711 129 39 26 81 84 77 106 -5 25 -50 22 -87 -5z"/>
</g>
</svg>
