<?xml version="1.0" standalone="no"?>
<!DOCTYPE svg PUBLIC "-//W3C//DTD SVG 20010904//EN"
 "http://www.w3.org/TR/2001/REC-SVG-20010904/DTD/svg10.dtd">
<svg version="1.0" xmlns="http://www.w3.org/2000/svg"
 width="256.000000pt" height="256.000000pt" viewBox="0 0 256.000000 256.000000"
 preserveAspectRatio="xMidYMid meet">
<metadata>
Created by potrace 1.11, written by Peter Selinger 2001-2013
</metadata>
<g transform="translate(0.000000,256.000000) scale(0.100000,-0.100000)"
fill="#000000" stroke="none">
<path d="M1080 2365 c-146 -30 -156 -39 -210 -215 l-44 -139 -45 -6 c-248 -33
-361 -91 -361 -186 0 -53 20 -90 72 -132 56 -45 130 -82 236 -116 l86 -28 17
-49 c10 -27 18 -54 18 -61 1 -6 -21 -16 -49 -23 -27 -7 -50 -17 -50 -23 0 -7
12 -40 27 -75 14 -34 24 -64 22 -66 -2 -2 -42 -23 -89 -47 -48 -25 -110 -67
-144 -99 l-59 -56 -28 -355 c-15 -194 -25 -357 -22 -362 21 -35 222 -97 403
-124 166 -26 684 -25 855 0 207 31 396 88 420 127 4 6 -13 167 -36 358 l-43
347 -60 60 c-40 40 -90 75 -146 104 -47 24 -87 45 -89 47 -2 2 8 32 22 66 15
35 27 68 27 75 0 6 -22 16 -50 23 -27 7 -50 17 -49 23 0 7 8 34 18 61 l17 49
86 28 c205 67 308 149 308 247 0 96 -112 154 -361 187 l-46 6 -42 136 c-24 79
-50 147 -63 160 -23 25 -83 47 -172 62 -81 15 -296 12 -376 -4z m137 -740 c-2
-5 -27 -18 -57 -28 -65 -22 -123 -15 -178 20 -44 29 -92 96 -92 129 0 20 9 18
165 -44 91 -37 164 -71 162 -77z m440 78 c-51 -98 -160 -141 -261 -105 -27 9
-51 22 -53 27 -2 6 70 40 159 76 140 55 163 62 166 48 2 -10 -3 -30 -11 -46z"/>
</g>
</svg>
