<?xml version="1.0" standalone="no"?>
<!DOCTYPE svg PUBLIC "-//W3C//DTD SVG 20010904//EN"
 "http://www.w3.org/TR/2001/REC-SVG-20010904/DTD/svg10.dtd">
<svg version="1.0" xmlns="http://www.w3.org/2000/svg"
 width="512.000000pt" height="512.000000pt" viewBox="0 0 512.000000 512.000000"
 preserveAspectRatio="xMidYMid meet">
<metadata>
Created by potrace 1.11, written by Peter Selinger 2001-2013
</metadata>
<g transform="translate(0.000000,512.000000) scale(0.100000,-0.100000)"
fill="#000000" stroke="none">
<path d="M155 4510 c-11 -4 -31 -20 -45 -35 l-25 -27 -3 -1524 -2 -1524 34
-38 34 -37 2411 0 2411 0 32 33 33 32 0 1530 0 1530 -33 32 -32 33 -2398 2
c-1318 1 -2406 -2 -2417 -7z m4645 -1590 l0 -1360 -2240 0 -2240 0 0 1360 0
1360 2240 0 2240 0 0 -1360z"/>
<path d="M2233 3370 c-58 -23 -66 -101 -17 -160 31 -36 53 -38 82 -7 45 48 53
104 20 141 -27 29 -55 38 -85 26z"/>
<path d="M3200 3295 c-213 -33 -366 -135 -415 -274 -19 -57 -19 -176 0 -232
20 -57 67 -104 121 -123 24 -8 57 -30 74 -50 49 -55 108 -79 197 -78 42 1 95
4 118 8 40 6 42 5 78 -43 29 -37 82 -83 114 -98 2 -1 -5 -20 -14 -43 -20 -51
-8 -88 32 -98 29 -7 75 18 75 42 0 44 117 196 252 327 86 84 108 128 108 222
0 89 -20 162 -62 232 -107 179 -362 257 -678 208z m349 -120 c173 -41 271
-153 273 -313 1 -63 -21 -110 -62 -132 -11 -6 -58 -55 -106 -111 -78 -91 -89
-100 -117 -97 -25 2 -42 16 -85 73 -30 39 -61 74 -69 79 -9 5 -40 3 -77 -5
-33 -8 -90 -14 -126 -14 -74 0 -111 19 -130 66 -10 23 -23 32 -66 45 -63 18
-90 48 -99 108 -23 148 108 268 333 306 82 14 263 11 331 -5z"/>
<path d="M3264 3085 c-17 -9 -39 -31 -49 -48 -16 -30 -20 -32 -72 -32 -50 0
-57 -3 -88 -37 -57 -62 -68 -147 -21 -156 25 -5 43 14 50 52 4 18 15 41 26 51
19 17 30 17 104 -1 33 -8 56 13 56 51 0 51 75 73 123 35 33 -26 61 -25 79 2
12 18 23 21 61 20 37 -2 46 1 51 16 15 47 -21 69 -96 58 -55 -8 -71 -8 -138
-1 -40 4 -63 1 -86 -10z"/>
<path d="M3480 2908 c-46 -31 -76 -91 -64 -127 16 -44 74 -36 74 10 0 26 35
59 63 59 13 0 32 -9 42 -20 32 -35 84 -15 71 28 -21 65 -123 93 -186 50z"/>
<path d="M1300 3198 c-84 -29 -156 -83 -218 -161 -56 -70 -152 -233 -152 -257
0 -22 84 -166 142 -244 183 -246 507 -264 707 -40 59 67 171 253 171 285 0 39
-119 227 -191 301 -94 96 -168 130 -298 135 -81 3 -106 0 -161 -19z m291 -130
c25 -15 64 -47 88 -73 50 -55 141 -193 141 -216 0 -25 -115 -192 -160 -233
-68 -61 -132 -86 -220 -85 -86 1 -121 11 -184 56 -47 34 -126 133 -172 216
l-26 48 43 74 c61 107 127 178 202 215 58 30 67 31 152 28 76 -3 98 -8 136
-30z"/>
<path d="M1350 2968 c-131 -66 -157 -231 -54 -334 105 -105 272 -75 335 61 81
174 -110 359 -281 273z"/>
<path d="M4102 3198 c-18 -23 -171 -811 -161 -830 12 -21 42 -23 58 -4 6 7 48
194 92 415 84 419 85 431 39 431 -10 0 -22 -6 -28 -12z"/>
<path d="M2217 3142 c-15 -16 -17 -45 -17 -200 0 -235 -11 -222 178 -222 l137
0 85 -130 c47 -71 94 -133 105 -137 31 -11 52 -4 121 39 55 35 65 45 62 66 -5
43 -31 49 -77 19 l-41 -27 -81 122 c-121 182 -100 168 -246 168 l-123 0 0 70
0 69 111 3 c94 3 114 6 123 21 8 12 8 22 0 35 -9 14 -29 17 -123 20 l-111 3 0
29 c0 58 -67 92 -103 52z"/>
<path d="M665 2927 c-174 -106 -200 -125 -200 -147 0 -22 26 -41 200 -147 152
-93 207 -122 230 -120 24 2 31 7 33 28 3 24 -11 34 -172 130 -97 57 -175 106
-176 109 0 3 77 50 170 105 166 98 195 123 175 154 -16 27 -70 3 -260 -112z"/>
<path d="M4197 3043 c-4 -3 -7 -16 -7 -28 0 -18 32 -42 175 -126 96 -57 174
-106 174 -109 0 -3 -78 -52 -175 -109 -161 -96 -175 -106 -172 -130 6 -53 41
-40 259 91 177 107 204 127 204 148 0 22 -26 41 -200 147 -182 110 -239 136
-258 116z"/>
<path d="M2103 2876 c-77 -71 -108 -140 -108 -241 0 -71 4 -89 33 -147 36 -73
86 -123 161 -160 37 -18 63 -23 136 -23 84 0 94 2 154 35 59 32 141 114 141
142 0 5 -18 35 -40 65 -33 46 -41 52 -46 37 -33 -104 -108 -163 -207 -164
-164 -1 -268 170 -192 315 22 40 25 58 23 119 l-3 71 -52 -49z"/>
<path d="M138 1063 c-53 -33 -60 -62 -56 -235 l3 -158 33 -32 32 -33 2410 0
2410 0 32 33 33 32 0 171 0 171 -37 34 -38 34 -2397 0 c-2226 -1 -2400 -2
-2425 -17z m2637 -168 c16 -15 25 -36 25 -55 0 -19 -9 -40 -25 -55 -24 -25
-26 -25 -215 -25 -189 0 -191 0 -215 25 -16 15 -25 36 -25 55 0 19 9 40 25 55
24 25 26 25 215 25 189 0 191 0 215 -25z"/>
</g>
</svg>
