<?xml version="1.0" standalone="no"?>
<!DOCTYPE svg PUBLIC "-//W3C//DTD SVG 20010904//EN"
 "http://www.w3.org/TR/2001/REC-SVG-20010904/DTD/svg10.dtd">
<svg version="1.0" xmlns="http://www.w3.org/2000/svg"
 width="256.000000pt" height="256.000000pt" viewBox="0 0 256.000000 256.000000"
 preserveAspectRatio="xMidYMid meet">
<metadata>
Created by potrace 1.11, written by Peter Selinger 2001-2013
</metadata>
<g transform="translate(0.000000,256.000000) scale(0.100000,-0.100000)"
fill="#000000" stroke="none">
<path d="M797 2548 c-3 -7 139 -157 314 -333 l319 -321 0 -594 0 -595 178
-178 c97 -97 183 -177 190 -177 35 0 -4 51 -158 205 l-170 170 0 595 0 595
-323 323 c-177 177 -327 322 -334 322 -6 0 -13 -6 -16 -12z"/>
<path d="M1087 2546 c-4 -9 76 -93 224 -236 l229 -222 0 -592 0 -591 170 -170
169 -169 -6 -42 c-6 -49 14 -88 56 -102 65 -23 126 20 126 90 0 57 -40 90
-102 87 l-44 -3 -164 164 -165 165 0 593 0 593 -152 147 c-347 335 -329 319
-341 288z"/>
<path d="M1650 1548 l0 -553 155 -155 155 -155 0 529 0 529 -47 56 c-27 30
-96 111 -155 179 l-108 123 0 -553z"/>
<path d="M1143 1825 c-87 -37 -61 -175 33 -175 l34 0 0 -483 0 -482 -325 -325
c-179 -179 -325 -330 -325 -337 0 -41 50 2 356 308 l334 334 0 501 c0 409 3
508 14 535 35 84 -39 159 -121 124z"/>
<path d="M1337 1824 c-4 -4 -7 -275 -7 -603 l0 -595 -221 -222 c-202 -202
-235 -244 -196 -244 7 0 112 100 235 223 l222 222 -2 609 c-3 587 -5 635 -31
610z"/>
<path d="M994 1508 c-29 -13 -47 -50 -46 -90 1 -41 49 -88 90 -88 l28 0 -4
-287 -4 -288 -205 -206 c-204 -205 -206 -207 -243 -202 -46 6 -75 -8 -96 -48
-39 -77 39 -159 119 -125 44 18 60 47 54 95 -4 35 -1 39 209 252 l214 215 0
315 c0 216 3 318 11 326 6 6 11 28 11 49 0 69 -75 113 -138 82z"/>
<path d="M763 1068 l-162 -173 0 -228 -1 -228 133 138 c74 76 148 154 166 175
l31 36 -2 227 -3 226 -162 -173z"/>
</g>
</svg>
