<?xml version="1.0" standalone="no"?>
<!DOCTYPE svg PUBLIC "-//W3C//DTD SVG 20010904//EN"
 "http://www.w3.org/TR/2001/REC-SVG-20010904/DTD/svg10.dtd">
<svg version="1.0" xmlns="http://www.w3.org/2000/svg"
 width="500.000000pt" height="240.000000pt" viewBox="0 0 500.000000 240.000000"
 preserveAspectRatio="xMidYMid meet">
<metadata>
Created by potrace 1.11, written by Peter Selinger 2001-2013
</metadata>
<g transform="translate(0.000000,240.000000) scale(0.100000,-0.100000)"
fill="#000000" stroke="none">
<path d="M2930 2235 c-55 -25 -98 -62 -126 -110 l-26 -45 -217 0 c-251 0 -309
-8 -408 -57 -82 -40 -109 -65 -458 -436 -121 -129 -233 -243 -250 -253 -60
-38 -88 -42 -267 -43 l-178 -1 -6 28 c-25 104 -122 220 -227 272 -173 85 -371
53 -506 -81 -290 -291 -54 -784 356 -746 89 9 197 60 262 125 48 48 101 138
115 195 l6 27 506 0 c496 0 506 0 556 -22 42 -18 95 -69 344 -332 415 -438
398 -428 767 -434 l247 -4 0 -84 0 -84 265 0 265 0 0 260 0 260 -265 0 -265 0
0 -85 0 -85 -236 0 c-216 0 -239 2 -284 21 -39 17 -91 66 -277 262 -126 133
-246 261 -267 285 l-38 42 1015 0 1016 0 3 -105 3 -104 250 144 c137 79 251
148 253 153 1 4 -111 74 -250 154 l-253 146 -3 -104 -3 -104 -1346 0 -1347 0
50 53 c28 28 147 153 263 277 117 124 231 236 254 250 41 25 45 25 297 28
l255 3 35 -53 c22 -32 54 -64 84 -83 45 -27 57 -30 135 -30 93 0 126 13 186
72 124 123 85 342 -74 420 -49 24 -165 28 -211 8z"/>
</g>
</svg>
