<?xml version="1.0" standalone="no"?>
<!DOCTYPE svg PUBLIC "-//W3C//DTD SVG 20010904//EN"
 "http://www.w3.org/TR/2001/REC-SVG-20010904/DTD/svg10.dtd">
<svg version="1.0" xmlns="http://www.w3.org/2000/svg"
 width="812.000000pt" height="811.000000pt" viewBox="0 0 812.000000 811.000000"
 preserveAspectRatio="xMidYMid meet">
<metadata>
Created by potrace 1.11, written by Peter Selinger 2001-2013
</metadata>
<g transform="translate(0.000000,811.000000) scale(0.100000,-0.100000)"
fill="#000000" stroke="none">
<path d="M2121 7918 c-10 -24 -48 -121 -86 -216 -55 -139 -72 -173 -89 -177
-12 -2 -68 -6 -124 -9 -57 -4 -138 -13 -179 -22 -41 -8 -81 -13 -89 -10 -7 3
-67 86 -134 186 -67 100 -128 184 -137 187 -20 8 -66 -8 -188 -68 -147 -71
-285 -163 -285 -189 0 -12 35 -106 78 -208 44 -103 82 -195 85 -204 4 -12 -16
-39 -69 -94 -42 -43 -100 -112 -130 -154 -30 -43 -61 -83 -69 -90 -12 -10 -56
-5 -236 30 -187 36 -223 40 -234 29 -31 -31 -118 -314 -140 -456 -8 -53 -8
-54 226 -149 100 -41 189 -79 196 -86 11 -8 14 -36 12 -106 l-2 -95 57 -1 c39
-1 60 -6 66 -16 23 -37 50 -192 50 -285 l0 -97 29 -11 c16 -6 32 -20 35 -31 3
-12 6 -103 6 -203 l0 -183 33 20 c45 28 62 25 94 -16 23 -29 151 -132 287
-229 l28 -20 -43 -223 c-32 -164 -40 -228 -33 -240 20 -31 269 -115 409 -136
22 -4 52 -9 67 -12 31 -6 20 -26 125 231 35 88 71 170 79 183 14 21 21 22 125
22 60 0 144 7 185 16 124 25 129 23 201 -81 34 -49 67 -102 74 -117 l11 -28
133 0 c94 0 147 -5 182 -16 l49 -16 73 47 c81 52 141 102 141 117 0 5 -35 94
-78 196 -44 103 -82 194 -85 203 -4 12 21 46 80 109 46 51 109 130 140 176 41
63 60 84 76 84 12 0 101 -16 197 -35 96 -19 191 -35 211 -35 35 0 38 3 62 58
55 122 117 345 117 420 0 16 -6 34 -12 39 -7 6 -102 45 -211 88 -160 63 -198
82 -202 99 -2 12 -6 64 -9 117 -2 53 -12 137 -22 187 -9 49 -14 96 -11 105 3
8 70 58 149 112 197 134 218 152 218 181 0 66 -222 454 -260 454 -5 0 -99 -38
-209 -85 -110 -47 -206 -85 -212 -85 -6 0 -45 31 -85 69 -41 39 -117 98 -169
133 -55 37 -94 70 -95 80 0 9 11 67 24 130 13 62 32 157 41 211 17 93 17 99 0
117 -25 28 -104 55 -289 101 -207 51 -212 51 -235 -3z m-86 -1113 c142 -30
296 -126 380 -236 98 -131 145 -265 145 -419 0 -370 -298 -670 -666 -670 -261
0 -479 130 -596 356 -61 116 -81 195 -80 309 2 211 99 413 255 531 169 126
363 171 562 129z"/>
<path d="M1730 6711 c-160 -51 -297 -163 -360 -295 -46 -97 -60 -160 -60 -269
0 -294 214 -532 510 -570 257 -32 500 114 603 363 92 221 48 446 -119 617 -77
78 -165 128 -279 158 -80 20 -225 19 -295 -4z m281 -150 c133 -45 211 -112
265 -224 100 -208 9 -463 -201 -566 -214 -106 -466 -19 -572 197 -37 74 -38
79 -38 187 0 108 1 113 38 187 53 109 144 183 272 224 61 19 173 17 236 -5z"/>
<path d="M5250 7690 c-204 -37 -446 -106 -483 -138 -21 -18 -22 5 24 -336 17
-121 29 -233 27 -250 -3 -27 -14 -37 -90 -81 -87 -51 -208 -140 -299 -221 -27
-24 -56 -44 -63 -44 -7 0 -100 42 -207 94 -271 131 -337 158 -354 149 -20 -12
-117 -143 -182 -248 -67 -107 -163 -302 -163 -330 0 -23 2 -24 269 -225 126
-94 201 -157 201 -168 0 -9 -11 -53 -24 -98 -24 -79 -40 -188 -52 -336 -4 -51
-11 -81 -21 -90 -9 -7 -138 -56 -287 -109 l-271 -96 -3 -38 c-4 -43 22 -225
43 -300 37 -138 85 -303 94 -328 10 -25 14 -27 48 -22 21 3 133 19 248 36 116
16 235 33 266 36 l56 5 48 -83 c59 -102 189 -280 244 -334 23 -21 41 -47 41
-56 0 -9 -44 -107 -99 -218 -97 -198 -98 -201 -72 -201 106 0 208 -95 301
-280 18 -36 40 -87 50 -115 16 -47 20 -51 76 -72 32 -13 68 -22 79 -21 13 2
81 85 193 233 95 127 177 231 182 233 4 2 81 -13 170 -33 99 -22 204 -38 271
-42 81 -4 112 -10 122 -22 8 -9 54 -134 102 -279 48 -144 95 -267 103 -274 11
-10 42 -9 146 4 103 14 170 30 318 78 103 33 194 68 203 76 10 11 14 26 11 43
-14 65 -67 515 -64 538 2 21 22 37 103 86 99 58 180 119 303 225 l63 54 261
-126 c143 -70 268 -126 277 -124 55 11 368 516 359 580 -2 16 -59 65 -193 166
-255 192 -275 209 -275 235 0 12 12 64 25 116 15 58 29 150 35 235 6 78 13
150 15 162 4 17 49 36 267 113 145 52 274 100 287 108 21 14 23 19 16 71 -21
178 -120 555 -157 599 -14 18 -46 15 -357 -28 -118 -17 -225 -29 -239 -27 -20
2 -35 20 -73 86 -66 114 -125 195 -208 284 -39 42 -71 80 -71 85 0 6 59 130
130 276 72 145 128 271 125 278 -7 17 -177 143 -270 199 -96 59 -285 150 -312
150 -29 0 -34 -5 -220 -252 -128 -171 -168 -218 -186 -218 -12 0 -54 9 -93 20
-82 22 -280 50 -359 50 -46 0 -57 4 -69 23 -7 12 -53 137 -101 277 -48 140
-92 261 -98 268 -13 16 -61 14 -187 -8z m584 -1490 c142 -36 317 -141 424
-253 218 -232 293 -612 176 -904 -56 -139 -153 -276 -260 -365 -76 -64 -235
-140 -349 -169 -116 -29 -296 -31 -400 -5 -102 26 -278 115 -357 180 -138 114
-243 278 -289 451 -32 119 -32 329 0 442 39 139 118 277 225 390 197 212 539
308 830 233z"/>
<path d="M5530 6109 c-150 -15 -314 -94 -425 -203 -153 -152 -235 -337 -235
-535 0 -277 119 -498 346 -644 136 -87 266 -123 417 -115 291 17 527 158 640
384 75 149 92 218 91 364 -1 145 -16 216 -74 335 -136 281 -441 448 -760 414z
m200 -203 c188 -40 351 -178 409 -347 66 -192 44 -357 -70 -518 -206 -294
-621 -315 -868 -45 -110 120 -161 311 -127 471 65 307 357 502 656 439z"/>
<path d="M521 5893 c-6 -21 -11 -108 -11 -193 0 -85 -3 -164 -6 -176 -3 -11
-19 -25 -35 -31 l-29 -11 0 -671 c0 -767 -11 -691 100 -691 111 0 100 -76 100
691 l0 669 -24 11 c-33 15 -36 31 -37 204 -1 148 -13 225 -36 232 -7 3 -16
-12 -22 -34z"/>
<path d="M286 5613 c-57 -40 -99 -77 -102 -90 -6 -21 45 -147 106 -263 l29
-55 1 175 c0 96 3 184 6 196 3 11 19 25 35 31 23 9 29 17 29 42 0 17 -2 31 -3
31 -2 0 -47 -30 -101 -67z"/>
<path d="M2125 4423 c-165 -35 -318 -125 -465 -273 -86 -87 -206 -240 -233
-298 -8 -18 -6 -27 13 -47 13 -14 30 -25 38 -25 8 0 44 22 81 49 135 100 273
159 432 187 95 16 131 13 190 -16 43 -22 58 -53 73 -150 l12 -75 199 0 200 0
6 70 c3 39 11 80 17 92 33 60 162 111 245 98 66 -11 96 -32 116 -78 23 -53 52
-67 141 -67 140 0 150 17 150 260 0 200 -6 227 -60 255 -17 9 -55 15 -93 15
-71 0 -105 -18 -132 -70 -19 -37 -85 -63 -137 -55 -23 4 -62 25 -99 53 -134
103 -90 92 -373 91 -182 0 -270 -5 -321 -16z"/>
<path d="M273 4074 c-7 -3 -17 -20 -23 -39 -6 -18 -22 -41 -36 -49 -22 -15
-24 -23 -24 -90 0 -67 2 -76 29 -104 35 -37 34 -26 61 -477 21 -347 24 -375
41 -375 5 0 14 -12 20 -27 5 -15 25 -361 43 -769 19 -408 37 -747 40 -753 4
-6 20 -11 36 -11 27 0 29 -3 35 -47 42 -333 91 -433 313 -642 110 -102 137
-134 164 -189 31 -63 33 -73 33 -179 0 -69 4 -116 11 -123 6 -6 27 -10 45 -8
33 3 34 5 42 58 5 30 6 92 4 138 -4 68 -11 95 -41 159 -33 68 -54 93 -195 232
-132 131 -163 167 -189 221 -42 90 -72 200 -79 298 l-6 82 25 0 c14 0 30 6 35
12 6 8 24 330 42 743 17 402 34 744 36 760 3 17 14 38 24 47 24 20 25 34 51
453 11 182 23 342 26 357 3 14 16 34 30 42 22 15 24 23 24 96 0 72 -2 80 -25
98 -14 11 -25 29 -25 39 0 11 -8 27 -18 36 -16 15 -50 17 -278 16 -142 0 -264
-3 -271 -5z"/>
<path d="M2265 3670 c-4 -6 1 -90 10 -188 38 -423 36 -776 -4 -1077 -36 -264
-41 -413 -41 -1263 l0 -834 29 -29 29 -29 172 0 172 0 29 30 30 29 -4 943 -3
943 -29 195 c-27 182 -29 216 -30 505 0 192 6 376 15 485 8 96 15 202 15 235
l0 60 -192 3 c-125 1 -194 -1 -198 -8z"/>
<path d="M4045 3487 c-62 -64 -115 -155 -149 -259 -30 -89 -33 -188 -12 -383
15 -131 17 -119 -45 -230 -33 -58 -34 -64 -34 -165 0 -95 3 -110 28 -160 39
-76 108 -143 181 -177 52 -23 74 -28 151 -28 82 0 97 3 156 32 205 101 271
354 143 544 l-35 53 10 81 c6 44 14 136 17 205 7 148 -5 208 -68 338 -50 103
-142 206 -179 200 l-24 -3 -3 -245 c-1 -143 -6 -248 -12 -254 -18 -18 -10 -41
20 -61 36 -24 38 -37 8 -58 l-23 -15 35 -30 34 -29 -37 -24 c-20 -13 -37 -28
-37 -32 0 -4 20 -16 45 -27 51 -22 61 -50 18 -49 -39 1 -176 51 -181 66 -2 7
11 21 28 30 68 38 68 38 22 67 -48 30 -52 42 -17 58 32 15 32 31 -2 57 l-28
21 40 34 40 34 3 210 c4 277 -3 292 -93 199z m191 -923 l64 -36 0 -78 0 -79
-67 -40 -67 -40 -56 31 c-83 47 -80 42 -80 129 l0 78 63 35 c34 20 66 36 70
36 5 0 38 -16 73 -36z"/>
<path d="M3648 2105 c-3 -3 3 -34 14 -68 37 -115 31 -148 -65 -362 -73 -164
-117 -290 -162 -470 -59 -235 -76 -363 -82 -616 -5 -188 -3 -219 11 -247 52
-100 219 -96 258 6 11 26 15 82 16 187 2 382 98 764 284 1136 75 151 90 193
68 201 -6 2 5 28 25 58 19 30 35 62 35 70 0 10 -32 32 -80 58 l-80 41 -21 -22
c-11 -12 -28 -34 -37 -49 l-16 -27 -77 55 c-80 56 -82 57 -91 49z"/>
<path d="M4580 2056 l-74 -54 -31 44 c-16 24 -34 44 -39 44 -25 0 -166 -76
-166 -90 0 -8 16 -40 35 -70 23 -36 32 -57 25 -64 -18 -18 -11 -44 33 -123 96
-174 197 -433 246 -633 51 -208 89 -544 76 -662 -8 -69 17 -133 64 -161 40
-23 117 -22 158 3 56 34 63 60 63 247 0 403 -91 812 -262 1173 -81 172 -86
209 -44 342 23 74 15 75 -84 4z"/>
<path d="M5440 1075 c-30 -9 -79 -30 -109 -48 -55 -33 -135 -121 -128 -141 2
-7 50 -12 137 -14 76 -1 139 -7 147 -13 22 -19 95 -153 95 -176 1 -22 -85
-172 -106 -185 -6 -4 -68 -8 -138 -8 -147 0 -152 -4 -94 -74 62 -75 196 -136
301 -136 114 0 248 68 323 166 l42 54 962 2 963 3 37 23 c55 34 81 83 82 153
1 49 -4 64 -29 100 -61 85 19 79 -1020 79 -506 0 -937 3 -958 7 -31 5 -47 16
-79 57 -47 59 -128 120 -189 141 -65 23 -174 28 -239 10z"/>
</g>
</svg>
