<?xml version="1.0" standalone="no"?>
<!DOCTYPE svg PUBLIC "-//W3C//DTD SVG 20010904//EN"
 "http://www.w3.org/TR/2001/REC-SVG-20010904/DTD/svg10.dtd">
<svg version="1.0" xmlns="http://www.w3.org/2000/svg"
 width="468.000000pt" height="453.000000pt" viewBox="0 0 468.000000 453.000000"
 preserveAspectRatio="xMidYMid meet">
<metadata>
Created by potrace 1.11, written by Peter Selinger 2001-2013
</metadata>
<g transform="translate(0.000000,453.000000) scale(0.100000,-0.100000)"
fill="#000000" stroke="none">
<path d="M1375 4213 c-211 -8 -871 -25 -937 -24 -42 1 -79 -3 -82 -8 -9 -14
422 -293 1021 -660 l152 -93 7 -45 c4 -25 3 -84 -1 -132 -4 -47 -8 -104 -10
-126 -1 -22 -5 -60 -8 -85 -6 -42 -9 -74 -22 -205 -2 -27 -12 -131 -20 -230
-27 -308 -13 -266 -175 -525 -32 -52 -74 -120 -93 -150 -19 -30 -77 -124 -130
-208 -54 -84 -97 -156 -97 -160 0 -16 112 -44 172 -43 76 0 146 32 204 93 23
24 130 151 239 283 108 132 215 253 237 269 74 53 135 52 350 -4 105 -28 128
-27 128 5 0 7 9 20 20 30 17 16 31 17 116 11 53 -4 105 -11 116 -15 14 -5 27
-29 44 -82 l24 -75 52 -19 c29 -10 58 -20 64 -22 6 -2 33 14 61 37 28 22 55
40 60 40 4 0 60 -32 123 -71 l115 -71 250 4 c217 4 255 7 285 23 31 16 52 17
200 12 146 -5 173 -3 234 14 89 27 150 80 171 152 28 94 29 93 -82 100 -54 3
-220 6 -369 7 -254 1 -272 0 -276 -17 -4 -12 -39 -32 -102 -57 l-97 -39 -38
37 c-30 30 -53 41 -117 56 -43 11 -89 20 -100 20 -12 0 -54 -25 -94 -55 -47
-37 -77 -54 -89 -50 -10 3 -58 23 -107 45 l-89 40 0 79 c0 77 -1 80 -37 120
l-37 41 -98 0 -99 0 -53 113 -52 112 28 25 c16 14 45 39 66 55 l38 30 -11 79
c-6 43 -12 90 -13 105 -2 19 -15 34 -47 56 -25 17 -56 38 -69 47 l-25 18 22
52 c67 166 76 201 77 298 0 88 -2 100 -33 163 -38 76 -112 160 -227 257 -107
90 -249 212 -255 219 -3 4 -37 34 -76 69 l-71 62 -134 -2 c-74 -1 -165 -3
-204 -5z"/>
<path d="M2863 3547 c-29 -13 -55 -25 -58 -29 -3 -3 -6 -44 -6 -92 l0 -86 -45
-31 c-24 -18 -51 -43 -60 -57 -16 -24 -18 -24 -113 -18 l-97 7 -29 -60 -29
-61 62 -63 61 -64 -5 -109 -6 -109 -59 -55 c-32 -31 -59 -61 -59 -68 0 -6 10
-35 22 -63 l23 -52 83 6 83 6 60 -62 60 -62 -6 -65 c-3 -36 -7 -74 -8 -85 -2
-20 31 -41 106 -66 l39 -13 53 58 54 58 78 -5 c43 -4 96 -6 118 -7 37 0 44 -5
83 -55 24 -30 50 -55 59 -55 9 0 40 8 70 17 l53 17 0 82 0 82 48 42 c77 69 78
69 168 62 l82 -8 32 65 31 64 -56 57 -56 57 5 69 c3 38 5 90 5 116 1 44 4 48
60 95 33 26 60 53 60 60 1 7 -9 38 -20 69 l-21 56 -79 -4 -79 -5 -61 64 -61
63 6 88 6 88 -61 32 c-70 37 -71 37 -144 -37 l-49 -51 -111 5 -110 6 -60 64
c-33 36 -62 65 -65 65 -3 -1 -28 -11 -57 -23z m337 -291 c67 -14 164 -65 212
-110 60 -57 118 -193 118 -276 0 -68 -26 -146 -76 -226 -34 -56 -55 -78 -101
-106 -77 -46 -126 -64 -199 -73 -108 -12 -239 40 -320 127 -32 35 -84 127 -99
176 -23 77 -8 172 45 278 32 65 50 89 92 121 66 50 103 69 170 87 67 19 79 19
158 2z"/>
<path d="M2373 2099 c-11 -19 -30 -53 -43 -75 -20 -37 -27 -42 -68 -48 -84
-11 -94 -9 -147 44 -27 27 -55 49 -62 50 -6 0 -37 -10 -68 -22 l-57 -21 7 -81
7 -81 -69 -46 -68 -46 -70 19 c-38 9 -75 18 -81 18 -6 0 -28 -24 -49 -54 l-37
-54 43 -58 42 -58 -29 -85 -29 -86 -75 -24 c-41 -13 -76 -24 -77 -25 -1 -1 -5
-31 -8 -66 l-7 -65 75 -29 74 -29 12 -63 c15 -73 10 -88 -49 -134 -46 -36 -48
-48 -19 -124 l22 -56 89 0 89 0 32 -36 c48 -54 48 -55 30 -138 -19 -86 -22
-80 65 -132 l43 -26 37 24 c73 49 99 53 179 28 l72 -22 16 -56 c28 -100 24
-97 102 -100 l70 -3 39 68 39 68 63 8 62 9 43 -41 c78 -75 79 -75 139 -50 77
32 80 36 77 93 -4 97 -3 99 61 145 l61 42 74 -20 c42 -12 76 -21 78 -21 7 0
77 98 77 108 0 6 -18 39 -39 72 -43 66 -43 59 -3 152 20 46 22 47 99 70 l78
24 3 70 3 70 -60 27 c-69 31 -79 45 -87 124 l-6 59 55 44 c31 25 56 52 57 61
0 9 -10 40 -23 69 l-24 53 -89 -1 -89 -2 -45 56 c-25 31 -44 61 -43 67 0 7 9
43 20 81 13 51 15 70 6 73 -6 2 -33 21 -59 40 l-48 37 -77 -42 -78 -41 -68 23
-68 23 -29 79 c-16 43 -30 80 -30 81 -1 1 -33 4 -72 8 l-71 7 -20 -33z m130
-305 c148 -38 249 -95 333 -186 130 -141 185 -320 150 -488 -45 -214 -199
-379 -425 -456 -200 -67 -482 11 -637 176 -195 208 -215 473 -54 710 130 191
414 301 633 244z"/>
<path d="M3599 1895 c-3 -2 -90 -5 -194 -6 -105 -1 -223 -4 -263 -7 -68 -4
-74 -6 -87 -33 -23 -43 -18 -62 25 -104 l41 -40 217 3 217 3 30 -58 c18 -35
38 -59 49 -62 11 -2 66 7 123 19 l103 23 99 -46 c110 -52 163 -59 228 -31 54
23 96 86 101 151 l4 51 -98 4 c-96 4 -101 5 -172 47 l-73 43 -84 -21 c-115
-29 -117 -28 -143 24 -21 44 -23 45 -70 45 -27 0 -51 -2 -53 -5z"/>
<path d="M3408 1662 c-49 -1 -88 -6 -88 -10 0 -4 25 -68 55 -142 48 -119 57
-135 79 -138 19 -3 44 -29 101 -107 86 -118 140 -155 225 -155 58 0 112 18
108 35 -2 8 -39 90 -82 183 l-80 169 -80 29 c-76 27 -83 32 -107 77 -14 26
-30 51 -35 55 -5 4 -48 6 -96 4z"/>
</g>
</svg>
