<?xml version="1.0" standalone="no"?>
<!DOCTYPE svg PUBLIC "-//W3C//DTD SVG 20010904//EN"
 "http://www.w3.org/TR/2001/REC-SVG-20010904/DTD/svg10.dtd">
<svg version="1.0" xmlns="http://www.w3.org/2000/svg"
 width="450.000000pt" height="450.000000pt" viewBox="0 0 450.000000 450.000000"
 preserveAspectRatio="xMidYMid meet">
<metadata>
Created by potrace 1.11, written by Peter Selinger 2001-2013
</metadata>
<g transform="translate(0.000000,450.000000) scale(0.100000,-0.100000)"
fill="#000000" stroke="none">
<path d="M940 2700 l0 -1310 1310 0 1310 0 0 1310 0 1310 -1310 0 -1310 0 0
-1310z m1012 923 c15 -14 18 -32 18 -125 l0 -108 120 0 119 0 3 116 c3 99 6
119 21 128 12 8 22 8 35 0 14 -9 17 -29 20 -128 l3 -116 119 0 120 0 0 107 c0
85 3 110 17 125 20 22 31 23 55 1 15 -14 18 -32 18 -125 l0 -108 160 0 160 0
0 -160 0 -160 107 0 c85 0 110 -3 125 -17 22 -20 23 -31 1 -55 -14 -15 -32
-18 -125 -18 l-108 0 0 -120 0 -119 116 -3 c99 -3 119 -6 128 -20 8 -13 8 -23
0 -35 -9 -15 -29 -18 -128 -21 l-116 -3 0 -119 0 -120 107 0 c85 0 110 -3 125
-17 22 -20 23 -31 1 -55 -14 -15 -32 -18 -125 -18 l-108 0 0 -160 0 -160 -160
0 -160 0 0 -107 c0 -85 -3 -110 -17 -125 -20 -22 -31 -23 -55 -1 -15 14 -18
32 -18 125 l0 108 -120 0 -119 0 -3 -116 c-3 -99 -6 -119 -20 -128 -13 -8 -23
-8 -35 0 -15 9 -18 29 -21 128 l-3 116 -119 0 -120 0 0 -107 c0 -85 -3 -110
-17 -125 -20 -22 -31 -23 -55 -1 -15 14 -18 32 -18 125 l0 108 -160 0 -160 0
0 160 0 160 -107 0 c-85 0 -110 3 -125 17 -22 20 -23 31 -1 55 14 15 32 18
125 18 l108 0 0 120 0 119 -116 3 c-99 3 -119 6 -128 21 -8 12 -8 22 0 35 9
14 29 17 128 20 l116 3 0 119 0 120 -107 0 c-85 0 -110 3 -125 17 -22 20 -23
31 -1 55 14 15 32 18 125 18 l108 0 0 160 0 160 160 0 160 0 0 107 c0 85 3
110 17 125 20 22 31 23 55 1z"/>
<path d="M1870 2700 l0 -380 118 0 c64 -1 233 -1 375 -1 142 -1 260 1 262 3 7
6 7 69 6 431 l-1 327 -380 0 -380 0 0 -380z"/>
<path d="M150 505 l0 -375 375 0 375 0 0 375 0 375 -375 0 -375 0 0 -375z
m310 195 c0 -25 4 -30 25 -30 21 0 25 5 25 30 0 20 5 30 15 30 10 0 15 -10 15
-30 0 -25 4 -30 25 -30 21 0 25 5 25 31 0 38 24 35 28 -4 3 -23 8 -27 38 -27
32 0 34 -2 34 -34 0 -30 4 -35 27 -38 39 -4 42 -28 4 -28 -26 0 -31 -4 -31
-25 0 -21 5 -25 31 -25 38 0 35 -24 -4 -28 -21 -3 -27 -9 -27 -28 0 -20 5 -24
30 -24 17 0 30 -4 30 -10 0 -5 -13 -10 -30 -10 -28 0 -30 -2 -30 -40 0 -39 -1
-40 -34 -40 -30 0 -35 -4 -38 -27 -4 -39 -28 -42 -28 -4 0 26 -4 31 -24 31
-19 0 -25 -6 -28 -27 -4 -34 -22 -33 -26 2 -3 19 -9 25 -28 25 -20 0 -24 -5
-24 -31 0 -38 -24 -35 -28 4 -3 23 -8 27 -38 27 -33 0 -34 1 -34 40 0 38 -2
40 -30 40 -16 0 -30 5 -30 10 0 6 14 10 30 10 25 0 30 4 30 24 0 19 -6 25 -27
28 -39 4 -42 28 -4 28 26 0 31 4 31 25 0 21 -5 25 -31 25 -38 0 -35 24 4 28
23 3 27 8 27 38 0 32 2 34 35 34 30 0 35 3 35 23 0 13 3 27 7 30 14 15 23 6
23 -23z"/>
<path d="M440 510 l0 -90 85 0 85 0 0 90 0 90 -85 0 -85 0 0 -90z"/>
<path d="M2740 505 l0 -375 370 2 370 3 3 373 2 372 -372 0 -373 0 0 -375z
m310 195 c0 -25 4 -30 25 -30 21 0 25 5 25 31 0 38 24 35 28 -4 3 -21 9 -27
28 -27 20 0 24 5 24 30 0 17 5 30 10 30 6 0 10 -13 10 -30 0 -28 2 -30 40 -30
39 0 40 -1 40 -34 0 -30 4 -35 27 -38 39 -4 42 -28 4 -28 -26 0 -31 -4 -31
-25 0 -21 5 -25 31 -25 38 0 35 -24 -4 -28 -21 -3 -27 -9 -27 -28 0 -20 5 -24
30 -24 17 0 30 -4 30 -10 0 -5 -13 -10 -30 -10 -28 0 -30 -2 -30 -40 l0 -40
-40 0 c-38 0 -40 -2 -40 -30 0 -16 -4 -30 -10 -30 -5 0 -10 14 -10 30 0 25 -4
30 -24 30 -19 0 -25 -6 -28 -27 -4 -39 -28 -42 -28 -4 0 26 -4 31 -25 31 -21
0 -25 -5 -25 -30 0 -20 -5 -30 -15 -30 -10 0 -15 10 -15 30 0 28 -2 30 -40 30
l-40 0 0 40 c0 36 -2 40 -25 40 -14 0 -25 5 -25 10 0 6 11 10 25 10 20 0 25 5
25 24 0 19 -6 25 -27 28 -16 2 -28 8 -28 13 0 6 12 11 28 13 21 3 27 9 27 27
0 18 -6 24 -25 27 -14 2 -26 8 -26 13 0 6 12 11 26 13 21 3 25 8 25 38 0 33 1
34 40 34 38 0 40 2 40 30 0 20 5 30 15 30 10 0 15 -10 15 -30z"/>
<path d="M3020 510 l0 -90 90 0 90 0 0 90 0 90 -90 0 -90 0 0 -90z"/>
</g>
</svg>
