<?xml version="1.0" standalone="no"?>
<!DOCTYPE svg PUBLIC "-//W3C//DTD SVG 20010904//EN"
 "http://www.w3.org/TR/2001/REC-SVG-20010904/DTD/svg10.dtd">
<svg version="1.0" xmlns="http://www.w3.org/2000/svg"
 width="800.000000pt" height="760.000000pt" viewBox="0 0 800.000000 760.000000"
 preserveAspectRatio="xMidYMid meet">
<metadata>
Created by potrace 1.11, written by Peter Selinger 2001-2013
</metadata>
<g transform="translate(0.000000,760.000000) scale(0.100000,-0.100000)"
fill="#000000" stroke="none">
<path d="M0 7105 l0 -495 4000 0 4000 0 0 495 0 495 -4000 0 -4000 0 0 -495z
m2569 209 c31 -6 31 -7 31 -67 0 -47 -3 -58 -12 -49 -17 17 -80 15 -107 -4
-13 -9 -30 -32 -37 -51 -36 -86 38 -182 119 -153 17 5 32 10 33 10 2 0 4 -25
4 -55 l0 -54 -36 -7 c-107 -20 -223 86 -224 205 0 97 57 189 135 216 47 17 52
17 94 9z m369 0 c26 -8 39 -48 22 -69 -8 -9 -30 -15 -56 -15 l-44 0 0 -151 c0
-84 -5 -159 -10 -170 -6 -11 -21 -19 -35 -19 -14 0 -29 8 -35 19 -5 11 -10 86
-10 170 l0 151 -44 0 c-26 0 -48 6 -56 15 -16 19 -5 62 18 68 26 7 224 8 250
1z m159 -9 c19 -13 24 -13 50 0 59 31 138 7 181 -55 29 -43 30 -112 2 -158
l-21 -34 22 -68 c26 -78 18 -104 -30 -98 -22 3 -29 13 -47 62 -20 56 -23 60
-65 71 -24 7 -51 15 -59 19 -12 5 -15 -1 -12 -37 5 -64 -10 -111 -37 -115 -48
-7 -51 7 -51 209 0 157 3 190 16 203 19 20 24 20 51 1z m866 -7 c13 -13 55
-69 95 -125 40 -57 74 -103 76 -103 1 0 1 47 -1 105 -3 94 -2 106 17 125 24
24 34 25 54 4 13 -13 16 -46 16 -203 0 -196 -3 -211 -45 -211 -15 0 -45 34
-110 126 l-90 127 -5 -118 c-4 -98 -8 -120 -22 -129 -13 -8 -23 -8 -35 0 -16
10 -18 33 -21 205 -2 174 -1 195 15 206 23 18 31 16 56 -9z m765 -52 c3 -53 1
-58 -15 -51 -10 5 -35 10 -56 13 -32 3 -41 0 -67 -28 -25 -27 -30 -40 -30 -82
0 -44 4 -54 35 -85 36 -36 61 -40 118 -18 15 6 17 0 17 -48 0 -48 -3 -55 -22
-61 -135 -36 -267 99 -244 247 19 116 125 198 231 177 29 -6 30 -8 33 -64z
m754 58 c5 -3 8 -30 8 -60 0 -51 -1 -54 -19 -44 -40 21 -91 12 -122 -21 -37
-39 -41 -111 -9 -152 30 -38 81 -52 119 -32 l31 16 0 -60 0 -60 -44 -6 c-119
-18 -218 77 -220 210 -2 134 98 236 214 218 19 -2 38 -7 42 -9z m301 5 c123
-34 184 -192 122 -315 -62 -121 -193 -148 -292 -61 -92 81 -98 225 -14 318 33
36 92 68 131 69 8 0 32 -5 53 -11z m-4203 -14 c7 -8 10 -25 6 -40 -6 -25 -8
-25 -111 -25 l-105 0 0 -45 0 -45 99 0 c107 0 125 -8 119 -52 -3 -22 -7 -23
-110 -26 l-108 -3 0 -44 0 -45 98 0 c63 0 102 -4 110 -12 14 -14 16 -54 2 -63
-17 -10 -271 -8 -281 2 -11 11 -13 388 -3 405 3 4 65 8 138 8 106 0 136 -3
146 -15z m158 3 c8 -8 12 -60 12 -170 l0 -158 74 0 c82 0 103 -12 92 -55 -6
-24 -9 -25 -95 -25 -49 0 -95 -2 -103 -5 -7 -3 -22 0 -32 8 -16 12 -17 31 -16
206 0 107 3 198 6 202 8 13 48 11 62 -3z m542 -8 c8 -14 8 -26 0 -40 -10 -18
-21 -20 -110 -20 l-100 0 0 -45 0 -45 100 0 c97 0 101 -1 112 -25 20 -45 -1
-55 -113 -55 l-99 0 0 -45 0 -45 100 0 c89 0 100 -2 110 -20 8 -14 8 -26 0
-40 -10 -18 -22 -20 -113 -22 -153 -2 -169 -1 -178 13 -14 22 -11 383 3 397 8
8 55 12 145 12 122 0 133 -2 143 -20z m1413 5 c44 -18 96 -69 113 -112 19 -44
18 -127 -2 -166 -55 -109 -182 -155 -283 -102 -75 38 -128 139 -115 215 14 77
66 141 134 169 37 15 113 13 153 -4z m697 -4 c6 -12 10 -94 10 -197 0 -151 -2
-180 -17 -196 -20 -22 -31 -23 -55 -1 -16 14 -18 34 -18 195 0 105 4 187 10
199 6 11 21 19 35 19 14 0 29 -8 35 -19z m760 0 c6 -12 10 -93 10 -195 0 -165
-1 -177 -21 -197 -18 -18 -23 -19 -42 -6 -21 14 -22 22 -25 202 -2 130 1 192
9 201 17 20 57 17 69 -5z m932 -9 c12 -16 52 -70 88 -121 l65 -93 3 108 c1 59
8 114 14 121 16 19 56 16 68 -6 6 -12 10 -93 10 -195 0 -163 -1 -177 -20 -196
-30 -30 -47 -16 -144 121 l-85 121 -3 -117 c-3 -108 -5 -119 -25 -132 -19 -13
-24 -12 -42 6 -20 20 -21 32 -21 197 0 102 4 183 10 195 15 28 54 24 82 -9z
m508 13 c30 -15 60 -61 60 -90 0 -10 -10 -15 -33 -15 -26 0 -36 6 -45 25 -9
19 -19 25 -45 25 -40 0 -57 -15 -57 -51 0 -32 32 -59 68 -59 84 0 138 -100 98
-179 -32 -60 -124 -84 -181 -47 -27 18 -65 72 -65 94 0 25 61 13 91 -19 31
-33 61 -33 87 -1 30 39 10 69 -58 87 -29 8 -63 24 -76 36 -81 76 -28 209 82
209 25 0 58 -7 74 -15z"/>
<path d="M3145 7215 c-14 -13 -25 -33 -25 -45 0 -28 43 -70 73 -70 57 0 88 79
47 120 -27 27 -66 25 -95 -5z"/>
<path d="M5677 7190 c-31 -25 -51 -80 -42 -119 7 -32 49 -75 82 -85 37 -12 92
19 109 61 45 106 -64 210 -149 143z"/>
<path d="M3525 7197 c-39 -39 -50 -72 -41 -121 14 -72 83 -116 159 -102 40 8
96 64 99 99 7 101 -42 157 -138 157 -39 0 -51 -5 -79 -33z"/>
<path d="M3253 6149 c-38 -11 -83 -62 -83 -95 0 -13 8 -37 19 -54 l18 -31 6
42 c7 53 31 77 87 87 162 29 223 -36 206 -220 -6 -68 -6 -69 16 -66 18 2 25
13 35 53 44 193 -30 297 -212 294 -33 0 -74 -5 -92 -10z"/>
<path d="M947 6143 c-4 -3 -7 -89 -7 -190 l0 -183 260 0 260 0 0 190 0 190
-253 0 c-140 0 -257 -3 -260 -7z"/>
<path d="M2763 6079 c-71 -35 -73 -44 -73 -396 l0 -308 55 3 c45 3 63 -1 98
-21 87 -51 117 -170 62 -251 l-24 -36 159 0 160 0 0 330 0 330 -122 185 -123
184 -75 1 c-56 0 -86 -5 -117 -21z"/>
<path d="M3052 6068 c-21 -21 -13 -41 54 -136 69 -99 85 -112 109 -92 26 22
17 49 -46 138 -76 107 -90 117 -117 90z"/>
<path d="M6427 6010 c-59 -10 -107 -38 -127 -73 -13 -24 -13 -30 0 -54 8 -16
36 -38 61 -51 l45 -22 488 2 487 3 -63 100 -64 100 -389 1 c-215 1 -411 -2
-438 -6z"/>
<path d="M4489 5973 c-11 -13 -14 -84 -14 -363 0 -279 3 -350 14 -363 12 -15
62 -17 532 -17 502 0 519 1 529 19 6 13 10 145 10 361 0 216 -4 348 -10 361
-10 18 -27 19 -529 19 -470 0 -520 -2 -532 -17z m488 -94 c144 -70 210 -239
153 -391 -49 -132 -189 -220 -324 -204 -70 8 -168 58 -211 108 -124 146 -89
380 73 475 103 61 202 65 309 12z"/>
<path d="M4759 5866 c-126 -34 -206 -150 -197 -283 6 -82 31 -136 88 -187 59
-53 103 -70 185 -69 82 0 128 18 186 70 57 51 81 104 87 188 6 92 -21 158 -88
218 -76 69 -163 90 -261 63z m111 -104 c0 -43 -5 -83 -11 -89 -7 -7 -6 -12 5
-16 11 -4 16 -1 16 11 0 10 25 42 55 72 46 46 58 53 73 44 9 -6 19 -19 20 -28
5 -23 -102 -130 -122 -123 -10 4 -13 1 -9 -9 4 -11 9 -12 16 -5 6 6 46 11 88
11 86 0 109 -13 89 -49 -9 -18 -20 -21 -81 -21 -39 0 -79 4 -89 10 -13 7 -19
6 -24 -5 -3 -10 1 -15 12 -15 10 0 42 -25 72 -55 46 -46 53 -58 44 -73 -20
-31 -42 -24 -99 31 -38 38 -53 60 -49 71 5 12 2 15 -11 10 -11 -5 -13 -10 -6
-17 6 -6 11 -46 11 -89 0 -62 -3 -79 -17 -87 -11 -6 -24 -6 -35 0 -15 8 -18
23 -18 87 0 43 5 83 11 89 7 7 5 12 -6 17 -13 5 -16 2 -11 -10 4 -12 -10 -33
-48 -71 -56 -56 -79 -63 -100 -31 -9 15 -2 27 44 73 30 30 62 55 72 55 12 0
15 5 11 16 -4 11 -9 12 -16 5 -6 -6 -46 -11 -89 -11 -62 0 -79 3 -87 17 -6 11
-6 24 0 35 8 15 23 18 87 18 43 0 83 -5 89 -11 7 -7 12 -6 16 5 4 10 1 13 -7
10 -19 -7 -128 101 -124 122 2 9 11 22 21 28 15 9 27 2 78 -51 33 -35 58 -67
54 -73 -4 -6 1 -7 10 -4 12 5 13 10 6 17 -6 6 -11 46 -11 89 0 62 3 79 17 87
11 6 24 6 35 0 15 -8 18 -23 18 -87z"/>
<path d="M6260 5614 c0 -265 2 -274 57 -325 71 -66 49 -64 591 -67 l492 -3 0
281 0 280 -493 0 c-535 0 -571 3 -623 55 l-24 24 0 -245z m1033 93 c16 -11 17
-32 15 -197 l-3 -185 -75 0 -75 0 -3 185 c-3 211 -3 210 78 210 25 0 54 -6 63
-13z"/>
<path d="M3490 5798 c0 -2 -22 -115 -50 -253 -27 -137 -50 -253 -50 -257 0 -5
10 -8 23 -8 22 0 25 11 71 248 27 136 49 251 50 257 0 5 -9 11 -21 13 -13 2
-23 2 -23 0z"/>
<path d="M950 5390 l0 -350 260 0 260 0 0 350 0 350 -260 0 -260 0 0 -350z"/>
<path d="M2665 5300 c-34 -22 -65 -74 -65 -108 0 -38 25 -86 61 -116 29 -25
39 -28 88 -24 47 4 59 10 87 41 44 48 52 94 25 149 -11 24 -34 51 -50 61 -39
23 -108 22 -146 -3z m134 -46 c25 -21 31 -34 31 -64 0 -58 -35 -95 -90 -95
-55 0 -90 37 -90 95 0 30 6 43 31 64 17 15 43 26 59 26 16 0 42 -11 59 -26z"/>
<path d="M6630 4720 c-12 -7 -16 -39 -18 -155 l-3 -145 50 0 51 0 0 136 c0 74
-5 144 -10 155 -11 20 -45 25 -70 9z"/>
<path d="M6950 4711 c-5 -11 -10 -81 -10 -155 l0 -136 50 0 50 0 0 136 c0 74
-5 144 -10 155 -7 12 -21 19 -40 19 -19 0 -33 -7 -40 -19z"/>
<path d="M1059 4691 c-21 -22 -29 -39 -29 -66 0 -112 175 -131 196 -21 7 38
-15 89 -45 106 -39 20 -91 12 -122 -19z"/>
<path d="M1279 4691 c-21 -22 -29 -39 -29 -66 0 -72 86 -119 152 -84 32 17 51
74 38 115 -23 70 -108 88 -161 35z"/>
<path d="M4643 4637 c-50 -18 -75 -49 -80 -99 l-5 -45 468 1 469 1 -3 35 c-3
41 -23 73 -59 97 -24 16 -62 18 -393 20 -263 1 -374 -1 -397 -10z"/>
<path d="M2737 4612 c-14 -15 -16 -62 -18 -367 l-1 -349 27 -23 27 -24 315 3
315 3 19 24 c18 22 19 43 19 365 0 331 -1 343 -20 364 -21 22 -24 22 -344 22
-296 0 -324 -1 -339 -18z m628 -47 l25 -24 0 -294 c0 -283 -1 -295 -21 -321
l-20 -26 -270 0 c-256 0 -270 1 -289 20 -19 19 -20 33 -20 323 0 311 2 326 40
340 8 3 131 6 273 6 l258 1 24 -25z"/>
<path d="M1041 4486 c-8 -9 -11 -48 -9 -112 l3 -99 190 0 190 0 3 90 c5 147
22 135 -187 135 -141 0 -181 -3 -190 -14z"/>
<path d="M4560 3990 l0 -490 24 -10 c13 -5 216 -9 451 -9 388 0 428 2 443 17
16 16 18 61 20 500 l3 482 -470 0 -471 0 0 -490z m880 431 c15 -29 12 -62 -7
-83 -15 -17 -41 -18 -409 -18 l-393 0 -15 22 c-19 26 -20 37 -6 72 l10 26 404
0 c390 0 406 -1 416 -19z m-277 -194 c74 -34 137 -94 172 -164 26 -51 29 -69
29 -148 0 -78 -3 -98 -27 -146 -32 -67 -109 -142 -175 -172 -72 -33 -198 -31
-274 5 -80 37 -140 96 -174 171 -55 122 -33 269 56 370 96 110 260 145 393 84z"/>
<path d="M4923 4084 c-25 -14 -54 -44 -69 -70 -23 -39 -26 -53 -22 -108 7
-113 81 -187 188 -188 60 0 86 8 128 39 72 54 96 168 53 251 -50 97 -183 133
-278 76z m212 -49 c31 -30 32 -71 3 -102 -30 -33 -80 -31 -107 3 -24 30 -26
43 -10 78 22 48 78 58 114 21z"/>
<path d="M6565 4365 c-14 -13 -25 -28 -25 -32 0 -10 565 -11 575 -1 4 4 -4 18
-18 32 l-26 26 -241 0 -241 0 -24 -25z"/>
<path d="M6500 4082 l0 -228 128 -107 127 -107 66 0 65 0 132 110 131 110 -2
222 -2 223 -322 3 -323 2 0 -228z m460 61 c0 -3 -33 -37 -72 -75 l-73 -68 42
2 c23 1 45 0 47 -3 3 -3 -37 -24 -88 -47 -131 -58 -136 -60 -89 -21 23 19 42
36 42 39 1 3 -15 5 -34 4 -19 -1 -35 1 -35 5 0 3 17 17 37 31 l37 25 -27 3
c-15 2 -27 7 -27 11 0 5 16 29 35 55 l36 46 84 0 c47 0 85 -3 85 -7z"/>
<path d="M1010 4238 c0 -2 6 -23 14 -48 l13 -45 69 -5 c38 -3 68 -9 68 -15 -2
-13 -39 -159 -113 -447 -34 -130 -61 -240 -61 -243 0 -3 9 -5 19 -5 23 0 14
-28 101 315 39 154 79 305 87 335 l16 55 22 -80 c11 -44 52 -203 91 -352 64
-255 70 -273 91 -273 14 0 21 5 18 13 -9 25 -175 674 -175 683 0 5 42 8 100 6
55 -2 100 0 100 5 0 4 7 29 15 56 l14 47 -244 0 c-135 0 -245 -1 -245 -2z"/>
<path d="M2832 3818 c2 -7 20 -21 39 -30 28 -15 62 -18 204 -18 142 0 176 3
204 18 76 38 57 42 -204 42 -193 0 -246 -3 -243 -12z"/>
<path d="M3040 3528 l0 -213 -56 -82 c-55 -79 -64 -113 -30 -113 8 0 35 29 61
65 25 36 52 65 60 65 8 0 35 -29 60 -65 26 -36 53 -65 61 -65 34 0 25 34 -30
113 l-56 82 0 213 0 212 -35 0 -35 0 0 -212z"/>
<path d="M6781 3548 c-1 -96 -15 -108 -115 -108 -67 0 -74 -2 -101 -30 l-29
-30 138 0 c132 0 138 1 161 25 23 22 25 32 25 120 l0 95 -39 0 -38 0 -2 -72z"/>
<path d="M6627 2864 c-4 -4 -7 -164 -7 -356 l0 -348 250 0 250 0 -2 353 -3
352 -241 3 c-132 1 -243 -1 -247 -4z m391 -391 l3 -23 -175 0 -176 0 0 25 0
25 173 -2 c170 -3 172 -3 175 -25z m0 -115 c-3 -23 -4 -23 -173 -23 -169 0
-170 0 -173 23 l-3 22 176 0 176 0 -3 -22z"/>
<path d="M927 2826 c-85 -31 -97 -61 -97 -251 l0 -145 440 0 440 0 0 48 c-1
67 -25 193 -44 231 -9 17 -27 36 -39 41 -12 5 -152 25 -312 45 -159 19 -303
38 -320 40 -16 3 -47 -1 -68 -9z m553 -165 c5 -11 10 -38 10 -61 0 -84 14 -80
-288 -80 -195 0 -271 3 -280 12 -7 7 -12 37 -12 68 0 31 5 61 12 68 9 9 85 12
280 12 254 0 268 -1 278 -19z"/>
<path d="M4725 2783 c-65 -9 -135 -34 -164 -59 -29 -24 -31 -31 -31 -90 0 -80
7 -84 134 -84 l95 0 19 63 18 62 239 0 238 0 17 -60 17 -60 96 -3 c129 -4 137
1 137 82 0 59 -2 66 -30 90 -64 53 -107 59 -445 62 -170 1 -323 0 -340 -3z"/>
<path d="M2985 2746 c-13 -9 -21 -31 -25 -66 l-5 -52 -73 -19 c-144 -36 -273
-120 -348 -225 -52 -73 -84 -158 -84 -226 l0 -48 631 0 632 0 -7 61 c-19 164
-129 307 -300 389 -73 35 -102 45 -188 64 -26 6 -28 10 -28 55 0 68 -17 81
-111 81 -48 0 -82 -5 -94 -14z"/>
<path d="M4745 2506 c-77 -43 -170 -127 -198 -179 -19 -36 -22 -61 -25 -187
-5 -166 4 -196 67 -227 32 -16 74 -18 416 -21 423 -4 464 0 511 49 29 30 29
32 32 165 5 179 -7 216 -97 304 -42 40 -92 77 -133 98 l-66 32 -224 -1 -223 0
-60 -33z"/>
<path d="M910 2200 l0 -220 89 0 c50 0 93 -4 96 -10 4 -6 -28 -10 -89 -10 -57
0 -96 -4 -96 -10 0 -6 38 -10 95 -10 57 0 95 -4 95 -10 0 -6 -38 -10 -95 -10
-88 0 -95 -1 -95 -20 0 -11 -7 -20 -15 -20 -8 0 -19 -8 -24 -18 -20 -38 3 -42
220 -42 182 0 208 2 213 16 9 25 -12 44 -49 44 -41 0 -51 22 -70 149 -11 74
-35 335 -35 384 0 4 -54 7 -120 7 l-120 0 0 -220z"/>
<path d="M6328 2351 l-33 -29 -3 -189 c-2 -173 -1 -191 17 -220 13 -21 33 -35
58 -42 41 -12 919 -16 985 -5 21 4 49 18 63 32 l25 25 0 198 c0 195 0 198 -24
226 -23 27 -29 28 -125 31 l-101 4 0 -151 0 -151 -320 0 -320 0 0 150 0 150
-95 0 c-90 0 -96 -1 -127 -29z"/>
<path d="M1334 2183 c5 -16 66 -339 66 -349 0 -2 47 -4 104 -4 l104 0 6 28
c29 151 23 138 60 134 27 -3 37 1 55 24 34 44 15 97 -39 109 -26 6 -27 8 -20
41 l8 34 -175 0 c-161 0 -174 -1 -169 -17z"/>
<path d="M2933 2053 c4 -24 19 -50 41 -72 30 -30 43 -35 93 -38 46 -3 65 0 91
17 30 19 71 86 72 118 0 9 -37 12 -151 12 l-152 0 6 -37z"/>
<path d="M4660 1851 c0 -6 10 -17 22 -25 19 -14 70 -16 353 -16 283 0 334 2
353 16 12 8 22 19 22 25 0 5 -147 9 -375 9 -228 0 -375 -4 -375 -9z"/>
<path d="M6506 1818 c21 -72 47 -77 362 -78 238 -1 274 1 303 16 36 18 55 38
62 67 5 16 -17 17 -365 17 l-369 0 7 -22z"/>
<path d="M850 1790 c0 -7 150 -10 430 -10 280 0 430 3 430 10 0 7 -150 10
-430 10 -280 0 -430 -3 -430 -10z"/>
<path d="M6685 1008 c-1 -212 -39 -333 -133 -421 -29 -26 -52 -52 -52 -57 0
-31 256 -50 525 -39 160 6 235 20 235 44 0 8 -4 15 -9 15 -18 0 -91 81 -115
128 -45 89 -60 165 -60 319 l-1 143 -61 0 c-55 0 -62 -2 -72 -25 -24 -53 -103
-51 -127 3 -9 19 -17 22 -70 22 l-60 0 0 -132z"/>
<path d="M3070 1105 c0 -22 4 -25 35 -25 19 0 35 -4 35 -10 0 -5 -16 -10 -35
-10 -35 0 -35 0 -35 -45 0 -41 2 -45 25 -45 14 0 25 -4 25 -10 0 -5 -11 -10
-25 -10 -18 0 -25 -5 -25 -20 0 -18 7 -20 70 -20 l70 0 0 50 c0 47 -2 50 -25
50 -14 0 -25 5 -25 10 0 6 11 10 25 10 23 0 25 3 25 50 l0 50 -70 0 c-68 0
-70 -1 -70 -25z"/>
<path d="M904 1069 c-18 -20 -19 -43 -19 -511 l0 -490 24 -19 c22 -18 44 -19
403 -19 l379 0 24 25 25 24 0 476 c0 475 -2 506 -34 527 -6 4 -185 8 -397 8
-380 0 -386 0 -405 -21z m701 -509 l0 -355 -317 -3 -318 -2 0 360 0 360 318
-2 317 -3 0 -355z"/>
<path d="M4771 1069 c-144 -28 -227 -127 -246 -291 l-6 -58 120 0 c115 0 121
1 121 20 0 12 9 38 20 59 25 49 70 71 148 71 l61 0 3 52 c4 74 26 75 31 1 l3
-58 2 58 c1 42 6 57 15 54 7 -2 12 -23 12 -55 0 -35 4 -52 13 -52 8 0 12 18
12 55 0 73 18 71 23 -2 l3 -58 2 58 c2 43 6 57 17 57 12 0 15 -13 15 -55 0
-33 4 -55 11 -55 6 0 9 20 8 52 -2 32 1 53 8 55 8 3 13 -16 16 -54 l3 -58 2
58 c2 43 6 57 17 57 12 0 15 -13 15 -55 l0 -55 60 0 60 0 0 -185 0 -185 -346
0 c-301 0 -350 -2 -381 -17 -43 -20 -86 -82 -81 -118 l3 -26 409 1 c418 0 453
-3 425 -36 -9 -11 -87 -14 -425 -14 l-414 0 0 -85 0 -85 505 0 505 0 0 450 c0
440 0 450 -20 470 -12 12 -32 25 -46 30 -31 12 -642 11 -703 -1z"/>
<path d="M2703 709 l-183 -169 617 0 618 0 -35 34 c-19 19 -102 95 -184 170
l-149 136 -251 -1 -251 0 -182 -170z"/>
<path d="M2554 488 c3 -13 6 -31 6 -40 0 -17 34 -18 574 -18 l574 0 10 40 10
40 -590 0 -590 0 6 -22z"/>
<path d="M6748 383 c-49 -108 -61 -161 -56 -239 4 -60 7 -70 36 -95 41 -36
102 -52 177 -46 74 5 119 27 146 70 30 47 22 156 -19 262 -50 127 -47 125
-156 125 l-93 0 -35 -77z"/>
</g>
</svg>
