<?xml version="1.0" standalone="no"?>
<!DOCTYPE svg PUBLIC "-//W3C//DTD SVG 20010904//EN"
 "http://www.w3.org/TR/2001/REC-SVG-20010904/DTD/svg10.dtd">
<svg version="1.0" xmlns="http://www.w3.org/2000/svg"
 width="256.000000pt" height="256.000000pt" viewBox="0 0 256.000000 256.000000"
 preserveAspectRatio="xMidYMid meet">
<metadata>
Created by potrace 1.11, written by Peter Selinger 2001-2013
</metadata>
<g transform="translate(0.000000,256.000000) scale(0.100000,-0.100000)"
fill="#000000" stroke="none">
<path d="M370 1825 l0 -575 345 0 345 0 0 -45 c0 -50 5 -48 -135 -61 -84 -7
-127 -21 -105 -34 85 -47 825 -47 910 0 23 13 -24 27 -111 35 -121 10 -119 9
-119 60 l0 45 229 0 228 0 -4 -24 c-6 -31 17 -74 72 -136 25 -28 45 -57 45
-64 0 -8 -16 -26 -35 -40 -42 -32 -65 -74 -65 -116 l0 -30 -880 0 -880 0 0
-340 0 -340 1070 0 1070 0 0 340 0 340 -169 0 c-120 0 -170 3 -173 12 -11 32
7 71 48 106 62 51 61 85 -5 155 -62 67 -75 91 -61 117 10 18 21 20 105 20 l95
0 0 575 0 575 -910 0 -910 0 0 -575z m1700 5 l0 -480 -790 0 -790 0 0 480 0
480 790 0 790 0 0 -480z m200 -1330 l0 -260 -990 0 -990 0 0 260 0 260 990 0
990 0 0 -260z"/>
</g>
</svg>
