
<svg version="1.0" xmlns="http://www.w3.org/2000/svg"
 width="84px" height="82px" viewBox="0 0 182.000000 278.000000"
 preserveAspectRatio="xMidYMid meet">
<g transform="translate(0.000000,278.000000) scale(0.100000,-0.100000)"
fill="black" stroke="none">
<path class="event" d="M1042 2725 c-27 -25 -55 -45 -61 -45 -6 0 -21 11 -33 25 -22 25 -50
36 -29 11 6 -7 20 -38 30 -68 l19 -56 -31 -38 c-18 -21 -43 -50 -57 -65 -14
-14 -35 -37 -46 -51 -19 -22 -33 -26 -105 -32 -46 -4 -107 -14 -136 -22 l-51
-14 -22 -91 c-12 -50 -24 -130 -27 -177 -6 -83 -7 -86 -59 -155 -64 -85 -79
-135 -78 -252 1 -85 4 -95 44 -175 32 -63 63 -106 121 -166 l79 -80 -39 -91
c-43 -99 -91 -261 -117 -393 -17 -90 -114 -393 -139 -438 -9 -15 -24 -40 -34
-57 -73 -117 -111 -193 -111 -222 0 -47 21 -42 70 16 22 26 61 59 85 71 48 25
59 44 49 84 -9 36 27 101 102 186 34 39 69 85 77 103 8 18 25 88 36 157 25
141 30 151 150 315 115 158 133 193 140 285 l6 77 70 60 c39 33 85 68 102 77
18 9 54 44 80 78 81 105 203 226 293 290 79 57 149 122 150 141 0 4 -15 14
-34 22 -51 22 -98 -2 -169 -85 -41 -47 -83 -81 -140 -115 -140 -82 -188 -118
-213 -156 -19 -30 -31 -38 -66 -44 -23 -4 -67 -15 -96 -25 -54 -18 -54 -18
-95 6 -23 13 -54 24 -69 24 -36 0 -42 13 -40 89 2 48 8 75 27 107 l25 42 30
-28 c59 -55 143 -47 204 20 24 27 36 50 36 70 0 32 -29 100 -42 100 -4 0 -8
15 -8 34 0 30 -4 35 -32 41 -17 4 -45 15 -62 25 -37 21 -37 48 -1 121 30 57
31 58 96 66 51 6 52 6 91 -38 22 -24 52 -62 67 -83 26 -39 26 -39 29 -14 2 15
-7 48 -20 75 -12 26 -24 51 -26 55 -2 3 6 8 18 10 30 4 25 23 -7 26 -15 1 -44
6 -63 12 -19 5 -47 12 -63 15 l-27 5 78 118 c44 64 97 134 118 155 35 34 25
44 -14 14 -29 -23 -23 6 9 40 32 34 24 37 -13 5 -25 -21 -22 -3 4 25 40 43 -7
26 -60 -22z"/>
</g>
</svg>

