<svg version="1.0" xmlns="http://www.w3.org/2000/svg"
 width="100px" height="100px" viewBox="0 0 431.000000 470.000000"
 preserveAspectRatio="xMidYMid meet">
<g transform="translate(0.000000,470.000000) scale(0.100000,-0.100000)"
fill="black" stroke="none">
<path class="event" d="M2775 4223 c-293 -38 -568 -142 -795 -302 -88 -61 -245 -219 -309
-311 -99 -141 -165 -296 -197 -462 -24 -122 -14 -342 19 -463 60 -215 143
-353 311 -520 116 -115 197 -177 381 -292 133 -84 137 -94 80 -209 -94 -191
-337 -464 -509 -573 -63 -39 -50 -39 61 0 292 103 523 273 666 490 73 111 79
113 201 75 118 -37 196 -48 332 -48 277 1 571 93 814 255 93 62 254 223 298
298 110 187 175 537 152 817 -23 285 -95 503 -237 716 -189 283 -477 463 -838
521 -83 14 -349 19 -430 8z m-240 -808 c18 -18 25 -35 25 -65 0 -106 -133
-109 -147 -3 -5 35 -2 45 20 67 33 33 71 33 102 1z m1540 -50 c31 -30 33 -82
4 -119 -27 -35 -90 -37 -113 -4 -31 44 -16 121 27 138 37 15 57 11 82 -15z
m-915 -223 c0 -18 -32 -216 -36 -221 -9 -11 -34 25 -34 49 0 22 -8 34 -35 50
-33 20 -35 20 -60 4 -23 -15 -28 -15 -41 -3 -12 13 -2 24 78 86 78 61 94 70
110 60 10 -7 18 -18 18 -25z m-1102 -124 c23 -51 42 -96 42 -100 0 -17 -29 -6
-81 30 -30 21 -59 41 -66 45 -7 4 5 -27 26 -70 23 -46 36 -82 30 -87 -9 -10
-179 97 -179 112 0 23 17 17 78 -28 37 -27 68 -47 70 -45 2 1 -13 35 -33 75
-48 96 -37 107 49 45 36 -26 66 -44 66 -41 0 4 -16 37 -35 75 -31 62 -34 81
-15 81 3 0 25 -42 48 -92z m552 -491 c47 -37 65 -102 34 -128 -21 -18 -34 3
-27 46 3 21 0 35 -11 44 -27 23 -37 3 -30 -63 6 -59 5 -64 -17 -80 -48 -33
-90 -17 -117 47 -17 39 -15 61 7 81 16 15 19 15 31 1 10 -12 10 -18 0 -30 -17
-20 5 -75 30 -75 19 0 34 26 24 42 -4 6 -6 31 -6 56 2 63 41 92 82 59z"/>
<path class="event" d="M953 2106 c-202 -46 -344 -186 -376 -371 -11 -65 -11 -68 39 -352 25
-143 3 -202 -81 -217 -42 -8 -183 -85 -290 -157 -81 -56 -147 -114 -204 -182
l-41 -48 0 -290 0 -289 519 0 519 0 -2 47 c-1 27 1 104 5 173 4 75 3 153 -3
195 -13 85 2 120 71 165 71 48 106 53 192 30 41 -11 85 -20 97 -20 44 0 92 31
119 79 15 25 33 51 40 56 11 8 6 24 -22 80 -46 92 -46 121 0 141 19 7 49 14
67 14 28 0 35 5 45 31 8 21 23 35 53 46 42 17 42 17 37 62 -2 25 -22 97 -45
158 -36 101 -39 117 -30 155 5 24 7 68 4 99 -17 174 -142 311 -340 375 -101
33 -276 42 -373 20z"/>
</g>
</svg>