<?xml version="1.0" standalone="no"?>
<!DOCTYPE svg PUBLIC "-//W3C//DTD SVG 20010904//EN"
 "http://www.w3.org/TR/2001/REC-SVG-20010904/DTD/svg10.dtd">
<svg version="1.0" xmlns="http://www.w3.org/2000/svg"
 width="450.000000pt" height="470.000000pt" viewBox="0 0 450.000000 470.000000"
 preserveAspectRatio="xMidYMid meet">
<metadata>
Created by potrace 1.11, written by Peter Selinger 2001-2013
</metadata>
<g transform="translate(0.000000,470.000000) scale(0.100000,-0.100000)"
fill="#21323B" stroke="none">
<path d="M1607 3160 c-129 -23 -256 -120 -315 -240 -32 -65 -51 -164 -92 -480
-5 -41 -16 -130 -25 -198 -19 -144 -12 -199 36 -274 94 -147 293 -180 434 -72
19 14 76 87 125 160 50 74 92 134 94 134 2 0 21 -7 42 -16 45 -19 111 -13 151
13 45 29 83 92 83 135 l0 39 110 -2 110 -1 0 -28 c0 -69 57 -143 124 -161 42
-11 122 -4 131 12 4 5 10 9 15 9 5 0 50 -60 100 -134 100 -148 142 -187 229
-213 170 -49 345 64 375 243 4 23 -2 103 -14 194 -11 85 -30 223 -41 305 -30
229 -37 265 -71 335 -117 241 -432 321 -649 166 l-49 -36 -259 0 -259 0 -58
39 c-99 65 -218 91 -327 71z m209 -154 c153 -70 223 -261 150 -410 -39 -80
-118 -147 -198 -168 -82 -22 -147 -15 -225 23 -129 62 -199 216 -159 351 33
114 121 201 230 227 58 14 142 4 202 -23z m1127 1 c74 -34 109 -67 147 -139
30 -55 34 -72 35 -138 0 -65 -4 -84 -33 -142 -52 -106 -146 -167 -264 -171
-182 -6 -321 127 -321 308 0 227 231 376 436 282z m-944 -577 c5 0 20 -11 35
-25 20 -19 26 -33 26 -68 0 -87 -91 -128 -159 -71 -26 21 -31 33 -31 67 0 23
7 51 16 62 17 22 72 46 92 39 8 -2 17 -4 21 -4z m576 -6 c19 -9 40 -30 50 -49
14 -30 14 -38 1 -68 -28 -69 -100 -88 -155 -41 -26 21 -31 33 -31 68 0 33 6
48 28 68 44 41 60 44 107 22z"/>
<path d="M1600 2864 l0 -65 -62 3 -63 3 0 -80 0 -80 63 -3 62 -3 0 -59 0 -60
80 0 80 0 0 60 0 60 65 0 65 0 0 84 0 84 -62 -2 -63 -1 -3 63 -3 62 -79 0 -80
0 0 -66z"/>
<path d="M2764 2966 c-21 -18 -28 -32 -28 -60 0 -76 90 -110 140 -52 26 30 30
53 13 89 -22 49 -83 60 -125 23z"/>
<path d="M2578 2780 c-25 -26 -29 -36 -24 -63 8 -41 32 -65 73 -73 27 -5 37
-1 63 24 39 39 39 74 1 113 -39 38 -74 38 -113 -1z"/>
<path d="M2945 2787 c-21 -17 -27 -32 -27 -61 0 -45 23 -73 69 -82 27 -5 37
-1 63 24 32 32 37 56 19 95 -22 48 -83 60 -124 24z"/>
<path d="M2783 2620 c-51 -21 -58 -108 -11 -143 37 -28 92 -17 113 23 22 43
19 68 -14 101 -30 30 -50 34 -88 19z"/>
</g>
</svg>
