<?xml version="1.0" standalone="no"?>
<!DOCTYPE svg PUBLIC "-//W3C//DTD SVG 20010904//EN"
 "http://www.w3.org/TR/2001/REC-SVG-20010904/DTD/svg10.dtd">
<svg version="1.0" xmlns="http://www.w3.org/2000/svg"
 width="225.000000pt" height="225.000000pt" viewBox="0 0 225.000000 225.000000"
 preserveAspectRatio="xMidYMid meet">
<metadata>
Created by potrace 1.11, written by Peter Selinger 2001-2013
</metadata>
<g transform="translate(0.000000,225.000000) scale(0.100000,-0.100000)"
fill="#000000" stroke="none">
<path d="M501 1623 c-17 -16 -33 -40 -37 -55 -6 -27 -5 -27 27 -18 43 13 125
13 167 1 37 -11 37 -11 18 33 -19 45 -52 66 -103 66 -33 0 -50 -6 -72 -27z"/>
<path d="M1611 1634 c-19 -14 -51 -69 -51 -88 0 -3 15 0 32 5 42 12 124 12
167 -1 32 -9 33 -9 27 18 -4 15 -20 39 -37 55 -35 32 -100 37 -138 11z"/>
<path d="M526 1509 c-142 -21 -247 -175 -216 -315 30 -132 130 -215 261 -215
77 -1 95 6 107 39 13 39 65 88 106 102 42 13 56 47 56 132 0 167 -141 282
-314 257z"/>
<path d="M1629 1509 c-128 -19 -219 -129 -219 -264 0 -78 15 -112 56 -125 41
-14 93 -63 106 -102 12 -33 30 -40 107 -39 170 0 295 153 261 317 -30 144
-163 235 -311 213z"/>
<path d="M815 1449 c53 -64 69 -108 70 -194 0 -44 -4 -90 -8 -102 -7 -18 -3
-23 26 -32 61 -20 117 -96 117 -157 0 -24 0 -24 105 -24 105 0 105 0 105 24 0
61 56 137 117 157 29 9 33 14 26 32 -4 12 -8 58 -8 102 1 86 17 130 70 194
l27 31 -337 0 -337 0 27 -31z"/>
<path d="M282 892 c-12 -220 -7 -248 47 -276 51 -27 98 -21 137 18 19 19 34
42 34 51 0 10 39 60 86 111 114 124 113 136 -11 138 -109 2 -168 28 -237 105
l-45 49 -11 -196z"/>
<path d="M1911 1038 c-68 -76 -127 -102 -236 -104 -124 -2 -125 -14 -11 -138
47 -51 86 -101 86 -111 0 -9 15 -32 34 -51 40 -40 92 -46 142 -15 50 31 55 60
41 277 l-12 191 -44 -49z"/>
<path d="M769 1057 c-22 -15 -39 -38 -49 -65 -51 -146 157 -242 235 -109 23
39 23 105 0 140 -38 59 -125 75 -186 34z"/>
<path d="M1339 1066 c-83 -47 -82 -180 1 -230 40 -23 100 -20 141 7 66 44 75
137 20 199 -23 26 -36 32 -82 35 -35 2 -63 -2 -80 -11z"/>
</g>
</svg>
