<?xml version="1.0" standalone="no"?>
<!DOCTYPE svg PUBLIC "-//W3C//DTD SVG 20010904//EN"
 "http://www.w3.org/TR/2001/REC-SVG-20010904/DTD/svg10.dtd">
<svg version="1.0" xmlns="http://www.w3.org/2000/svg"
 width="220.000000pt" height="229.000000pt" viewBox="0 0 220.000000 229.000000"
 preserveAspectRatio="xMidYMid meet">
<metadata>
Created by potrace 1.11, written by Peter Selinger 2001-2013
</metadata>
<g transform="translate(0.000000,229.000000) scale(0.100000,-0.100000)"
fill="#000000" stroke="none">
<path d="M470 2225 c0 -65 0 -65 -35 -82 -33 -16 -35 -20 -35 -63 0 -34 5 -52
20 -65 14 -13 20 -31 20 -62 0 -23 -4 -43 -10 -43 -5 0 -10 -9 -10 -20 0 -14
-7 -20 -24 -20 -28 0 -36 28 -36 124 0 69 -17 118 -40 113 -8 -1 -15 -8 -15
-15 0 -6 3 -11 6 -9 3 1 13 -4 22 -12 13 -10 17 -31 17 -87 0 -43 -4 -74 -10
-74 -5 0 -10 -7 -10 -16 0 -8 -8 -23 -17 -32 -13 -14 -45 -18 -167 -23 l-151
-5 138 -2 c83 -1 137 -6 137 -12 0 -5 9 -10 20 -10 15 0 20 -7 20 -25 0 -18
-5 -25 -20 -25 -11 0 -20 -4 -20 -10 0 -5 -24 -10 -53 -10 -41 0 -55 4 -65 20
-9 15 -23 20 -60 20 -45 0 -48 -2 -69 -40 -12 -22 -17 -38 -12 -34 5 3 16 18
24 35 13 24 22 29 54 29 25 0 44 -7 56 -20 13 -14 31 -20 60 -20 77 0 105 -10
105 -36 0 -17 -6 -24 -20 -24 -11 0 -20 -4 -20 -10 0 -6 -54 -11 -137 -12
l-138 -2 155 -6 c85 -4 156 -8 158 -9 1 0 2 -12 2 -26 0 -18 -5 -25 -20 -25
-11 0 -20 -4 -20 -10 0 -6 -54 -11 -137 -12 l-138 -2 155 -6 c85 -4 156 -8
158 -9 1 0 2 -12 2 -26 0 -18 -5 -25 -20 -25 -11 0 -20 -4 -20 -10 0 -5 -57
-11 -137 -13 l-138 -3 138 -2 c75 -1 137 -6 137 -11 0 -5 9 -7 20 -4 16 4 20
0 20 -21 0 -14 -1 -27 -2 -27 -2 -1 -73 -5 -158 -9 l-155 -6 138 -2 c114 -2
137 -4 137 -17 0 -8 3 -14 8 -13 19 5 51 -15 54 -34 4 -31 26 -34 38 -4 12 32
50 36 50 6 0 -11 5 -20 10 -20 6 0 10 -74 10 -202 0 -195 -1 -203 -22 -227
l-23 -26 28 24 27 24 0 198 c0 109 4 209 10 223 12 32 50 36 50 6 0 -11 5 -20
10 -20 7 0 10 -163 10 -469 0 -435 1 -470 18 -482 14 -11 15 -11 5 1 -16 18
-19 950 -3 950 5 0 9 3 9 8 -4 21 3 32 19 32 43 0 60 -152 22 -190 -21 -21
-27 -50 -10 -50 5 0 7 6 4 13 -2 7 4 22 16 32 16 15 20 30 20 87 0 39 4 68 10
68 6 0 10 9 10 20 0 30 38 26 50 -6 6 -14 10 -105 10 -203 0 -142 3 -184 16
-209 18 -37 18 -37 34 -17 10 12 8 16 -14 25 l-26 10 0 190 c0 120 4 190 10
190 6 0 10 9 10 20 0 13 7 20 19 20 27 0 33 -13 41 -84 l7 -61 2 53 c0 28 6
52 11 52 6 0 10 7 10 16 0 23 26 45 44 38 9 -3 16 -1 16 5 0 6 15 11 33 11 21
0 41 8 52 20 12 13 31 20 56 20 32 0 40 -5 59 -35 l22 -35 84 0 84 0 52 -75
52 -75 232 0 c127 0 246 -3 264 -6 28 -6 31 -4 28 12 -3 11 -10 17 -19 14 -8
-2 -61 -6 -119 -8 l-105 -3 -33 61 -33 60 -129 0 -130 0 33 -44 c28 -38 38
-44 77 -48 25 -2 51 -6 59 -9 8 -2 17 4 19 13 3 16 -3 17 -55 12 -58 -6 -59
-6 -86 30 l-28 36 118 0 118 0 28 -49 c15 -27 27 -52 27 -55 0 -3 -58 -6 -129
-6 l-129 0 -51 70 -51 70 70 0 c69 0 73 1 153 55 l82 55 159 0 158 0 49 41
c47 39 49 43 49 92 0 50 2 53 38 72 30 16 38 26 40 55 4 40 27 70 53 70 22 0
30 12 19 29 -14 24 -80 -51 -80 -91 0 -28 -6 -37 -40 -56 -39 -22 -40 -24 -40
-75 0 -50 -2 -54 -46 -89 l-47 -38 -156 0 -156 0 -82 -55 -82 -55 -158 0 -158
0 -23 35 c-19 30 -28 35 -61 35 -25 0 -44 -7 -56 -20 -19 -21 -85 -29 -85 -10
0 6 -9 10 -20 10 -14 0 -20 7 -20 24 0 34 25 37 350 35 156 0 286 3 287 8 2 4
-132 7 -297 5 -208 -2 -300 0 -300 7 0 6 -9 11 -20 11 -14 0 -20 7 -20 24 0
18 7 25 31 30 27 5 29 7 16 21 -9 8 -23 15 -31 15 -10 0 -16 9 -16 24 0 18 7
25 31 30 17 3 246 6 509 6 446 0 478 1 485 18 5 14 4 15 -6 5 -17 -17 -979
-19 -979 -3 0 6 -9 10 -20 10 -15 0 -20 7 -20 25 0 18 5 25 20 25 13 0 20 7
20 20 0 13 -7 20 -20 20 -15 0 -20 7 -20 25 0 18 5 25 19 25 11 0 21 6 23 13
4 9 125 12 562 12 489 0 556 2 553 15 -2 8 -10 13 -18 10 -29 -10 -1011 -11
-1004 0 4 6 69 10 168 10 l162 0 49 35 c27 19 45 35 40 35 -6 0 -28 -13 -50
-30 l-39 -29 -157 -1 c-87 0 -158 3 -158 6 0 3 5 15 11 26 6 11 7 18 2 15 -5
-3 -18 -25 -28 -48 l-19 -41 -53 5 c-54 6 -83 23 -83 51 0 9 -4 16 -10 16 -6
0 -11 72 -12 193 l-2 192 -6 -210 c-4 -115 -8 -211 -8 -212 -1 -2 -13 -3 -27
-3 -18 0 -25 5 -25 20 0 11 -4 20 -10 20 -6 0 -11 72 -12 193 l-2 192 -6 -210
c-4 -115 -8 -211 -8 -212 -1 -2 -13 -3 -27 -3 -18 0 -25 5 -25 20 0 11 -4 20
-10 20 -6 0 -11 76 -13 193 l-2 192 -3 -192 c-1 -106 -6 -193 -11 -193 -5 0
-8 -8 -7 -17 0 -12 -7 -19 -21 -21 -21 -3 -28 6 -24 31 0 4 -3 7 -9 7 -6 0
-11 74 -13 188 l-2 187 -3 -187 c-1 -117 -6 -188 -12 -188 -5 0 -10 -9 -10
-20 0 -14 -7 -20 -24 -20 -25 0 -36 28 -36 95 0 19 -8 39 -20 50 -14 13 -20
31 -20 62 0 40 3 45 35 60 35 17 35 17 35 85 0 37 -2 68 -5 68 -3 0 -5 -29 -5
-65z"/>
<path d="M1937 2242 l-47 -48 0 -137 0 -137 -102 0 -103 0 -90 60 -90 60 -217
0 -218 0 -25 -50 -25 -50 134 0 c81 0 137 -4 141 -10 8 -13 25 -3 25 13 0 9
-36 11 -140 9 -77 -2 -140 -1 -140 3 0 3 5 15 10 26 10 18 23 19 191 19 l181
0 49 -37 c26 -21 48 -44 49 -51 0 -17 32 -12 38 6 2 6 -4 12 -15 12 -10 0 -40
18 -68 40 l-50 40 -177 0 c-112 0 -178 4 -178 10 0 6 70 10 189 10 l188 0 110
-74 109 -74 135 -2 c163 -2 154 -3 139 15 -9 11 -16 13 -24 5 -6 -6 -59 -10
-125 -10 l-116 0 -105 70 c-62 41 -97 70 -85 70 11 0 59 -27 107 -60 l86 -60
111 0 111 0 0 138 0 137 46 53 c57 65 53 67 -9 4z"/>
<path d="M584 1051 c3 -4 19 -14 36 -21 l30 -12 0 -87 0 -87 75 -53 75 -52 0
-134 0 -134 -55 32 -55 32 0 113 c0 61 3 112 8 112 4 -1 20 -11 36 -24 27 -23
29 -27 23 -80 -4 -44 -3 -56 8 -56 18 0 28 17 15 25 -5 3 -10 26 -10 50 0 38
-4 47 -39 74 -21 17 -42 31 -45 31 -3 0 -6 -56 -6 -125 l0 -124 58 -34 57 -33
0 -122 c0 -88 3 -122 12 -122 16 0 26 17 13 25 -6 4 -10 97 -10 253 l-1 247
-74 50 -75 50 0 87 0 86 -36 21 c-38 23 -48 26 -40 12z"/>
</g>
</svg>
