<?xml version="1.0" standalone="no"?>
<!DOCTYPE svg PUBLIC "-//W3C//DTD SVG 20010904//EN"
 "http://www.w3.org/TR/2001/REC-SVG-20010904/DTD/svg10.dtd">
<svg version="1.0" xmlns="http://www.w3.org/2000/svg"
 width="219.000000pt" height="230.000000pt" viewBox="0 0 219.000000 230.000000"
 preserveAspectRatio="xMidYMid meet">
<metadata>
Created by potrace 1.11, written by Peter Selinger 2001-2013
</metadata>
<g transform="translate(0.000000,230.000000) scale(0.100000,-0.100000)"
fill="#000000" stroke="none">
<path d="M1145 1819 c-4 -11 -5 -21 -3 -23 1 -1 20 -9 40 -18 20 -10 45 -29
54 -43 15 -23 15 -27 0 -49 -8 -14 -36 -42 -60 -62 -46 -38 -76 -94 -76 -139
0 -21 5 -25 28 -25 26 0 28 3 29 38 1 32 9 44 61 92 65 59 86 98 77 140 -7 31
-45 70 -92 94 -42 21 -50 20 -58 -5z"/>
<path d="M560 1458 c-108 -56 -166 -155 -164 -278 1 -63 34 -147 70 -181 13
-12 24 -27 24 -33 0 -5 -13 3 -29 18 l-29 28 -8 -79 c-5 -43 -8 -128 -9 -190
0 -127 7 -142 81 -168 37 -13 40 -12 69 13 l30 27 -23 -26 c-18 -20 -20 -28
-10 -32 30 -12 -27 -6 -76 8 -79 23 -98 49 -103 137 -3 40 2 133 11 206 11
100 12 140 4 158 -6 13 -14 24 -18 24 -6 0 -24 -139 -36 -282 -16 -190 25
-261 166 -288 82 -16 146 3 197 57 43 45 160 269 165 314 6 48 12 49 252 49
l226 0 79 -164 c94 -193 130 -238 206 -254 85 -17 181 5 227 54 53 57 58 107
33 352 -20 193 -21 194 -51 134 -13 -27 -36 -59 -51 -73 l-27 -24 17 25 c97
139 95 282 -3 402 -17 20 -58 50 -92 67 -105 53 -241 39 -318 -32 -19 -18 -26
-22 -16 -9 l19 22 -248 0 c-237 0 -251 1 -294 22 -33 16 -69 24 -126 26 -75 4
-84 2 -145 -30z m943 -226 c9 -8 17 -27 17 -42 0 -31 15 -40 65 -40 51 0 75
-59 39 -94 -38 -39 -102 -1 -91 54 4 16 2 30 -3 30 -5 0 -11 -10 -13 -22 -3
-17 -5 -14 -6 10 -1 29 -3 32 -20 22 -11 -5 -29 -10 -40 -10 -24 0 -27 -10 -9
-28 8 -8 8 -12 1 -12 -6 0 -18 23 -27 50 -19 57 -11 85 27 99 23 9 32 7 60
-17z"/>
</g>
</svg>
