<?xml version="1.0" standalone="no"?>
<!DOCTYPE svg PUBLIC "-//W3C//DTD SVG 20010904//EN"
 "http://www.w3.org/TR/2001/REC-SVG-20010904/DTD/svg10.dtd">
<svg version="1.0" xmlns="http://www.w3.org/2000/svg"
 width="220.000000pt" height="229.000000pt" viewBox="0 0 220.000000 229.000000"
 preserveAspectRatio="xMidYMid meet">
<metadata>
Created by potrace 1.11, written by Peter Selinger 2001-2013
</metadata>
<g transform="translate(0.000000,229.000000) scale(0.100000,-0.100000)"
fill="#000000" stroke="none">
<path d="M1270 2219 c0 -6 -19 -29 -42 -50 -36 -33 -42 -44 -43 -82 l-2 -45
54 -7 c46 -6 57 -4 69 12 7 10 11 24 9 31 -2 6 -1 12 3 12 4 0 7 12 6 28 -1
22 -5 27 -28 27 -26 -1 -36 18 -16 30 6 3 10 17 10 31 0 13 -4 24 -10 24 -5 0
-10 -5 -10 -11z"/>
<path d="M942 1830 c-93 -25 -146 -49 -219 -98 -123 -84 -210 -206 -257 -357
-6 -20 -1 -20 242 -20 276 0 296 -4 328 -68 20 -38 22 -82 23 -464 1 -276 1
-283 21 -283 20 0 20 7 20 435 0 367 -2 441 -15 465 -17 33 -41 43 -112 45
-42 1 -54 -3 -59 -17 -3 -9 -19 -29 -35 -43 -40 -33 -88 -33 -128 1 -59 49
-47 137 23 171 44 21 81 11 122 -33 31 -32 36 -34 100 -34 64 0 68 -1 105 -39
l39 -39 1 -103 c0 -57 0 -263 -1 -457 l-1 -354 21 4 c21 3 21 7 23 243 2 213
4 244 20 268 31 48 74 67 149 67 58 0 67 3 73 20 15 48 99 68 147 36 32 -21
52 -73 42 -110 -9 -39 -59 -76 -100 -76 -46 0 -70 14 -89 50 -15 29 -19 30
-79 30 -59 0 -66 -2 -90 -31 l-26 -31 0 -230 0 -230 28 7 c179 44 351 183 432
349 123 253 80 533 -115 745 -74 80 -216 163 -305 177 l-40 7 0 -157 c0 -212
5 -221 124 -228 45 -3 50 -1 70 29 38 58 104 70 155 27 60 -50 46 -140 -26
-170 -45 -19 -94 -5 -123 36 -18 26 -26 28 -96 32 -73 3 -77 5 -110 41 -20 22
-34 48 -35 64 0 16 -1 98 -2 183 l-2 155 -85 2 c-58 2 -108 -4 -158 -17z"/>
<path d="M446 1279 c-20 -101 7 -256 66 -378 68 -142 214 -272 368 -326 l41
-14 -3 264 c-3 258 -4 265 -25 287 -17 17 -37 23 -85 26 l-63 4 -18 -35 c-30
-55 -82 -71 -137 -42 -62 32 -75 118 -24 166 34 32 104 32 138 0 14 -14 26
-30 26 -36 0 -7 26 -12 71 -13 77 -2 111 -16 144 -60 19 -25 20 -43 20 -299 0
-150 3 -273 7 -273 3 0 13 -3 22 -6 14 -6 16 29 16 349 l0 356 -24 28 -24 28
-255 3 -254 3 -7 -32z"/>
</g>
</svg>
