<?xml version="1.0" standalone="no"?>
<!DOCTYPE svg PUBLIC "-//W3C//DTD SVG 20010904//EN"
 "http://www.w3.org/TR/2001/REC-SVG-20010904/DTD/svg10.dtd">
<svg version="1.0" xmlns="http://www.w3.org/2000/svg"
 width="220.000000pt" height="229.000000pt" viewBox="0 0 220.000000 229.000000"
 preserveAspectRatio="xMidYMid meet">
<metadata>
Created by potrace 1.11, written by Peter Selinger 2001-2013
</metadata>
<g transform="translate(0.000000,229.000000) scale(0.100000,-0.100000)"
fill="#000000" stroke="none">
<path d="M480 2036 c-85 -18 -149 -54 -215 -120 -68 -68 -99 -125 -122 -228
-56 -249 147 -504 411 -513 177 -7 333 89 412 253 125 258 -38 565 -326 611
-78 13 -89 13 -160 -3z m10 -286 c35 -28 132 -28 167 0 35 27 78 26 108 -4 27
-28 75 -170 75 -226 0 -41 -20 -70 -49 -70 -23 0 -64 38 -85 79 l-17 31 -117
0 -117 0 -20 -36 c-22 -42 -60 -74 -86 -74 -10 0 -26 11 -35 25 -14 22 -15 33
-4 87 16 84 47 165 73 188 27 25 75 25 107 0z"/>
<path d="M1334 2031 c-49 -12 -95 -50 -115 -95 -17 -37 -19 -69 -19 -326 0
-328 4 -346 81 -397 l42 -27 302 1 c332 1 337 2 389 63 14 18 29 44 34 58 9
35 9 569 0 604 -10 35 -53 85 -92 106 -27 15 -68 17 -311 19 -154 1 -294 -2
-311 -6z m209 -281 c35 -28 132 -28 167 0 14 11 39 20 56 20 48 0 79 -41 108
-144 31 -106 32 -127 7 -157 -27 -34 -67 -17 -106 43 l-30 47 -117 0 c-112 1
-118 0 -129 -21 -18 -37 -71 -88 -90 -88 -29 0 -49 29 -49 70 0 56 48 198 75
226 30 30 73 31 108 4z"/>
<path d="M1063 923 c-36 -7 -27 -23 10 -18 l32 5 -28 -11 c-21 -8 -31 -8 -42
1 -12 10 -22 4 -56 -30 -28 -28 -39 -47 -36 -61 3 -10 1 -17 -4 -14 -13 9 -8
-87 6 -115 56 -108 199 -127 284 -37 13 15 20 31 16 38 -5 7 -4 10 2 6 22 -14
31 81 12 130 -16 44 -57 81 -82 76 -17 -4 -19 -2 -8 5 11 8 5 13 -25 21 -40
11 -43 11 -81 4z m72 -98 c9 11 14 14 10 8 -4 -8 0 -13 10 -13 9 0 13 5 10 10
-3 6 -4 10 -1 10 3 0 12 -12 20 -27 8 -16 15 -22 16 -15 0 6 5 12 10 12 7 0 7
-6 0 -19 -14 -27 -13 -36 4 -21 13 10 13 7 3 -19 -9 -25 -9 -36 1 -51 12 -19
11 -20 -15 -14 -16 3 -35 15 -45 25 -24 28 -94 26 -117 -3 -27 -32 -55 -18
-48 25 3 17 9 41 13 51 6 16 4 18 -10 13 -9 -4 -15 -3 -12 2 3 5 -1 11 -9 15
-8 3 -15 10 -15 16 0 6 7 4 16 -5 18 -18 83 -12 98 10 7 10 13 8 27 -9 18 -21
18 -21 34 -1z"/>
<path d="M1429 907 c-123 -65 -120 -246 4 -306 24 -12 54 -21 68 -21 99 0 179
78 179 175 0 97 -80 175 -181 175 -14 0 -46 -10 -70 -23z m167 -112 c7 -11 16
-37 19 -57 6 -31 4 -39 -11 -45 -12 -4 -22 0 -32 15 -20 31 -96 31 -128 1 -42
-39 -57 -2 -28 69 l15 39 76 -1 c64 -1 78 -5 89 -21z"/>
<path d="M151 755 c-17 -20 -31 -45 -31 -57 0 -24 73 -96 106 -104 30 -8 64 4
64 22 0 8 12 19 26 24 21 8 25 15 19 33 -4 12 -7 30 -6 40 0 19 -25 23 -32 5
-4 -10 -6 -10 -6 0 -1 7 -14 12 -31 12 -26 0 -34 -8 -32 -31 0 -3 -18 -6 -40
-6 -22 0 -36 2 -32 6 8 5 35 91 29 91 -2 0 -17 -16 -34 -35z"/>
<path d="M552 755 c-32 -32 -33 -34 -19 -67 8 -18 25 -43 38 -55 33 -30 98
-56 118 -47 9 4 25 6 36 6 19 -2 20 -1 1 6 -18 8 -16 13 25 54 26 25 38 43 28
41 -11 -3 -22 3 -28 16 -17 30 -96 30 -120 -1 -35 -43 -64 -4 -41 56 13 34 2
32 -38 -9z"/>
<path d="M140 480 c-18 -18 -20 -33 -20 -140 0 -162 -2 -160 163 -160 161 0
157 -4 157 158 0 164 2 162 -160 162 -107 0 -122 -2 -140 -20z m219 -95 c12
-13 29 -77 24 -92 -7 -20 -31 -15 -45 7 -18 28 -88 28 -113 0 -40 -45 -60 -5
-31 64 l13 32 71 0 c39 -1 75 -6 81 -11z"/>
<path d="M1820 489 c0 -6 -7 -9 -15 -5 -8 3 -21 -2 -30 -10 -12 -12 -15 -41
-15 -138 0 -160 -4 -156 157 -156 157 0 157 -1 161 156 4 109 3 114 -21 137
-22 23 -32 25 -130 26 -75 1 -107 -2 -107 -10z m136 -93 c19 5 22 9 12 15 -7
5 -8 9 -3 9 12 0 44 -20 32 -20 -4 0 -1 -13 8 -30 20 -38 20 -100 1 -100 -8 0
-22 9 -30 21 -22 32 -84 34 -117 3 -34 -32 -53 -15 -39 36 5 18 7 36 5 40 -9
14 25 32 50 28 22 -5 24 -3 13 11 -11 13 -8 13 14 -2 18 -11 37 -15 54 -11z"/>
<path d="M980 336 c-14 -19 -29 -32 -34 -29 -17 11 1 -100 18 -112 16 -12 145
-21 134 -9 -3 3 13 23 36 45 38 36 40 40 24 53 -10 7 -15 16 -11 19 3 4 -9 7
-28 6 -32 -1 -32 -2 -9 -9 20 -6 21 -8 6 -9 -11 -1 -27 6 -36 14 -16 14 -19
13 -33 -8 -9 -14 -24 -27 -35 -29 -15 -4 -18 0 -17 26 1 17 5 41 9 54 10 30 6
28 -24 -12z"/>
<path d="M1382 339 c-27 -24 -32 -36 -32 -74 0 -67 23 -85 105 -85 39 0 65 4
65 11 0 5 16 25 36 43 l37 33 -24 24 c-22 22 -69 33 -69 16 0 -4 -8 -4 -17 1
-13 8 -21 4 -36 -15 -17 -22 -21 -23 -35 -10 -12 12 -12 21 -3 48 6 18 10 33
9 35 -2 1 -18 -11 -36 -27z"/>
</g>
</svg>
