<?xml version="1.0" standalone="no"?>
<!DOCTYPE svg PUBLIC "-//W3C//DTD SVG 20010904//EN"
 "http://www.w3.org/TR/2001/REC-SVG-20010904/DTD/svg10.dtd">
<svg version="1.0" xmlns="http://www.w3.org/2000/svg"
 width="204.000000pt" height="204.000000pt" viewBox="0 0 204.000000 204.000000"
 preserveAspectRatio="xMidYMid meet">
<metadata>
Created by potrace 1.11, written by Peter Selinger 2001-2013
</metadata>
<g transform="translate(0.000000,204.000000) scale(0.100000,-0.100000)"
fill="#000000" stroke="none">
<path d="M65 2029 c-11 -6 -30 -25 -43 -43 l-22 -32 0 -926 c0 -616 3 -935 10
-955 7 -18 26 -38 49 -51 l39 -22 892 0 c595 0 898 3 911 10 41 22 22 50 -147
218 -150 149 -168 164 -192 158 -102 -25 -167 -16 -223 31 -141 119 -54 353
131 353 141 0 231 -129 188 -272 l-12 -39 160 -160 c87 -88 167 -165 177 -170
11 -6 24 -6 37 1 20 11 20 21 20 916 0 993 3 946 -60 979 -24 13 -88 15 -402
15 l-374 0 -228 -229 c-203 -204 -228 -232 -221 -253 4 -13 10 -51 12 -86 4
-55 1 -67 -23 -106 -57 -90 -171 -123 -263 -76 -146 74 -147 280 -1 358 46 24
103 26 183 6 26 -6 40 6 192 160 91 92 165 175 165 184 0 42 -5 42 -480 41
-275 0 -463 -4 -475 -10z m805 -73 c0 -3 -47 -52 -104 -109 l-104 -105 -43 9
c-133 25 -284 -66 -321 -195 -55 -192 80 -372 277 -370 83 1 130 20 190 75 72
66 110 179 87 261 l-10 35 202 202 201 201 342 0 c297 0 344 -2 357 -16 14
-14 16 -104 16 -840 0 -453 -3 -824 -8 -824 -4 0 -53 46 -109 103 l-102 102
10 44 c28 124 -64 273 -194 314 -67 21 -95 21 -171 0 -87 -24 -165 -102 -189
-189 -21 -76 -21 -104 0 -172 43 -135 203 -226 335 -189 25 7 37 -2 133 -97
58 -57 105 -106 105 -110 0 -3 -371 -6 -825 -6 -812 0 -825 0 -845 20 -20 20
-20 33 -20 922 0 825 1 903 17 920 15 17 41 18 395 18 208 0 378 -2 378 -4z"/>
<path d="M1400 1747 c-55 -15 -105 -45 -142 -84 -55 -58 -90 -182 -70 -248 9
-29 4 -35 -260 -301 l-269 -270 -49 10 c-111 22 -242 -48 -293 -157 -34 -72
-39 -111 -26 -180 47 -238 349 -312 502 -124 50 60 71 133 63 210 l-6 62 262
262 263 263 61 -6 c147 -15 284 86 314 231 21 102 -27 224 -114 287 -64 46
-164 65 -236 45z m161 -100 c146 -77 144 -283 -4 -358 -32 -17 -53 -20 -101
-17 -34 3 -69 9 -79 13 -15 6 -75 -49 -323 -296 -249 -248 -304 -308 -298
-324 3 -11 8 -47 11 -81 6 -70 -15 -124 -66 -167 -158 -133 -395 40 -316 231
36 84 107 127 199 120 34 -3 69 -9 79 -13 15 -6 75 48 324 298 250 249 304
309 298 324 -4 10 -10 45 -13 79 -3 48 0 69 16 100 53 104 172 144 273 91z"/>
<path d="M1415 1525 c-32 -31 -34 -86 -5 -115 29 -29 84 -27 117 6 21 21 24
32 19 62 -11 70 -83 96 -131 47z"/>
<path d="M515 625 c-16 -15 -25 -36 -25 -55 0 -19 9 -40 25 -55 51 -52 135
-15 135 60 0 71 -83 103 -135 50z"/>
<path d="M515 1525 c-52 -51 -17 -135 56 -135 50 0 79 27 79 74 0 78 -82 115
-135 61z"/>
<path d="M1410 630 c-47 -47 -7 -140 60 -140 41 0 80 39 80 80 0 67 -93 107
-140 60z"/>
</g>
</svg>
