<?xml version="1.0" standalone="no"?>
<!DOCTYPE svg PUBLIC "-//W3C//DTD SVG 20010904//EN"
 "http://www.w3.org/TR/2001/REC-SVG-20010904/DTD/svg10.dtd">
<svg version="1.0" xmlns="http://www.w3.org/2000/svg"
 width="533.000000pt" height="360.000000pt" viewBox="0 0 533.000000 360.000000"
 preserveAspectRatio="xMidYMid meet">
<metadata>
Created by potrace 1.11, written by Peter Selinger 2001-2013
</metadata>
<g transform="translate(0.000000,360.000000) scale(0.100000,-0.100000)"
fill="#000000" stroke="none">
<path d="M345 3286 l-30 -24 -3 -1311 c-2 -1208 -1 -1313 14 -1337 37 -56 2
-54 918 -54 l846 0 4 -23 c3 -12 7 -48 9 -79 4 -63 39 -122 84 -139 35 -13
1083 -12 1083 2 0 5 5 7 10 4 6 -4 22 0 35 9 43 28 59 64 65 145 l5 76 210 6
c116 3 211 6 211 7 1 1 15 19 30 40 25 32 30 48 34 122 6 94 8 96 70 73 156
-57 409 -97 521 -81 82 11 209 51 220 70 5 7 9 10 9 5 0 -4 15 6 33 22 28 26
49 61 90 148 17 36 1 218 -26 293 -42 119 -48 129 -79 127 -33 -2 -33 -3 -10
-42 16 -27 55 -122 56 -135 0 -3 5 -27 11 -53 39 -173 -60 -336 -231 -382 -56
-15 -194 -21 -259 -10 -16 2 -46 7 -65 9 -19 3 -69 15 -110 26 -41 12 -88 25
-105 29 -16 4 -51 17 -77 29 l-48 21 0 1178 c0 1052 -2 1181 -16 1201 -38 55
70 52 -1776 52 l-1703 0 -30 -24z m3225 -1345 l0 -1109 -31 -6 c-52 -10 -134
-7 -147 6 -9 9 -12 236 -12 959 l0 946 -23 33 c-23 36 -69 67 -102 70 -11 1
-252 2 -536 1 l-516 -1 -34 -23 c-74 -49 -69 14 -69 -1030 0 -514 -3 -942 -6
-951 -5 -14 -81 -16 -740 -16 -583 0 -736 2 -739 12 -8 22 -11 2206 -2 2201 4
-2 7 1 7 6 0 8 444 11 1475 11 l1475 0 0 -1109z m-255 437 c11 -123 1 -1646
-10 -1657 -10 -10 -1132 -17 -1141 -8 -3 3 -6 1532 -4 1715 l0 22 574 0 574 0
7 -72z m-2780 -369 c19 -17 32 -35 30 -40 -3 -4 -1 -9 4 -11 17 -6 -18 -94
-43 -108 -14 -7 -23 -16 -21 -20 10 -17 -91 12 -112 31 -32 31 -41 100 -17
133 41 54 108 61 159 15z m2236 -1369 c84 -24 117 -101 77 -182 -25 -52 -59
-73 -116 -71 -47 1 -79 20 -104 62 -39 63 -16 146 52 181 41 23 44 23 91 10z"/>
<path d="M2723 2000 c-23 -3 -48 -12 -57 -19 -8 -7 -19 -10 -25 -7 -11 7 -57
-45 -84 -96 -10 -18 -12 -25 -4 -15 8 9 17 17 20 17 3 0 21 15 40 33 50 47 64
57 71 50 3 -4 6 -2 6 4 0 5 14 8 30 5 17 -2 30 -6 30 -9 0 -9 -46 -69 -62 -81
-30 -22 -20 -32 20 -18 43 15 148 21 155 9 3 -4 -8 -23 -24 -41 -16 -18 -29
-29 -29 -26 0 3 -10 0 -22 -8 -13 -8 -45 -21 -73 -28 -27 -7 -51 -14 -53 -15
-1 -1 2 -14 8 -29 9 -25 -5 -134 -16 -123 -2 2 -20 -10 -38 -28 -31 -29 -39
-32 -97 -30 -35 1 -75 8 -88 16 -29 17 -71 57 -70 66 0 4 -4 9 -10 11 -16 5
-14 0 13 -37 13 -18 39 -41 58 -51 37 -19 116 -32 123 -20 3 5 14 6 24 3 22
-6 85 38 103 71 7 12 13 47 14 79 1 33 4 60 6 62 2 2 19 7 37 10 68 12 119 44
153 97 27 41 5 52 -82 44 l-70 -6 30 47 c17 26 30 50 30 54 0 12 -24 15 -67 9z"/>
<path d="M2818 1653 c-27 -8 -48 -19 -48 -24 0 -6 -4 -8 -8 -5 -11 6 -52 -21
-52 -35 0 -14 41 -11 59 4 28 23 124 46 178 43 64 -4 121 -38 159 -96 24 -35
25 -45 19 -100 -4 -33 -11 -60 -15 -60 -5 0 -11 -8 -14 -18 -9 -27 -61 -53
-113 -56 -82 -4 -148 56 -131 120 12 46 41 68 90 66 22 -1 46 -7 53 -12 13
-11 45 -4 45 10 0 12 -26 30 -33 23 -4 -3 -7 -2 -7 4 0 17 -99 14 -130 -4 -55
-32 -67 -77 -41 -154 26 -78 186 -109 255 -50 27 23 68 90 61 101 -3 5 -1 11
5 15 14 8 13 47 -2 97 -14 46 -65 101 -118 128 -44 22 -146 24 -212 3z"/>
<path d="M4412 1873 l3 -68 293 -3 292 -2 0 70 0 70 -295 0 -296 0 3 -67z"/>
<path d="M4354 1766 c-3 -7 -3 -61 -2 -122 l3 -109 353 -3 352 -2 0 119 c0 93
-3 120 -14 124 -8 3 -166 6 -351 6 -257 -1 -337 -4 -341 -13z"/>
</g>
</svg>
