<?xml version="1.0" standalone="no"?>
<!DOCTYPE svg PUBLIC "-//W3C//DTD SVG 20010904//EN"
 "http://www.w3.org/TR/2001/REC-SVG-20010904/DTD/svg10.dtd">
<svg version="1.0" xmlns="http://www.w3.org/2000/svg"
 width="128.000000pt" height="128.000000pt" viewBox="0 0 128.000000 128.000000"
 preserveAspectRatio="xMidYMid meet">
<metadata>
Created by potrace 1.11, written by Peter Selinger 2001-2013
</metadata>
<g transform="translate(0.000000,128.000000) scale(0.100000,-0.100000)"
fill="#000000" stroke="none">
<path d="M353 1152 c-6 -4 -13 -20 -15 -37 -2 -23 -10 -32 -41 -44 -34 -12
-39 -12 -57 4 -28 25 -60 13 -109 -40 -46 -50 -50 -64 -22 -89 18 -16 18 -19
2 -57 -13 -31 -21 -39 -43 -39 -36 0 -48 -25 -48 -98 0 -62 17 -92 53 -92 10
0 23 -15 32 -37 14 -32 14 -38 0 -53 -25 -27 -18 -44 39 -99 61 -56 59 -56 89
-40 11 7 50 13 85 15 66 3 104 20 80 36 -7 4 -37 5 -66 2 -35 -4 -57 -2 -67 6
-13 11 -20 9 -38 -8 l-23 -22 -39 40 -38 39 22 18 22 18 -28 63 c-24 54 -31
62 -55 62 -27 0 -28 2 -28 54 0 54 1 55 31 58 27 3 33 10 54 63 24 59 24 59 5
80 -20 21 -20 21 20 60 l40 39 23 -22 23 -22 42 20 c22 11 48 20 57 20 11 0
15 10 15 35 l0 35 60 0 60 0 0 -35 c0 -24 5 -35 14 -35 8 0 34 -9 59 -19 44
-19 44 -19 66 2 l21 21 40 -39 40 -39 -20 -21 -20 -22 28 -62 c25 -55 30 -61
42 -46 11 13 11 21 -3 51 -21 43 -21 58 -2 74 25 20 18 37 -37 90 -57 54 -72
59 -99 34 -17 -15 -22 -15 -56 -1 -27 10 -39 22 -41 38 -6 41 -21 49 -91 49
-36 0 -71 -4 -78 -8z"/>
<path d="M941 1040 c-18 -5 -45 -17 -60 -27 -35 -26 -71 -99 -71 -144 0 -34
-12 -48 -214 -243 -177 -171 -219 -206 -242 -206 -69 0 -143 -76 -144 -145 0
-49 40 -118 80 -137 105 -53 230 17 230 129 0 28 24 55 212 237 196 191 214
206 248 206 88 0 170 79 170 165 0 75 -13 77 -79 11 -56 -55 -63 -59 -88 -50
-15 5 -34 21 -43 36 -15 27 -14 28 49 92 44 45 60 67 50 70 -35 11 -66 13 -98
6z"/>
<path d="M355 930 c-70 -21 -121 -112 -105 -185 18 -80 74 -125 156 -125 117
0 191 107 149 216 -29 76 -120 119 -200 94z m137 -68 c84 -84 8 -228 -108
-206 -44 8 -91 55 -99 98 -22 115 124 192 207 108z"/>
<path d="M1077 686 c-5 -11 -14 -12 -49 -5 -49 12 -83 6 -92 -16 -4 -12 3 -15
32 -15 20 0 55 -5 76 -10 32 -7 42 -6 51 7 10 13 12 13 24 -1 7 -8 10 -20 6
-25 -9 -16 45 -92 64 -89 8 2 17 -5 19 -14 2 -11 -3 -18 -12 -18 -9 0 -18 -12
-21 -27 -4 -16 -8 -37 -10 -47 -2 -11 0 -25 6 -32 16 -19 0 -45 -21 -34 -13 7
-22 4 -35 -10 -10 -11 -26 -22 -36 -25 -11 -4 -19 -15 -19 -26 0 -12 -7 -19
-20 -19 -11 0 -20 6 -20 14 0 17 -100 32 -110 16 -8 -13 -33 12 -28 28 5 18
-47 91 -64 92 -10 0 -18 7 -18 15 0 8 6 15 13 15 9 0 17 21 23 54 l10 54 -23
-16 c-12 -10 -23 -25 -23 -34 0 -10 -9 -22 -21 -29 -18 -9 -20 -16 -14 -47 7
-40 23 -65 35 -57 14 9 42 -33 35 -53 -4 -16 3 -27 30 -48 31 -24 40 -26 57
-15 22 14 57 6 74 -17 17 -23 97 -5 103 23 5 27 32 45 57 39 32 -8 83 60 66
87 -18 29 -14 57 9 70 18 9 20 16 14 47 -8 43 -23 65 -41 58 -19 -7 -46 38
-31 53 9 10 4 19 -23 42 -37 31 -65 37 -73 15z"/>
<path d="M953 576 c-42 -19 -68 -71 -59 -119 20 -109 186 -118 215 -12 25 93
-68 170 -156 131z m102 -51 c33 -32 31 -60 -5 -97 -25 -24 -36 -29 -58 -24
-59 14 -81 80 -40 123 29 31 72 30 103 -2z"/>
</g>
</svg>
