<?xml version="1.0" standalone="no"?>
<!DOCTYPE svg PUBLIC "-//W3C//DTD SVG 20010904//EN"
 "http://www.w3.org/TR/2001/REC-SVG-20010904/DTD/svg10.dtd">
<svg version="1.0" xmlns="http://www.w3.org/2000/svg"
 width="512.000000pt" height="512.000000pt" viewBox="0 0 512.000000 512.000000"
 preserveAspectRatio="xMidYMid meet">
<metadata>
Created by potrace 1.11, written by Peter Selinger 2001-2013
</metadata>
<g transform="translate(0.000000,512.000000) scale(0.100000,-0.100000)"
fill="#000000" stroke="none">
<path d="M1315 5104 c-78 -29 -142 -115 -151 -202 -2 -26 -8 -623 -14 -1327
-5 -704 -12 -1491 -15 -1750 -3 -259 -6 -738 -8 -1065 l-2 -595 27 -46 c29
-50 85 -94 139 -109 52 -15 2450 -13 2500 2 51 15 114 69 142 122 21 40 22 50
28 626 9 735 29 3170 32 3755 2 487 5 466 -64 534 -71 72 43 66 -1334 68
-1068 1 -1246 0 -1280 -13z m2494 -138 c15 -8 32 -26 38 -39 9 -18 9 -269 3
-948 -5 -508 -12 -1282 -16 -1719 -3 -437 -9 -1080 -13 -1428 l-6 -634 -33
-29 -32 -29 -1206 0 c-1307 0 -1246 -3 -1272 54 -8 18 -9 260 -2 953 5 510 14
1556 20 2323 6 767 13 1409 16 1427 3 19 17 42 35 57 l31 26 1204 0 c1023 0
1209 -2 1233 -14z"/>
<path d="M1436 4778 c-4 -66 -37 -3929 -36 -4335 l0 -173 1139 0 1139 0 6 112
c3 62 10 736 16 1498 6 762 13 1742 17 2178 l6 792 -1141 0 -1140 0 -6 -72z
m504 -4143 l0 -125 -125 0 -125 0 0 125 0 125 125 0 125 0 0 -125z"/>
<path d="M548 4243 l-3 -48 -212 -3 -213 -2 0 -95 0 -95 215 0 215 0 0 -50 0
-50 215 0 215 0 0 195 0 195 -214 0 -215 0 -3 -47z"/>
<path d="M4140 4095 l0 -195 215 0 215 0 0 50 0 50 215 0 215 0 0 95 0 95
-212 2 -213 3 -3 48 -3 47 -215 0 -214 0 0 -195z"/>
<path d="M548 3733 l-3 -48 -212 -3 -213 -2 0 -95 0 -95 215 0 215 0 0 -50 0
-50 215 0 215 0 0 195 0 195 -214 0 -215 0 -3 -47z"/>
<path d="M4140 3585 l0 -195 215 0 215 0 0 50 0 50 215 0 215 0 0 95 0 95
-212 2 -213 3 -3 48 -3 47 -215 0 -214 0 0 -195z"/>
<path d="M550 3220 l0 -50 -215 0 -215 0 0 -95 0 -95 213 -2 212 -3 3 -47 3
-48 215 0 214 0 0 195 0 195 -215 0 -215 0 0 -50z"/>
<path d="M4140 3075 l0 -195 214 0 215 0 3 48 3 47 213 3 212 2 0 95 0 95
-215 0 -215 0 0 50 0 50 -215 0 -215 0 0 -195z"/>
<path d="M550 2705 l0 -45 -215 0 -215 0 0 -100 0 -100 215 0 215 0 0 -45 0
-45 215 0 215 0 0 190 0 190 -215 0 -215 0 0 -45z"/>
<path d="M4140 2560 l0 -190 215 0 215 0 0 45 0 45 215 0 215 0 0 100 0 100
-215 0 -215 0 0 45 0 45 -215 0 -215 0 0 -190z"/>
<path d="M548 2193 l-3 -48 -212 -3 -213 -2 0 -95 0 -95 215 0 215 0 0 -50 0
-50 215 0 215 0 0 195 0 195 -214 0 -215 0 -3 -47z"/>
<path d="M4140 2045 l0 -195 215 0 215 0 0 50 0 50 215 0 215 0 0 95 0 95
-212 2 -213 3 -3 48 -3 47 -215 0 -214 0 0 -195z"/>
<path d="M550 1680 l0 -50 -215 0 -215 0 0 -95 0 -95 215 0 215 0 0 -50 0 -50
215 0 215 0 0 195 0 195 -215 0 -215 0 0 -50z"/>
<path d="M4140 1535 l0 -195 215 0 215 0 0 50 0 50 215 0 215 0 0 95 0 95
-215 0 -215 0 0 50 0 50 -215 0 -215 0 0 -195z"/>
<path d="M550 1170 l0 -50 -215 0 -215 0 0 -95 0 -95 213 -2 212 -3 3 -47 3
-48 215 0 214 0 0 195 0 195 -215 0 -215 0 0 -50z"/>
<path d="M4140 1025 l0 -195 214 0 215 0 3 48 3 47 213 3 212 2 0 95 0 95
-215 0 -215 0 0 50 0 50 -215 0 -215 0 0 -195z"/>
</g>
</svg>
