<?xml version="1.0" standalone="no"?>
<!DOCTYPE svg PUBLIC "-//W3C//DTD SVG 1.1//EN" "http://www.w3.org/Graphics/SVG/1.1/DTD/svg11.dtd" >
<svg xmlns="http://www.w3.org/2000/svg">
<metadata></metadata>
<defs>
<font id="rodusreg500thin" horiz-adv-x="1073" >
<font-face units-per-em="2048" ascent="1638" descent="-410" />
<missing-glyph horiz-adv-x="500" />
<glyph horiz-adv-x="0" />
<glyph unicode="&#xd;" horiz-adv-x="2048" />
<glyph unicode="!" horiz-adv-x="600" d="M135 0h103h2h102v205h-102h-2h-103v-205zM135 307h205v103v921v103h-205v-103v-921v-103z" />
<glyph unicode="&#x22;" horiz-adv-x="811" d="M102 922h205v102v307v103h-205v-103v-307v-102zM422 922h205v102v307v103h-205v-103v-307v-102z" />
<glyph unicode="#" horiz-adv-x="1249" d="M-41 0h215l25 68l84 239h213l-60 -170l-47 -137h215l25 68l84 239h147h103v205h-103h-76l144 410h35h102v204h-66l60 170l47 138h-215l-25 -68l-84 -240h-213l60 170l47 138h-215l-25 -68l-84 -240h-147h-103v-204h103h76l-144 -410h-35h-102v-205h66l-60 -170zM354 512 l144 410h213l-144 -410h-213z" />
<glyph unicode="$" horiz-adv-x="1050" d="M-6 936q0 -90 30 -160.5t81 -112t114 -62.5t133 -21h33v-334h-174h-102v-205h102h174v-53v-103h205v103v53h39q96 0 175.5 40t131 126.5t51.5 206.5q0 91 -29.5 163t-80 116.5t-114 67.5t-134.5 23h-39v303h174h102v205h-102h-174v84v103h-205v-103v-84h-33 q-70 0 -133 -21.5t-114 -63t-81 -111.5t-30 -160zM199 936q0 98 28.5 124.5t124.5 26.5h33v-303h-33q-96 0 -124.5 26.5t-28.5 125.5zM590 246v334h39q93 0 123 -30.5t30 -135.5t-30 -136.5t-123 -31.5h-39z" />
<glyph unicode="%" horiz-adv-x="1351" d="M8 0h250l31 43l246 352q-3 -23 -3 -45q1 -84 41.5 -163.5t114.5 -132.5t160 -54q131 -1 225 109.5t94 242.5q0 128 -93.5 236t-223.5 108q-67 0 -126 -31l425 607l113 162h-250l-31 -43l-247 -353q3 20 3 41q2 141 -92 248t-225 107q-130 0 -224 -108.5t-94 -244.5 q0 -133 94 -238.5t224 -105.5q64 0 123 28l-422 -603zM307 1081q0 79 26.5 113.5t86.5 34.5q62 0 87.5 -32.5t24.5 -113.5q-1 -79 -25.5 -110t-86.5 -31q-60 0 -86.5 32.5t-26.5 106.5zM737 354q-3 138 113 138q113 0 113 -140q0 -77 -27 -112.5t-84 -34.5q-58 1 -85.5 37.5 t-29.5 111.5z" />
<glyph unicode="&#x26;" horiz-adv-x="1404" d="M109 1145q-1 -52 11 -98t39 -89.5t46 -68.5t56 -68q-121 -173 -150 -301q-39 -188 42 -337.5t214 -180.5q112 -26 214 8.5t205 110.5l39 29l11 -13q54 -67 138 -102t144 -35h103v205h-103q-72 0 -127 63l-3 4l192 144l82 61l-123 164l-82 -61l-201 -151l-333 399 q68 95 105 165.5t38 128.5q1 134 -82.5 223t-192.5 89t-195 -82.5t-87 -206.5zM311 475q14 69 88 179l294 -347l-29 -22q-80 -60 -133 -78t-119 -4q-70 15 -99.5 81t-1.5 191zM313 1141q1 58 14.5 73t63.5 15q47 0 59 -17.5t11 -85.5q-1 -37 -74 -135q-40 48 -57.5 81 t-16.5 69z" />
<glyph unicode="'" horiz-adv-x="514" d="M55 922h205v102v307v103h-205v-103v-307v-102z" />
<glyph unicode="(" horiz-adv-x="696" d="M109 520q0 -218 54.5 -431.5t158.5 -385.5l30 -49h240l-94 156q-185 303 -185 710q0 408 185 711l94 155h-240l-30 -49q-104 -172 -158.5 -385.5t-54.5 -431.5z" />
<glyph unicode=")" horiz-adv-x="696" d="M10 -344h252l31 43q81 111 133 270t69 291t17 260q0 129 -17 261.5t-69 291.5t-133 270l-31 43h-252l119 -161q96 -135 137 -325t41 -380q0 -189 -41 -378t-137 -324z" />
<glyph unicode="*" horiz-adv-x="946" d="M72 934l100 -178l90 51l72 41v-82v-102h205v102v81l69 -40l90 -51l101 178l-88 49l-70 40l70 40l88 49l-101 178l-90 -51l-69 -40v81v102h-205v-102v-82l-72 41l-90 51l-100 -178l88 -49l70 -40l-70 -40z" />
<glyph unicode="+" horiz-adv-x="1153" d="M109 614h102h225v-247v-103h205v103v247h225h103v205h-103h-225v248v102h-205v-102v-248h-225h-102v-205z" />
<glyph unicode="," horiz-adv-x="614" d="M41 -154h231l29 54l117 219l80 151h-232l-28 -53l-117 -219z" />
<glyph unicode="-" horiz-adv-x="886" d="M109 614h102h389h102v205h-102h-389h-102v-205z" />
<glyph unicode="." horiz-adv-x="620" d="M172 0h102h2h103v205h-103h-2h-102v-205z" />
<glyph unicode="/" horiz-adv-x="753" d="M25 0h211l18 78l311 1229l33 127h-211l-18 -78l-312 -1229z" />
<glyph unicode="0" horiz-adv-x="1171" d="M94 373q0 -93 35.5 -178t101.5 -140t146 -55h323q80 0 147 54.5t103.5 140t36.5 178.5v688q0 93 -36.5 178.5t-103.5 140t-147 54.5h-321q-81 0 -147 -54t-101.5 -138t-36.5 -179v-2v-688zM299 373v688q1 94 20 131t60 37h321q42 0 62 -38.5t20 -129.5v-688 q0 -91 -20 -129.5t-62 -38.5h-323q-40 0 -59 38t-19 130z" />
<glyph unicode="1" horiz-adv-x="929" d="M35 750h227l27 59l30 63v-667h-122h-103v-205h103h122h205h119h102v205h-102h-119v1126v103h-168l-26 -60l-226 -479z" />
<glyph unicode="2" horiz-adv-x="1171" d="M94 0h103h688h102v205h-102h-586v168q0 241 76 241h2h323q84 0 151.5 69.5t101.5 170.5t34 207q0 93 -36.5 178.5t-103.5 140t-147 54.5h-321q-81 0 -148 -57t-102 -142t-35 -174h205q0 168 80 168h321q42 0 62 -38.5t20 -129.5q0 -116 -23 -179t-59 -63h-323 q-82 2 -148 -61.5t-100.5 -165.5t-34.5 -219v-271v-102z" />
<glyph unicode="3" horiz-adv-x="1171" d="M94 0h103h503q84 0 151 68.5t101.5 176t34.5 228.5q0 123 -34.5 232t-101.5 178t-151 67h-67l321 307l33 31v146h-102h-688h-103v-205h103h432l-322 -307l-33 -31v-146h103h323h2q80 0 80 -272q0 -268 -82 -268h-503h-103v-205z" />
<glyph unicode="4" horiz-adv-x="1144" d="M-61 270h90h102h539v-168v-102h204v102v168h46h102v205h-102h-46v856v103h-157l-31 -45l-641 -959zM324 475l346 518v-518h-346z" />
<glyph unicode="5" horiz-adv-x="1171" d="M94 373q0 -93 35.5 -178t101.5 -140t146 -55h323q80 0 147 54.5t103.5 140t36.5 178.5v307q0 106 -36 207.5t-103.5 170t-147.5 68.5h-323h-17v105h451h102v205h-102h-553h-102v-103v-309v-102h102h119h323q33 0 57.5 -64t24.5 -178v-307q0 -91 -20 -129.5t-62 -38.5 h-323q-40 0 -59 38t-19 130v102h-205v-102z" />
<glyph unicode="6" horiz-adv-x="1171" d="M94 373q0 -93 35.5 -178t101.5 -140t146 -55h323q80 0 147 54.5t103.5 140t36.5 178.5q0 136 -34 253.5t-100.5 192t-152.5 72.5h-401v170q1 94 19.5 131t58.5 37h323q42 0 62 -38.5t20 -129.5h205q0 93 -36.5 178.5t-103.5 140t-147 54.5h-323q-120 0 -200.5 -112 t-82.5 -259v-2v-688zM299 373v313h401h2q22 0 39 -29.5t29 -102.5t12 -181q0 -91 -20 -129.5t-62 -38.5h-323q-40 0 -59 38t-19 130z" />
<glyph unicode="7" horiz-adv-x="1171" d="M94 1229h103h553l-308 -1100l-36 -129h212l21 76l344 1229l37 129h-33h-102h-688h-103v-205z" />
<glyph unicode="8" horiz-adv-x="1171" d="M94 373q0 -93 35.5 -178t101.5 -140t146 -55h323q80 0 147 54.5t103.5 140t36.5 178.5q0 98 -27 189.5t-75 155.5q48 63 75 150t27 174q0 98 -36 187.5t-103 147t-148 57.5h-321q-81 0 -147 -56t-101.5 -145t-36.5 -189v-2q0 -88 26.5 -174.5t73.5 -149.5 q-47 -64 -73.5 -154.5t-26.5 -190.5zM299 373q0 241 76 241h2h323h2q80 0 80 -241q0 -91 -20 -129.5t-62 -38.5h-323q-40 0 -59 38t-19 130zM299 1042q1 104 20 145.5t60 41.5h321q41 0 61.5 -43.5t20.5 -143.5q0 -108 -22 -164.5t-58 -58.5h-2h-323h-2q-35 2 -55.5 57 t-20.5 166z" />
<glyph unicode="9" horiz-adv-x="1171" d="M94 373q0 -93 35.5 -178t101.5 -140t146 -55h323q80 0 147 54.5t103.5 140t36.5 178.5v688q0 93 -36.5 178.5t-103.5 140t-147 54.5h-323q-120 0 -200.5 -112t-82.5 -259v-2q0 -109 33.5 -210t100 -169t149.5 -68h405v-241q0 -91 -20 -129.5t-62 -38.5h-323q-40 0 -59 38 t-19 130h-205zM299 1061q1 94 19.5 131t58.5 37h323q42 0 62 -38.5t20 -129.5v-242h-405q-34 0 -56 61t-22 181z" />
<glyph unicode=":" horiz-adv-x="608" d="M164 0h102h2h103v205h-103h-2h-102v-205zM164 774h102h2h103v205h-103h-2h-102v-205z" />
<glyph unicode=";" horiz-adv-x="587" d="M25 -154h229l29 56l110 219l74 149h-229l-29 -55l-111 -219zM143 768h103h2h102v205h-102h-2h-103v-205z" />
<glyph unicode="&#x3c;" horiz-adv-x="1204" d="M109 649l61 -26l707 -308l143 -61v223l-62 27l-491 213l491 213l62 26v224l-143 -62l-707 -307l-61 -27v-135z" />
<glyph unicode="=" horiz-adv-x="1204" d="M109 438h102h707h102v205h-102h-707h-102v-205zM109 791h102h707h102v204h-102h-707h-102v-204z" />
<glyph unicode="&#x3e;" horiz-adv-x="1204" d="M109 254l143 61l706 308l62 26v135l-62 27l-706 307l-143 62v-224l61 -26l492 -213l-492 -213l-61 -27v-223z" />
<glyph unicode="?" horiz-adv-x="1169" d="M106 958h205l2 101q1 97 17.5 133.5t52.5 36.5h334q63 0 63 -168v-172q0 -84 -5.5 -119t-17 -45t-40.5 -10h-80q-53 0 -99 -48.5t-70 -114t-24 -124.5v-102h205v102q0 16 1 40v21t-1 12.5t-4 6.5t-8 2h80q111 0 189.5 100.5t78.5 278.5v172q0 90 -33.5 175t-96 141.5 t-138.5 56.5h-334q-117 0 -194.5 -112.5t-79.5 -258.5zM444 0h103h2h102v205h-102h-2h-103v-205z" />
<glyph unicode="A" horiz-adv-x="1423" d="M-78 0h225l29 59l96 211h737l95 -211l29 -59h225l-66 145l-557 1229l-28 60h-132l-28 -60l-409 -899h-5v-10l-145 -320zM365 475l276 608l275 -608h-551z" />
<glyph unicode="B" horiz-adv-x="1372" d="M143 0h103h631q87 0 159.5 59t112 152.5t39.5 198.5q0 205 -105 318q49 62 77 142.5t28 153.5q0 101 -39 194.5t-111.5 154.5t-160.5 61h-631h-103v-103v-512v-205v-512v-102zM348 205v409h529q45 0 65.5 -13.5t30.5 -56t10 -134.5q0 -108 -26 -156.5t-80 -48.5h-529z M348 819v410h529q106 0 106 -205q0 -92 -29.5 -148.5t-76.5 -56.5h-529z" />
<glyph unicode="C" horiz-adv-x="1392" d="M143 373q0 -146 93 -259.5t225 -113.5h430q132 0 224.5 113.5t92.5 259.5v102h-204v-102q0 -90 -27 -129t-86 -39h-430q-59 0 -86 39t-27 129v688q1 93 27.5 130.5t85.5 37.5h430q58 0 85.5 -40t27.5 -128v-103h204v103q0 143 -92.5 258t-224.5 115h-430 q-132 0 -224 -111.5t-94 -259.5v-2v-688z" />
<glyph unicode="D" horiz-adv-x="1392" d="M143 0h103h645q132 0 224.5 113.5t92.5 259.5v688q0 143 -92.5 258t-224.5 115h-645h-103v-103v-1229v-102zM348 205v1024h543q58 0 85.5 -40t27.5 -128v-688q0 -90 -27 -129t-86 -39h-543z" />
<glyph unicode="E" horiz-adv-x="1392" d="M143 0h103h860h102v205h-102h-758v409h543h102v205h-102h-543v410h758h102v205h-102h-860h-103v-103v-512v-205v-512v-102z" />
<glyph unicode="F" horiz-adv-x="1220" d="M143 0h205v102v512h416h102v205h-102h-416v410h645h103v205h-103h-747h-103v-103v-512v-205v-512v-102z" />
<glyph unicode="G" horiz-adv-x="1392" d="M143 373q0 -146 93 -259.5t225 -113.5h430q132 0 224.5 113.5t92.5 259.5v344v102h-102h-430v-205h328v-241q0 -90 -27 -129t-86 -39h-430q-59 0 -86 39t-27 129v688q1 93 27.5 130.5t85.5 37.5h430q58 0 85.5 -40t27.5 -128h204q0 143 -92.5 258t-224.5 115h-430 q-132 0 -224 -111.5t-94 -259.5v-2v-688z" />
<glyph unicode="H" horiz-adv-x="1392" d="M143 0h205v102v512h656v-512v-102h204v102v512v205v512v103h-204v-103v-512h-656v512v103h-205v-103v-512v-205v-512v-102z" />
<glyph unicode="I" horiz-adv-x="878" d="M143 0h103h71h205h70h102v205h-102h-70v1024h70h102v205h-102h-70h-205h-71h-103v-205h103h71v-1024h-71h-103v-205z" />
<glyph unicode="J" horiz-adv-x="1200" d="M143 373q0 -95 45 -182t116.5 -139t146.5 -52h258q116 0 211.5 114.5t95.5 258.5v958v103h-205v-103v-958q0 -85 -27.5 -126.5t-74.5 -41.5h-258q-46 0 -74.5 42t-28.5 126v102h-205v-102z" />
<glyph unicode="K" horiz-adv-x="1392" d="M143 0h205v102v512h73l615 -585l29 -29h297l-186 176l-566 541l566 540l186 177h-297l-29 -29l-615 -586h-73v512v103h-205v-103v-512v-205v-512v-102z" />
<glyph unicode="L" horiz-adv-x="1200" d="M143 0h103h667h103v205h-103h-565v1126v103h-205v-103v-1229v-102z" />
<glyph unicode="M" horiz-adv-x="1671" d="M143 0h205v102v764l375 -807l27 -59h131l26 59l375 807v-764v-102h205v102v1229v103h-168l-27 -60l-477 -1028l-477 1028l-27 60h-168v-103v-1229v-102z" />
<glyph unicode="N" horiz-adv-x="1392" d="M143 0h205v102v904l674 -963l31 -43h155v102v1229v103h-204v-103v-903l-674 963l-31 43h-156v-103v-1229v-102z" />
<glyph unicode="O" horiz-adv-x="1392" d="M143 373q0 -146 93 -259.5t225 -113.5h430q135 0 226 113.5t91 259.5v688q0 150 -91 261.5t-226 111.5h-428q-134 0 -226 -111.5t-94 -259.5v-2v-688zM348 373v688q1 93 27.5 130.5t87.5 37.5h428q62 0 87.5 -37.5t25.5 -130.5v-688q0 -91 -26 -129.5t-87 -38.5h-430 q-59 0 -86 39t-27 129z" />
<glyph unicode="P" horiz-adv-x="1392" d="M143 0h205v102v512h543q90 0 165 67t113.5 160t38.5 183q0 102 -40 195.5t-114 154t-163 60.5h-645h-103v-103v-512v-205v-512v-102zM348 819v410h543q113 0 113 -205q0 -91 -31 -148t-82 -57h-543z" />
<glyph unicode="Q" horiz-adv-x="1392" d="M143 373q0 -146 93 -259.5t225 -113.5h430q71 0 137 37l8 -8l74 -72l141 149l-75 70l-11 11q43 88 43 186v688q0 150 -91 261.5t-226 111.5h-428q-134 0 -226 -111.5t-94 -259.5v-2v-688zM348 373v688q1 93 27.5 130.5t87.5 37.5h428q62 0 87.5 -37.5t25.5 -130.5v-688 q0 -23 -1 -33l-112 106l-74 72l-141 -149l76 -70l99 -94h-390q-59 0 -86 39t-27 129z" />
<glyph unicode="R" horiz-adv-x="1392" d="M143 0h205v102v512h440h103q47 0 69.5 -13.5t33 -56.5t10.5 -134v-308v-102h204v102v308q0 206 -106 319q49 62 77.5 142t28.5 153q0 102 -40 195.5t-114 154t-163 60.5h-645h-103v-103v-512v-205v-512v-102zM348 819v410h543q113 0 113 -205q0 -91 -31 -148t-82 -57 h-103h-440z" />
<glyph unicode="S" horiz-adv-x="1392" d="M143 410q0 -104 40.5 -197.5t114.5 -153t163 -59.5h430q89 0 163 59t114 152.5t40 198.5q0 192 -90.5 300.5t-226.5 108.5h-430q-52 0 -82.5 55.5t-30.5 149.5q1 111 28.5 158t84.5 47h389q113 0 113 -205h204q0 102 -40 195.5t-114 154t-163 60.5h-389 q-134 0 -225 -122.5t-93 -285.5v-2q0 -67 23.5 -139t64.5 -132.5t101.5 -99.5t128.5 -39h430q47 0 69.5 -13.5t33 -56.5t10.5 -134q0 -108 -28 -156.5t-85 -48.5h-430q-57 0 -85 49t-28 156h-205z" />
<glyph unicode="T" horiz-adv-x="1249" d="M0 1229h102h328v-1127v-102h205v102v1127h328h102v205h-102h-328h-205h-328h-102v-205z" />
<glyph unicode="U" horiz-adv-x="1392" d="M143 373q0 -146 93 -259.5t225 -113.5h430q132 0 224.5 113.5t92.5 259.5v958v103h-204v-103v-958q0 -90 -27 -129t-86 -39h-430q-59 0 -86 39t-27 129v958v103h-205v-103v-958z" />
<glyph unicode="V" horiz-adv-x="1339" d="M-115 1434l62 -144l536 -1229l27 -61h135l27 61l536 1229l62 144h-223l-27 -62l-442 -1014l-443 1014l-26 62h-224z" />
<glyph unicode="W" horiz-adv-x="1988" d="M-102 1434l47 -136l420 -1228l22 -70h145l25 68l344 954l326 -952l22 -70h146l24 68l441 1228l49 138h-217l-25 -68l-342 -954l-326 952l-22 70h-146l-24 -68l-344 -954l-326 952l-22 70h-217z" />
<glyph unicode="X" horiz-adv-x="1331" d="M-12 0h250l30 43l346 494l347 -494l30 -43h250l-113 162l-388 555l388 555l113 162h-250l-30 -43l-347 -495l-346 495l-30 43h-250l112 -162l389 -555l-389 -555z" />
<glyph unicode="Y" horiz-adv-x="1187" d="M-164 1434l123 -164l440 -587v-581v-102h205v102v581l440 587l123 164h-256l-30 -41l-379 -506l-379 506l-31 41h-256z" />
<glyph unicode="Z" horiz-adv-x="1351" d="M102 0h103h860h102v205h-102h-670l715 1069l16 160h-102h-758h-102v-205h102h568l-715 -1069z" />
<glyph unicode="[" horiz-adv-x="712" d="M109 -25q0 -123 69 -222t176 -99h72h102v205h-102h-72q-24 0 -32.5 21.5t-8.5 94.5v1090q0 73 8.5 95t32.5 22h72h102v204h-102h-72q-72 0 -129.5 -47.5t-86.5 -120.5t-29 -153v-1090z" />
<glyph unicode="\" horiz-adv-x="772" d="M6 1434l37 -129l344 -1229l21 -76h213l-37 129l-344 1229l-21 76h-213z" />
<glyph unicode="]" horiz-adv-x="712" d="M109 -141v-205h102h72q103 0 174 99t71 222v1090q0 77 -30.5 150t-88 122t-126.5 49h-72h-102v-204h102h72q23 0 32 -24.5t9 -92.5v-1090q0 -70 -9 -93t-32 -23h-72h-102z" />
<glyph unicode="^" horiz-adv-x="976" d="M61 614h220l26 66l146 369l141 -369l27 -66h219l-54 140l-237 614l-27 66h-139l-27 -66l-241 -614z" />
<glyph unicode="_" horiz-adv-x="1093" d="M-16 0h102l924 -2h102v205h-102l-924 2h-102v-205z" />
<glyph unicode="`" horiz-adv-x="659" d="M41 1434l80 -150l162 -307l28 -55h232l-80 149l-162 307l-29 56h-231z" />
<glyph unicode="a" d="M61 322q5 -83 45 -158q41 -74 114 -122q65 -42 140 -43q9 0 19 1h258q25 0 47 6v-6h205v102v222v2v100v328q0 106 -75 198t-177 92h-262q-102 0 -177 -92t-75 -198h205q0 51 10 68.5t37 17.5h262q27 0 37 -17.5t10 -68.5v-121h-309q-121 0 -217.5 -92.5t-96.5 -214.5v-4z M266 330q0 53 25.5 75.5t83.5 22.5h309v-2v-100q0 -72 -10 -96.5t-37 -24.5h-262h-4h-2h-10q-46 1 -66 25q-22 28 -27 100z" />
<glyph unicode="b" d="M123 0h102h412q73 0 132.5 46t89.5 112t30 133v461q0 107 -75 199.5t-177 92.5h-309v318v102h-205v-102v-318v-204v-738v-102zM328 205v635h309q27 0 37 -17.5t10 -70.5v-461q0 -55 -8.5 -70.5t-38.5 -15.5h-309z" />
<glyph unicode="c" d="M123 289q0 -66 30 -131.5t89.5 -111.5t132.5 -46h264q72 0 131 46t89 112t30 133v102h-205v-102q0 -55 -8.5 -70.5t-36.5 -15.5h-264q-30 0 -38.5 15t-8.5 69v465q0 51 10.5 68.5t38.5 17.5h260q27 0 37 -17.5t10 -70.5v-103h205v103q0 107 -75 199.5t-177 92.5h-260 q-103 0 -178.5 -92t-75.5 -198v-465z" />
<glyph unicode="d" d="M123 291q0 -107 72 -199t182 -92h409h103v102v738v204v318v102h-205v-102v-318h-309q-102 0 -177 -92.5t-75 -199.5v-461zM328 291v461q0 53 10 70.5t37 17.5h309v-635h-307q-31 0 -40 15.5t-9 70.5z" />
<glyph unicode="e" horiz-adv-x="1101" d="M123 289q0 -106 74 -197.5t186 -91.5h279q73 0 133.5 45.5t91.5 111.5t31 134h-205q0 -54 -9.5 -70t-41.5 -16h-279q-35 0 -45 15.5t-10 68.5v129h487h103v102v232q0 107 -77.5 199.5t-181.5 92.5h-276q-105 0 -182.5 -92t-77.5 -198v-465zM328 623v131q0 52 11 69t44 17 h276q31 0 42.5 -17.5t11.5 -70.5v-129h-385z" />
<glyph unicode="f" horiz-adv-x="712" d="M82 840h72v-738v-102h204v102v738h68h102v204h-102h-68v80q0 78 14.5 107t45.5 29h69h103v204h-103h-69q-103 0 -183.5 -102t-80.5 -238v-80h-72v-204z" />
<glyph unicode="g" d="M123 289q0 -66 30 -131.5t89.5 -111.5t132.5 -46h309v-104q0 -91 -47 -91h-260h-103v-204h103h260q55 0 104 30t80.5 75.5t49.5 96t18 93.5v104v205v737v102h-103h-409q-103 0 -178.5 -92t-75.5 -198v-465zM328 289v465q0 51 10.5 68.5t38.5 17.5h307v-635h-309 q-30 0 -38.5 15t-8.5 69z" />
<glyph unicode="h" d="M123 0h205v102v547v103q0 53 10 70.5t37 17.5h262q27 0 37 -17.5t10 -68.5v-652v-102h205v102v652q0 106 -75 198t-177 92h-262q-28 0 -47 -5v323v102h-205v-102v-610v-103v-547v-102z" />
<glyph unicode="i" horiz-adv-x="448" d="M92 0h205v102v840v102h-205v-102v-840v-102zM94 1165h103h2h102v205h-102h-2h-103v-205z" />
<glyph unicode="j" horiz-adv-x="552" d="M2 -195v-204h102q66 0 129 46.5t99.5 112.5t36.5 127v1055v102h-205v-102v-1055q0 -38 -16 -60t-44 -22h-102zM164 1165h102h2h103v205h-103h-2h-102v-205z" />
<glyph unicode="k" d="M123 0h205v102v316h5l380 -387l30 -31h287l-170 174l-340 346l340 350l168 174h-285l-30 -30l-380 -391h-5v739v102h-205v-102v-739v-205v-316v-102z" />
<glyph unicode="l" horiz-adv-x="675" d="M123 289q0 -112 80 -200.5t186 -88.5h103v205h-103q-37 0 -49 16t-12 68v1073v102h-205v-102v-1073z" />
<glyph unicode="m" horiz-adv-x="1712" d="M123 0h205v102v652q0 46 25 66t91 20h93h77q60 0 84.5 -19.5t24.5 -66.5v-652v-102h2h203h2v102l-2 652q0 55 17 70.5t81 15.5h90h90q67 0 92 -19t25 -67v-652v-102h205v102v652q0 115 -97.5 202.5t-224.5 87.5h-90h-90q-120 0 -206 -78q-94 78 -206 78h-77h-93 q-129 0 -225 -89.5t-96 -200.5v-652v-102z" />
<glyph unicode="n" d="M123 0h205v102v650q0 53 10 70.5t37 17.5h262q27 0 37 -17.5t10 -68.5v-652v-102h205v102v652q0 106 -75 198t-177 92h-262q-102 0 -177 -92.5t-75 -199.5v-650v-102z" />
<glyph unicode="o" d="M123 291q0 -67 30 -133t89.5 -112t132.5 -46h262q73 0 132.5 46t89.5 112t30 133v463q0 106 -75 198t-177 92h-262q-102 0 -177 -92t-75 -198v-463zM328 291v463q0 51 10 68.5t37 17.5h262q27 0 37 -17.5t10 -68.5v-463q0 -55 -8.5 -70.5t-38.5 -15.5h-262 q-30 0 -38.5 15.5t-8.5 70.5z" />
<glyph unicode="p" d="M123 0v-297v-102h205v102v297h309q73 0 132.5 46t89.5 112t30 133v463q0 106 -75 198t-177 92h-412h-102v-102v-737v-205zM328 205v635h309q27 0 37 -17.5t10 -68.5v-463q0 -55 -8.5 -70.5t-38.5 -15.5h-309z" />
<glyph unicode="q" d="M123 289q0 -66 30 -131.5t89.5 -111.5t132.5 -46h309v-297v-102h205v102v297v205v737v102h-103h-409q-103 0 -178.5 -92t-75.5 -198v-465zM328 289v465q0 51 10.5 68.5t38.5 17.5h307v-635h-309q-30 0 -38.5 15t-8.5 69z" />
<glyph unicode="r" horiz-adv-x="794" d="M123 0h205v102v652q0 46 15 66t46 20h201h102v204h-102h-201q-100 0 -183 -91.5t-83 -198.5v-652v-102z" />
<glyph unicode="s" d="M123 291q0 -67 30 -133t89.5 -112t132.5 -46h262q73 0 132.5 46t89.5 111.5t30 131.5v10q0 124 -71 223q-74 103 -181 103h-260q-27 2 -39 30q-10 23 -11 71q0 12 1 24v2q0 53 10.5 70.5t38.5 17.5h219q27 0 37 -17.5t10 -68.5h205q0 106 -75 198t-177 92h-219 q-103 0 -178.5 -91.5t-75.5 -196.5v-10q-1 -70 27 -140q30 -76 89.5 -129.5t131.5 -56.5h2h264q29 0 39 -25q8 -19 9 -70q0 -15 -1 -32q0 -56 -8.5 -72t-38.5 -16h-262q-30 0 -38.5 15.5t-8.5 70.5h-205z" />
<glyph unicode="t" horiz-adv-x="659" d="M82 840h57v-547q-2 -106 83.5 -199.5t211.5 -93.5h103v205h-103q-56 1 -74 19q-17 17 -16 56v9v551h29h102v204h-102h-29v318v102h-205v-102v-318h-57v-204z" />
<glyph unicode="u" d="M123 289q0 -66 30 -131.5t89.5 -111.5t132.5 -46h264q72 0 131 46t89 112t30 133v651v102h-205v-102v-651q0 -55 -8.5 -70.5t-36.5 -15.5h-264q-30 0 -38.5 15t-8.5 69v653v102h-205v-102v-653z" />
<glyph unicode="v" horiz-adv-x="1046" d="M-4 1044l53 -139l328 -839l26 -66h140l26 66l328 839l53 139h-219l-26 -65l-232 -594l-231 594l-27 65h-219z" />
<glyph unicode="w" horiz-adv-x="1542" d="M-12 1044l47 -135l293 -839l22 -70h148l24 70l174 538l172 -536l23 -72h149l23 70l289 839l47 135h-217l-23 -69l-188 -547l-174 545l-23 71h-149l-25 -69l-180 -553l-193 553l-22 69h-217z" />
<glyph unicode="x" horiz-adv-x="1056" d="M-29 0h252l31 43l216 302l216 -302l31 -43h252l-115 162l-258 360l258 361l115 161h-252l-31 -43l-216 -302l-216 302l-31 43h-252l115 -161l258 -361l-258 -360z" />
<glyph unicode="y" d="M78 1044l51 -137l300 -810q-26 -95 -51 -163t-42.5 -98.5t-28.5 -30.5h-82h-102v-204h102h82q54 0 105 40t92 109t73.5 150t57.5 174l250 839l39 131h-213l-23 -73l-162 -545l-204 551l-25 67h-219z" />
<glyph unicode="z" horiz-adv-x="1032" d="M61 0h103h581h103v205h-103h-391l453 680l16 159h-102h-516h-103v-204h103h325l-452 -680z" />
<glyph unicode="{" horiz-adv-x="733" d="M0 467q42 -30 69 -56.5t52.5 -65t38 -90t12.5 -118.5q0 -93 16 -177t48 -154t86 -111t124 -41h103v205h-103q-35 0 -52 64t-17 214q0 53 -7.5 104.5t-18.5 89t-26 75t-26 58t-23 41.5t-13 23q-1 -1 -1.5 -1t0.5 2q-2 4 0 4l2 -1q113 170 113 369q0 150 17.5 215.5 t54.5 65.5l100 2v205l-105 -3q-72 -1 -126.5 -44t-85 -114t-45.5 -153.5t-15 -173.5q0 -61 -12 -111.5t-35 -87.5t-42.5 -59t-47.5 -47l-35 -31v-98zM262 529q0 1 2 3l2 -2l-1 -1q-1 -1 -2 -1z" />
<glyph unicode="|" horiz-adv-x="663" d="M127 -244v-102h205v102v1528v102h-205v-102v-1528z" />
<glyph unicode="}" horiz-adv-x="733" d="M0 -141v-205h102q70 0 124.5 40.5t86.5 110t48 153.5t16 179q0 41 5 73.5t11.5 54t22 47t27.5 41t38.5 48.5t44.5 56l49 63q-26 34 -64.5 81.5t-53.5 67t-36 51t-27.5 54t-11.5 55t-5 72.5q1 125 -26.5 232t-91 180t-153.5 76l-106 4v-205l98 -4q77 -3 74 -283 q-1 -79 11 -143t33 -105t38 -65t39 -45t24 -23q-3 -3 -19 -18t-30 -29t-32.5 -45.5t-31.5 -67.5t-22.5 -94.5t-9.5 -128.5q0 -154 -17 -216t-53 -62h-102z" />
<glyph unicode="~" horiz-adv-x="1191" d="M109 512h204v102q0 52 17 74.5t55 22.5q19 0 36.5 -20t38.5 -49t51 -58t87 -50t133 -22q74 -2 139.5 45.5t101.5 117.5t36 138v102h-205v-102q0 -52 -15.5 -74t-52.5 -22q-19 0 -37 20.5t-39.5 49.5t-51.5 58t-87.5 49.5t-134.5 20.5q-75 0 -140.5 -47.5t-100.5 -116.5 t-35 -137v-102z" />
<glyph unicode="&#xad;" horiz-adv-x="886" d="M109 614h102h389h102v205h-102h-389h-102v-205z" />
<glyph unicode="&#x2000;" horiz-adv-x="739" />
<glyph unicode="&#x2001;" horiz-adv-x="1479" />
<glyph unicode="&#x2002;" horiz-adv-x="739" />
<glyph unicode="&#x2003;" horiz-adv-x="1479" />
<glyph unicode="&#x2004;" horiz-adv-x="493" />
<glyph unicode="&#x2005;" horiz-adv-x="369" />
<glyph unicode="&#x2006;" horiz-adv-x="246" />
<glyph unicode="&#x2007;" horiz-adv-x="246" />
<glyph unicode="&#x2008;" horiz-adv-x="184" />
<glyph unicode="&#x2009;" horiz-adv-x="295" />
<glyph unicode="&#x200a;" horiz-adv-x="82" />
<glyph unicode="&#x2010;" horiz-adv-x="886" d="M109 614h102h389h102v205h-102h-389h-102v-205z" />
<glyph unicode="&#x2011;" horiz-adv-x="886" d="M109 614h102h389h102v205h-102h-389h-102v-205z" />
<glyph unicode="&#x2012;" horiz-adv-x="886" d="M109 614h102h389h102v205h-102h-389h-102v-205z" />
<glyph unicode="&#x2013;" horiz-adv-x="1317" d="M109 614h176h672h176v205h-176h-672h-176v-205z" />
<glyph unicode="&#x2014;" horiz-adv-x="2341" d="M109 614h352h1344h352v205h-352h-1344h-352v-205z" />
<glyph unicode="&#x202f;" horiz-adv-x="295" />
<glyph unicode="&#x205f;" horiz-adv-x="369" />
<glyph unicode="&#x25fc;" horiz-adv-x="1044" d="M0 0v1044h1044v-1044h-1044z" />
</font>
</defs>
</svg>
