<?xml version="1.0" standalone="no"?>
<!DOCTYPE svg PUBLIC "-//W3C//DTD SVG 1.1//EN" "http://www.w3.org/Graphics/SVG/1.1/DTD/svg11.dtd" >
<svg xmlns="http://www.w3.org/2000/svg">
<metadata></metadata>
<defs>
<font id="rodusreg700bold" horiz-adv-x="1392" >
<font-face units-per-em="2048" ascent="1638" descent="-410" />
<missing-glyph horiz-adv-x="500" />
<glyph horiz-adv-x="0" />
<glyph unicode="&#xd;" horiz-adv-x="2048" />
<glyph unicode="!" horiz-adv-x="600" d="M94 0h144h2h143v287h-143h-2h-144v-287zM94 377h287v143v770v144h-287v-144v-770v-143z" />
<glyph unicode="&#x22;" horiz-adv-x="964" d="M102 860h287v144v286v144h-287v-144v-286v-144zM494 860h286v144v286v144h-286v-144v-286v-144z" />
<glyph unicode="#" horiz-adv-x="1484" d="M-14 0h311l37 88l83 199h166l-36 -88l-82 -199h311l37 88l83 199h159h143v286h-143h-40l119 287h23h143v287h-46l36 88l82 199h-311l-37 -88l-83 -199h-165l37 88l82 199h-311l-37 -88l-83 -199h-161h-143v-287h143h41l-120 -287h-23h-144v-286h47l-36 -88zM537 573 l119 287h166l-119 -287h-166z" />
<glyph unicode="$" horiz-adv-x="1050" d="M-27 922q0 -90 31.5 -162.5t85 -118t118.5 -71.5t136 -30v-221h-92h-143v-286h143h92v-4v-144h287v144v4q72 4 138.5 31t120.5 75t86 123t32 166q0 92 -32 167.5t-86 123.5t-120 75t-139 31v191h92h143v287h-143h-92v32v144h-287v-144v-33q-71 -4 -135.5 -29t-118 -70 t-85.5 -118t-32 -163zM260 916v6q0 64 7 77q9 16 57 17h20v-191q-61 0 -72.5 13.5t-11.5 77.5zM631 320v219q65 -1 77.5 -17.5t12.5 -93.5q0 -76 -12.5 -91.5t-77.5 -16.5z" />
<glyph unicode="%" horiz-adv-x="1269" d="M-55 1063q0 -86 46 -169t124.5 -136.5t165.5 -55.5q142 -3 248 123l-328 -614l-113 -211h326l41 76l614 1147l113 211h-326l-41 -76l-208 -389q14 47 14 92q1 96 -46.5 183.5t-125.5 140.5t-164 55q-89 2 -168.5 -55t-125.5 -144.5t-46 -177.5zM231 1063q0 60 9 75t41 15 q38 0 46 -13.5t7 -74.5q-2 -57 -8 -66.5t-41 -9.5q-37 0 -45.5 11.5t-8.5 62.5zM664 362q1 -49 14.5 -100.5t41.5 -100.5t67 -87.5t94.5 -62t119.5 -23.5q63 0 119 23.5t95 62t67.5 88t42.5 101.5t14 102q0 60 -23.5 123t-65 116t-107.5 87t-142 34t-142 -34.5t-107.5 -88.5 t-65 -117t-22.5 -123zM950 367q-1 55 5 63t46 8t46 -8t6 -65q0 -67 -7 -79t-45 -12q-36 0 -42.5 12.5t-8.5 80.5z" />
<glyph unicode="&#x26;" horiz-adv-x="1507" d="M107 353q17 -92 60 -165t106 -122t133 -64q216 -44 452 115l16 10q63 -62 153.5 -94.5t152.5 -32.5h143v287h-143q-33 0 -57 11l139 95l116 82l-161 236l-119 -80l-181 -126l-292 319q129 173 131 272q0 144 -99 241t-221 97q-121 0 -222.5 -92t-104.5 -226 q-2 -91 35.5 -163.5t102.5 -142.5q-107 -144 -134 -265q-23 -100 -6 -192zM378 369q-6 41 13 110q11 47 57 114l230 -252q-67 -44 -111.5 -56t-103.5 0q-40 7 -59.5 25t-25.5 59zM393.5 1137q-0.5 3 0 6.5t1 4t4.5 1t7.5 0t12 -1t17.5 -0.5q10 0 20 0.5t11.5 1t4 -2.5 t1 -6.5t-2.5 -15t-1 -24.5q0 -17 -36 -63q-38 46 -38 75q0 8 -0.5 15t-1 10z" />
<glyph unicode="'" horiz-adv-x="602" d="M57 860h287v144v286v144h-287v-144v-286v-144z" />
<glyph unicode="(" horiz-adv-x="733" d="M109 520q0 -209 43 -415.5t124 -370.5l41 -80h320l-102 207q-140 283 -140 659q0 377 140 660l102 206h-320l-41 -79q-81 -164 -124 -371t-43 -416z" />
<glyph unicode=")" horiz-adv-x="733" d="M0 -344h334l41 70q65 110 106 264.5t54.5 281.5t13.5 248q0 122 -13.5 249.5t-54.5 282.5t-106 265l-41 69h-334l129 -217q133 -223 133 -649q0 -178 -30.5 -351.5t-102.5 -295.5z" />
<glyph unicode="*" horiz-adv-x="991" d="M55 918l146 -248l114 69v-137h287v135l113 -67l145 248l-119 68l119 69l-145 248l-113 -68v135h-287v-136l-114 69l-146 -248l120 -69z" />
<glyph unicode="+" horiz-adv-x="1153" d="M109 573h143h143v-184v-143h287v143v184h143h144v287h-144h-143v184v144h-287v-144v-184h-143h-143v-287z" />
<glyph unicode="," horiz-adv-x="688" d="M14 -154h324l41 76l108 205l111 211h-324l-41 -76l-108 -205z" />
<glyph unicode="-" horiz-adv-x="886" d="M109 573h143h307h143v287h-143h-307h-143v-287z" />
<glyph unicode="." horiz-adv-x="630" d="M106 0h144h2h143v287h-143h-2h-144v-287z" />
<glyph unicode="/" horiz-adv-x="753" d="M23 0h290l25 115l229 1147l33 172h-291l-24 -115l-230 -1147z" />
<glyph unicode="0" horiz-adv-x="1243" d="M94 397q0 -94 41 -185.5t116.5 -151.5t162.5 -60h321q88 0 164 60t118 151t42 186v639q0 95 -41.5 186t-117.5 151.5t-165 60.5h-319q-88 0 -163 -58.5t-116.5 -149t-42.5 -188.5v-2v-639zM381 397v639q1 79 6.5 95t28.5 16h319q24 0 30.5 -18t6.5 -93v-639 q0 -77 -6 -93.5t-31 -16.5h-321q-21 0 -27 18t-6 92z" />
<glyph unicode="1" horiz-adv-x="1101" d="M49 700h219l97 197v-121v-489h-127h-144v-287h144h127h286h123h144v287h-144h-123v1003v144h-223l-43 -70z" />
<glyph unicode="2" horiz-adv-x="1243" d="M94 0h144h677h144v287h-144h-534v108q0 48 1 71.5t5 37t9.5 16t17.5 2.5h319q98 0 175 83t114 199t37 234q0 95 -42 185.5t-118.5 150.5t-165.5 60h-315q-91 0 -167 -62.5t-116.5 -152.5t-40.5 -181v-92h287v92q0 71 6.5 90t30.5 19h315q27 0 33 -16.5t6 -92.5 q0 -79 -7 -133.5t-15.5 -75t-16.5 -20.5h-315q-91 2 -166.5 -58.5t-116.5 -156t-41 -199.5v-252v-143z" />
<glyph unicode="3" horiz-adv-x="1243" d="M94 0h144h497q77 0 140 43.5t102.5 114.5t60.5 156.5t21 174.5q0 72 -13 142.5t-40 134.5t-65 112.5t-92 77t-116 27.5h-37l273 248l51 203h-143h-639h-144v-287h144h286l-211 -205l-43 -41v-205h144h321h2q13 0 20 -14t11 -60t4 -133q0 -85 -4.5 -129.5t-11.5 -58.5 t-21 -14h-497h-144v-287z" />
<glyph unicode="4" horiz-adv-x="1220" d="M29 254h143h492v-111v-143h286v143v111h4h144v287h-144h-4v749v144h-217l-43 -60l-635 -893zM440 541l224 340v-340h-224z" />
<glyph unicode="5" horiz-adv-x="1243" d="M94 397q0 -94 41 -185.5t116.5 -151.5t162.5 -60h321q88 0 164 60t118 151t42 186v191q0 77 -25 158t-67.5 147t-104 108.5t-127.5 42.5h-321v105h28h400h143v287h-143h-543h-143v-144v-391v-143h143h115h321q9 0 17 -14t14 -54.5t6 -101.5v-191q0 -77 -6 -93.5 t-31 -16.5h-321q-21 0 -27 18t-6 92v144h-287v-144z" />
<glyph unicode="6" horiz-adv-x="1243" d="M94 397q0 -94 41 -185.5t116.5 -151.5t162.5 -60h321q88 0 164 60t118 151t42 186q0 133 -38 253.5t-114.5 200t-173.5 77.5h-352v108q1 79 6 95t27 16h321q24 0 30.5 -18t6.5 -93h287q0 95 -41.5 186t-117.5 151.5t-165 60.5h-321q-87 0 -161.5 -58.5t-116 -149 t-42.5 -188.5v-2v-639zM381 397v244h354h2q8 0 15.5 -17.5t13.5 -76t6 -150.5q0 -77 -6 -93.5t-31 -16.5h-321q-21 0 -27 18t-6 92z" />
<glyph unicode="7" horiz-adv-x="1243" d="M94 1147h144h485l-283 -963l-55 -184h299l31 102l338 1147l55 185h-49h-144h-677h-144v-287z" />
<glyph unicode="8" horiz-adv-x="1243" d="M94 397q0 -94 41 -185.5t116.5 -151.5t162.5 -60h321q88 0 164 60t118 151t42 186q0 182 -91 320q43 64 67 145t24 158q0 99 -41 194t-117 157.5t-166 62.5h-319q-89 0 -164 -61.5t-116 -155.5t-42 -195v-2q0 -163 91 -302q-91 -140 -91 -321zM381 397q0 74 4.5 114.5 t10.5 51t16 10.5h2h321h2q13 0 19.5 -11.5t11 -50.5t4.5 -114q0 -77 -6 -93.5t-31 -16.5h-321q-21 0 -27 18t-6 92zM381 1020q1 85 7.5 106t27.5 21h319q23 0 30 -22t7 -105q0 -158 -35 -160h-4h-317h-4q-31 2 -31 160z" />
<glyph unicode="9" horiz-adv-x="1243" d="M94 397q0 -94 41 -185.5t116.5 -151.5t162.5 -60h321q88 0 164 60t118 151t42 186v639q0 95 -41.5 186t-117.5 151.5t-165 60.5h-321q-87 0 -161.5 -58.5t-116 -149t-42.5 -188.5v-2q0 -108 38.5 -213t114 -177.5t167.5 -72.5h358v-176q0 -77 -6 -93.5t-31 -16.5h-321 q-21 0 -27 18t-6 92h-287zM381 1036q1 79 6 95t27 16h321q24 0 30.5 -18t6.5 -93v-176h-358q-33 0 -33 176z" />
<glyph unicode=":" horiz-adv-x="657" d="M133 0h143h3h143v287h-143h-3h-143v-287zM133 723h143h3h143v287h-143h-3h-143v-287z" />
<glyph unicode=";" horiz-adv-x="602" d="M-29 -154h312l36 86l89 205l86 201h-312l-37 -86l-88 -205zM88 707h143h2h144v286h-144h-2h-143v-286z" />
<glyph unicode="&#x3c;" horiz-adv-x="1204" d="M109 625l84 -39l624 -287l203 -92v315l-84 39l-340 156l340 155l84 39v316l-203 -92l-624 -287l-84 -39v-184z" />
<glyph unicode="=" horiz-adv-x="1204" d="M109 332h143h625h143v286h-143h-625h-143v-286zM109 737h143h625h143v287h-143h-625h-143v-287z" />
<glyph unicode="&#x3e;" horiz-adv-x="1204" d="M109 207l202 92l625 287l84 39v184l-84 39l-625 287l-202 92v-316l84 -39l339 -155l-339 -156l-84 -39v-315z" />
<glyph unicode="?" horiz-adv-x="1269" d="M102 893h287v143q0 79 5 95t30 16h346q18 0 23.5 -18.5t5.5 -92.5v-80q0 -35 1 -80q1 -43 -1.5 -50t-19.5 -7h-9h-14q-66 0 -124.5 -33.5t-96.5 -84t-60 -107.5t-22 -107v-143h286v143q0 40 1 42.5t16 2.5h14q127 0 221 116t94 308v80q0 93 -40 184t-114 152.5t-161 61.5 h-346q-89 0 -164 -58.5t-116.5 -149.5t-41.5 -190v-143zM451 0h143h2h143v287h-143h-2h-143v-287z" />
<glyph unicode="A" horiz-adv-x="1462" d="M-59 0h313l39 84l77 170h617h2l76 -170l39 -84h313l-90 203l-516 1147l-39 84h-184l-39 -84l-518 -1147zM499 541l181 401l180 -401h-361z" />
<glyph unicode="B" horiz-adv-x="1372" d="M143 0h144h569q91 0 169 64t120.5 162.5t42.5 203.5q0 181 -87 299q41 63 64 136.5t23 138.5q0 101 -41.5 199t-119.5 164.5t-171 66.5h-569h-144v-144v-430v-287v-430v-143zM430 287v286h426h8q30 0 34 -11q4 -9 3 -57v-23v-52q0 -64 -4.5 -94t-13 -39.5t-27.5 -9.5 h-426zM430 860v287h426q25 0 35 -28.5t10 -114.5q0 -144 -45 -144h-426z" />
<glyph unicode="C" d="M143 397q0 -96 44 -187.5t123 -150.5t171 -59h389q92 0 171 58.5t123 150t44 188.5v144h-286v-144q0 -73 -9.5 -91.5t-42.5 -18.5h-389q-33 0 -42 19t-9 91v639q2 77 9.5 94t41.5 17h389q33 0 42.5 -19.5t9.5 -91.5v-143h286v143q0 94 -44 185.5t-123.5 152t-170.5 60.5 h-389q-91 0 -169.5 -57.5t-123 -148.5t-45.5 -190v-2v-639z" />
<glyph unicode="D" d="M143 0h144h583q92 0 171 58.5t123 150t44 188.5v639q0 94 -44 185.5t-123.5 152t-170.5 60.5h-583h-144v-144v-1147v-143zM430 287v860h440q33 0 42.5 -19.5t9.5 -91.5v-639q0 -73 -9.5 -91.5t-42.5 -18.5h-440z" />
<glyph unicode="E" d="M143 0h144h778h143v287h-143h-635v286h440h144v287h-144h-440v287h635h143v287h-143h-778h-144v-144v-430v-287v-430v-143z" />
<glyph unicode="F" horiz-adv-x="1220" d="M143 0h287v143v430h313h144v287h-144h-313v287h522h144v287h-144h-665h-144v-144v-430v-287v-430v-143z" />
<glyph unicode="G" d="M143 397q0 -96 44 -187.5t123 -150.5t171 -59h389q92 0 171 58.5t123 150t44 188.5v320v143h-143h-389v-287h246v-176q0 -73 -9.5 -91.5t-42.5 -18.5h-389q-33 0 -42 19t-9 91v639q2 77 9.5 94t41.5 17h389q33 0 42.5 -19.5t9.5 -91.5h286q0 94 -44 185.5t-123.5 152 t-170.5 60.5h-389q-91 0 -169.5 -57.5t-123 -148.5t-45.5 -190v-2v-639z" />
<glyph unicode="H" d="M143 0h287v143v430h492v-430v-143h286v143v430v287v430v144h-286v-144v-430h-492v430v144h-287v-144v-430v-287v-430v-143z" />
<glyph unicode="I" horiz-adv-x="878" d="M143 0h133h11h264h12h131v287h-131v860h131v287h-131h-12h-264h-11h-133v-287h133v-860h-133v-287z" />
<glyph unicode="J" horiz-adv-x="1200" d="M143 397q0 -96 47 -189t123 -150.5t154 -57.5h225q78 0 153.5 57t123 150t47.5 190v893v144h-287v-144v-893q0 -68 -8.5 -89t-28.5 -21h-225q-20 0 -28.5 21.5t-8.5 88.5v144h-287v-144z" />
<glyph unicode="K" d="M143 0h287v143v430h70l456 -524l43 -49h381l-206 238l-418 479l418 479l206 238h-381l-43 -50l-456 -524h-70v430v144h-287v-144v-430v-287v-430v-143z" />
<glyph unicode="L" horiz-adv-x="1200" d="M143 0h144h585h144v287h-144h-442v1003v144h-287v-144v-1147v-143z" />
<glyph unicode="M" horiz-adv-x="1679" d="M143 0h287v143v574l260 -633l37 -84h184l37 84l260 633v-574v-143h287v143v1147v144h-235l-37 -84l-404 -867l-403 867l-37 84h-236v-144v-1147v-143z" />
<glyph unicode="N" d="M143 0h287v143v738l516 -818l43 -63h219v143v1147v144h-286v-144l-2 -737l-514 817l-44 64h-219v-144v-1147v-143z" />
<glyph unicode="O" d="M143 395q0 -96 44 -187t123 -149.5t171 -58.5h389q95 0 174 59.5t121.5 149.5t42.5 186v643q0 99 -43 189.5t-122 148.5t-173 58h-387q-92 0 -171 -57.5t-123.5 -148t-45.5 -188.5v-2v-643zM430 395v643q2 75 10 92t43 17h387q36 0 44 -16.5t8 -92.5v-643q0 -74 -9 -91 t-43 -17h-389q-33 0 -42 18t-9 90z" />
<glyph unicode="P" d="M143 0h287v143v430h440q73 0 138 42.5t107.5 107.5t67.5 140t25 141q0 102 -42.5 200t-122 164t-173.5 66h-583h-144v-144v-430v-287v-430v-143zM430 860v287h440q29 0 40.5 -28.5t11.5 -114.5q0 -144 -52 -144h-440z" />
<glyph unicode="Q" d="M143 397q0 -96 44 -187.5t123 -150.5t171 -59h389q58 0 112 23l85 -82l201 204l-92 90q32 79 32 162v641q0 99 -43 189.5t-122 148.5t-173 58h-387q-92 0 -171 -57.5t-123.5 -148.5t-45.5 -190v-2v-639zM430 397v639q2 77 10 94t43 17h387q36 0 44 -16.5t8 -92.5v-552 l-15 14l-102 100l-201 -205l103 -100l8 -8h-234q-33 0 -42 19t-9 91z" />
<glyph unicode="R" d="M143 0h287v143v430h297h143h9q33 0 38 -13.5t5 -95.5v-34v-287v-143h286v143v287q0 181 -89 299q42 63 65.5 136.5t23.5 138.5q0 102 -42.5 200t-122 164t-173.5 66h-583h-144v-144v-430v-287v-430v-143zM430 860v287h440q29 0 40.5 -28.5t11.5 -114.5q0 -144 -52 -144 h-143h-297z" />
<glyph unicode="S" horiz-adv-x="1343" d="M94 430q0 -105 43 -203.5t122 -162.5t173 -64h389q94 0 173 63.5t122 162t43 204.5q0 193 -99 311.5t-239 118.5h-389q-51 0 -51 144q1 93 11 118t40 25h348q29 0 40 -28.5t11 -114.5h287q0 102 -42.5 200t-122 164t-173.5 66h-348q-94 0 -172.5 -63t-121.5 -161 t-44 -204v-2q0 -92 41 -190t121 -169.5t176 -71.5h389h9q32 0 37 -12.5t5 -91.5v-39q0 -91 -10.5 -117t-40.5 -26h-389q-30 0 -40.5 27t-10.5 116h-287z" />
<glyph unicode="T" horiz-adv-x="1249" d="M0 1147h143h246v-1004v-143h287v143v1004h246h143v287h-143h-246h-287h-246h-143v-287z" />
<glyph unicode="U" d="M143 397q0 -96 44 -187.5t123 -150.5t171 -59h389q92 0 171 58.5t123 150t44 188.5v893v144h-286v-144v-893q0 -73 -9.5 -91.5t-42.5 -18.5h-389q-33 0 -42 19t-9 91v893v144h-287v-144v-893z" />
<glyph unicode="V" horiz-adv-x="1386" d="M-90 1434l88 -201l496 -1147l36 -86h189l37 86l495 1147l88 201h-313l-37 -86l-364 -844l-365 844l-37 86h-313z" />
<glyph unicode="W" horiz-adv-x="1923" d="M-61 1434l59 -189l371 -1147l32 -98h207l33 96l252 799l235 -795l33 -100h207l33 96l391 1147l66 191h-304l-32 -97l-252 -798l-236 794l-33 101h-206l-33 -97l-252 -800l-238 798l-32 99h-301z" />
<glyph unicode="X" horiz-adv-x="1331" d="M-45 0h346l43 63l270 399l271 -399l43 -63h346l-152 223l-335 494l335 493l152 224h-346l-43 -64l-271 -398l-270 398l-43 64h-346l151 -224l335 -493l-335 -494z" />
<glyph unicode="Y" horiz-adv-x="1320" d="M-88 1434l160 -226l377 -535v-530v-143h286v143v530l375 535l158 226h-348l-43 -62l-285 -405l-287 405l-43 62h-350z" />
<glyph unicode="Z" horiz-adv-x="1351" d="M102 0h144h778h143v287h-143h-516l596 925l22 222h-143h-676h-143v-287h143h414l-596 -926z" />
<glyph unicode="[" horiz-adv-x="757" d="M109 4q0 -63 26.5 -127t69.5 -113.5t103.5 -80t123.5 -29.5l141 2v287l-145 -2q-26 0 -29.5 6t-3.5 57v1032q0 52 3.5 58t33.5 6l141 2v287l-145 -3q-127 -3 -223 -110.5t-96 -239.5v-1032z" />
<glyph unicode="\" horiz-adv-x="772" d="M2 1434l41 -177l262 -1146l25 -111h295l-41 176l-262 1147l-25 111h-295z" />
<glyph unicode="]" horiz-adv-x="757" d="M109 -59v-287h143q126 0 223.5 110t97.5 240v1032q0 83 -43 163.5t-118 133.5t-160 53h-143v-286h143q28 0 31.5 -6.5t3.5 -57.5v-1032q0 -51 -3.5 -57t-31.5 -6h-143z" />
<glyph unicode="^" horiz-adv-x="976" d="M49 573h305l33 97l64 182l63 -182l33 -97h303l-66 191l-196 573l-33 97h-205l-33 -97l-200 -573z" />
<glyph unicode="_" horiz-adv-x="1093" d="M-16 0h143l842 -2h143v287h-143l-842 2h-143v-287z" />
<glyph unicode="`" horiz-adv-x="659" d="M63 1434l52 -183l80 -286l28 -105h297l-51 182l-80 287l-29 105h-297z" />
<glyph unicode="a" horiz-adv-x="1118" d="M61 336q0 -130 106.5 -233t238.5 -103h106q80 0 177 50l7 -48l287 -2l-49 334v2v141v254q0 70 -38 142t-104.5 121.5t-140.5 49.5h-245q-74 0 -140.5 -49.5t-104.5 -121.5t-38 -142h287q0 19 -4 27h244q-3 -6 -3 -27v-75l-239 -3h-6q-132 -1 -236 -91q-106 -92 -105 -226 zM348 336v14q0 21 0.5 29.5t6 17t16.5 10.5q7 1 19 1h13h244v-72v-2q0 -39 4 -47h-245q-46 0 -52 5.5t-6 43.5z" />
<glyph unicode="b" horiz-adv-x="1132" d="M123 0h143h396q81 0 148.5 50.5t102.5 122t35 140.5v416q0 72 -38 144.5t-105.5 121.5t-142.5 49h-252v246v144h-287v-144v-246v-286v-615v-143zM410 287v471h252q6 0 6 -6q0 -3 -2 -8l-4 -15v-416q7 -13 7 -19.5t-7 -6.5h-252z" />
<glyph unicode="c" horiz-adv-x="1132" d="M123 311q0 -50 21.5 -104.5t58 -100.5t91.5 -76t116 -30h252h6q74 0 138 46q68 48 104.5 120.5t37.5 144.5v78h-286v-74q-1 -20 2 -28h-254q-10 0 -5 12l5 12v420q0 16 -4 28q1 -1 6 -1h250q9 0 4 -14l-4 -13v-74h286v74q0 69 -39 141.5t-106.5 122t-140.5 49.5h-250 q-76 0 -144 -49t-106.5 -121t-38.5 -143v-420z" />
<glyph unicode="d" horiz-adv-x="1132" d="M123 313q0 -69 35.5 -140.5t103.5 -122t150 -50.5h393h143v143v615v286v246v144h-286v-144v-246h-252q-75 0 -142.5 -49t-106 -121.5t-38.5 -144.5v-416zM407 286q3 12 3 27v416q-6 14 -6 21.5t6 7.5h252v-471h-250q-4 0 -5 -1z" />
<glyph unicode="e" horiz-adv-x="1163" d="M123 311q0 -69 36.5 -140t106 -121t152.5 -50h270q81 0 149.5 50t105 121.5t36.5 141.5h-287q0 -16 3 -28q-2 2 -7 2h-270q-6 0 -12 -3q4 12 4 27v86h569v123v209q0 112 -89.5 213.5t-203.5 101.5h-268q-77 0 -146.5 -49t-109 -121t-39.5 -143v-420zM407 760v1l11 -3h268 q7 0 10 3q-4 -8 -4 -32v-86h-282v88q0 20 -3 29z" />
<glyph unicode="f" horiz-adv-x="731" d="M82 758h53q0 -165 -2 -615v-143h287v143q2 450 2 615h125v286h-125v31q0 61 3.5 66.5t39.5 5.5h143v287h-143q-135 0 -232.5 -109.5t-97.5 -249.5v-31h-53v-286z" />
<glyph unicode="g" horiz-adv-x="1132" d="M123 311q0 -50 21.5 -104.5t58 -100.5t91.5 -76t116 -30h252v-111q2 -43 0 -43h-250h-144v-286h144h250q62 0 117.5 34t91 85t56.5 107t21 103v111v287v614v143h-143h-393q-76 0 -144 -49t-106.5 -121t-38.5 -143v-420zM405 299l5 12v420q0 16 -4 28q1 -1 6 -1h250v-471 h-252q-7 0 -7 5q0 3 2 7z" />
<glyph unicode="h" horiz-adv-x="1132" d="M123 0h287v143v443v143v29h252q9 0 4 -14l-4 -13v-588v-143h286v143v588q0 71 -38 143t-105.5 121t-142.5 49h-252v246v144h-287v-144v-561v-143v-443v-143z" />
<glyph unicode="i" horiz-adv-x="686" d="M90 0h287v143v758v143h-287v-143v-758v-143zM92 1126h144h2h143v287h-143h-2h-144v-287z" />
<glyph unicode="j" horiz-adv-x="673" d="M2 -154v-286h143q83 0 164 50.5t130.5 125.5t49.5 145v1020v143h-286v-143v-1020q0 -21 -11 -28t-47 -7h-143zM203 1126h143h2h144v287h-144h-2h-143v-287z" />
<glyph unicode="k" horiz-adv-x="1132" d="M123 0h287v143v234h47l231 -318l43 -59h356l-165 227l-215 293l215 297l163 227h-354l-43 -59l-232 -321h-46v626v144h-287v-144v-626v-287v-234v-143z" />
<glyph unicode="l" horiz-adv-x="765" d="M123 311q0 -117 97.5 -214t217.5 -97h144v287h-144q-7 0 -13 -0.5t-8.5 -1t-5 -0.5h-3t-0.5 2t0.5 4.5t1 8t0.5 11.5v979v144h-287v-144v-979z" />
<glyph unicode="m" horiz-adv-x="1849" d="M123 0h287v143v588q0 20 11 23.5t75 3.5h96h82q56 0 67 -4t11 -23v-588v-143h2h284h2v143l-2 588v18q-1 9 3 10t20 0q24 -1 43 -1h94h94q64 0 75 -3.5t11 -23.5v-588v-143h287v143v588q0 82 -54.5 155.5t-141 115.5t-177.5 42h-94h-94q-118 0 -215 -69q-104 69 -215 69 h-82h-96q-144 0 -258.5 -97t-114.5 -216v-588v-143z" />
<glyph unicode="n" horiz-adv-x="1132" d="M123 0h287v143v586q-12 29 0 29h252q9 0 4 -14l-4 -13v-588v-143h286v143v588q0 71 -38 143t-105.5 121t-142.5 49h-252q-75 0 -142.5 -49t-106 -121.5t-38.5 -144.5v-586v-143z" />
<glyph unicode="o" horiz-adv-x="1132" d="M123 313q0 -51 21.5 -106t58 -101t91.5 -76t116 -30h252q81 0 148.5 50.5t102.5 122t35 140.5v418q0 71 -38 143t-105.5 121t-142.5 49h-252q-75 0 -142.5 -49t-106 -121t-38.5 -143v-418zM405 300l5 13v418q-6 14 -6 20.5t6 6.5h252q6 0 6 -6q0 -3 -2 -8l-4 -13v-418 q7 -13 7 -19.5t-7 -6.5h-252q-7 0 -7 6q0 3 2 7z" />
<glyph unicode="p" horiz-adv-x="1132" d="M123 0v-297v-143h287v143v297h252q81 0 148.5 50.5t102.5 122t35 140.5v418q0 71 -38 143t-105.5 121t-142.5 49h-396h-143v-143v-614v-287zM410 287v471h252q6 0 6 -6q0 -3 -2 -8l-4 -13v-418q7 -13 7 -19.5t-7 -6.5h-252z" />
<glyph unicode="q" horiz-adv-x="1132" d="M123 311q0 -50 21.5 -104.5t58 -100.5t91.5 -76t116 -30h252v-297v-143h286v143v297v287v614v143h-143h-393q-76 0 -144 -49t-106.5 -121t-38.5 -143v-420zM405 299l5 12v420q0 16 -4 28q1 -1 6 -1h250v-471h-252q-7 0 -7 5q0 3 2 7z" />
<glyph unicode="r" horiz-adv-x="819" d="M123 0h287v143v588q0 19 -4 27h167h144v286h-144h-176q-67 0 -131.5 -48.5t-103.5 -121.5t-39 -143v-588v-143z" />
<glyph unicode="s" horiz-adv-x="1087" d="M78 313q0 -51 21.5 -106t58 -101t91.5 -76t116 -30h251q61 0 116 30t91.5 76t58 100.5t21.5 104.5v12q0 75 -34 147q-37 76 -105 125.5t-148 49.5h-247q-8 0 -6 40q1 23 2 40v4q0 18 -4 30q1 -1 6 -1h208q9 0 5 -14l-5 -13h287q0 71 -38.5 143t-106 121t-142.5 49h-208 q-76 0 -144 -49t-106.5 -120.5t-38.5 -141.5v-12q0 -68 32 -137q34 -75 101 -128t147 -57h2h256q6 0 6.5 -2.5t-1.5 -12.5q-4 -32 -5 -67v-2q14 -28 0 -28h-251q-11 0 -5 13l5 13h-287z" />
<glyph unicode="t" horiz-adv-x="778" d="M82 758h68v-443q-1 -53 26.5 -109.5t75 -102t116.5 -74.5t144 -29h143v287h-143q-68 0 -72 2q-4 3 -4 20v2v447h15h143v286h-143h-15v246v144h-286v-144v-246h-68v-286z" />
<glyph unicode="u" horiz-adv-x="1132" d="M123 311q0 -50 21.5 -104.5t58 -100.5t91.5 -76t116 -30h254q80 0 147 50.5t102 122t35 140.5v588v143h-286v-143v-588q0 -16 2 -26h-254q-10 0 -5 12l5 12v590v143h-287v-143v-590z" />
<glyph unicode="v" horiz-adv-x="1114" d="M-31 1044l86 -198l322 -758l37 -88h188l39 88l320 758l81 198h-309l-39 -88l-186 -444l-191 444l-36 88h-312z" />
<glyph unicode="w" horiz-adv-x="1658" d="M-45 1044l76 -194l288 -758l35 -92h197l35 90l164 463l163 -461l35 -92h197l37 92l284 758l72 194h-305l-37 -92l-152 -460l-157 460l-35 92h-197l-34 -90l-170 -462l-154 460l-35 92h-307z" />
<glyph unicode="x" horiz-adv-x="1046" d="M-57 0h344l43 63l135 202l135 -202l43 -63h344l-149 223l-201 299l201 299l149 223h-344l-43 -63l-135 -202l-135 202l-43 63h-344l149 -223l201 -299l-201 -299z" />
<glyph unicode="y" horiz-adv-x="1132" d="M49 1044l86 -200l304 -707q-81 -291 -173 -291h-143v-286h143q70 0 136.5 35.5t120.5 97.5t97 139.5t76 167.5h4l29 104l213 758l53 182h-2h-297l-28 -104l-113 -396l-195 500h-311z" />
<glyph unicode="z" horiz-adv-x="1093" d="M61 0h144h561h143v287h-143h-285l377 532l27 225h-144h-495h-144v-286h144h219l-377 -533z" />
<glyph unicode="{" horiz-adv-x="821" d="M-49 518q22 -24 61 -66t52 -56.5t37.5 -43t31 -40.5t19.5 -33.5t15.5 -37.5t5.5 -36.5t3 -46.5q0 -92 19 -179t56.5 -161t100.5 -119t142 -45h143v287h-143q-11 0 -17 15t-10 63.5t-4 138.5q0 85 -15.5 156.5t-39.5 113.5t-40.5 63.5t-29.5 30.5q12 9 29 30.5t40.5 63.5 t39.5 112t16 153q0 91 3.5 139t10.5 64t19 16l141 2v287l-145 -3q-67 -1 -121.5 -32.5t-90 -82t-59.5 -117t-34.5 -135t-10.5 -138.5q0 -31 -5 -57.5t-9.5 -43t-21.5 -41t-25.5 -35t-37.5 -43t-42 -47.5z" />
<glyph unicode="|" horiz-adv-x="663" d="M86 -203v-143h287v143v1446v143h-287v-143v-1446z" />
<glyph unicode="}" horiz-adv-x="821" d="M-4 1106l143 -4q14 0 21.5 -16t12 -65.5t3.5 -137.5q-1 -69 8.5 -129.5t24 -98.5t33 -69t31 -44.5t21.5 -20.5q-12 -9 -28.5 -31t-38.5 -64t-36.5 -113t-14.5 -155q0 -71 -2 -114t-6 -65.5t-10 -30t-15 -7.5h-143v-287h143q80 0 143.5 44.5t101 118t56.5 161t19 180.5 q0 29 1.5 51t9.5 44t11 33t20 32.5t23 28.5t33 35.5t37 39.5l92 98q-141 150 -163 177q-53 65 -61 124q-4 24 -3 58q1 93 -18.5 180.5t-57 161t-100 119.5t-140.5 49l-143 4z" />
<glyph unicode="~" horiz-adv-x="1191" d="M109 477h286v144q0 42 1 43h10q2 0 4.5 -10t9 -26.5t17.5 -36t33.5 -39.5t52.5 -36.5t79 -27t109 -11.5q79 -2 150 52.5t109 131t38 146.5v143h-287v-143q0 -20 1 -37q-1 -6 -2 -6h-3h-2q-2 0 -7.5 19t-21.5 46.5t-45.5 55t-90.5 46.5t-144 19q-60 0 -116.5 -31.5 t-95.5 -80t-62 -106.5t-23 -111v-144z" />
<glyph unicode="&#xad;" horiz-adv-x="886" d="M109 573h143h307h143v287h-143h-307h-143v-287z" />
<glyph unicode="&#x2000;" horiz-adv-x="739" />
<glyph unicode="&#x2001;" horiz-adv-x="1479" />
<glyph unicode="&#x2002;" horiz-adv-x="739" />
<glyph unicode="&#x2003;" horiz-adv-x="1479" />
<glyph unicode="&#x2004;" horiz-adv-x="493" />
<glyph unicode="&#x2005;" horiz-adv-x="369" />
<glyph unicode="&#x2006;" horiz-adv-x="246" />
<glyph unicode="&#x2007;" horiz-adv-x="246" />
<glyph unicode="&#x2008;" horiz-adv-x="184" />
<glyph unicode="&#x2009;" horiz-adv-x="295" />
<glyph unicode="&#x200a;" horiz-adv-x="82" />
<glyph unicode="&#x2010;" horiz-adv-x="886" d="M109 573h143h307h143v287h-143h-307h-143v-287z" />
<glyph unicode="&#x2011;" horiz-adv-x="886" d="M109 573h143h307h143v287h-143h-307h-143v-287z" />
<glyph unicode="&#x2012;" horiz-adv-x="886" d="M109 573h143h307h143v287h-143h-307h-143v-287z" />
<glyph unicode="&#x2013;" horiz-adv-x="1317" d="M109 573h247h530h247v287h-247h-530h-247v-287z" />
<glyph unicode="&#x2014;" horiz-adv-x="2341" d="M109 573h494h1060h494v287h-494h-1060h-494v-287z" />
<glyph unicode="&#x202f;" horiz-adv-x="295" />
<glyph unicode="&#x205f;" horiz-adv-x="369" />
<glyph unicode="&#x25fc;" horiz-adv-x="1044" d="M0 0v1044h1044v-1044h-1044z" />
</font>
</defs>
</svg>
