<?xml version="1.0" standalone="no"?>
<!DOCTYPE svg PUBLIC "-//W3C//DTD SVG 1.1//EN" "http://www.w3.org/Graphics/SVG/1.1/DTD/svg11.dtd" >
<svg xmlns="http://www.w3.org/2000/svg">
<metadata></metadata>
<defs>
<font id="roduscut700bold" horiz-adv-x="1454" >
<font-face units-per-em="2048" ascent="1638" descent="-410" />
<missing-glyph horiz-adv-x="500" />
<glyph horiz-adv-x="0" />
<glyph unicode="&#xd;" horiz-adv-x="2048" />
<glyph unicode="!" horiz-adv-x="598" d="M94 0h144h2h143v287h-143h-2h-144v-287zM94 369h287v143v778v144h-287v-144v-778v-143z" />
<glyph unicode="&#x22;" horiz-adv-x="960" d="M102 860h287v144v286v144h-287v-144v-286v-144zM489 860h287v144v286v144h-287v-144v-286v-144z" />
<glyph unicode="#" horiz-adv-x="1310" d="M-41 57l270 -98l50 135l70 193h114l-35 -94l-49 -136l270 -98l49 135l71 193h214h143v286h-143h-109l105 287h4h143v287h-42l34 94l49 135l-270 99l-49 -136l-71 -192h-113l34 94l50 135l-271 99l-49 -136l-70 -192h-215h-143v-287h143h110l-105 -287h-5h-143v-286h43 l-35 -94zM454 573l105 287h113l-105 -287h-113z" />
<glyph unicode="$" horiz-adv-x="1085" d="M-18 922q0 -93 33 -167t88 -119t121 -69.5t138 -27.5v-220h-110h-143v-286h143h110v-4v-144h287v144v4q73 3 140.5 29.5t122.5 74.5t87.5 123.5t32.5 167.5q0 93 -32.5 169t-87.5 124t-122.5 74.5t-140.5 29.5v191h109h143v287h-143h-109v32v144h-287v-144v-33 q-72 -3 -138.5 -27.5t-121.5 -70t-87.5 -118.5t-32.5 -164zM268 911v11q0 70 11.5 82t82.5 12v-191q-70 0 -82 11.5t-12 74.5zM649 320v219q69 0 82.5 -16t13.5 -95q0 -77 -13 -92.5t-83 -15.5z" />
<glyph unicode="%" horiz-adv-x="1474" d="M51 119l225 -176l89 112l223 287l223 -287l43 -55h139l43 55l224 287l69 88l-69 88l-224 287l-43 55l267 342l88 113l-226 176l-88 -113l-222 -285l-224 285l-43 56h-139l-44 -56l-223 -286l-69 -88l69 -89l223 -286l44 -56l-267 -342zM434 1004l41 53l43 -53l-43 -54z M883 430l41 53l41 -53l-41 -53z" />
<glyph unicode="&#x26;" horiz-adv-x="1466" d="M63 1018l82 -90l143 -157l-145 -165l-67 -76l51 -90l211 -368l41 -72l16 -29l111 35l394 123l159 -104l121 -80l157 239l-118 78l-74 49l96 101l100 104l-206 199l-99 -103l-111 -115l-252 277l132 152l82 94l-82 94l-234 270l-43 50h-135l-43 -56l-211 -266zM428 494 l55 62l181 -199l-134 -42zM440 1030l27 35l39 -45l-28 -32z" />
<glyph unicode="'" horiz-adv-x="579" d="M47 860h287v144v286v144h-287v-144v-286v-144z" />
<glyph unicode="(" horiz-adv-x="706" d="M109 520q0 -206 35.5 -409.5t101.5 -366.5l53 -133l266 106l-53 133q-117 289 -117 670q0 380 117 670l53 133l-266 107l-53 -134q-66 -163 -101.5 -366.5t-35.5 -409.5z" />
<glyph unicode=")" horiz-adv-x="706" d="M59 -268l258 -127l64 129q76 156 108.5 371.5t32.5 414.5t-32.5 415t-108.5 372l-64 129l-258 -127l64 -129q60 -125 86.5 -303.5t26.5 -356.5q0 -177 -26.5 -355.5t-86.5 -303.5z" />
<glyph unicode="*" horiz-adv-x="1097" d="M59 1014l127 -258l129 63l54 26v-26v-143h286v143v25l52 -25l129 -63l127 258l-125 61l125 62l-127 258l-129 -64l-52 -25v25v144h-286v-144v-26l-54 26l-129 64l-127 -258l125 -62z" />
<glyph unicode="+" horiz-adv-x="1193" d="M109 573h143h164v-184v-143h286v143v184h164h144v287h-144h-164v184v144h-286v-144v-184h-164h-143v-287z" />
<glyph unicode="," horiz-adv-x="655" d="M68 -94l268 -101l51 136l76 204l49 134l-268 100l-51 -135l-76 -205z" />
<glyph unicode="-" horiz-adv-x="983" d="M109 573h143h403h144v287h-144h-403h-143v-287z" />
<glyph unicode="." horiz-adv-x="655" d="M147 0h144h2h143v287h-143h-2h-144v-287z" />
<glyph unicode="/" horiz-adv-x="829" d="M82 35l278 -62l31 140l250 1147l31 139l-279 61l-31 -139l-249 -1147z" />
<glyph unicode="0" horiz-adv-x="1218" d="M94 352l23 -35l164 -251l43 -66h77h326h78l43 66l164 251l22 35v43v643v43l-22 35l-164 252l-43 66h-78h-324h-77l-41 -66l-166 -252l-25 -35v-43v-643v-43zM381 438v557l100 152h168l99 -152v-557l-99 -151h-170z" />
<glyph unicode="1" horiz-adv-x="956" d="M49 770l242 -96v-387h-53h-144v-287h144h53h287h51h143v287h-143h-51v1003v144h-238l-37 -86l-197 -447z" />
<glyph unicode="2" horiz-adv-x="1218" d="M94 0h144h653h143v287h-143h-510v73l108 213h238h88l39 78l164 322l39 74l-45 69l-164 252l-43 66h-78h-324h-77l-41 -66l-166 -252l237 -155l125 186h168l76 -117l-86 -170h-238h-88l-39 -78l-163 -321l-17 -31v-35v-252v-143z" />
<glyph unicode="3" horiz-adv-x="1218" d="M94 0h144h489h90l39 82l164 346l29 61l-29 62l-164 350l-37 82l105 209l39 242h-144h-581h-144v-287h144h254l-195 -209l-39 -242h143h234l98 -207l-96 -202h-399h-144v-287z" />
<glyph unicode="4" horiz-adv-x="1196" d="M29 252h143h481v-109v-143h287v143v109h133v287h-133v751v144h-219l-41 -62l-625 -895zM446 539l207 295v-295h-207z" />
<glyph unicode="5" horiz-adv-x="1218" d="M39 438l78 -121l164 -251l43 -66h77h326h78l43 66l164 251l22 35v43v287v43l-24 37l-164 242l-43 63h-76h-285v82h375h144v287h-144h-518h-143v-144v-368v-144h143h352l97 -141v-201l-99 -151h-170l-121 186l-77 121z" />
<glyph unicode="6" horiz-adv-x="1218" d="M94 352l23 -35l164 -251l43 -66h77h326h78l43 66l164 251l43 66l-33 72l-164 360l-39 84h-92q-57 0 -173 1t-173 1v94l98 152h170l121 -186l242 155l-164 252l-43 66h-78h-326h-77l-43 -66l-164 -252l-23 -35v-43v-643v-43zM381 438v176l254 -2l92 -204l-78 -121h-170z " />
<glyph unicode="7" horiz-adv-x="1218" d="M94 1147h144h462l-272 -965l-39 -137l275 -78l38 137l326 1147l53 183h-47h-143h-653h-144v-287z" />
<glyph unicode="8" horiz-adv-x="1218" d="M72 387l45 -70l164 -251l43 -66h77h326h78l43 66l164 251l45 70l-39 74l-129 253l129 238l39 72l-43 70l-164 270l-43 70h-80h-324h-79l-43 -68l-166 -270l-43 -72l39 -72l129 -238l-129 -253zM403 403l86 170h150l86 -170l-76 -116h-170zM403 1016l80 131h164l78 -131 l-84 -156h-154z" />
<glyph unicode="9" horiz-adv-x="1218" d="M72 1047l39 -74l163 -322l39 -78h88h347v-135l-99 -151h-170l-121 186l-241 -156l164 -251l43 -66h77h326h78l43 66l164 251l22 35v43v643v43l-22 35l-164 252l-43 66h-78h-326h-77l-43 -66l-164 -252zM403 1030l76 117h170l99 -152v-135h-259z" />
<glyph unicode=":" horiz-adv-x="647" d="M143 0h144h2h143v287h-143h-2h-144v-287zM143 723h144h2h143v287h-143h-2h-144v-287z" />
<glyph unicode=";" horiz-adv-x="665" d="M39 -72l254 -131l65 127l107 205l65 127l-254 131l-65 -127l-107 -205zM141 707h144h2h143v286h-143h-2h-144v-286z" />
<glyph unicode="&#x3c;" horiz-adv-x="1251" d="M109 623l88 -37l671 -287l131 -57l113 264l-133 55l-363 156l363 155l133 56l-113 264l-131 -57l-671 -287l-88 -37v-188z" />
<glyph unicode="=" horiz-adv-x="1251" d="M109 348h143h672h143v287h-143h-672h-143v-287zM109 737h143h672h143v287h-143h-672h-143v-287z" />
<glyph unicode="&#x3e;" horiz-adv-x="1251" d="M63 506l113 -264l131 57l672 287l88 37v188l-88 37l-672 287l-131 57l-113 -264l134 -56l362 -155l-362 -156z" />
<glyph unicode="?" horiz-adv-x="1236" d="M53 997l240 -157l78 121l125 186h174l96 -152v-71l-86 -119h-98h-144v-143v-150v-143h287v143v6h27h71l43 60l158 215l29 36v48v161v43l-23 35l-162 252l-43 66h-77h-330h-78l-41 -66l-166 -252zM438 0h144h2h143v287h-143h-2h-144v-287z" />
<glyph unicode="A" horiz-adv-x="1505" d="M-70 78l258 -127l64 129l84 172h692l82 -170l61 -131l261 125l-64 129l-555 1147l-39 82h-180l-39 -80l-399 -815h-23v-48l-139 -284zM476 539l208 424l205 -424h-413z" />
<glyph unicode="B" horiz-adv-x="1433" d="M143 0h144h616h74l43 61l203 287l59 82l-59 82l-145 205l145 203l59 84l-59 81l-203 287l-43 62h-74h-616h-144v-144v-430v-287v-430v-143zM430 287v286h399l101 -143l-101 -143h-399zM430 860v287h399l101 -143l-103 -144h-397z" />
<glyph unicode="C" d="M143 344l33 -41l211 -252l43 -51h68h420h67l43 51l209 252l-221 184l-166 -200h-285l-135 159v541l135 160h285l166 -201l221 184l-209 252l-43 52h-67h-420h-68l-43 -52l-211 -252l-33 -40v-52v-643v-51z" />
<glyph unicode="D" d="M143 0h144h631h67l43 51l209 252l33 41v51v643v52l-33 40l-209 252l-43 52h-67h-631h-144v-144v-1147v-143zM430 287v860h420l133 -160v-541l-133 -159h-420z" />
<glyph unicode="E" horiz-adv-x="1392" d="M143 0h144h778h143v287h-143h-635v286h440h144v287h-144h-440v287h635h143v287h-143h-778h-144v-144v-430v-287v-430v-143z" />
<glyph unicode="F" horiz-adv-x="1267" d="M143 0h287v143v430h348h144v287h-144h-348v287h569h144v287h-144h-712h-144v-144v-430v-287v-430v-143z" />
<glyph unicode="G" d="M143 344l33 -41l211 -252l43 -51h68h420h67l43 51l209 252l33 41v51v322v143h-144h-419v-287h276v-127l-133 -159h-285l-135 159v541l135 160h285l166 -201l221 184l-209 252l-43 52h-67h-420h-68l-43 -52l-211 -252l-33 -40v-52v-643v-51z" />
<glyph unicode="H" d="M143 0h287v143v430h553v-430v-143h287v143v430v287v430v144h-287v-144v-430h-553v430v144h-287v-144v-430v-287v-430v-143z" />
<glyph unicode="I" horiz-adv-x="901" d="M143 0h144h2h284h2h142v287h-142v860h142v287h-142h-2h-284h-2h-144v-287h144h2v-860h-2h-144v-287z" />
<glyph unicode="J" horiz-adv-x="1247" d="M86 422l88 -115l195 -252l43 -55h69h244h70l43 55l194 252l31 39v49v895v144h-287v-144v-846l-121 -157h-104l-152 196l-86 113z" />
<glyph unicode="K" d="M143 0h287v143v430h12l588 -536l107 -96l192 213l-106 96l-512 467l512 467l106 96l-192 213l-107 -96l-588 -537h-12v430v144h-287v-144v-430v-287v-430v-143z" />
<glyph unicode="L" horiz-adv-x="1247" d="M143 0h144h633h143v287h-143h-490v1003v144h-287v-144v-1147v-143z" />
<glyph unicode="M" horiz-adv-x="1755" d="M143 0h287v143v615l299 -678l41 -80h176l41 80l297 678v-615v-143h287v143v1147v144h-232l-41 -80l-440 -889l-442 889l-41 80h-232v-144v-1147v-143z" />
<glyph unicode="N" d="M143 0h287v143v758l582 -842l41 -59h217v143v1147v144h-287v-144v-737l-582 821l-41 60h-217v-144v-1147v-143z" />
<glyph unicode="O" d="M143 344l33 -41l211 -252l43 -51h68h420h67l43 51l209 252l33 41v51v643v52l-33 40l-209 252l-43 52h-67h-418h-66l-43 -52l-213 -252l-35 -38v-54v-643v-51zM430 446v539l135 162h285l133 -160v-541l-133 -159h-285z" />
<glyph unicode="P" d="M143 0h287v143v430h488h73l43 60l209 287l62 84l-62 83l-209 287l-43 60h-73h-631h-144v-144v-430v-287v-430v-143zM430 860v287h414l104 -143l-104 -144h-414z" />
<glyph unicode="Q" d="M143 344l33 -41l211 -252l43 -51h68h420h67l37 44l10 -9l107 -94l190 215l-108 96l-15 13l31 38l33 41v51v643v52l-33 40l-209 252l-43 52h-67h-418h-66l-43 -52l-213 -252l-35 -38v-54v-643v-51zM430 446v539l135 162h285l133 -160v-526l-49 43l-107 94l-190 -215 l108 -96h-180z" />
<glyph unicode="R" d="M143 0h287v143v430h414l139 -190v-240v-143h287v143v287v47l-27 37l-148 203l148 203l62 84l-62 83l-209 287l-43 60h-73h-631h-144v-144v-430v-287v-430v-143zM430 860v287h414l104 -143l-104 -144h-414z" />
<glyph unicode="S" d="M109 1004l63 -84l211 -287l43 -60h72h346l104 -143l-104 -143h-275l-168 227l-229 -168l211 -287l43 -59h72h420h73l43 59l209 287l62 84l-62 84l-209 287l-43 59h-73h-349l-104 144l104 143h234l166 -227l233 167l-209 287l-43 60h-73h-379h-72l-43 -60l-211 -287z" />
<glyph unicode="T" horiz-adv-x="1310" d="M0 1147h143h277v-1004v-143h287v143v1004h276h143v287h-143h-276h-287h-277h-143v-287z" />
<glyph unicode="U" d="M143 344l33 -41l211 -252l43 -51h68h420h67l43 51l209 252l33 41v51v895v144h-287v-144v-844l-133 -159h-285l-135 159v844v144h-287v-144v-895v-51z" />
<glyph unicode="V" horiz-adv-x="1415" d="M-109 1360l62 -131l534 -1147l37 -82h185l36 84l533 1147l61 129l-260 121l-59 -131l-404 -867l-405 869l-59 129z" />
<glyph unicode="W" horiz-adv-x="2111" d="M-102 1374l49 -135l430 -1147l35 -92h198l35 90l316 801l299 -799l34 -92h199l35 90l450 1147l54 135l-269 105l-51 -134l-319 -831l-293 829l-35 93h-199l-35 -91l-319 -831l-295 829l-51 134z" />
<glyph unicode="X" horiz-adv-x="1392" d="M25 113l231 -170l84 116l305 417l305 -417l84 -116l232 170l-86 114l-359 490l359 489l86 115l-232 170l-84 -117l-305 -417l-305 417l-84 117l-231 -170l86 -115l358 -489l-358 -490z" />
<glyph unicode="Y" horiz-adv-x="1249" d="M-119 1315l88 -113l420 -534v-525v-143h287v143v525l420 534l88 113l-226 176l-88 -113l-338 -430l-337 430l-89 113z" />
<glyph unicode="Z" horiz-adv-x="1413" d="M102 0h144h839h144v287h-144h-565l641 921l27 226h-144h-737h-143v-287h143h463l-641 -922z" />
<glyph unicode="[" horiz-adv-x="835" d="M109 4v-51l32 -39l170 -207l43 -53h68h86h143v287h-143h-19l-94 114v930l94 115h19h143v286h-143h-86h-68l-43 -53l-170 -207l-32 -39v-51v-1032z" />
<glyph unicode="\" horiz-adv-x="770" d="M86 1409l25 -141l190 -1147l23 -144l284 48l-24 141l-191 1147l-22 143z" />
<glyph unicode="]" horiz-adv-x="870" d="M109 -59v-287h143h98h62l43 45l192 207l39 41v57v942v43l-22 35l-193 297l-43 65h-78h-98h-143v-286h143h20l127 -197v-842l-110 -120h-37h-143z" />
<glyph unicode="^" horiz-adv-x="1075" d="M63 643l263 -115l57 131l117 271l116 -271l56 -131l264 113l-57 133l-246 574l-37 86h-188l-37 -86l-250 -574z" />
<glyph unicode="_" horiz-adv-x="1144" d="M-16 0h143l893 -2h143v287h-143l-893 2h-143v-287z" />
<glyph unicode="`" horiz-adv-x="753" d="M55 1339l74 -122l174 -287l74 -123l246 147l-74 123l-174 287l-74 123z" />
<glyph unicode="a" horiz-adv-x="1107" d="M66 336l260 -336h301l104 96l55 -119l261 121l-60 129l-63 138v413l-199 266h-354l-226 -88l103 -266l176 68h158l55 -74v-8h-313zM387 332l84 98h166v-31l-121 -112h-51z" />
<glyph unicode="b" horiz-adv-x="1107" d="M123 0h143h385h72l43 57l129 170l29 37v49v416v47l-29 39l-129 172l-43 57h-72h-241v308v143h-287v-143v-308v-286v-615v-143zM410 287v471h170l57 -76v-320l-57 -75h-170z" />
<glyph unicode="c" horiz-adv-x="1187" d="M123 256l37 -41l149 -168l43 -47h64h299h65l43 49l146 170l-217 189l-103 -121h-170l-69 80v309l71 82h166l105 -123l217 188l-148 172l-43 49h-65h-295h-64l-43 -47l-151 -170l-37 -41v-55v-420v-55z" />
<glyph unicode="d" horiz-adv-x="1107" d="M123 264l31 -39l131 -170l43 -55h69h383h144v143v615v286v308v143h-287v-143v-308h-240h-71l-43 -57l-131 -172l-29 -37v-49v-416v-49zM410 362v318l59 78h168v-471h-170z" />
<glyph unicode="e" horiz-adv-x="1146" d="M123 260l215 -260h375l233 100l-110 262l-181 -75h-182l-63 75v48h553v368l-211 266h-414l-215 -262v-522zM410 635v45l63 78h139l64 -78v-45h-266z" />
<glyph unicode="f" horiz-adv-x="729" d="M82 758h45v-615v-143h287v143v615h131v286h-131v58l35 106h14h143v287h-143h-117h-102l-33 -98l-76 -228l-8 -22v-23v-80h-45v-286z" />
<glyph unicode="g" horiz-adv-x="1107" d="M123 262l29 -39l129 -168l45 -55h69h242v-2l-57 -80h-183h-143v-287h143h254h72l43 60l129 176l29 37v47v49v287v614v143h-144h-383h-69l-43 -55l-131 -170l-31 -39v-49v-420v-49zM410 360v322l57 76h170v-471h-172z" />
<glyph unicode="h" horiz-adv-x="1167" d="M123 0h287v143v462l26 32l103 121h90l67 -80v-535v-143h287v143v588v53l-33 39l-143 170l-43 51h-68h-223h-63v308v143h-287v-143v-1209v-143z" />
<glyph unicode="i" horiz-adv-x="675" d="M166 0h287v143v758v143h-287v-143v-758v-143zM168 1126h143h2h144v287h-144h-2h-143v-287z" />
<glyph unicode="j" horiz-adv-x="585" d="M-53 -264l237 -160l80 119l113 166l24 35v45v960v143h-286v-143v-915l-88 -131zM115 1126h143h2h143v287h-143h-2h-143v-287z" />
<glyph unicode="k" horiz-adv-x="1146" d="M123 0h287v143v216l307 -316l100 -102l205 200l-100 103l-271 276l271 281l100 104l-207 199l-98 -103l-307 -319v670v143h-287v-143v-688v-287v-234v-143z" />
<glyph unicode="l" horiz-adv-x="706" d="M123 268l24 -37l113 -168l80 -118l238 159l-80 119l-88 131v998v143h-287v-143v-1041v-43z" />
<glyph unicode="m" horiz-adv-x="1808" d="M123 0h287v143v512l151 103h21l149 -103v-512v-143h2h285h2v143l-2 513l151 102h23l145 -103v-512v-143h287v143v588v76l-61 41l-244 170l-37 26h-45h-113h-45l-35 -24l-168 -115l-167 115l-37 24h-45h-111h-45l-35 -24l-250 -170l-63 -43v-76v-588v-143z" />
<glyph unicode="n" horiz-adv-x="1187" d="M123 0h287v143v533l73 82h164l70 -80v-535v-143h287v143v588v53l-35 41l-148 170l-43 49h-65h-295h-66l-43 -49l-151 -172l-35 -41v-53v-586v-143z" />
<glyph unicode="o" horiz-adv-x="1187" d="M123 260l35 -41l149 -170l43 -49h66h297h65l43 49l148 170l35 41v53v418v53l-35 41l-148 170l-43 49h-65h-295h-64l-43 -47l-151 -170l-37 -41v-55v-418v-53zM410 367v309l71 82h166l70 -80v-311l-70 -80h-166z" />
<glyph unicode="p" horiz-adv-x="1107" d="M123 0v-225v-144h287v144v225h241h72l43 57l129 170l29 37v49v418v49l-29 37l-129 170l-43 57h-72h-385h-143v-143v-614v-287zM410 287v471h170l57 -76v-320l-57 -75h-170z" />
<glyph unicode="q" horiz-adv-x="1107" d="M123 262l29 -39l129 -168l45 -55h69h242v-225v-144h287v144v225v287v614v143h-144h-383h-69l-43 -55l-131 -170l-31 -39v-49v-420v-49zM410 360v322l57 76h170v-471h-172z" />
<glyph unicode="r" horiz-adv-x="892" d="M123 0h287v143v547l43 68h194h144v286h-144h-274h-80l-41 -67l-107 -170l-22 -35v-41v-588v-143z" />
<glyph unicode="s" horiz-adv-x="1107" d="M86 741l221 -301l260 -80l33 -41l-22 -32h-158l-193 69l-98 -270l242 -86h354l236 336l-230 274l-248 76l-37 47l21 25h115l198 -84l111 266l-252 104h-311z" />
<glyph unicode="t" horiz-adv-x="727" d="M82 758h47v-447v-41l23 -34l104 -168l41 -68h80h84h143v287h-143h-4l-41 65v406h127v286h-127v308v143h-287v-143v-308h-47v-286z" />
<glyph unicode="u" horiz-adv-x="1107" d="M123 262l29 -39l129 -168l45 -55h69h258h72l43 57l127 170l29 39v47v588v143h-287v-143v-541l-55 -73h-117l-55 73v541v143h-287v-143v-590v-49z" />
<glyph unicode="v" horiz-adv-x="1083" d="M0 981l53 -133l305 -758l37 -90h193l37 90l305 758l53 133l-266 106l-53 -133l-172 -428l-173 428l-53 133z" />
<glyph unicode="w" horiz-adv-x="1617" d="M-20 983l51 -133l288 -758l35 -92h199l35 94l139 428l143 -428l35 -94h199l37 92l284 758l50 135l-269 100l-51 -133l-151 -522l-136 520l-34 94h-201l-35 -94l-147 -520l-154 522l-51 133z" />
<glyph unicode="x" horiz-adv-x="1095" d="M10 113l232 -170l84 116l163 223l164 -223l84 -116l232 170l-86 114l-217 295l217 295l86 115l-232 170l-84 -117l-164 -223l-163 223l-84 117l-232 -170l86 -115l217 -295l-217 -295z" />
<glyph unicode="y" horiz-adv-x="1107" d="M82 985l49 -133l265 -714l-60 -199h-70h-143v-287h143h176h107l31 102l73 246l31 100l234 758l43 137l-275 86l-43 -137l-109 -353l-133 359l-51 135z" />
<glyph unicode="z" horiz-adv-x="1071" d="M61 0h144h538h144v287h-144h-268l363 534l24 223h-143h-473h-144v-286h144h203l-363 -535z" />
<glyph unicode="{" horiz-adv-x="927" d="M0 449l57 -43l170 -130l2 -122v-21l7 -18l114 -361l33 -100h104h113h143v287h-143h-8l-76 241l-4 170l-2 68l-55 43l-78 59l80 64l53 43l2 65l4 162l76 244h8h143v286h-143h-113h-104l-33 -100l-114 -362l-7 -19v-20l-2 -117l-172 -135l-55 -43v-141z" />
<glyph unicode="|" horiz-adv-x="577" d="M43 -203v-143h287v143v1446v143h-287v-143v-1446z" />
<glyph unicode="}" horiz-adv-x="927" d="M0 -59v-287h143h117h105l32 100l113 361l6 22v25l-2 114l172 130l57 43v137l-51 43l-178 153l2 95v24l-6 23l-113 362l-30 100h-107h-117h-143v-286h143h11l75 -240l-4 -139l-2 -70h2l51 -43l95 -80l-88 -65l-58 -43h-2l2 -76l4 -166l-73 -237h-13h-143z" />
<glyph unicode="~" horiz-adv-x="1239" d="M49 608l215 -190l94 106l91 101l229 -129l100 -58l35 39l43 49l164 187l94 106l-215 191l-96 -109l-86 -98l-230 129l-100 57l-33 -39l-43 -47l-166 -186z" />
<glyph unicode="&#xad;" horiz-adv-x="983" d="M109 573h143h403h144v287h-144h-403h-143v-287z" />
<glyph unicode="&#x2000;" horiz-adv-x="747" />
<glyph unicode="&#x2001;" horiz-adv-x="1495" />
<glyph unicode="&#x2002;" horiz-adv-x="747" />
<glyph unicode="&#x2003;" horiz-adv-x="1495" />
<glyph unicode="&#x2004;" horiz-adv-x="498" />
<glyph unicode="&#x2005;" horiz-adv-x="373" />
<glyph unicode="&#x2006;" horiz-adv-x="249" />
<glyph unicode="&#x2007;" horiz-adv-x="249" />
<glyph unicode="&#x2008;" horiz-adv-x="186" />
<glyph unicode="&#x2009;" horiz-adv-x="299" />
<glyph unicode="&#x200a;" horiz-adv-x="83" />
<glyph unicode="&#x2010;" horiz-adv-x="983" d="M109 573h143h403h144v287h-144h-403h-143v-287z" />
<glyph unicode="&#x2011;" horiz-adv-x="983" d="M109 573h143h403h144v287h-144h-403h-143v-287z" />
<glyph unicode="&#x2012;" horiz-adv-x="983" d="M109 573h143h403h144v287h-144h-403h-143v-287z" />
<glyph unicode="&#x2013;" horiz-adv-x="1317" d="M109 573h212h598h214v287h-214h-598h-212v-287z" />
<glyph unicode="&#x2014;" horiz-adv-x="2341" d="M109 573h424h1197h427v287h-427h-1197h-424v-287z" />
<glyph unicode="&#x202f;" horiz-adv-x="299" />
<glyph unicode="&#x205f;" horiz-adv-x="373" />
<glyph unicode="&#x25fc;" horiz-adv-x="1105" d="M0 0v1106h1106v-1106h-1106z" />
</font>
</defs>
</svg>
