<?xml version="1.0" standalone="no"?>
<!DOCTYPE svg PUBLIC "-//W3C//DTD SVG 1.1//EN" "http://www.w3.org/Graphics/SVG/1.1/DTD/svg11.dtd" >
<svg xmlns="http://www.w3.org/2000/svg">
<metadata></metadata>
<defs>
<font id="rodusround100thin" horiz-adv-x="1044" >
<font-face units-per-em="2048" ascent="1638" descent="-410" />
<missing-glyph horiz-adv-x="500" />
<glyph horiz-adv-x="0" />
<glyph unicode="&#xd;" horiz-adv-x="2048" />
<glyph unicode="!" horiz-adv-x="507" d="M172 369q0 -20 20.5 -20t20.5 20v1044q0 20 -20.5 20t-20.5 -20v-1044zM173 20.5q0 -20.5 20 -20.5h2q20 0 20 20.5t-20 20.5h-2q-20 0 -20 -20.5z" />
<glyph unicode="&#x22;" horiz-adv-x="573" d="M102 1065q0 -20 20.5 -20t20.5 20v348q0 20 -20.5 20t-20.5 -20v-348zM348 1065q0 -20 20.5 -20t20.5 20v348q0 20 -20.5 20t-20.5 -20v-348z" />
<glyph unicode="#" horiz-adv-x="1208" d="M0 368.5q0 -20.5 20 -20.5h96l-114 -321q-5 -12 3 -20.5t19 -7t15 14.5l118 334h450l-113 -321q-5 -12 2.5 -20.5t18.5 -7t15 14.5l118 334h356q20 0 20 20.5t-20 20.5h-341l231 655h110q20 0 20 20.5t-20 20.5h-96l114 322q5 12 -3 20t-19 6.5t-15 -14.5l-118 -334h-450 l113 322q5 12 -2.5 20t-18.5 6.5t-15 -14.5l-118 -334h-356q-20 0 -20 -20.5t20 -20.5h341l-231 -655h-110q-20 0 -20 -20.5zM171 389l231 655h451l-231 -655h-451z" />
<glyph unicode="$" horiz-adv-x="1021" d="M27 967q0 -305 276 -305h150v-562h-324q-20 0 -20 -20.5t20 -20.5h324v-153q0 -20 20.5 -20t20.5 20v153h153q128 0 202.5 78.5t74.5 243.5t-74.5 243t-202.5 78h-153v527h323q20 0 20 20.5t-20 20.5h-323v188q0 20 -20.5 20t-20.5 -20v-188h-150q-129 0 -202.5 -72 t-73.5 -231zM68 967q0 145 59 203.5t176 58.5h150v-527h-150q-117 0 -176 59t-59 206zM494 100v562h153q116 0 176 -64.5t60 -216.5q0 -150 -60.5 -215.5t-175.5 -65.5h-153z" />
<glyph unicode="%" horiz-adv-x="1316" d="M109 1065q0 -156 74.5 -262.5t191.5 -106.5t191.5 106t74.5 263t-74.5 263t-191.5 106t-191.5 -106.5t-74.5 -262.5zM110.5 11q5.5 -11 15.5 -12t19 9l983 1393q8 11 2.5 21.5t-15.5 11.5t-19 -9l-983 -1392q-8 -11 -2.5 -22zM150 1065q0 146 61.5 237t163.5 91 t163.5 -90.5t61.5 -237.5t-61.5 -237.5t-163.5 -90.5t-163.5 91t-61.5 237zM600 369q0 -99 32.5 -182.5t94 -134.5t139.5 -52q116 -1 191.5 109t75.5 260q0 97 -33 180.5t-94.5 135.5t-139.5 52q-117 0 -191.5 -108t-74.5 -260zM641 369q0 140 62.5 233.5t162.5 93.5 q99 0 162.5 -94.5t63.5 -232.5t-63.5 -233.5t-162.5 -94.5q-100 1 -162.5 94.5t-62.5 233.5z" />
<glyph unicode="&#x26;" horiz-adv-x="1363" d="M109 473q-39 -184 28.5 -314.5t190.5 -158.5q105 -24 198 7t199 110l115 86l69 -82q50 -60 123 -90.5t127 -30.5q20 0 20 20.5t-20 20.5q-49 0 -110.5 26t-106.5 78l-69 83l298 225q11 8 9 19t-11.5 15t-21.5 -2l-301 -226l-486 580q53 72 73 101t54.5 83t48 90t13.5 67 q1 121 -59 187.5t-156 66.5q-97 0 -160.5 -62t-64.5 -172q-1 -43 9.5 -82t34.5 -78.5t42.5 -64.5t57 -70.5t54.5 -66.5q-169 -234 -198 -365zM150 465q26 122 185 340l479 -570l-114 -85q-102 -74 -185 -102.5t-179 -6.5q-110 25 -166 138t-20 286zM150 1200 q1 96 50.5 144.5t133.5 48.5q83 0 129 -52t45 -161q0 -34 -30 -90.5t-55.5 -93t-90.5 -124.5q-12 14 -53.5 63.5t-54 67.5t-36 56t-31.5 71t-7 70z" />
<glyph unicode="'" horiz-adv-x="389" d="M74 1065q0 -20 20.5 -20t20.5 20v348q0 20 -20.5 20t-20.5 -20v-348z" />
<glyph unicode="(" horiz-adv-x="628" d="M109 520q0 -233 76 -455.5t223 -402.5q8 -11 19.5 -8.5t15 13t-2.5 20.5q-144 177 -217 391.5t-73 441.5t73 442t217 392q8 10 3 20.5t-15 12t-20 -8.5q-147 -180 -223 -402.5t-76 -455.5z" />
<glyph unicode=")" horiz-adv-x="628" d="M110.5 -331.5q3.5 -11.5 13 -14t19.5 5.5q69 71 123 161t87 178t54 184t29 177t8 160t-8 160t-29 177t-54 184t-87 178t-123 161q-9 9 -19.5 6t-13 -13.5t4.5 -20.5q82 -85 141.5 -194.5t90 -223t43.5 -214.5t13 -200t-13 -200t-43.5 -214t-90 -222.5t-141.5 -194.5 q-8 -9 -4.5 -20.5z" />
<glyph unicode="*" horiz-adv-x="923" d="M108.5 990.5q-0.5 -11.5 8.5 -18.5t20 -1l266 134v-265q0 -20 20.5 -20t20.5 20v265l267 -134q11 -6 20 1t8.5 18.5t-12.5 17.5l-258 130l258 130q12 6 12.5 17.5t-8.5 18.5t-20 1l-267 -134v265q0 20 -20.5 20t-20.5 -20v-265l-266 134q-11 6 -20 -1t-8.5 -18.5 t12.5 -17.5l258 -130l-258 -130q-12 -6 -12.5 -17.5z" />
<glyph unicode="+" horiz-adv-x="1120" d="M109 716.5q0 -20.5 20 -20.5h373v-377q0 -20 20.5 -20t20.5 20v377h372q20 0 20 20.5t-20 20.5h-372v377q0 20 -20.5 20t-20.5 -20v-377h-373q-20 0 -20 -20.5z" />
<glyph unicode="," horiz-adv-x="432" d="M111 -125q-5 -13 2 -21.5t18 -7.5t16 13l99 247q5 13 -2.5 22t-18.5 8t-16 -13z" />
<glyph unicode="-" horiz-adv-x="868" d="M109 716.5q0 -20.5 20 -20.5h535q20 0 20 20.5t-20 20.5h-535q-20 0 -20 -20.5z" />
<glyph unicode="." horiz-adv-x="430" d="M158 20.5q0 -20.5 20 -20.5h2q20 0 20 20.5t-20 20.5h-2q-20 0 -20 -20.5z" />
<glyph unicode="/" horiz-adv-x="796" d="M111 27q-5 -12 2.5 -20.5t18.5 -7t15 14.5l463 1393q5 12 -3 20t-19 6.5t-15 -14.5z" />
<glyph unicode="0" horiz-adv-x="1138" d="M94 328q0 -139 63 -233.5t162 -94.5h410q99 0 162 94t63 234v778q0 139 -63 233.5t-162 94.5h-407q-100 0 -163 -92.5t-65 -235.5v-778zM135 328v778q2 133 51.5 210t135.5 77h407q83 0 133.5 -79.5t50.5 -207.5v-778q0 -130 -50 -208.5t-134 -78.5h-410 q-83 0 -133.5 79.5t-50.5 207.5z" />
<glyph unicode="1" horiz-adv-x="907" d="M95 20.5q0 -20.5 20 -20.5h587q20 0 20 20.5t-20 20.5h-272v1372q0 14 -16 18t-23 -8l-295 -542q-9 -19 8.5 -28.5t28.5 7.5l256 473v-1292h-274q-20 0 -20 -20.5z" />
<glyph unicode="2" horiz-adv-x="1138" d="M94 20q0 -20 21 -20h819q20 0 20 20.5t-20 20.5h-799v287q0 172 50 271t134 97h410q65 0 117.5 58.5t80 151.5t27.5 200q0 139 -63 233.5t-162 94.5h-407q-100 0 -163 -92.5t-65 -235.5q0 -20 20.5 -20t20.5 20q2 133 51.5 210t135.5 77h407q83 0 133.5 -79.5 t50.5 -207.5q0 -157 -51 -263t-133 -106h-410q-101 1 -163 -113.5t-62 -295.5v-308z" />
<glyph unicode="3" horiz-adv-x="1138" d="M95 20.5q0 -20.5 20 -20.5h614q100 0 162.5 125t62.5 315q0 195 -62.5 321.5t-162.5 125.5h-356l575 512q9 7 3.5 21t-17.5 14h-819q-20 0 -20 -20.5t20 -20.5h766l-576 -512q-9 -7 -3.5 -21t17.5 -14h410q83 2 133.5 -109t50.5 -297q0 -181 -50.5 -290t-133.5 -109h-614 q-20 0 -20 -20.5z" />
<glyph unicode="4" horiz-adv-x="1112" d="M31 319q6 -12 18 -12h750v-287q0 -20 20.5 -20t20.5 20v287h129q20 0 20 20.5t-20 20.5h-129v1065q0 13 -15 18t-22 -6l-770 -1085q-8 -9 -2 -21zM88 348l711 1002v-1002h-711z" />
<glyph unicode="5" horiz-adv-x="1138" d="M94 328q0 -139 63 -233.5t162 -94.5h410q99 0 162 94t63 234v348q0 106 -29.5 200t-81.5 151.5t-114 57.5h-410h-122v310h663q20 0 20 20.5t-20 20.5h-684q-20 0 -20 -21v-350q0 -21 20 -21h143h410q77 0 130.5 -107t53.5 -261v-348q0 -130 -50 -208.5t-134 -78.5h-410 q-83 0 -133.5 79.5t-50.5 207.5q0 20 -20.5 20t-20.5 -20z" />
<glyph unicode="6" horiz-adv-x="1138" d="M94 328q0 -139 63 -233.5t162 -94.5h410q99 0 162 94t63 234q0 217 -62 354.5t-163 136.5h-594v287q2 133 51 210t133 77h410q83 0 133.5 -79.5t50.5 -207.5q0 -20 20.5 -20t20.5 20q0 139 -63 233.5t-162 94.5h-410q-99 0 -161 -92.5t-64 -235.5v-778zM135 328v450h594 q82 2 133 -121t51 -329q0 -130 -50 -208.5t-134 -78.5h-410q-83 0 -133.5 79.5t-50.5 207.5z" />
<glyph unicode="7" horiz-adv-x="1138" d="M95 1413.5q0 -20.5 20 -20.5h792l-403 -1366q-3 -13 5.5 -21.5t20 -6.5t15.5 15l409 1393q2 10 -4 18.5t-16 8.5h-819q-20 0 -20 -20.5z" />
<glyph unicode="8" horiz-adv-x="1138" d="M94 328q0 -139 63 -233.5t162 -94.5h410q99 0 162 94t63 234q0 141 -40 246t-109 144q68 41 108.5 142.5t40.5 224.5q0 149 -62.5 249t-162.5 100h-407q-101 0 -163.5 -98t-64.5 -251q0 -125 40.5 -226t108.5 -141q-69 -38 -109 -142.5t-40 -247.5zM135 328 q0 171 49.5 269.5t132.5 98.5h2h410h3q82 0 131.5 -99.5t49.5 -268.5q0 -130 -50 -208.5t-134 -78.5h-410q-83 0 -133.5 79.5t-50.5 207.5zM135 1085q2 141 52 224.5t135 83.5h407q83 0 133.5 -85.5t50.5 -222.5q0 -149 -51 -248.5t-133 -99.5h-410q-82 0 -133 98.5 t-51 249.5z" />
<glyph unicode="9" horiz-adv-x="1138" d="M94 328q0 -139 63 -233.5t162 -94.5h410q99 0 162 94t63 234v778q0 139 -63 233.5t-162 94.5h-410q-99 0 -161 -92.5t-64 -235.5q0 -110 27.5 -203t79.5 -150t118 -57h594v-368q0 -130 -50 -208.5t-134 -78.5h-410q-83 0 -133.5 79.5t-50.5 207.5q0 20 -20.5 20 t-20.5 -20zM135 1106q2 133 51 210t133 77h410q83 0 133.5 -79.5t50.5 -207.5v-369h-594q-82 0 -133 104.5t-51 264.5z" />
<glyph unicode=":" horiz-adv-x="518" d="M201 20.5q0 -20.5 20 -20.5h2q20 0 20 20.5t-20 20.5h-2q-20 0 -20 -20.5zM201 899.5q0 -20.5 20 -20.5h2q20 0 20 20.5t-20 20.5h-2q-20 0 -20 -20.5z" />
<glyph unicode=";" horiz-adv-x="411" d="M90 -125q-5 -13 2.5 -21.5t18.5 -7.5t16 13l98 247q5 13 -2.5 22t-18.5 8t-16 -13zM138 911.5q0 -20.5 20 -20.5h2q20 0 20 20.5t-20 20.5h-2q-20 0 -20 -20.5z" />
<glyph unicode="&#x3c;" horiz-adv-x="1171" d="M110 716q0 -14 11 -18l837 -348q12 -5 21 2.5t8.5 18.5t-12.5 16l-793 330l793 330q12 5 12.5 16t-8.5 18t-21 2l-837 -348q-11 -5 -11 -19z" />
<glyph unicode="=" horiz-adv-x="1171" d="M109 518.5q0 -20.5 20 -20.5h838q20 0 20 20.5t-20 20.5h-838q-20 0 -20 -20.5zM109 915.5q0 -20.5 20 -20.5h838q20 0 20 20.5t-20 20.5h-838q-20 0 -20 -20.5z" />
<glyph unicode="&#x3e;" horiz-adv-x="1171" d="M108 371q-1 -11 8 -18.5t21 -2.5l838 348q11 4 11 18t-11 19l-838 348q-12 5 -21 -2t-8 -18t13 -16l792 -330l-792 -330q-12 -5 -13 -16z" />
<glyph unicode="?" horiz-adv-x="1046" d="M109 1106q0 -20 20.5 -20t20.5 20q2 132 45 209.5t116 77.5h355q69 0 112 -80.5t43 -206.5v-195q0 -165 -39.5 -233t-115.5 -68h-84q-48 0 -82.5 -74t-34.5 -161q0 -20 20.5 -20t20.5 20q0 75 24 134.5t52 59.5h84q89 0 142.5 82.5t53.5 259.5v195q0 136 -55 232t-141 96 h-355q-91 0 -145.5 -92t-56.5 -236zM465 20.5q0 -20.5 20 -20.5h2q20 0 20 20.5t-20 20.5h-2q-20 0 -20 -20.5z" />
<glyph unicode="A" horiz-adv-x="1366" d="M-18 29q-3 -5 -3 -10q1 -6 5 -11q7 -9 17 -9l1 1q11 0 16 12l134 303q6 -8 16 -8h866q20 0 20 20.5t-20 20.5h-866h-1l447 1014l590 -1350q4 -12 16 -12q1 0 2 -1q12 0 18 9q4 5 4 11q0 5 -3 10l-608 1392q-5 11 -19 11t-18 -11z" />
<glyph unicode="B" horiz-adv-x="1331" d="M143 20q0 -20 21 -20h723q114 0 187 105.5t73 263.5q0 291 -167 353q75 42 121 140t46 203q0 154 -72.5 261.5t-187.5 107.5h-723q-9 0 -15 -6t-6 -15v-1393zM184 41v655h703q108 0 163.5 -75t55.5 -252q0 -148 -60 -238t-159 -90h-703zM184 737v656h703q97 0 158 -93 t61 -235q0 -128 -62.5 -228t-156.5 -100h-703z" />
<glyph unicode="C" horiz-adv-x="1351" d="M143 328q0 -139 75 -233.5t192 -94.5h491q117 0 191.5 94t74.5 234q0 20 -20.5 20t-20.5 -20q0 -129 -61.5 -208t-163.5 -79h-491q-102 0 -164 79.5t-62 207.5v778q2 132 62.5 209.5t163.5 77.5h491q102 0 163.5 -80.5t61.5 -206.5q0 -20 20.5 -20t20.5 20q0 136 -75 232 t-191 96h-491q-117 0 -191 -92.5t-76 -235.5v-778z" />
<glyph unicode="D" horiz-adv-x="1351" d="M143 20q0 -20 21 -20h737q117 0 191.5 94t74.5 234v778q0 136 -75 232t-191 96h-737q-9 0 -15 -6t-6 -15v-1393zM184 41v1352h717q102 0 163.5 -80.5t61.5 -206.5v-778q0 -129 -61.5 -208t-163.5 -79h-717z" />
<glyph unicode="E" horiz-adv-x="1351" d="M143 20q0 -20 21 -20h983q20 0 20 20.5t-20 20.5h-963v655h717q20 0 20 20.5t-20 20.5h-717v656h963q20 0 20 20.5t-20 20.5h-983q-9 0 -15 -6t-6 -15v-1393z" />
<glyph unicode="F" horiz-adv-x="1187" d="M143 20q0 -20 20.5 -20t20.5 20v676h596q20 0 20 20.5t-20 20.5h-596v656h858q20 0 20 20.5t-20 20.5h-878q-9 0 -15 -6t-6 -15v-1393z" />
<glyph unicode="G" horiz-adv-x="1351" d="M143 328q0 -139 75 -233.5t192 -94.5h491q117 0 191.5 94t74.5 234v389q0 20 -20 20h-492q-20 0 -20 -20.5t20 -20.5h471v-368q0 -129 -61.5 -208t-163.5 -79h-491q-102 0 -164 79.5t-62 207.5v778q2 132 62.5 209.5t163.5 77.5h491q102 0 163.5 -80.5t61.5 -206.5 q0 -20 20.5 -20t20.5 20q0 136 -75 232t-191 96h-491q-117 0 -191 -92.5t-76 -235.5v-778z" />
<glyph unicode="H" horiz-adv-x="1351" d="M143 20q0 -20 20.5 -20t20.5 20v676h942v-676q0 -20 20.5 -20t20.5 20v1393q0 20 -20.5 20t-20.5 -20v-676h-942v676q0 20 -20.5 20t-20.5 -20v-1393z" />
<glyph unicode="I" horiz-adv-x="862" d="M144 20.5q0 -20.5 20 -20.5h493q20 0 20 20.5t-20 20.5h-225v1352h225q20 0 20 20.5t-20 20.5h-493q-20 0 -20 -20.5t20 -20.5h227v-1352h-227q-20 0 -20 -20.5z" />
<glyph unicode="J" horiz-adv-x="1167" d="M143 328q0 -135 82 -231.5t185 -96.5h307q104 0 185 96t81 232v1085q0 20 -20.5 20t-20.5 -20v-1085q0 -124 -66.5 -205.5t-158.5 -81.5h-307q-90 0 -158 82t-68 205q0 20 -20.5 20t-20.5 -20z" />
<glyph unicode="K" horiz-adv-x="1351" d="M143 20q0 -20 20.5 -20t20.5 20v676h218l731 -690q6 -5 12.5 -5.5t11.5 3t9 8.5q3 4 2 9q0 8 -7 14l-721 682l721 682q9 9 6 19.5t-13.5 13t-20.5 -4.5l-731 -690h-218v676q0 20 -20.5 20t-20.5 -20v-1393z" />
<glyph unicode="L" horiz-adv-x="1167" d="M143 20q0 -20 21 -20h799q20 0 20 20.5t-20 20.5h-779v1372q0 20 -20.5 20t-20.5 -20v-1393z" />
<glyph unicode="M" horiz-adv-x="1617" d="M143 20q0 -20 20.5 -20t20.5 20v1297l586 -1305q4 -10 18 -10t19 10l586 1305v-1297q0 -20 20.5 -20t20.5 20v1393q0 15 -16 19q-3 1 -7 0q-12 0 -16 -11l-607 -1351l-606 1351q-5 11 -16 11h-6q-16 -4 -17 -19v-1393z" />
<glyph unicode="N" horiz-adv-x="1351" d="M143 20q0 -20 20.5 -20t20.5 20v1328l946 -1340q8 -11 22.5 -6t14.5 18v1393q0 20 -20.5 20t-20.5 -20v-1327l-946 1339q-8 11 -22.5 6t-14.5 -18v-1393z" />
<glyph unicode="O" horiz-adv-x="1351" d="M143 328q0 -139 75 -233.5t192 -94.5h491q117 0 191.5 94t74.5 234v778q0 136 -75 232t-191 96h-489q-119 0 -193 -92.5t-76 -235.5v-778zM184 328v778q2 132 63 209.5t165 77.5h489q102 0 163.5 -80.5t61.5 -206.5v-778q0 -129 -61.5 -208t-163.5 -79h-491 q-102 0 -164 79.5t-62 207.5z" />
<glyph unicode="P" horiz-adv-x="1351" d="M143 20q0 -20 20.5 -20t20.5 20v676h717q77 0 139 56.5t94.5 140t32.5 172.5q0 154 -75 261.5t-191 107.5h-737q-9 0 -15 -6t-6 -15v-1393zM184 737v656h717q101 0 163 -92.5t62 -235.5q0 -128 -64 -228t-161 -100h-717z" />
<glyph unicode="Q" horiz-adv-x="1351" d="M143 328q0 -139 75 -233.5t192 -94.5h491q115 0 178 55l54 -49q6 -5 12.5 -5.5t11.5 3t9 8.5q2 4 2 9q0 8 -7 14l-54 49q60 78 60 244v778q0 56 -7 102t-25 89t-47.5 72.5t-76.5 47t-110 17.5h-489q-119 0 -193 -92.5t-76 -235.5v-778zM184 328v778q2 132 63 209.5 t165 77.5h489q68 0 113.5 -20.5t69 -61t33 -89t9.5 -116.5v-778q0 -154 -48 -217l-253 231q-6 5 -12.5 5.5t-11.5 -3t-8.5 -8.5t-2.5 -11.5t7 -11.5l253 -231q-52 -41 -149 -41h-491q-102 0 -164 79.5t-62 207.5z" />
<glyph unicode="R" horiz-adv-x="1351" d="M143 20q0 -20 20.5 -20t20.5 20v676h717q111 0 168 -75t57 -252v-349q0 -20 20.5 -20t20.5 20v349q0 291 -170 353q77 42 123.5 140t46.5 203q0 154 -75 261.5t-191 107.5h-737q-9 0 -15 -6t-6 -15v-1393zM184 737v656h717q101 0 163 -92.5t62 -235.5q0 -128 -64 -228 t-161 -100h-717z" />
<glyph unicode="S" horiz-adv-x="1351" d="M143 369q0 -157 75 -263t192 -106h491q117 0 191.5 105t74.5 264q0 189 -70.5 278.5t-195.5 89.5h-491q-98 0 -162 99t-64 229q2 151 62.5 239.5t163.5 88.5h450q101 0 163 -92.5t62 -235.5q0 -20 20.5 -20t20.5 20q0 154 -75 261.5t-191 107.5h-450q-117 0 -191 -104 t-76 -265q0 -90 32.5 -174t95 -139.5t139.5 -55.5h491q111 0 168 -75t57 -252q0 -148 -61.5 -238t-163.5 -90h-491q-102 0 -164 90.5t-62 237.5q0 20 -20.5 20t-20.5 -20z" />
<glyph unicode="T" horiz-adv-x="1208" d="M0 1413.5q0 -20.5 20 -20.5h472v-1373q0 -13 10 -18q5 -2 10 -2l10 2q10 5 10 18v1373h472q20 0 20 20.5t-20 20.5h-984q-20 0 -20 -20.5z" />
<glyph unicode="U" horiz-adv-x="1351" d="M143 328q0 -139 75 -233.5t192 -94.5h491q117 0 191.5 94t74.5 234v1085q0 20 -20.5 20t-20.5 -20v-1085q0 -129 -61.5 -208t-163.5 -79h-491q-102 0 -164 79.5t-62 207.5v1085q0 20 -20.5 20t-20.5 -20v-1085z" />
<glyph unicode="V" horiz-adv-x="1290" d="M-59 1405l594 -1393q5 -10 18 -10t18 10l594 1393q2 5 2 9q-1 6 -5 12q-7 8 -16 8h-2q-11 -1 -16 -13l-575 -1349l-576 1349q-5 12 -16 13h-2q-10 0 -16 -8q-4 -5 -4 -12q0 -4 2 -9z" />
<glyph unicode="W" horiz-adv-x="1906" d="M-61 1407l440 -1393q5 -12 21 -12q1 0 1 -1q14 0 17 13l444 1334l420 -1334q4 -12 20 -12q1 0 2 -1q14 0 17 13l461 1393q2 5 2 9q0 7 -5 12q-6 6 -15 6h-4q-11 -2 -15 -15l-442 -1333l-420 1333q-5 12 -20.5 12.5t-18.5 -12.5l-445 -1333l-419 1333q-4 13 -16 15h-4 q-9 0 -16 -6q-6 -6 -6 -13q0 -4 1 -8z" />
<glyph unicode="X" horiz-adv-x="1290" d="M84 11q6 -11 16 -12h1q9 0 18 9l475 673l475 -673q7 -9 16 -9h3q12 2 16 12q2 4 2 8q0 6 -4 14l-483 684l483 684q5 7 5 13q-1 4 -3 8q-6 10 -16 12h-1q-9 0 -18 -9l-475 -673l-475 673q-7 9 -16 9h-3q-12 -2 -16 -12q-2 -4 -2 -8q0 -6 4 -13l483 -684l-483 -684 q-5 -7 -5 -13q1 -5 3 -9z" />
<glyph unicode="Y" horiz-adv-x="1146" d="M-59 1422q-2 -3 -2 -8q0 -6 4 -13l518 -691v-690q0 -20 20.5 -20t20.5 20v690l518 691q5 7 5 13q0 4 -3 8q-5 11 -16 12h-1q-10 0 -18 -9l-506 -673l-506 673q-7 9 -16 9h-3q-11 -2 -15 -12z" />
<glyph unicode="Z" horiz-adv-x="1310" d="M105 11q6 -11 18 -11h983q20 0 20 20.5t-20 20.5h-944l919 1360q7 11 1.5 22t-17.5 11h-881q-20 0 -20 -20.5t20 -20.5h842l-920 -1360q-4 -6 -4 -12q0 -5 3 -10z" />
<glyph unicode="[" horiz-adv-x="628" d="M109 -84q0 -112 59.5 -187t157.5 -75h98q20 0 20 20.5t-20 20.5h-98q-83 0 -129.5 60t-46.5 161v1208q0 103 46 162.5t130 59.5h98q13 0 18 10t0 20t-18 10h-98q-98 0 -157.5 -74.5t-59.5 -187.5v-1208z" />
<glyph unicode="\" horiz-adv-x="743" d="M109 1407l409 -1393q4 -13 15.5 -15t20 6.5t5.5 21.5l-409 1392q-6 20 -26 14t-15 -26z" />
<glyph unicode="]" horiz-adv-x="628" d="M109 -325.5q0 -20.5 20 -20.5h98q95 0 156 75.5t61 186.5v1208q0 108 -61 185t-156 77h-98q-13 0 -18 -10t0 -20t18 -10h98q81 0 128.5 -62t47.5 -160v-1208q0 -100 -47.5 -160.5t-128.5 -60.5h-98q-20 0 -20 -20.5z" />
<glyph unicode="^" horiz-adv-x="954" d="M111 725q-6 -12 1.5 -21t18.5 -8t16 13l293 653l291 -653q5 -12 16.5 -13t19 8t1.5 21l-309 696q-5 11 -19 11t-18 -11z" />
<glyph unicode="_" horiz-adv-x="1060" d="M-16 20.5q0 -20.5 20 -20.5l1055 -2q20 0 20 20.5t-20 20.5l-1055 2q-20 0 -20 -20.5z" />
<glyph unicode="`" horiz-adv-x="530" d="M111 1403l196 -348q10 -19 28 -9t9 29l-197 348q-10 19 -27.5 9t-8.5 -29z" />
<glyph unicode="a" d="M61 285q7 -125 77 -209q64 -77 162 -77q8 0 17 1h349q98 0 153 104v-84q0 -20 20.5 -20t20.5 20v265v2v512q0 99 -55.5 172t-138.5 73h-349q-83 0 -138.5 -73t-55.5 -172q0 -20 20.5 -20t20.5 20q0 89 42.5 147t110.5 58h349q68 0 110.5 -58t42.5 -147v-246h-502 q-106 0 -181 -77t-75 -189v-2zM102 287q0 99 60.5 162t154.5 63h502v-225q0 -109 -40 -177.5t-113 -68.5h-349h-2q-9 -1 -17 -1q-81 0 -132 63q-56 69 -64 184z" />
<glyph unicode="b" d="M123 20q0 -20 20 -20h523q90 0 142 72t52 174v551q0 101 -55.5 174t-138.5 73h-502v390q0 20 -20.5 20t-20.5 -20v-1414zM164 41v963h502q68 0 110.5 -58.5t42.5 -148.5v-551q0 -91 -40 -148t-113 -57h-502z" />
<glyph unicode="c" d="M123 244q0 -101 52 -172.5t142 -71.5h351q88 0 140 72t52 174q0 20 -20.5 20t-20.5 -20q0 -91 -40 -148t-111 -57h-351q-73 0 -113 56.5t-40 146.5v555q0 89 42.5 147t112.5 58h347q68 0 110.5 -58.5t42.5 -148.5q0 -20 20.5 -20t20.5 20q0 101 -55.5 174t-138.5 73h-347 q-84 0 -140 -73t-56 -172v-555z" />
<glyph unicode="d" d="M123 246q0 -102 52.5 -174t143.5 -72h521q20 0 20 20v1414q0 20 -20.5 20t-20.5 -20v-390h-502q-83 0 -138.5 -73t-55.5 -174v-551zM164 246v551q0 90 42.5 148.5t110.5 58.5h502v-963h-500q-74 0 -114.5 57t-40.5 148z" />
<glyph unicode="e" horiz-adv-x="1073" d="M123 244q0 -101 54.5 -172.5t148.5 -71.5h364q91 0 145 72t54 174q0 20 -20.5 20t-20.5 -20q0 -91 -42 -148t-116 -57h-364q-77 0 -119.5 56.5t-42.5 146.5v256h704q21 0 21 20v277q0 101 -57.5 174t-143.5 73h-362q-87 0 -145 -73t-58 -172v-555zM164 541v258 q0 89 44.5 147t117.5 58h362q71 0 115.5 -58.5t44.5 -148.5v-256h-684z" />
<glyph unicode="f" horiz-adv-x="702" d="M84 1014q5 -10 18 -10h84v-984q0 -20 20.5 -20t20.5 20v984h271q13 0 18 10t0 20t-18 10h-271v123q0 115 41.5 180.5t104.5 65.5h186q20 0 20 20.5t-20 20.5h-186q-77 0 -132 -81t-55 -206v-123h-84q-13 0 -18 -10q-2 -5 -2 -10t2 -10z" />
<glyph unicode="g" d="M123 244q0 -101 52 -172.5t142 -71.5h502v-143q0 -73 -43 -134t-110 -61h-347q-20 0 -20 -20.5t20 -20.5h347q84 0 139 76t55 160v1167q0 20 -20 20h-521q-84 0 -140 -73t-56 -172v-555zM164 244v555q0 89 42.5 147t112.5 58h500v-963h-502q-73 0 -113 56.5t-40 146.5z " />
<glyph unicode="h" d="M123 20q0 -20 20.5 -20t20.5 20v777q0 90 42.5 148.5t110.5 58.5h349q68 0 110.5 -58t42.5 -147v-779q0 -20 20.5 -20t20.5 20v779q0 99 -55.5 172t-138.5 73h-349q-95 0 -153 -95v485q0 20 -20.5 20t-20.5 -20v-637v-777z" />
<glyph unicode="i" horiz-adv-x="448" d="M174 20q0 -20 20.5 -20t20.5 20v1004q0 20 -20.5 20t-20.5 -20v-1004zM177 1331.5q0 -20.5 20 -20.5h2q20 0 20 20.5t-20 20.5h-2q-20 0 -20 -20.5z" />
<glyph unicode="j" horiz-adv-x="417" d="M3 -358.5q0 -20.5 20 -20.5q83 0 146.5 72.5t63.5 152.5v1178q0 13 -10 18t-20 0t-10 -18v-1178q0 -70 -50.5 -127t-119.5 -57q-20 0 -20 -20.5zM193 1331.5q0 -20.5 20 -20.5h2q20 0 20 20.5t-20 20.5h-2q-20 0 -20 -20.5z" />
<glyph unicode="k" d="M123 20q0 -20 20.5 -20t20.5 20v480h148l513 -494q6 -6 13 -6q4 0 8 2q12 4 14 14q1 2 0 4q0 7 -6 15l-506 485l506 490q6 6 6 13v6q-4 11 -14 13.5t-21 -4.5l-514 -497h-147v893q0 20 -20.5 20t-20.5 -20v-1414z" />
<glyph unicode="l" horiz-adv-x="569" d="M123 244q0 -103 69.5 -173.5t172.5 -70.5q20 0 20 20.5t-20 20.5q-91 0 -146 56t-55 147v1190q0 20 -20.5 20t-20.5 -20v-1190z" />
<glyph unicode="m" horiz-adv-x="1654" d="M123 20q0 -20 20.5 -20t20.5 20v779q0 88 57.5 146.5t153.5 58.5h96h88q93 0 155 -56.5t62 -148.5v-779q0 -19 22 -19q21 0 21 19l-2 779q0 95 52.5 150t152.5 55h102h95q96 0 153.5 -56.5t57.5 -148.5v-779q0 -13 10 -18q5 -2 10 -2l10 2q10 5 10 18v779 q0 104 -71.5 174.5t-179.5 70.5h-95h-102q-85 0 -143 -38t-84 -104q-31 66 -95 104t-141 38h-88h-96q-111 0 -181.5 -72t-70.5 -173v-779z" />
<glyph unicode="n" d="M123 20q0 -20 20.5 -20t20.5 20v777q0 90 42.5 148.5t110.5 58.5h349q68 0 110.5 -58t42.5 -147v-779q0 -20 20.5 -20t20.5 20v779q0 99 -55.5 172t-138.5 73h-349q-83 0 -138.5 -73t-55.5 -174v-777z" />
<glyph unicode="o" d="M123 246q0 -102 52 -174t142 -72h349q90 0 142 72t52 174v553q0 99 -55.5 172t-138.5 73h-349q-83 0 -138.5 -73t-55.5 -172v-553zM164 246v553q0 89 42.5 147t110.5 58h349q68 0 110.5 -58t42.5 -147v-553q0 -91 -40 -148t-113 -57h-349q-73 0 -113 57t-40 148z" />
<glyph unicode="p" d="M123 -358q0 -20 20.5 -20t20.5 20v358h502q90 0 142 72t52 174v553q0 99 -55.5 172t-138.5 73h-523q-20 0 -20 -20v-1382zM164 41v963h502q68 0 110.5 -58t42.5 -147v-553q0 -91 -40 -148t-113 -57h-502z" />
<glyph unicode="q" d="M123 244q0 -101 52 -172.5t142 -71.5h502v-358q0 -20 20.5 -20t20.5 20v1382q0 20 -20 20h-521q-84 0 -140 -73t-56 -172v-555zM164 244v555q0 89 42.5 147t112.5 58h500v-963h-502q-73 0 -113 56.5t-40 146.5z" />
<glyph unicode="r" horiz-adv-x="782" d="M123 20q0 -20 20.5 -20t20.5 20v779q0 88 37 146.5t94 58.5h364q13 0 18 10q2 5 2.5 10t-2.5 10q-5 10 -18 10h-364q-73 0 -122.5 -73t-49.5 -172v-779z" />
<glyph unicode="s" d="M123 246q0 -102 52 -174t142 -72h349q90 0 142 72t52 174v14q0 120 -50 199q-54 84 -144 84h-349q-72 3 -114 76q-39 68 -39 166v14q0 89 42.5 147t112.5 58h306q68 0 110.5 -58t42.5 -147q0 -20 20.5 -20t20.5 20q0 99 -55.5 172t-138.5 73h-306q-84 0 -140 -73 t-56 -172v-12q0 -109 51 -193q54 -89 143 -92h349q72 0 114 -69q39 -64 39 -171v-16q0 -91 -40 -148t-113 -57h-349q-73 0 -113 57t-40 148q0 20 -20.5 20t-20.5 -20z" />
<glyph unicode="t" horiz-adv-x="651" d="M84 1014q5 -10 18 -10h72v-760q0 -99 60 -171.5t167 -72.5h107q20 0 20 20.5t-20 20.5h-107q-91 0 -138.5 58t-47.5 145v760h231q13 0 18 10t0 20t-18 10h-231v390q0 20 -20.5 20t-20.5 -20v-390h-72q-13 0 -18 -10q-2 -5 -2 -10t2 -10z" />
<glyph unicode="u" d="M123 244q0 -101 52 -172.5t142 -71.5h351q88 0 140 72t52 174v778q0 20 -20.5 20t-20.5 -20v-778q0 -91 -40 -148t-111 -57h-351q-73 0 -113 56.5t-40 146.5v780q0 20 -20.5 20t-20.5 -20v-780z" />
<glyph unicode="v" horiz-adv-x="1015" d="M45 1016l395 -1004q4 -10 18 -10t19 10l393 1004q2 5 2 10q0 6 -4 12q-6 8 -16 7h-2q-11 -1 -16 -13l-375 -956l-377 956q-5 12 -16 13h-2q-10 1 -16 -7q-4 -5 -5 -12q0 -5 2 -10z" />
<glyph unicode="w" horiz-adv-x="1488" d="M29 1018l311 -1004q4 -12 20 -12t21 12l291 940l284 -940q4 -12 20 -12t21 12l308 1004q1 4 1 7q0 14 -16 19q-5 1 -8 1q-13 0 -18 -15l-287 -940l-285 940q-5 12 -20.5 12.5t-20.5 -12.5l-291 -940l-290 940q-4 13 -16 15h-4q-9 0 -16 -6q-6 -6 -6 -13q0 -4 1 -8z" />
<glyph unicode="x" horiz-adv-x="1028" d="M70 11q6 -11 15 -12h2q9 0 17 9l352 480l351 -480q7 -9 16 -9h3q12 2 16 12q2 4 2 8q0 6 -4 14l-359 489l359 490q5 7 5 13q-1 5 -3 9q-6 10 -16 11h-1q-9 0 -18 -9l-351 -479l-352 479q-7 9 -16 9h-3q-11 -1 -15 -11q-2 -4 -2 -8q0 -6 4 -14l358 -490l-358 -489 q-5 -7 -5 -13q1 -5 3 -9z" />
<glyph unicode="y" d="M123 -358.5q0 -20.5 20 -20.5h93q77 0 147.5 107.5t127.5 283.5l1 1v1l346 1004q2 6 2 8q0 8 -6.5 13t-14.5 5q-14 0 -18 -14l-327 -946l-332 946q-4 13 -15 14q-2 1 -3 1q-9 0 -16 -7q-8 -8 -3 -20l347 -995q-52 -166 -113.5 -263.5t-122.5 -97.5h-93q-20 0 -20 -20.5z " />
<glyph unicode="z" horiz-adv-x="1003" d="M64 11q6 -11 18 -11h717q20 0 20 20.5t-20 20.5h-678l670 971q7 10 1 21t-18 11h-651q-13 0 -18 -10t0 -20t18 -10h612l-669 -971q-4 -6 -4 -12q0 -5 2 -10z" />
<glyph unicode="{" horiz-adv-x="716" d="M0 519.5q1 -11.5 10 -17.5q39 -21 75 -51t75 -78t62.5 -120t23.5 -157q0 -193 39 -317.5t106 -124.5h121q20 0 20 20.5t-20 20.5h-121q-45 0 -74.5 110t-29.5 291q0 74 -18 140.5t-43.5 112t-59 83.5t-59 57.5t-48.5 32.5q228 161 228 420q0 177 29.5 290.5t74.5 113.5 h121q13 0 18 10t0 20t-18 10h-121q-67 0 -106 -127.5t-39 -316.5q0 -65 -17 -124t-40.5 -99t-59.5 -78.5t-61.5 -59.5t-59.5 -44q-9 -6 -8 -17.5z" />
<glyph unicode="|" horiz-adv-x="430" d="M92 -326q0 -20 20.5 -20t20.5 20v1692q0 20 -20.5 20t-20.5 -20v-1692z" />
<glyph unicode="}" horiz-adv-x="716" d="M0 -325.5q0 -20.5 20 -20.5h125q63 0 102.5 125t39.5 317q0 58 10 105.5t23.5 79t39.5 63.5t47.5 52t58 53t60.5 57q14 14 0 29q-23 23 -60.5 57t-58.5 53.5t-48 52.5t-40.5 64t-23 77.5t-8.5 102.5q3 189 -37.5 316.5t-104.5 127.5h-125q-13 0 -18 -10t0 -20t18 -10h125 q44 0 74 -112.5t27 -291.5q-1 -63 9.5 -115t26 -86t42.5 -68t49 -53.5t56.5 -50t53.5 -49.5q-19 -19 -53.5 -48.5t-55.5 -48.5t-48.5 -53t-42.5 -68.5t-26 -87.5t-11 -118q0 -182 -29 -291.5t-72 -109.5h-125q-20 0 -20 -20.5z" />
<glyph unicode="~" horiz-adv-x="1159" d="M109 600q0 -20 20.5 -20t20.5 20q0 86 51.5 145.5t134.5 59.5q38 0 69.5 -12.5t54.5 -32t45 -43.5t45.5 -48t50 -43.5t65 -32.5t84.5 -13q96 -1 160.5 74.5t64.5 170.5q0 20 -20.5 20t-20.5 -20q0 -85 -51 -145t-133 -59q-51 1 -91.5 24t-70 56t-61 66t-80 56t-111.5 23 q-96 0 -161.5 -75t-65.5 -171z" />
<glyph unicode="&#xad;" horiz-adv-x="868" d="M109 716.5q0 -20.5 20 -20.5h535q20 0 20 20.5t-20 20.5h-535q-20 0 -20 -20.5z" />
<glyph unicode="&#x2000;" horiz-adv-x="739" />
<glyph unicode="&#x2001;" horiz-adv-x="1478" />
<glyph unicode="&#x2002;" horiz-adv-x="739" />
<glyph unicode="&#x2003;" horiz-adv-x="1478" />
<glyph unicode="&#x2004;" horiz-adv-x="492" />
<glyph unicode="&#x2005;" horiz-adv-x="369" />
<glyph unicode="&#x2006;" horiz-adv-x="246" />
<glyph unicode="&#x2007;" horiz-adv-x="246" />
<glyph unicode="&#x2008;" horiz-adv-x="184" />
<glyph unicode="&#x2009;" horiz-adv-x="295" />
<glyph unicode="&#x200a;" horiz-adv-x="82" />
<glyph unicode="&#x2010;" horiz-adv-x="868" d="M109 716.5q0 -20.5 20 -20.5h535q20 0 20 20.5t-20 20.5h-535q-20 0 -20 -20.5z" />
<glyph unicode="&#x2011;" horiz-adv-x="868" d="M109 716.5q0 -20.5 20 -20.5h535q20 0 20 20.5t-20 20.5h-535q-20 0 -20 -20.5z" />
<glyph unicode="&#x2012;" horiz-adv-x="868" d="M109 716.5q0 -20.5 20 -20.5h535q20 0 20 20.5t-20 20.5h-535q-20 0 -20 -20.5z" />
<glyph unicode="&#x2013;" horiz-adv-x="1317" d="M109 716.5q0 -20.5 36 -20.5h952q36 0 36 20.5t-36 20.5h-952q-36 0 -36 -20.5z" />
<glyph unicode="&#x2014;" horiz-adv-x="2341" d="M109 716.5q0 -20.5 71 -20.5h1906q71 0 71 20.5t-71 20.5h-1906q-71 0 -71 -20.5z" />
<glyph unicode="&#x202f;" horiz-adv-x="295" />
<glyph unicode="&#x205f;" horiz-adv-x="369" />
<glyph unicode="&#x25fc;" d="M0 0v1044h1044v-1044h-1044z" />
</font>
</defs>
</svg>
