<?xml version="1.0" standalone="no"?>
<!DOCTYPE svg PUBLIC "-//W3C//DTD SVG 1.1//EN" "http://www.w3.org/Graphics/SVG/1.1/DTD/svg11.dtd" >
<svg xmlns="http://www.w3.org/2000/svg">
<metadata></metadata>
<defs>
<font id="rodusround500thin" horiz-adv-x="1073" >
<font-face units-per-em="2048" ascent="1638" descent="-410" />
<missing-glyph horiz-adv-x="500" />
<glyph horiz-adv-x="0" />
<glyph unicode="&#xd;" horiz-adv-x="2048" />
<glyph unicode="!" horiz-adv-x="600" d="M134 102.5q0 -38.5 27.5 -70.5t76.5 -32h2q49 0 76.5 32t27.5 70.5t-27.5 70.5t-76.5 32h-2q-49 0 -76.5 -32t-27.5 -70.5zM135 410q0 -49 32 -76.5t70.5 -27.5t70.5 27.5t32 76.5v921q0 49 -32 76.5t-70.5 27.5t-70.5 -27.5t-32 -76.5v-921z" />
<glyph unicode="&#x22;" horiz-adv-x="811" d="M102 1024q0 -49 32 -76.5t70.5 -27.5t70.5 27.5t32 76.5v307q0 49 -32 76.5t-70.5 27.5t-70.5 -27.5t-32 -76.5v-307zM422 1024q0 -49 32 -76.5t70.5 -27.5t70.5 27.5t32 76.5v307q0 49 -32 76.5t-70.5 27.5t-70.5 -27.5t-32 -76.5v-307z" />
<glyph unicode="#" horiz-adv-x="1249" d="M-1 424q-4 -34 14 -67.5t54 -44.5l-61 -175q-11 -37 -1.5 -68.5t37 -48t57 -20.5t58.5 14t42 54l84 239h213l-60 -170q-11 -37 -1.5 -68.5t37 -48t57 -20.5t58.5 14t42 54l84 239h147q49 0 76.5 32t27.5 70.5t-27.5 70.5t-76.5 32h-76l144 410h35q44 0 71.5 26.5 t31.5 60.5t-14 67.5t-54 44.5l61 175q9 27 6 51.5t-16.5 41t-32 29t-41.5 15t-43.5 -2t-38.5 -21.5t-27 -43l-84 -240h-213l60 170q9 27 6 51.5t-16.5 41t-32 29t-41.5 15t-43.5 -2t-38.5 -21.5t-27 -43l-84 -240h-147q-49 0 -76.5 -32t-27.5 -70t27.5 -70t76.5 -32h76 l-144 -410h-35q-44 0 -71.5 -27t-31.5 -61zM354 512l144 410h213l-144 -410h-213z" />
<glyph unicode="$" horiz-adv-x="1050" d="M-6 936q0 -90 30 -160.5t81 -112t114 -62.5t133 -21h33v-334h-174q-49 0 -76.5 -32t-27.5 -70.5t27.5 -70.5t76.5 -32h174v-53q0 -49 32 -76.5t70.5 -27.5t70.5 27.5t32 76.5v53h39q96 0 175.5 40t131 126.5t51.5 206.5q0 91 -29.5 163t-80 116.5t-114 67.5t-134.5 23 h-39v303h174q49 0 76.5 32t27.5 70.5t-27.5 70.5t-76.5 32h-174v84q0 49 -32 76.5t-70.5 27.5t-70.5 -27.5t-32 -76.5v-84h-33q-70 0 -133 -21.5t-114 -63t-81 -111.5t-30 -160zM199 936q0 98 28.5 124.5t124.5 26.5h33v-303h-33q-96 0 -124.5 26.5t-28.5 125.5zM590 246 v334h39q93 0 123 -30.5t30 -135.5t-30 -136.5t-123 -31.5h-39z" />
<glyph unicode="%" horiz-adv-x="1351" d="M101 95.5q1 -33.5 23 -56.5t49.5 -35t60.5 -2.5t55 41.5l246 352q-3 -23 -3 -45q1 -84 41.5 -163.5t114.5 -132.5t160 -54q131 -1 225 109.5t94 242.5q0 128 -93.5 236t-223.5 108q-67 0 -126 -31l425 607q21 33 20 66.5t-23 56.5t-49.5 35t-60.5 2.5t-55 -41.5 l-247 -353q3 20 3 41q2 141 -92 248t-225 107q-130 0 -224 -108.5t-94 -244.5q0 -133 94 -238.5t224 -105.5q64 0 123 28l-422 -603q-21 -33 -20 -66.5zM307 1081q0 79 26.5 113.5t86.5 34.5q62 0 87.5 -32.5t24.5 -113.5q-1 -79 -25.5 -110t-86.5 -31q-60 0 -86.5 32.5 t-26.5 106.5zM737 354q-3 138 113 138q113 0 113 -140q0 -77 -27 -112.5t-84 -34.5q-58 1 -85.5 37.5t-29.5 111.5z" />
<glyph unicode="&#x26;" horiz-adv-x="1404" d="M109 1145q-1 -52 11 -98t39 -89.5t46 -68.5t56 -68q-121 -173 -150 -301q-39 -188 42 -337.5t214 -180.5q112 -26 214 8.5t205 110.5l39 29l11 -13q54 -67 138 -102t144 -35q49 0 76.5 32t27.5 70.5t-27.5 70.5t-76.5 32q-72 0 -127 63l-3 4l192 144q22 17 33 39 t9.5 43.5t-10.5 42t-26.5 35t-37.5 22t-44.5 3.5t-46.5 -21l-201 -151l-333 399q68 95 105 165.5t38 128.5q1 134 -82.5 223t-192.5 89t-195 -82.5t-87 -206.5zM311 475q13 66 89 180l293 -348l-29 -22q-80 -60 -133 -78t-119 -4q-70 15 -99.5 81t-1.5 191zM313 1141 q1 58 14.5 73t63.5 15q47 0 59 -17.5t11 -85.5q-1 -37 -74 -135q-40 48 -57.5 81t-16.5 69z" />
<glyph unicode="'" horiz-adv-x="514" d="M55 1024q0 -49 32 -76.5t70.5 -27.5t70.5 27.5t32 76.5v307q0 49 -32 76.5t-70.5 27.5t-70.5 -27.5t-32 -76.5v-307z" />
<glyph unicode="(" horiz-adv-x="696" d="M109 520q0 -218 54.5 -431.5t158.5 -385.5q21 -33 53 -45t60.5 -1.5t51.5 32t26.5 54.5t-15.5 67q-185 303 -185 710q0 408 185 711q19 34 15.5 67t-26.5 54.5t-51.5 31.5t-60.5 -2t-53 -45q-104 -172 -158.5 -385.5t-54.5 -431.5z" />
<glyph unicode=")" horiz-adv-x="696" d="M107 -248q0 -33 21.5 -56t49 -35t60 -3t55.5 41q81 111 133 270t69 291t17 260q0 129 -17 261.5t-69 291.5t-133 270q-16 23 -38.5 34.5t-43.5 10t-42 -9.5t-35.5 -25t-22 -36.5t-3.5 -44t21 -47.5q96 -135 137 -325t41 -380q0 -189 -41 -378t-137 -324q-22 -33 -22 -66z " />
<glyph unicode="*" horiz-adv-x="946" d="M107 906.5q-1 -21.5 5.5 -43t22 -37.5t34.5 -26t44 -8.5t49 15.5l72 41v-82q0 -49 32 -76.5t70.5 -27.5t70.5 27.5t32 76.5v81l69 -40q35 -18 68 -14.5t54 27.5t30.5 52t-3 60t-46.5 51l-70 40l70 40q34 19 46.5 51t3 60t-30.5 52t-54 27.5t-68 -14.5l-69 -40v81 q0 49 -32 76.5t-70.5 27.5t-70.5 -27.5t-32 -76.5v-82l-72 41q-24 14 -49 15.5t-44 -8.5t-34.5 -26t-22 -37.5t-5.5 -43t15 -42t38 -34.5l70 -40l-70 -40q-24 -14 -38 -34.5t-15 -42z" />
<glyph unicode="+" horiz-adv-x="1153" d="M107 716.5q0 -38.5 27.5 -70.5t76.5 -32h225v-247q0 -49 32 -76.5t70.5 -27.5t70.5 27.5t32 76.5v247h225q49 0 76.5 32t27.5 70.5t-27.5 70.5t-76.5 32h-225v248q0 49 -32 76.5t-70.5 27.5t-70.5 -27.5t-32 -76.5v-248h-225q-49 0 -76.5 -32t-27.5 -70.5z" />
<glyph unicode="," horiz-adv-x="614" d="M108 -52q0 -25 10.5 -43.5t27 -33.5t38.5 -20.5t43 -4t41 15.5t33 38l117 219q13 25 13 50t-10.5 43.5t-27 33.5t-38.5 20.5t-43 4t-41 -15.5t-33 -38l-117 -219q-13 -25 -13 -50z" />
<glyph unicode="-" horiz-adv-x="886" d="M107 716.5q0 -38.5 27.5 -70.5t76.5 -32h389q49 0 76.5 32t27.5 70.5t-27.5 70.5t-76.5 32h-389q-49 0 -76.5 -32t-27.5 -70.5z" />
<glyph unicode="." horiz-adv-x="620" d="M170 102.5q0 -38.5 27.5 -70.5t76.5 -32h2q49 0 76.5 32t27.5 70.5t-27.5 70.5t-76.5 32h-2q-49 0 -76.5 -32t-27.5 -70.5z" />
<glyph unicode="/" horiz-adv-x="753" d="M57 127q-10 -37 3.5 -68t41 -44t58.5 -14.5t58 19t36 58.5l311 1229q10 37 -3.5 68t-41 44t-58 14.5t-57.5 -19t-36 -58.5z" />
<glyph unicode="0" horiz-adv-x="1171" d="M94 373q0 -93 35.5 -178t101.5 -140t146 -55h323q80 0 147 54.5t103.5 140t36.5 178.5v688q0 93 -36.5 178.5t-103.5 140t-147 54.5h-321q-81 0 -147 -54t-101.5 -138t-36.5 -179v-2v-688zM299 373v688q1 94 20 131t60 37h321q42 0 62 -38.5t20 -129.5v-688 q0 -91 -20 -129.5t-62 -38.5h-323q-40 0 -59 38t-19 130z" />
<glyph unicode="1" horiz-adv-x="929" d="M93 102.5q0 -38.5 27.5 -70.5t76.5 -32h214h22h210q49 0 76.5 32t27.5 70.5t-27.5 70.5t-76.5 32h-119v1126q0 47 -39.5 74t-87 19t-67.5 -50l-226 -479q-15 -36 -8.5 -68.5t32 -51t55 -25.5t60 8t46.5 51l30 63v-667h-122q-49 0 -76.5 -32t-27.5 -70.5z" />
<glyph unicode="2" horiz-adv-x="1171" d="M94 102q0 -43 30 -72.5t73 -29.5h688q49 0 76.5 32t27.5 70.5t-27.5 70.5t-76.5 32h-586v168q0 241 76 241h2h323q84 0 151.5 69.5t101.5 170.5t34 207q0 93 -36.5 178.5t-103.5 140t-147 54.5h-321q-81 0 -148 -57t-102 -142t-35 -174q0 -49 32 -76.5t70.5 -27.5 t70.5 27.5t32 76.5q0 168 80 168h321q42 0 62 -38.5t20 -129.5q0 -116 -23 -179t-59 -63h-323q-82 2 -148 -61.5t-100.5 -165.5t-34.5 -219v-271z" />
<glyph unicode="3" horiz-adv-x="1171" d="M93 102.5q0 -38.5 27.5 -70.5t76.5 -32h503q84 0 151 68.5t101.5 176t34.5 228.5q0 123 -34.5 232t-101.5 178t-151 67h-67l321 307q29 33 29.5 72t-28.5 72t-70 33h-688q-49 0 -76.5 -32t-27.5 -70.5t27.5 -70.5t76.5 -32h432l-322 -307q-23 -21 -27.5 -52.5t6.5 -58.5 t35.5 -46.5t55.5 -19.5h323h2q80 0 80 -272q0 -268 -82 -268h-503q-49 0 -76.5 -32t-27.5 -70.5z" />
<glyph unicode="4" horiz-adv-x="1144" d="M31 359.5q5 -35.5 33.5 -62.5t66.5 -27h539v-168q0 -49 32 -76.5t70 -27.5t70 27.5t32 76.5v168h46q49 0 76.5 32t27.5 70.5t-27.5 70.5t-76.5 32h-46v856q0 44 -36 72.5t-82 25t-70 -39.5l-641 -959q-19 -35 -14 -70.5zM324 475l346 518v-518h-346z" />
<glyph unicode="5" horiz-adv-x="1171" d="M94 373q0 -93 35.5 -178t101.5 -140t146 -55h323q80 0 147 54.5t103.5 140t36.5 178.5v307q0 106 -36 207.5t-103.5 170t-147.5 68.5h-323h-17v105h451q49 0 76.5 32t27.5 70.5t-27.5 70.5t-76.5 32h-553q-43 0 -72.5 -30t-29.5 -73v-309q0 -43 29.5 -72.5t72.5 -29.5 h119h323q33 0 57.5 -64t24.5 -178v-307q0 -91 -20 -129.5t-62 -38.5h-323q-40 0 -59 38t-19 130q0 49 -32 76.5t-70.5 27.5t-70.5 -27.5t-32 -76.5z" />
<glyph unicode="6" horiz-adv-x="1171" d="M94 373q0 -93 35.5 -178t101.5 -140t146 -55h323q80 0 147 54.5t103.5 140t36.5 178.5q0 136 -34 253.5t-100.5 192t-152.5 72.5h-401v170q1 94 19.5 131t58.5 37h323q42 0 62 -38.5t20 -129.5q0 -49 32 -76.5t70.5 -27.5t70.5 27.5t32 76.5q0 93 -36.5 178.5t-103.5 140 t-147 54.5h-323q-120 0 -200.5 -112t-82.5 -259v-2v-262v-21v-405zM299 373v313h401h2q22 0 39 -29.5t29 -102.5t12 -181q0 -91 -20 -129.5t-62 -38.5h-323q-40 0 -59 38t-19 130z" />
<glyph unicode="7" horiz-adv-x="1171" d="M93 1331.5q0 -38.5 27.5 -70.5t76.5 -32h553l-308 -1100q-11 -37 2.5 -68.5t40.5 -45t57.5 -15.5t58 18t38.5 58l344 1229q14 47 -17.5 88t-80.5 41h-688q-49 0 -76.5 -32t-27.5 -70.5z" />
<glyph unicode="8" horiz-adv-x="1171" d="M94 373q0 -93 35.5 -178t101.5 -140t146 -55h323q80 0 147 54.5t103.5 140t36.5 178.5q0 98 -27 189.5t-75 155.5q48 63 75 150t27 174q0 98 -36 187.5t-103 147t-148 57.5h-321q-81 0 -147 -56t-101.5 -145t-36.5 -189v-2q0 -88 26.5 -174.5t73.5 -149.5 q-47 -64 -73.5 -154.5t-26.5 -190.5zM299 373q0 241 76 241h2h323h2q80 0 80 -241q0 -91 -20 -129.5t-62 -38.5h-323q-40 0 -59 38t-19 130zM299 1042q1 104 20 145.5t60 41.5h321q41 0 61.5 -43.5t20.5 -143.5q0 -108 -22 -164.5t-58 -58.5h-2h-323h-2q-35 2 -55.5 57 t-20.5 166z" />
<glyph unicode="9" horiz-adv-x="1171" d="M94 373q0 -93 35.5 -178t101.5 -140t146 -55h323q80 0 147 54.5t103.5 140t36.5 178.5v333v22v333q0 93 -36.5 178.5t-103.5 140t-147 54.5h-323q-120 0 -200.5 -112t-82.5 -259v-2q0 -109 33.5 -210t100 -169t149.5 -68h405v-241q0 -91 -20 -129.5t-62 -38.5h-323 q-40 0 -59 38t-19 130q0 49 -32 76.5t-70.5 27.5t-70.5 -27.5t-32 -76.5zM299 1061q1 94 19.5 131t58.5 37h323q42 0 62 -38.5t20 -129.5v-242h-405q-34 0 -56 61t-22 181z" />
<glyph unicode=":" horiz-adv-x="608" d="M162 102.5q0 -38.5 27.5 -70.5t76.5 -32h2q49 0 76.5 32t27.5 70.5t-27.5 70.5t-76.5 32h-2q-49 0 -76.5 -32t-27.5 -70.5zM162 876.5q0 -38.5 27.5 -70.5t76.5 -32h2q49 0 76.5 32t27.5 70.5t-27.5 70.5t-76.5 32h-2q-49 0 -76.5 -32t-27.5 -70.5z" />
<glyph unicode=";" horiz-adv-x="587" d="M88 -72.5q6 -32.5 31.5 -52.5t54.5 -27.5t60.5 6.5t48.5 48l110 219q16 36 10 68.5t-31 52.5t-54.5 27.5t-60.5 -6.5t-48 -48l-111 -219q-16 -36 -10 -68.5zM142 870.5q0 -38.5 27.5 -70.5t76.5 -32h2q49 0 76.5 32t27.5 70.5t-27.5 70.5t-76.5 32h-2q-49 0 -76.5 -32 t-27.5 -70.5z" />
<glyph unicode="&#x3c;" horiz-adv-x="1204" d="M119 678q14 -39 51 -55l707 -308q36 -14 68.5 -6t50 34t24 55.5t-9.5 59.5t-52 46l-491 213l491 213q30 13 46 36.5t16 48.5t-9 49.5t-29.5 40.5t-46 21.5t-58.5 -8.5l-707 -307q-37 -16 -51 -55t0 -78z" />
<glyph unicode="=" horiz-adv-x="1204" d="M107 540.5q0 -38.5 27.5 -70.5t76.5 -32h707q49 0 76.5 32t27.5 70.5t-27.5 70.5t-76.5 32h-707q-49 0 -76.5 -32t-27.5 -70.5zM107 893q0 -38 27.5 -70t76.5 -32h707q49 0 76.5 32t27.5 70t-27.5 70t-76.5 32h-707q-49 0 -76.5 -32t-27.5 -70z" />
<glyph unicode="&#x3e;" horiz-adv-x="1204" d="M108 1015q0 -25 16 -48.5t46 -36.5l492 -213l-492 -213q-36 -16 -51.5 -46t-9.5 -59.5t24 -55.5t50.5 -34t68.5 6l706 308q37 16 51 55t0 78t-51 55l-706 307q-33 14 -58.5 8.5t-46.5 -21.5t-30 -40.5t-9 -49.5z" />
<glyph unicode="?" horiz-adv-x="1169" d="M109 1063q-1 -39 20 -66t50.5 -33.5t60 -1t51.5 32t22 64.5q1 97 17.5 133.5t52.5 36.5h334q63 0 63 -168v-172q0 -84 -5.5 -119t-17 -45t-40.5 -10h-80q-53 0 -99 -48.5t-70 -114t-24 -124.5q0 -49 32 -76.5t70.5 -27.5t70.5 27.5t32 76.5q0 16 1 40v21t-1 12.5t-4 6.5 t-8 2h80q111 0 189.5 100.5t78.5 278.5v172q0 90 -33.5 175t-96 141.5t-138.5 56.5h-334q-117 0 -194.5 -112.5t-79.5 -258.5zM443 102.5q0 -38.5 27.5 -70.5t76.5 -32h2q49 0 76.5 32t27.5 70.5t-27.5 70.5t-76.5 32h-2q-49 0 -76.5 -32t-27.5 -70.5z" />
<glyph unicode="A" horiz-adv-x="1423" d="M-19 76q7 -32 33 -50.5t56 -25.5q9 -2 18 -2q22 0 42 10q30 16 46 51l96 211h737l95 -211q16 -35 46 -51q21 -11 42 -10q8 0 18 2q30 7 56 25.5t33 50.5q2 11 2 23q0 22 -9 46l-557 1229q-17 36 -55 50q-19 7 -39 6l-39 -6q-38 -14 -55 -50l-559 -1229q-9 -24 -9 -46 q0 -12 2 -23zM365 475l276 608l275 -608h-551z" />
<glyph unicode="B" horiz-adv-x="1372" d="M143 102q0 -43 30 -72.5t73 -29.5h631q87 0 159.5 59t112 152.5t39.5 198.5q0 205 -105 318q49 62 77 142.5t28 153.5q0 101 -39 194.5t-111.5 154.5t-160.5 61h-631q-43 0 -73 -30t-30 -73v-603v-11v-11v-604zM348 205v409h529q45 0 65.5 -13.5t30.5 -56t10 -134.5 q0 -108 -26 -156.5t-80 -48.5h-529zM348 819v410h529q106 0 106 -205q0 -92 -29.5 -148.5t-76.5 -56.5h-529z" />
<glyph unicode="C" horiz-adv-x="1392" d="M143 373q0 -146 93 -259.5t225 -113.5h430q132 0 224.5 113.5t92.5 259.5q0 49 -32 76.5t-70 27.5t-70 -27.5t-32 -76.5q0 -90 -27 -129t-86 -39h-430q-59 0 -86 39t-27 129v688q1 93 27.5 130.5t85.5 37.5h430q58 0 85.5 -40t27.5 -128q0 -49 32 -76.5t70 -27.5t70 27.5 t32 76.5q0 143 -92.5 258t-224.5 115h-430q-132 0 -224 -111.5t-94 -259.5v-2v-688z" />
<glyph unicode="D" horiz-adv-x="1392" d="M143 102q0 -43 30 -72.5t73 -29.5h645q132 0 224.5 113.5t92.5 259.5v688q0 143 -92.5 258t-224.5 115h-645q-43 0 -73 -30t-30 -73v-1229zM348 205v1024h543q58 0 85.5 -40t27.5 -128v-688q0 -90 -27 -129t-86 -39h-543z" />
<glyph unicode="E" horiz-adv-x="1392" d="M143 102q0 -43 30 -72.5t73 -29.5h860q49 0 76.5 32t27.5 70.5t-27.5 70.5t-76.5 32h-758v409h543q49 0 76.5 32t27.5 70.5t-27.5 70.5t-76.5 32h-543v410h758q49 0 76.5 32t27.5 70.5t-27.5 70.5t-76.5 32h-860q-43 0 -73 -30t-30 -73v-603v-22v-604z" />
<glyph unicode="F" horiz-adv-x="1220" d="M143 102q0 -49 32 -76.5t70.5 -27.5t70.5 27.5t32 76.5v512h416q49 0 76.5 32t27.5 70.5t-27.5 70.5t-76.5 32h-416v410h645q49 0 76.5 32t27.5 70.5t-27.5 70.5t-76.5 32h-747q-43 0 -73 -30t-30 -73v-603v-22v-604z" />
<glyph unicode="G" horiz-adv-x="1392" d="M143 373q0 -146 93 -259.5t225 -113.5h430q132 0 224.5 113.5t92.5 259.5v344q0 43 -29.5 72.5t-72.5 29.5h-430q-49 0 -76.5 -32t-27.5 -70.5t27.5 -70.5t76.5 -32h328v-241q0 -90 -27 -129t-86 -39h-430q-59 0 -86 39t-27 129v688q1 93 27.5 130.5t85.5 37.5h430 q68 0 90.5 -24.5t22.5 -102.5q0 -49 32 -76.5t70 -27.5t70 27.5t32 76.5q0 144 -93.5 238t-223.5 94h-430q-132 0 -224 -111.5t-94 -259.5v-2v-688z" />
<glyph unicode="H" horiz-adv-x="1392" d="M143 102q0 -49 32 -76.5t70.5 -27.5t70.5 27.5t32 76.5v512h656v-512q0 -49 32 -76.5t70 -27.5t70 27.5t32 76.5v604v22v603q0 49 -32 76.5t-70 27.5t-70 -27.5t-32 -76.5v-512h-656v512q0 49 -32 76.5t-70.5 27.5t-70.5 -27.5t-32 -76.5v-603v-22v-604z" />
<glyph unicode="I" horiz-adv-x="878" d="M142 102.5q0 -38.5 27.5 -70.5t76.5 -32h163h22h161q49 0 76.5 32t27.5 70.5t-27.5 70.5t-76.5 32h-70v1024h70q49 0 76.5 32t27.5 70.5t-27.5 70.5t-76.5 32h-161h-7h-8.5h-6.5h-163q-49 0 -76.5 -32t-27.5 -70.5t27.5 -70.5t76.5 -32h71v-1024h-71q-49 0 -76.5 -32 t-27.5 -70.5z" />
<glyph unicode="J" horiz-adv-x="1200" d="M143 373q0 -95 45 -182t116.5 -139t146.5 -52h258q116 0 211.5 114.5t95.5 258.5v958q0 49 -32 76.5t-70.5 27.5t-70.5 -27.5t-32 -76.5v-958q0 -85 -27.5 -126.5t-74.5 -41.5h-258q-46 0 -74.5 42t-28.5 126q0 49 -32 76.5t-70.5 27.5t-70.5 -27.5t-32 -76.5z" />
<glyph unicode="K" horiz-adv-x="1392" d="M143 102q0 -49 32 -76.5t70.5 -27.5t70.5 27.5t32 76.5v512h110l574 -583q27 -28 61 -32t60 12.5t43 42.5q14 22 14 49v10q-3 34 -30 61l-535 543l535 543q27 27 30 61v10q0 27 -14 49q-17 26 -43 42q-21 13 -47 14q-6 0 -13 -1q-34 -4 -61 -32l-574 -584h-110v512 q0 49 -32 76.5t-70.5 27.5t-70.5 -27.5t-32 -76.5v-603v-22v-604z" />
<glyph unicode="L" horiz-adv-x="1200" d="M143 102q0 -43 30 -72.5t73 -29.5h667q49 0 76.5 32t27.5 70.5t-27.5 70.5t-76.5 32h-565v1126q0 49 -32 76.5t-70.5 27.5t-70.5 -27.5t-32 -76.5v-1229z" />
<glyph unicode="M" horiz-adv-x="1671" d="M143 102q0 -49 32 -76.5t70.5 -27.5t70.5 27.5t32 76.5v861l375 -904q25 -55 92 -55t92 55l375 906v-863q0 -49 32 -76.5t70.5 -27.5t70.5 27.5t32 76.5v1229q0 47 -40 74q-31 21 -66 21q-9 0 -21 -2q-48 -8 -68 -50l-477 -1028l-477 1028q-20 42 -68 50q-11 2 -21 2 q-35 0 -66 -21q-40 -27 -40 -74v-1229z" />
<glyph unicode="N" horiz-adv-x="1392" d="M143 102q0 -49 32 -76.5t70.5 -27.5t70.5 27.5t32 76.5v963l674 -1022q24 -35 70 -37q4 0 8 -1q41 0 73 26q35 28 35 71v1229q0 49 -32 76.5t-70 27.5t-70 -27.5t-32 -76.5v-962l-674 1022q-24 35 -70 37q-4 0 -8 1q-42 -1 -74 -27q-36 -28 -35 -71v-1229z" />
<glyph unicode="O" horiz-adv-x="1392" d="M143 373q0 -146 93 -259.5t225 -113.5h430q135 0 226 113.5t91 259.5v688q0 150 -91 261.5t-226 111.5h-428q-134 0 -226 -111.5t-94 -259.5v-2v-688zM348 373v688q1 93 27.5 130.5t87.5 37.5h428q62 0 87.5 -37.5t25.5 -130.5v-688q0 -91 -26 -129.5t-87 -38.5h-430 q-59 0 -86 39t-27 129z" />
<glyph unicode="P" horiz-adv-x="1392" d="M143 102q0 -49 32 -76.5t70.5 -27.5t70.5 27.5t32 76.5v512h543q90 0 165 67t113.5 160t38.5 183q0 102 -40 195.5t-114 154t-163 60.5h-645q-43 0 -73 -30t-30 -73v-603v-22v-604zM348 819v410h543q113 0 113 -205q0 -91 -31 -148t-82 -57h-543z" />
<glyph unicode="Q" horiz-adv-x="1392" d="M143 373q0 -146 93 -259.5t225 -113.5h430q71 0 137 37l8 -8q20 -19 44 -27q13 -4 26 -4q9 0 18 2q21 6 40 18t30 31t15 40q1 7 1 14q0 15 -5 31q-8 23 -29 42l-11 11q43 88 43 186v688q0 150 -91 261.5t-226 111.5h-428q-134 0 -226 -111.5t-94 -259.5v-2v-688zM348 373 v688q1 93 27.5 130.5t87.5 37.5h428q62 0 87.5 -37.5t25.5 -130.5v-688q0 -23 -1 -33l-112 106q-20 19 -43.5 26.5t-44.5 2t-39.5 -17.5t-29.5 -31t-15 -40t4 -44.5t29 -42.5l99 -94h-390q-59 0 -86 39t-27 129z" />
<glyph unicode="R" horiz-adv-x="1392" d="M143 102q0 -49 32 -76.5t70.5 -27.5t70.5 27.5t32 76.5v512h543q47 0 69.5 -13.5t33 -56.5t10.5 -134v-308q0 -49 32 -76.5t70 -27.5t70 27.5t32 76.5v308q0 206 -106 319q49 62 77.5 142t28.5 153q0 102 -40 195.5t-114 154t-163 60.5h-645q-43 0 -73 -30t-30 -73v-603 v-22v-604zM348 819v410h543q113 0 113 -205q0 -91 -31 -148t-82 -57h-543z" />
<glyph unicode="S" horiz-adv-x="1392" d="M143 369q0 -160 93 -264.5t225 -104.5h430q89 0 163 59t114 152.5t40 198.5q0 192 -90.5 300.5t-226.5 108.5h-430q-52 0 -82.5 55.5t-30.5 149.5q1 111 28.5 158t84.5 47h389q65 0 89 -33t24 -129q0 -49 32 -76.5t70 -27.5t70 27.5t32 76.5q0 158 -92.5 262.5 t-224.5 104.5h-389q-134 0 -225 -122.5t-93 -285.5v-2q0 -67 23.5 -139t64.5 -132.5t101.5 -99.5t128.5 -39h430q47 0 69.5 -13.5t33 -56.5t10.5 -134q0 -108 -28 -156.5t-85 -48.5h-430q-66 0 -89.5 32.5t-23.5 131.5q0 49 -32 76.5t-70.5 27.5t-70.5 -27.5t-32 -76.5z" />
<glyph unicode="T" horiz-adv-x="1249" d="M-2 1331.5q0 -38.5 27.5 -70.5t76.5 -32h328v-1127q0 -49 32 -76.5t70.5 -27.5t70.5 27.5t32 76.5v1127h328q49 0 76.5 32t27.5 70.5t-27.5 70.5t-76.5 32h-420h-3h-8h-10h-420q-49 0 -76.5 -32t-27.5 -70.5z" />
<glyph unicode="U" horiz-adv-x="1392" d="M143 373q0 -146 93 -259.5t225 -113.5h430q132 0 224.5 113.5t92.5 259.5v958q0 49 -32 76.5t-70 27.5t-70 -27.5t-32 -76.5v-958q0 -90 -27 -129t-86 -39h-430q-59 0 -86 39t-27 129v958q0 49 -32 76.5t-70.5 27.5t-70.5 -27.5t-32 -76.5v-958z" />
<glyph unicode="V" horiz-adv-x="1339" d="M-63 1336q0 -23 10 -46l536 -1229q15 -37 55 -51q20 -7 40 -7t39 7q39 14 55 51l536 1229q10 24 10 46v4q-1 24 -13.5 42.5t-30.5 31.5q-18 14 -40 18q-12 2 -23 2q-10 0 -20 -2q-21 -4 -40.5 -19t-30.5 -41l-442 -1014l-443 1014q-11 26 -31 42q-19 14 -40 18 q-10 2 -20 2q-12 0 -24 -2q-22 -4 -40 -18q-18 -13 -30 -31q-14 -20 -13 -47z" />
<glyph unicode="W" horiz-adv-x="1988" d="M-61 1349q-1 -6 -1 -12q0 -19 7 -39l420 -1228q15 -40 55 -56q21 -9 41 -9q20 -1 40 7q41 16 56 56l344 954l326 -952q15 -40 55 -56q21 -9 41 -9q20 -1 40 7q41 16 56 56l441 1228q7 21 7 41q-1 5 -1 11q-2 24 -15.5 41t-32.5 29q-20 14 -42 16q-8 1 -14 0q-15 0 -29 -3 q-21 -5 -39 -21.5t-27 -43.5l-342 -954l-326 952q-15 40 -55 56q-21 9 -41 9q-20 1 -40 -7q-41 -16 -56 -56l-344 -954l-326 952q-9 27 -27 44t-38 22q-15 4 -30 4q-6 0 -12 -1q-22 -2 -41 -14t-33 -29t-17 -41z" />
<glyph unicode="X" horiz-adv-x="1331" d="M103 39q21 -23 49 -35q15 -7 33 -7q14 1 28 5q33 10 55 41l346 494l347 -494q23 -31 55 -41q14 -4 27 -5q17 0 33 7q28 12 49.5 35t22.5 57v3q0 32 -20 63l-388 555l388 555q20 32 20 63v3q-1 34 -22.5 57t-49.5 35q-16 7 -33 7q-13 -1 -27 -5q-32 -10 -55 -41l-347 -495 l-346 495q-22 31 -55 41q-15 4 -28 5q-17 0 -33 -7q-28 -12 -49.5 -35t-22.5 -57v-3q0 -32 20 -63l389 -555l-389 -555q-20 -32 -20 -63q0 -36 23 -60z" />
<glyph unicode="Y" horiz-adv-x="1187" d="M-62 1316q4 -24 21 -46l440 -587v-581q0 -49 32 -76.5t70.5 -27.5t70.5 27.5t32 76.5v581l440 587q23 33 23 67q0 32 -21 55t-48 36q-17 8 -36 8q-12 0 -25 -4q-33 -8 -56 -39l-379 -506l-379 506q-17 22 -39 33q-19 10 -38 10h-6q-21 -2 -41.5 -11t-35 -26.5 t-21.5 -37.5q-5 -13 -5 -28q0 -8 1 -17z" />
<glyph unicode="Z" horiz-adv-x="1351" d="M105 90q5 -36 33.5 -63t66.5 -27h860q49 0 76.5 32t27.5 70.5t-27.5 70.5t-76.5 32h-670l715 1069q15 28 15 56q0 6 -1 14q-5 36 -33.5 63t-66.5 27h-758q-49 0 -76.5 -32t-27.5 -70.5t27.5 -70.5t76.5 -32h568l-715 -1069q-15 -28 -15 -56q0 -7 1 -14z" />
<glyph unicode="[" horiz-adv-x="712" d="M109 -25q0 -123 69 -222t176 -99h72q49 0 76.5 32t27.5 70.5t-27.5 70.5t-76.5 32h-72q-24 0 -32.5 21.5t-8.5 94.5v1090q0 73 8.5 95t32.5 22h72q49 0 76.5 32t27.5 70t-27.5 70t-76.5 32h-72q-72 0 -129.5 -47.5t-86.5 -120.5t-29 -153v-1090z" />
<glyph unicode="\" horiz-adv-x="772" d="M43 1305l344 -1229q11 -38 38.5 -58t58 -18t57.5 15.5t40.5 45t2.5 68.5l-344 1229q-11 38 -38.5 58t-58 18t-57.5 -15.5t-40.5 -45t-2.5 -68.5z" />
<glyph unicode="]" horiz-adv-x="712" d="M107 -243.5q0 -38.5 27.5 -70.5t76.5 -32h72q103 0 174 99t71 222v1090q0 77 -30.5 150t-88 122t-126.5 49h-72q-49 0 -76.5 -32t-27.5 -70t27.5 -70t76.5 -32h72q23 0 32 -24.5t9 -92.5v-1090q0 -70 -9 -93t-32 -23h-72q-49 0 -76.5 -32t-27.5 -70.5z" />
<glyph unicode="^" horiz-adv-x="976" d="M107.5 703.5q2.5 -24.5 15.5 -42t31 -30t40.5 -15.5t43.5 1t40 20.5t29 42.5l146 369l141 -369q10 -26 28.5 -42.5t39.5 -20.5t43.5 -1t41 15.5t31.5 30t15.5 42t-7.5 50.5l-237 614q-16 39 -56 54t-80.5 0t-56.5 -54l-241 -614q-10 -26 -7.5 -50.5z" />
<glyph unicode="_" horiz-adv-x="1093" d="M-18 102.5q0 -38.5 27.5 -70.5t76.5 -32l924 -2q49 0 76.5 32t27.5 70.5t-27.5 70.5t-76.5 32l-924 2q-49 0 -76.5 -32t-27.5 -70.5z" />
<glyph unicode="`" horiz-adv-x="659" d="M109 1351.5q-5 -32.5 12 -67.5l162 -307q18 -34 49 -48t59.5 -6t53.5 28t30 52.5t-12 67.5l-162 307q-18 34 -49 48t-59.5 6t-53.5 -28t-30 -52.5z" />
<glyph unicode="a" d="M61 319q4 -60 29 -119t66 -105q40 -47 99 -73q51 -23 107 -23q8 0 17 1h217q55 0 113 32q27 -30 70 -33h8q39 0 69 25q34 28 33 78v222v2v194q1 0 1 10l-1 11v213q0 106 -75 198t-177 92h-262q-97 0 -174.5 -69.5t-77.5 -179.5q0 -49 32 -76.5t70.5 -27.5t70.5 27.5 t32 76.5q0 39 3 42t44 3h262q27 0 37 -17.5t10 -68.5v-121h-309q-121 0 -217.5 -92.5t-96.5 -214.5v-7zM266 330q0 53 25.5 75.5t83.5 22.5h309v-102q0 -59 -24 -90t-64 -31h-221h-6q-5 0 -10 -1q-46 0 -66 26q-22 28 -27 100z" />
<glyph unicode="b" d="M123 102q0 -43 29.5 -72.5t72.5 -29.5h412q73 0 132.5 46t89.5 112t30 133v461q0 107 -75 199.5t-177 92.5h-309v318q0 49 -32 76.5t-70.5 27.5t-70.5 -27.5t-32 -76.5v-409v-22v-829zM328 205v635h309q27 0 37 -17.5t10 -70.5v-461q0 -55 -8.5 -70.5t-38.5 -15.5h-309z " />
<glyph unicode="c" d="M123 289q0 -66 30 -131.5t89.5 -111.5t132.5 -46h264q72 0 131 46t89 112t30 133q0 49 -32 76.5t-70.5 27.5t-70.5 -27.5t-32 -76.5q0 -55 -8.5 -70.5t-36.5 -15.5h-264q-30 0 -38.5 15t-8.5 69v465q0 51 10.5 68.5t38.5 17.5h260q27 0 37 -17.5t10 -70.5q0 -49 32 -76.5 t70.5 -27.5t70.5 27.5t32 76.5q0 107 -75 199.5t-177 92.5h-260q-103 0 -178.5 -92t-75.5 -198v-465z" />
<glyph unicode="d" d="M123 291q0 -107 72 -199t182 -92h409q43 0 73 29.5t30 72.5v829v22v409q0 49 -32 76.5t-70.5 27.5t-70.5 -27.5t-32 -76.5v-318h-309q-102 0 -177 -92.5t-75 -199.5v-461zM328 291v461q0 53 10 70.5t37 17.5h309v-635h-307q-31 0 -40 15.5t-9 70.5z" />
<glyph unicode="e" horiz-adv-x="1101" d="M123 289q0 -106 74 -197.5t186 -91.5h279q105 0 180.5 69.5t75.5 180.5q0 49 -32 76.5t-70.5 27.5t-70.5 -27.5t-32 -76.5q0 -7 0.5 -15.5t0 -12t0 -8t-2 -5.5t-3 -2.5t-6 -1.5t-9 -0.5t-13.5 0t-18 0.5h-279q-35 0 -45 15.5t-10 68.5v129h487q43 0 73 29.5t30 72.5v232 q0 107 -77.5 199.5t-181.5 92.5h-276q-105 0 -182.5 -92t-77.5 -198v-223v-22v-220zM328 623v131q0 52 11 69t44 17h276q31 0 42.5 -17.5t11.5 -70.5v-129h-385z" />
<glyph unicode="f" horiz-adv-x="712" d="M112 968q5 -26 14 -50.5t18.5 -46t9.5 -27.5v-742q0 -49 32 -76.5t70 -27.5t70 27.5t32 76.5v738h68q49 0 76.5 32t27.5 70t-27.5 70t-76.5 32h-68v80q0 78 14.5 107t45.5 29h69q49 0 76.5 32t27.5 70t-27.5 70t-76.5 32h-69q-103 0 -183.5 -102t-80.5 -238v-83 q-27 -7 -37 -27q-7 -14 -7 -30q0 -8 2 -16z" />
<glyph unicode="g" d="M123 289q0 -66 30 -131.5t89.5 -111.5t132.5 -46h309v-104q0 -91 -47 -91h-260q-49 0 -76.5 -32t-27.5 -70t27.5 -70t76.5 -32h260q55 0 104 30t80.5 75.5t49.5 96t18 93.5v196q1 0 1 10l-1 11v829q0 43 -30 72.5t-73 29.5h-409q-103 0 -178.5 -92t-75.5 -198v-465z M328 289v465q0 51 10.5 68.5t38.5 17.5h307v-635h-309q-30 0 -38.5 15t-8.5 69z" />
<glyph unicode="h" d="M123 102q0 -49 32 -76.5t70.5 -27.5t70.5 27.5t32 76.5v650q0 53 10 70.5t37 17.5h262q27 0 37 -17.5t10 -68.5v-652q0 -49 32 -76.5t70.5 -27.5t70.5 27.5t32 76.5v652q0 106 -75 198t-177 92h-262q-28 0 -47 -5v323q0 49 -32 76.5t-70.5 27.5t-70.5 -27.5t-32 -76.5 v-610v-650z" />
<glyph unicode="i" horiz-adv-x="448" d="M92 102q0 -49 32 -76.5t70.5 -27.5t70.5 27.5t32 76.5v840q0 49 -32 76.5t-70.5 27.5t-70.5 -27.5t-32 -76.5v-840zM93 1267.5q0 -38.5 27.5 -70.5t76.5 -32h2q49 0 76.5 32t27.5 70.5t-27.5 70.5t-76.5 32h-2q-49 0 -76.5 -32t-27.5 -70.5z" />
<glyph unicode="j" horiz-adv-x="552" d="M0 -297q0 -38 27.5 -70t76.5 -32q66 0 129 46.5t99.5 112.5t36.5 127v1055q0 49 -32 76.5t-70.5 27.5t-70.5 -27.5t-32 -76.5v-1055q0 -38 -16 -60t-44 -22q-49 0 -76.5 -32t-27.5 -70zM162 1267.5q0 -38.5 27.5 -70.5t76.5 -32h2q49 0 76.5 32t27.5 70.5t-27.5 70.5 t-76.5 32h-2q-49 0 -76.5 -32t-27.5 -70.5z" />
<glyph unicode="k" d="M123 102q0 -49 32 -76.5t70.5 -27.5t70.5 27.5t32 76.5v316h39l344 -383q26 -29 59 -35t60 10q26 16 44 40q16 22 17 50q-1 4 -1 8q-2 34 -28 62l-347 348v5l347 351q26 29 28 63q0 4 1 8q-1 29 -17 51q-18 24 -44.5 39.5t-59.5 9.5t-59 -35l-344 -387h-39v739 q0 49 -32 76.5t-70.5 27.5t-70.5 -27.5t-32 -76.5v-831v-22v-407z" />
<glyph unicode="l" horiz-adv-x="675" d="M123 289q0 -112 80 -200.5t186 -88.5q49 0 76.5 32t27.5 70.5t-27.5 70.5t-76.5 32q-37 0 -49 16t-12 68v1073q0 49 -32 76.5t-70.5 27.5t-70.5 -27.5t-32 -76.5v-1073z" />
<glyph unicode="m" horiz-adv-x="1712" d="M123 102q0 -49 32 -76.5t70.5 -27.5t70.5 27.5t32 76.5v652q0 46 25 66t91 20h93h77q60 0 84.5 -19.5t24.5 -66.5v-652q0 -49 30.5 -76t72.5 -27t73 27t31 76l-2 652q0 55 17 70.5t81 15.5h90h90q67 0 92 -19t25 -67v-652q0 -49 32 -76.5t70.5 -27.5t70.5 27.5t32 76.5 v652q0 115 -97.5 202.5t-224.5 87.5h-90h-90q-120 0 -206 -78q-94 78 -206 78h-77h-93q-129 0 -225 -89.5t-96 -200.5v-652z" />
<glyph unicode="n" d="M123 102q0 -49 32 -76.5t70.5 -27.5t70.5 27.5t32 76.5v650q0 53 10 70.5t37 17.5h262q27 0 37 -17.5t10 -68.5v-652q0 -49 32 -76.5t70.5 -27.5t70.5 27.5t32 76.5v652q0 106 -75 198t-177 92h-262q-102 0 -177 -92.5t-75 -199.5v-650z" />
<glyph unicode="o" d="M123 291q0 -67 30 -133t89.5 -112t132.5 -46h262q73 0 132.5 46t89.5 112t30 133v463q0 106 -75 198t-177 92h-262q-102 0 -177 -92t-75 -198v-463zM328 291v463q0 51 10 68.5t37 17.5h262q27 0 37 -17.5t10 -68.5v-463q0 -55 -8.5 -70.5t-38.5 -15.5h-262 q-30 0 -38.5 15.5t-8.5 70.5z" />
<glyph unicode="p" d="M123 92v-389q0 -49 32 -76.5t70.5 -27.5t70.5 27.5t32 76.5v297h309q73 0 132.5 46t89.5 112t30 133v463q0 106 -75 198t-177 92h-412q-43 0 -72.5 -29.5t-29.5 -72.5v-829v-21zM328 205v635h309q27 0 37 -17.5t10 -68.5v-463q0 -55 -8.5 -70.5t-38.5 -15.5h-309z" />
<glyph unicode="q" d="M123 289q0 -66 30 -131.5t89.5 -111.5t132.5 -46h309v-297q0 -49 32 -76.5t70.5 -27.5t70.5 27.5t32 76.5v389q1 0 1 10l-1 11v829q0 43 -30 72.5t-73 29.5h-409q-103 0 -178.5 -92t-75.5 -198v-465zM328 289v465q0 51 10.5 68.5t38.5 17.5h307v-635h-309q-30 0 -38.5 15 t-8.5 69z" />
<glyph unicode="r" horiz-adv-x="794" d="M123 102q0 -49 32 -76.5t70.5 -27.5t70.5 27.5t32 76.5v652q0 46 15 66t46 20h201q49 0 76.5 32t27.5 70t-27.5 70t-76.5 32h-201q-100 0 -183 -91.5t-83 -198.5v-652z" />
<glyph unicode="s" d="M123 238q0 -113 75 -175.5t177 -62.5h262q73 0 132.5 46t89.5 111.5t30 131.5v10q0 124 -71 223q-74 103 -181 103h-260q-27 2 -39 30q-10 23 -11 71q0 12 1 24v4q0 51 10.5 68.5t38.5 17.5h219q36 0 41.5 -6.5t5.5 -49.5q0 -49 32 -76.5t70.5 -27.5t70.5 27.5t32 76.5 q0 108 -77 184t-175 76h-219q-103 0 -178.5 -91.5t-75.5 -196.5v-10q-1 -70 27 -140q30 -76 89.5 -129.5t131.5 -56.5h4h262q29 0 39 -25q8 -19 9 -70q0 -15 -1 -32v-2q0 -55 -8.5 -70.5t-38.5 -15.5h-262q-11 0 -21.5 -0.5t-14.5 -1t-8.5 0t-4.5 1t-0.5 3.5t0.5 6t1.5 10 t0.5 14q0 49 -32 76.5t-70.5 27.5t-70.5 -27.5t-32 -76.5z" />
<glyph unicode="t" horiz-adv-x="659" d="M105 983q0 -38 17 -82.5t17 -52.5v-555q-2 -106 83.5 -199.5t211.5 -93.5q49 0 76.5 32t27.5 70.5t-27.5 70.5t-76.5 32q-56 1 -74 19q-17 17 -16 56v9v2v549h29q49 0 76.5 32t27.5 70t-27.5 70t-76.5 32h-29v318q0 49 -32 76.5t-70.5 27.5t-70.5 -27.5t-32 -76.5v-326 q-34 -15 -34 -53z" />
<glyph unicode="u" d="M123 289q0 -66 30 -131.5t89.5 -111.5t132.5 -46h264q72 0 131 46t89 112t30 133v651q0 49 -32 76.5t-70.5 27.5t-70.5 -27.5t-32 -76.5v-651q0 -55 -8.5 -70.5t-36.5 -15.5h-264q-30 0 -38.5 15t-8.5 69v653q0 49 -32 76.5t-70.5 27.5t-70.5 -27.5t-32 -76.5v-653z" />
<glyph unicode="v" horiz-adv-x="1046" d="M42 956q0 -5 -1 -10q0 -20 8 -41l328 -839q16 -40 56 -54q20 -7 40 -7l40 7q40 14 56 54l328 839q8 21 8 41q-1 6 -1 10q-2 24 -15 41.5t-31 30t-40 15.5q-10 1 -20 1q-12 0 -24 -2q-21 -4 -40 -20.5t-29 -42.5l-234 -631l-229 631q-10 26 -29 42.5t-40 20.5q-12 2 -24 2 q-9 0 -19 -1q-22 -3 -41 -15.5t-32 -30t-15 -41.5z" />
<glyph unicode="w" horiz-adv-x="1542" d="M34 977q-4 -14 -5 -30q0 -18 6 -38l293 -839q14 -41 56 -57q20 -8 40 -8l42 9q42 16 56 56l174 606l172 -604q14 -42 56 -58q21 -9 42 -8q20 0 41 8q42 16 56 56l289 839q6 19 6 37q0 16 -5 32q-10 32 -37 48q-28 14 -58 18q-5 1 -9 1q-25 0 -49 -15q-29 -18 -41 -55 l-188 -606l-174 604q-14 41 -56 57q-22 9 -43 9q-20 1 -42 -7q-42 -16 -56 -57l-180 -606l-193 606q-13 37 -41 55q-23 15 -48 15q-5 0 -11 -1q-30 -4 -56.5 -20t-36.5 -47z" />
<glyph unicode="x" horiz-adv-x="1056" d="M88 40q22 -23 50 -35q16 -7 33 -7q13 0 27 4q33 9 56 41l216 302l216 -302q23 -32 56 -41q14 -4 27 -4q17 0 33 7q28 12 49.5 35t22.5 56v3q0 32 -20 63l-258 360l258 361q20 32 20 63v3q-1 33 -22.5 55.5t-49.5 34.5q-16 7 -33 7q-13 0 -27 -4q-33 -9 -56 -41l-216 -302 l-216 302q-23 32 -56 41q-14 4 -27 4q-17 0 -33 -7q-28 -12 -49.5 -34.5t-22.5 -55.5v-3q0 -32 20 -63l258 -361l-258 -360q-20 -32 -20 -63q-1 -35 22 -59z" />
<glyph unicode="y" d="M121 -297q0 -38 27.5 -70t76.5 -32h82q54 0 105 40t92 109t73.5 150t57.5 174l250 839q5 20 5 34q0 43 -32 70.5t-74 27.5q-32 0 -58.5 -18.5t-37.5 -55.5l-171 -575l-195 581q-13 37 -42 55q-24 13 -48 13q-6 0 -12 -1q-30 -4 -57 -20.5t-37 -47.5q-4 -14 -4 -29 q0 -19 7 -40l300 -810q-26 -95 -51 -163t-42.5 -98.5t-28.5 -30.5h-82q-49 0 -76.5 -32t-27.5 -70z" />
<glyph unicode="z" horiz-adv-x="1032" d="M64 90q5 -36 33.5 -63t66.5 -27h581q49 0 76.5 32t27.5 70.5t-27.5 70.5t-76.5 32h-391l453 680q17 25 17 53q0 25 -14 51q-30 55 -89 55h-516q-49 0 -76.5 -32t-27.5 -70t27.5 -70t76.5 -32h325l-452 -680q-15 -28 -15 -56q0 -7 1 -14z" />
<glyph unicode="{" horiz-adv-x="733" d="M0.5 514q2.5 -50 42.5 -78q129 -91 129 -299q0 -93 16 -177t48 -154t86 -111t124 -41q49 0 76.5 32t27.5 70.5t-27.5 70.5t-76.5 32q-35 0 -52 64t-17 214q0 53 -7.5 104.5t-18.5 89t-26 75t-26 58t-23 41.5t-13 23q-1 -1 -1.5 -1t0.5 2q-2 4 0 4l2 -1q113 170 113 369 q0 150 17.5 215.5t54.5 65.5q38 1 64 22t32 51.5t-1 60t-34 50.5t-66 20q-72 -1 -126.5 -44t-85 -114t-45.5 -153.5t-15 -173.5q0 -61 -12 -111.5t-35 -87.5t-42.5 -59t-47.5 -47q-37 -32 -34.5 -82zM262 529q0 1 2 3l2 -2l-1 -1q-1 -1 -2 -1z" />
<glyph unicode="|" horiz-adv-x="663" d="M127 -244q0 -49 32 -76.5t70.5 -27.5t70.5 27.5t32 76.5v1528q0 49 -32 76.5t-70.5 27.5t-70.5 -27.5t-32 -76.5v-1528z" />
<glyph unicode="}" horiz-adv-x="733" d="M-2 -243.5q0 -38.5 27.5 -70.5t76.5 -32q70 0 124.5 40.5t86.5 110t48 153.5t16 179q0 41 5 73.5t11.5 54t22 47t27.5 41t38.5 48.5t44.5 56q23 29 23 63.5t-23 63.5q-18 23 -44.5 55.5t-38.5 48t-28 41t-22.5 47t-11 53.5t-4.5 72q1 125 -26.5 232t-91 180t-153.5 76 q-39 1 -66.5 -19.5t-34.5 -50t-2 -60t31 -52.5t64 -23q77 -3 74 -283q-1 -79 11 -143t33 -105t38 -65t39 -45t24 -23q-3 -3 -19 -18t-30 -29t-32.5 -45.5t-31.5 -67.5t-22.5 -94.5t-9.5 -128.5q0 -154 -17 -216t-53 -62q-49 0 -76.5 -32t-27.5 -70.5z" />
<glyph unicode="~" horiz-adv-x="1191" d="M109 614q0 -49 32 -76.5t70 -27.5t70 27.5t32 76.5q0 52 17 74.5t55 22.5q19 0 36.5 -20t38.5 -49t51 -58t87 -50t133 -22q74 -2 139.5 45.5t101.5 117.5t36 138q0 49 -32 76.5t-70.5 27.5t-70.5 -27.5t-32 -76.5q0 -52 -15.5 -74t-52.5 -22q-19 0 -37 20.5t-39.5 49.5 t-51.5 58t-87.5 49.5t-134.5 20.5q-75 0 -140.5 -47.5t-100.5 -116.5t-35 -137z" />
<glyph unicode="&#xad;" horiz-adv-x="886" d="M107 716.5q0 -38.5 27.5 -70.5t76.5 -32h389q49 0 76.5 32t27.5 70.5t-27.5 70.5t-76.5 32h-389q-49 0 -76.5 -32t-27.5 -70.5z" />
<glyph unicode="&#x2000;" horiz-adv-x="740" />
<glyph unicode="&#x2001;" horiz-adv-x="1480" />
<glyph unicode="&#x2002;" horiz-adv-x="740" />
<glyph unicode="&#x2003;" horiz-adv-x="1480" />
<glyph unicode="&#x2004;" horiz-adv-x="493" />
<glyph unicode="&#x2005;" horiz-adv-x="370" />
<glyph unicode="&#x2006;" horiz-adv-x="246" />
<glyph unicode="&#x2007;" horiz-adv-x="246" />
<glyph unicode="&#x2008;" horiz-adv-x="185" />
<glyph unicode="&#x2009;" horiz-adv-x="296" />
<glyph unicode="&#x200a;" horiz-adv-x="82" />
<glyph unicode="&#x2010;" horiz-adv-x="886" d="M107 716.5q0 -38.5 27.5 -70.5t76.5 -32h389q49 0 76.5 32t27.5 70.5t-27.5 70.5t-76.5 32h-389q-49 0 -76.5 -32t-27.5 -70.5z" />
<glyph unicode="&#x2011;" horiz-adv-x="886" d="M107 716.5q0 -38.5 27.5 -70.5t76.5 -32h389q49 0 76.5 32t27.5 70.5t-27.5 70.5t-76.5 32h-389q-49 0 -76.5 -32t-27.5 -70.5z" />
<glyph unicode="&#x2012;" horiz-adv-x="886" d="M107 716.5q0 -38.5 27.5 -70.5t76.5 -32h389q49 0 76.5 32t27.5 70.5t-27.5 70.5t-76.5 32h-389q-49 0 -76.5 -32t-27.5 -70.5z" />
<glyph unicode="&#x2013;" horiz-adv-x="1313" d="M107 716.5q0 -38.5 47 -70.5t131 -32h668q84 0 131 32t47 70.5t-47 70.5t-131 32h-668q-84 0 -131 -32t-47 -70.5z" />
<glyph unicode="&#x2014;" horiz-adv-x="2337" d="M107 716.5q0 -38.5 94.5 -70.5t262.5 -32h1334q168 0 262.5 32t94.5 70.5t-94.5 70.5t-262.5 32h-1334q-168 0 -262.5 -32t-94.5 -70.5z" />
<glyph unicode="&#x202f;" horiz-adv-x="296" />
<glyph unicode="&#x205f;" horiz-adv-x="370" />
<glyph unicode="&#x25fc;" horiz-adv-x="1044" d="M0 0v1044h1044v-1044h-1044z" />
</font>
</defs>
</svg>
