<?xml version="1.0" standalone="no"?>
<!DOCTYPE svg PUBLIC "-//W3C//DTD SVG 1.1//EN" "http://www.w3.org/Graphics/SVG/1.1/DTD/svg11.dtd" >
<svg xmlns="http://www.w3.org/2000/svg">
<metadata></metadata>
<defs>
<font id="rodusround300thin" horiz-adv-x="1044" >
<font-face units-per-em="2048" ascent="1638" descent="-410" />
<missing-glyph horiz-adv-x="500" />
<glyph horiz-adv-x="0" />
<glyph unicode="&#xd;" horiz-adv-x="2048" />
<glyph unicode="!" horiz-adv-x="559" d="M155 61.5q0 -23.5 16.5 -42.5t45.5 -19h2q29 0 45.5 19t16.5 42.5t-16.5 42.5t-45.5 19h-2q-29 0 -45.5 -19t-16.5 -42.5zM156 389q0 -29 19 -45.5t42.5 -16.5t42.5 16.5t19 45.5v983q0 29 -19 45.5t-42.5 16.5t-42.5 -16.5t-19 -45.5v-983z" />
<glyph unicode="&#x22;" horiz-adv-x="614" d="M102 1044q0 -29 19 -45.5t42.5 -16.5t42.5 16.5t19 45.5v328q0 29 -19 45.5t-42.5 16.5t-42.5 -16.5t-19 -45.5v-328zM307 1044q0 -29 19 -45.5t42.5 -16.5t42.5 16.5t19 45.5v328q0 29 -19 45.5t-42.5 16.5t-42.5 -16.5t-19 -45.5v-328z" />
<glyph unicode="#" horiz-adv-x="1208" d="M-1 389.5q0 -23.5 16.5 -42.5t45.5 -19h28l-85 -246q-7 -23 -1 -42t22 -28.5t34 -12t35 8.5t25 33l98 287h322l-84 -246q-13 -37 10.5 -62.5t57 -20.5t46.5 42l99 287h192q29 0 45.5 19t16.5 42.5t-16.5 42.5t-45.5 19h-150l183 532h70q29 0 45.5 19t16.5 42.5 t-16.5 42.5t-45.5 19h-28l85 246q7 23 1 42t-22 28.5t-34 12t-35 -8.5t-25 -33l-98 -287h-322l84 246q13 37 -10.5 62.5t-57 20.5t-46.5 -42l-99 -287h-192q-29 0 -45.5 -19t-16.5 -42.5t16.5 -42.5t45.5 -19h150l-183 -532h-70q-29 0 -45.5 -19t-16.5 -42.5zM260 451 l183 532h321l-183 -532h-321z" />
<glyph unicode="$" horiz-adv-x="1021" d="M6 952q0 -168 89 -249.5t229 -81.5h88v-447h-242q-29 0 -45.5 -19t-16.5 -42.5t16.5 -42.5t45.5 -19h242v-104q0 -29 19 -45.5t42.5 -16.5t42.5 16.5t19 45.5v104h92q139 0 228 87.5t89 258.5t-89 258.5t-228 87.5h-92v414h241q29 0 45.5 19t16.5 42.5t-16.5 42.5 t-45.5 19h-241v137q0 29 -19 45.5t-42.5 16.5t-42.5 -16.5t-19 -45.5v-137h-88q-139 0 -228.5 -81.5t-89.5 -246.5zM129 952q0 121 44 163t151 42h88v-414h-88q-107 0 -151 42.5t-44 166.5zM535 174v447h92q104 0 149 -47.5t45 -176.5t-45 -176t-149 -47h-92z" />
<glyph unicode="%" horiz-adv-x="1310" d="M102 56q1 -20 14 -33.5t29.5 -20.5t36.5 -0.5t33 25.5l901 1310q12 20 11 40t-14 33.5t-29.5 20.5t-36.5 1t-33 -25l-901 -1311q-12 -20 -11 -40zM102 1106q0 -131 82.5 -229.5t204.5 -98.5t203.5 95.5t83.5 232.5q2 136 -81.5 232t-205.5 96t-204.5 -98.5t-82.5 -229.5z M225 1106q0 97 43 151t121 54q80 0 122.5 -52.5t41.5 -152.5q-3 -205 -164 -205q-78 0 -121 54t-43 151zM553 328q1 -82 37 -156t102.5 -122.5t147.5 -49.5q120 -1 203 99.5t83 228.5q0 82 -36 157t-103 122.5t-147 47.5t-147.5 -48t-104 -123t-35.5 -156zM676 328 q-2 92 42.5 148t121.5 56t120.5 -55.5t43.5 -148.5q0 -94 -43.5 -150t-120.5 -55q-75 1 -118.5 57t-45.5 148z" />
<glyph unicode="&#x26;" horiz-adv-x="1363" d="M109 1171q0 -36 8 -71.5t16.5 -59.5t32 -60t34 -50t42.5 -54t39 -48q-144 -206 -170 -332q-39 -186 34 -326t197 -168q109 -26 205 6.5t196 110.5l75 57l38 -47q52 -63 129.5 -96t132.5 -33q29 0 45.5 19t16.5 42.5t-16.5 42.5t-45.5 19q-40 0 -86.5 20.5t-81.5 63.5 l-35 43l240 184q23 18 25.5 43.5t-13 43t-38 24t-48.5 -12.5l-244 -187l-401 488q52 74 81.5 119.5t55 103t25.5 97.5q1 127 -68.5 204t-171.5 77q-101 0 -174.5 -73t-74.5 -190zM229 471q21 95 133 258l377 -458l-69 -54q-89 -68 -154.5 -91t-144.5 -5q-89 22 -131 111 t-11 239zM231 1171q1 76 31.5 108t95.5 32q63 0 90.5 -35t26.5 -123q0 -35 -29.5 -85.5t-90.5 -135.5q-38 46 -51.5 63.5t-36 52t-30 63t-6.5 60.5z" />
<glyph unicode="'" horiz-adv-x="389" d="M33 1044q0 -29 19 -45.5t42.5 -16.5t42.5 16.5t19 45.5v328q0 29 -19 45.5t-42.5 16.5t-42.5 -16.5t-19 -45.5v-328z" />
<glyph unicode="(" horiz-adv-x="628" d="M109 520q0 -224 57 -442.5t164 -394.5q12 -20 31.5 -27t36.5 -0.5t31.5 19.5t16 33t-9.5 40q-205 331 -205 772t205 772q11 20 9.5 40t-16 33.5t-31.5 20t-36.5 -0.5t-31.5 -27q-107 -176 -164 -395t-57 -443z" />
<glyph unicode=")" horiz-adv-x="628" d="M108 -287q0 -20 12.5 -34.5t29 -22t36 -2.5t33.5 24q64 86 110.5 198.5t70 228t34 217.5t10.5 198t-10.5 198t-34 217.5t-70 228t-110.5 198.5q-23 31 -58 24.5t-47.5 -35.5t7.5 -63q75 -102 122.5 -246.5t63 -269.5t15.5 -252t-15.5 -252t-63 -269.5t-122.5 -246.5 q-13 -19 -13 -39z" />
<glyph unicode="*" horiz-adv-x="923" d="M109 999.5q5 -17.5 17 -33t31.5 -19t41.5 6.5l163 83v-156q0 -29 19 -45.5t42.5 -16.5t42.5 16.5t19 45.5v156l164 -83q22 -10 41.5 -6.5t31.5 19t17 33t-3 36t-29 29.5l-145 73l145 72q21 11 29 29.5t3 36t-17 33t-31.5 19t-41.5 -6.5l-164 -83v157q0 29 -19 45.5 t-42.5 16.5t-42.5 -16.5t-19 -45.5v-157l-163 83q-22 10 -41.5 6.5t-31.5 -19t-17 -33t3 -36t29 -29.5l145 -72l-145 -73q-21 -11 -29 -29.5t-3 -36z" />
<glyph unicode="+" horiz-adv-x="1120" d="M108 716.5q0 -23.5 16.5 -42.5t45.5 -19h291v-313q0 -29 19 -45.5t42.5 -16.5t42.5 16.5t19 45.5v313h290q29 0 45.5 19t16.5 42.5t-16.5 42.5t-45.5 19h-290v314q0 29 -19 45.5t-42.5 16.5t-42.5 -16.5t-19 -45.5v-314h-291q-29 0 -45.5 -19t-16.5 -42.5z" />
<glyph unicode="," horiz-adv-x="538" d="M111 -112.5q11 -21.5 30.5 -33.5t44.5 -6.5t39 31.5l123 234q10 21 6.5 40.5t-18 31.5t-32 17t-36.5 -3t-30 -29l-123 -233q-15 -28 -4 -49.5z" />
<glyph unicode="-" horiz-adv-x="868" d="M108 716.5q0 -23.5 16.5 -42.5t45.5 -19h453q29 0 45.5 19t16.5 42.5t-16.5 42.5t-45.5 19h-453q-29 0 -45.5 -19t-16.5 -42.5z" />
<glyph unicode="." horiz-adv-x="579" d="M192 61.5q0 -23.5 16.5 -42.5t45.5 -19h2q29 0 45.5 19t16.5 42.5t-16.5 42.5t-45.5 19h-2q-29 0 -45.5 -19t-16.5 -42.5z" />
<glyph unicode="/" horiz-adv-x="796" d="M111 78q-7 -22 1 -41t24 -27.5t34.5 -10t35 10.5t23.5 35l381 1311q7 22 -1 41t-24 27.5t-34.5 10t-35 -10.5t-23.5 -35z" />
<glyph unicode="0" horiz-adv-x="1138" d="M94 350q0 -142 72 -246t182 -104h348q111 0 184.5 103.5t73.5 246.5v733q0 143 -73 247t-185 104h-346q-110 0 -182 -102.5t-74 -248.5v-733zM217 350v733q3 228 133 228h346q64 0 99.5 -59.5t35.5 -168.5v-733q0 -112 -35 -169.5t-100 -57.5h-348q-61 0 -96 59t-35 168z " />
<glyph unicode="1" horiz-adv-x="907" d="M94 61.5q0 -23.5 16.5 -42.5t45.5 -19h254h252q29 0 45.5 19t16.5 42.5t-16.5 42.5t-45.5 19h-191v1249q0 27 -23.5 44t-52 12.5t-41.5 -29.5l-254 -510q-17 -34 3.5 -61.5t55.5 -27t52 35.5l137 274v-987h-192q-29 0 -45.5 -19t-16.5 -42.5z" />
<glyph unicode="2" horiz-adv-x="1138" d="M94 61q0 -26 18 -43.5t44 -17.5h737q29 0 45.5 19t16.5 42.5t-16.5 42.5t-45.5 19h-676v227q0 151 35 229t94 76h2h348q76 0 136 63.5t91 160.5t31 204q0 143 -73 247t-185 104h-346q-110 0 -182 -102.5t-74 -248.5q0 -29 19 -45.5t42.5 -16.5t42.5 16.5t19 45.5 q3 228 133 228h346q64 0 99.5 -59.5t35.5 -168.5q0 -136 -37.5 -220.5t-97.5 -84.5h-348q-112 1 -183 -123t-71 -305v-289z" />
<glyph unicode="3" horiz-adv-x="1138" d="M94 61.5q0 -23.5 16.5 -42.5t45.5 -19h540q77 0 136.5 63t90.5 166.5t31 227.5q0 195 -71.5 329.5t-186.5 133.5h-192l432 407q28 26 11.5 66.5t-54.5 40.5h-737q-29 0 -45.5 -19t-16.5 -42.5t16.5 -42.5t45.5 -19h581l-432 -408q-28 -26 -11.5 -66t54.5 -40h348h2 q60 2 96.5 -87.5t36.5 -252.5q0 -159 -37 -246.5t-98 -87.5h-540q-29 0 -45.5 -19t-16.5 -42.5z" />
<glyph unicode="4" horiz-adv-x="1112" d="M37 322.5q18 -33.5 53 -33.5h623v-228q0 -29 19 -45.5t42.5 -16.5t42.5 16.5t19 45.5v228h92q29 0 45.5 19t16.5 42.5t-16.5 42.5t-45.5 19h-92v960q0 41 -45 55t-68 -20l-684 -1022q-20 -29 -2 -62.5zM205 412l508 757v-757h-508z" />
<glyph unicode="5" horiz-adv-x="1138" d="M94 350q0 -142 72 -246t182 -104h348q111 0 184.5 103.5t73.5 246.5v328q0 106 -33 204t-93.5 161t-131.5 63h-348h-69v207h540q29 0 45.5 19t16.5 42.5t-16.5 42.5t-45.5 19h-602q-26 0 -43.5 -18t-17.5 -44v-330q0 -26 17.5 -43.5t43.5 -17.5h131h348q57 0 96 -85.5 t39 -219.5v-328q0 -112 -35 -169.5t-100 -57.5h-348q-61 0 -96 59t-35 168q0 29 -19 45.5t-42.5 16.5t-42.5 -16.5t-19 -45.5z" />
<glyph unicode="6" horiz-adv-x="1138" d="M94 350q0 -142 72 -246t182 -104h348q111 0 184.5 103.5t73.5 246.5q0 139 -30.5 253.5t-90 184t-137.5 68.5h-479v227q3 228 131 228h348q64 0 99.5 -59.5t35.5 -168.5q0 -29 19 -45.5t42.5 -16.5t42.5 16.5t19 45.5q0 143 -73 247t-185 104h-348q-108 0 -180 -103 t-74 -248v-288v-445zM217 350v383h479h2q38 1 68 -41.5t47.5 -130.5t17.5 -211q0 -112 -35 -169.5t-100 -57.5h-348q-61 0 -96 59t-35 168z" />
<glyph unicode="7" horiz-adv-x="1138" d="M94 1372.5q0 -23.5 16.5 -42.5t45.5 -19h655l-346 -1233q-7 -22 1 -41t24.5 -27.5t35 -10t35 10.5t23.5 35l368 1311q7 29 -11.5 53.5t-47.5 24.5h-737q-29 0 -45.5 -19t-16.5 -42.5z" />
<glyph unicode="8" horiz-adv-x="1138" d="M94 350q0 -142 72 -246t182 -104h348q111 0 184.5 103.5t73.5 246.5q0 116 -31.5 214t-87.5 154q56 56 87.5 149.5t31.5 195.5q0 151 -73 261t-185 110h-346q-112 0 -183 -107.5t-73 -263.5q0 -102 31.5 -195.5t86.5 -149.5q-55 -56 -86.5 -154t-31.5 -214zM217 350 q0 151 35 229t94 76h2h348h2q62 2 97.5 -76.5t35.5 -228.5q0 -112 -35 -169.5t-100 -57.5h-348q-61 0 -96 59t-35 168zM217 1063q1 123 36 185.5t97 62.5h346q64 0 99.5 -64t35.5 -184q0 -128 -37.5 -206.5t-97.5 -78.5h-348q-58 0 -94.5 77.5t-36.5 207.5z" />
<glyph unicode="9" horiz-adv-x="1138" d="M94 350q0 -142 72 -246t182 -104h348q111 0 184.5 103.5t73.5 246.5v367v366q0 143 -73 247t-185 104h-348q-108 0 -180 -103t-74 -248q0 -110 30.5 -207t90 -159t133.5 -62h483v-305q0 -112 -35 -169.5t-100 -57.5h-348q-61 0 -96 59t-35 168q0 29 -19 45.5t-42.5 16.5 t-42.5 -16.5t-19 -45.5zM217 1083q3 228 131 228h348q64 0 99.5 -59.5t35.5 -168.5v-305h-483q-58 0 -94.5 83t-36.5 222z" />
<glyph unicode=":" horiz-adv-x="552" d="M178 61.5q0 -23.5 16.5 -42.5t45.5 -19h2q29 0 45.5 19t16.5 42.5t-16.5 42.5t-45.5 19h-2q-29 0 -45.5 -19t-16.5 -42.5zM178 888.5q0 -23.5 16.5 -42.5t45.5 -19h2q29 0 45.5 19t16.5 42.5t-16.5 42.5t-45.5 19h-2q-29 0 -45.5 -19t-16.5 -42.5z" />
<glyph unicode=";" horiz-adv-x="514" d="M87.5 -104.5q3.5 -19.5 19 -31.5t33 -17t36 3t29.5 29l119 234q10 22 6.5 41.5t-19 31.5t-33 16.5t-36 -3.5t-29.5 -29l-119 -233q-10 -22 -6.5 -41.5zM147 890.5q0 -23.5 16.5 -42.5t45.5 -19h2q29 0 45.5 19t16.5 42.5t-16.5 42.5t-45.5 19h-2q-29 0 -45.5 -19 t-16.5 -42.5z" />
<glyph unicode="&#x3c;" horiz-adv-x="1171" d="M111 716.5q0 -42.5 34 -57.5l756 -327q27 -11 50 0.5t32 32.5t1.5 45t-34.5 36l-626 271l626 270q36 16 38.5 50.5t-24.5 57t-63 7.5l-756 -328q-34 -15 -34 -57.5z" />
<glyph unicode="=" horiz-adv-x="1171" d="M108 530.5q0 -23.5 16.5 -42.5t45.5 -19h756q29 0 45.5 19t16.5 42.5t-16.5 42.5t-45.5 19h-756q-29 0 -45.5 -19t-16.5 -42.5zM108 903.5q0 -23.5 16.5 -42.5t45.5 -19h756q29 0 45.5 19t16.5 42.5t-16.5 42.5t-45.5 19h-756q-29 0 -45.5 -19t-16.5 -42.5z" />
<glyph unicode="&#x3e;" horiz-adv-x="1171" d="M107 395.5q-2 -34.5 25 -56.5t63 -7l755 327q34 15 34 57.5t-34 57.5l-755 328q-36 15 -63 -7.5t-25 -57t38 -50.5l627 -270l-627 -271q-36 -16 -38 -50.5z" />
<glyph unicode="?" horiz-adv-x="1107" d="M109 1083q0 -29 19 -45.5t42 -16.5t42 16.5t19 45.5q3 228 117 228h344q48 0 78.5 -61t30.5 -167v-184q0 -135 -25.5 -181t-85.5 -46h-80q-65 0 -110 -83.5t-45 -172.5q0 -29 19 -45.5t42.5 -16.5t42.5 16.5t19 45.5q0 39 6 71t13 47t13 15h80q102 0 168 89.5t66 260.5 v184q0 89 -29 169t-83 131t-120 51h-344q-104 0 -170.5 -102.5t-68.5 -248.5zM454 61.5q0 -23.5 16.5 -42.5t45.5 -19h2q29 0 45.5 19t16.5 42.5t-16.5 42.5t-45.5 19h-2q-29 0 -45.5 -19t-16.5 -42.5z" />
<glyph unicode="A" horiz-adv-x="1372" d="M-14 86q-8 -16 -8 -30q0 -18 12 -33q20 -25 50 -25h6q34 2 50 39l111 252h801q8 0 12 1l110 -253q16 -37 50 -39h6q32 0 52 25q14 16 13 36q0 13 -6 27l-571 1311q-15 34 -57.5 34t-55.5 -34zM261 412l355 807l351 -807h-706z" />
<glyph unicode="B" horiz-adv-x="1331" d="M143 61q0 -26 18 -43.5t44 -17.5h661q121 0 201 114.5t80 274.5q0 242 -124 338q57 57 90.5 144.5t33.5 172.5q0 100 -35 189t-100.5 145t-145.5 56h-661q-26 0 -44 -18t-18 -44v-655v-656zM266 123v532h600q56 0 89 -21t51 -80t18 -165q0 -128 -42 -197t-116 -69h-600z M266 778v533h600q72 0 115 -71.5t43 -195.5q0 -110 -44.5 -188t-113.5 -78h-600z" />
<glyph unicode="C" horiz-adv-x="1351" d="M143 350q0 -142 82.5 -246t204.5 -104h451q122 0 204 103t82 247q0 29 -19 45.5t-42.5 16.5t-42.5 -16.5t-19 -45.5q0 -110 -42.5 -168.5t-120.5 -58.5h-451q-78 0 -121 59t-43 168v733q3 228 164 228h451q77 0 120 -60.5t43 -167.5q0 -29 19 -45.5t42.5 -16.5t42.5 16.5 t19 45.5q0 140 -82 245.5t-204 105.5h-451q-123 0 -204 -102t-83 -249v-733z" />
<glyph unicode="D" horiz-adv-x="1351" d="M143 61q0 -26 18 -43.5t44 -17.5h676q122 0 204 103t82 247v733q0 140 -82 245.5t-204 105.5h-676q-26 0 -44 -18t-18 -44v-1311zM266 123v1188h615q77 0 120 -60.5t43 -167.5v-733q0 -110 -42.5 -168.5t-120.5 -58.5h-615z" />
<glyph unicode="E" horiz-adv-x="1351" d="M143 61q0 -26 18 -43.5t44 -17.5h901q29 0 45.5 19t16.5 42.5t-16.5 42.5t-45.5 19h-840v532h615q29 0 45.5 19t16.5 42.5t-16.5 42.5t-45.5 19h-615v533h840q29 0 45.5 19t16.5 42.5t-16.5 42.5t-45.5 19h-901q-26 0 -44 -18t-18 -44v-655v-656z" />
<glyph unicode="F" horiz-adv-x="1187" d="M143 61q0 -29 19 -45.5t42.5 -16.5t42.5 16.5t19 45.5v594h494q29 0 45.5 19t16.5 42.5t-16.5 42.5t-45.5 19h-494v533h735q29 0 45.5 19t16.5 42.5t-16.5 42.5t-45.5 19h-796q-26 0 -44 -18t-18 -44v-655v-656z" />
<glyph unicode="G" horiz-adv-x="1351" d="M143 350q0 -142 82.5 -246t204.5 -104h451q122 0 204 103t82 247v367q0 26 -17.5 43.5t-43.5 17.5h-451q-29 0 -45.5 -19t-16.5 -42.5t16.5 -42.5t45.5 -19h389v-305q0 -110 -42.5 -168.5t-120.5 -58.5h-451q-78 0 -121 59t-43 168v733q3 228 164 228h451q77 0 120 -60.5 t43 -167.5q0 -29 19 -45.5t42.5 -16.5t42.5 16.5t19 45.5q0 140 -82 245.5t-204 105.5h-451q-123 0 -204 -102t-83 -249v-733z" />
<glyph unicode="H" horiz-adv-x="1351" d="M143 61q0 -29 19 -45.5t42.5 -16.5t42.5 16.5t19 45.5v594h778v-594q0 -29 19 -45.5t42.5 -16.5t42.5 16.5t19 45.5v656v655q0 29 -19 45.5t-42.5 16.5t-42.5 -16.5t-19 -45.5v-594h-778v594q0 29 -19 45.5t-42.5 16.5t-42.5 -16.5t-19 -45.5v-655v-656z" />
<glyph unicode="I" horiz-adv-x="862" d="M143 61.5q0 -23.5 16.5 -42.5t45.5 -19h207h204q29 0 45.5 19t16.5 42.5t-16.5 42.5t-45.5 19h-143v1188h143q29 0 45.5 19t16.5 42.5t-16.5 42.5t-45.5 19h-204h-207q-29 0 -45.5 -19t-16.5 -42.5t16.5 -42.5t45.5 -19h145v-1188h-145q-29 0 -45.5 -19t-16.5 -42.5z" />
<glyph unicode="J" horiz-adv-x="1167" d="M143 350q0 -139 87.5 -244.5t195.5 -105.5h274q109 0 196 105t87 245v1022q0 29 -19 45.5t-42.5 16.5t-42.5 -16.5t-19 -45.5v-1022q0 -105 -46.5 -166t-113.5 -61h-274q-66 0 -113 62t-47 165q0 29 -19 45.5t-42.5 16.5t-42.5 -16.5t-19 -45.5z" />
<glyph unicode="K" horiz-adv-x="1351" d="M143 61q0 -29 19 -45.5t42.5 -16.5t42.5 16.5t19 45.5v594h138l659 -639q19 -17 42 -17h5q26 2 40.5 20t18 41t-19.5 46l-631 611l631 610q20 19 20 44q-1 27 -19 43q-18 15 -40 20q-4 1 -9 1q-19 0 -38 -18l-659 -639h-138v594q0 29 -19 45.5t-42.5 16.5t-42.5 -16.5 t-19 -45.5v-655v-656z" />
<glyph unicode="L" horiz-adv-x="1167" d="M143 61q0 -26 18 -43.5t44 -17.5h717q29 0 45.5 19t16.5 42.5t-16.5 42.5t-45.5 19h-656v1249q0 29 -19 45.5t-42.5 16.5t-42.5 -16.5t-19 -45.5v-1311z" />
<glyph unicode="M" horiz-adv-x="1617" d="M143 61q0 -29 19 -45.5t42.5 -16.5t42.5 16.5t19 45.5v1022l467 -1046q13 -34 55 -34t56 34l467 1046v-1022q0 -29 19 -45.5t42.5 -16.5t42.5 16.5t19 45.5v1311q0 28 -24 44q-19 12 -40 12q-8 0 -14 -1q-28 -5 -39 -30l-529 -1184l-528 1184q-12 25 -40 30q-7 1 -13 1 q-21 0 -39 -12q-24 -16 -25 -44v-1311z" />
<glyph unicode="N" horiz-adv-x="1351" d="M143 61q0 -29 19 -45.5t42.5 -16.5t42.5 16.5t19 45.5v1113l789 -1147q16 -24 44 -24q11 -1 23 3q44 14 45 55v1311q0 29 -19 45.5t-42.5 16.5t-42.5 -16.5t-19 -45.5v-1112l-788 1147q-16 24 -44 24q-11 0 -24 -4q-45 -14 -45 -55v-1311z" />
<glyph unicode="O" horiz-adv-x="1351" d="M143 350q0 -142 82.5 -246t204.5 -104h451q122 0 204 103t82 247v733q0 140 -82 245.5t-204 105.5h-449q-124 0 -205.5 -102t-83.5 -249v-733zM266 350v733q3 228 166 228h449q77 0 120 -60.5t43 -167.5v-733q0 -110 -42.5 -168.5t-120.5 -58.5h-451q-78 0 -121 59 t-43 168z" />
<glyph unicode="P" horiz-adv-x="1351" d="M143 61q0 -29 19 -45.5t42.5 -16.5t42.5 16.5t19 45.5v594h615q82 0 149.5 62t102 150.5t34.5 176.5q0 101 -35.5 190t-102 144.5t-148.5 55.5h-676q-26 0 -44 -18t-18 -44v-655v-656zM266 778v533h615q75 0 119 -72t44 -195q0 -110 -45.5 -188t-117.5 -78h-615z" />
<glyph unicode="Q" horiz-adv-x="1351" d="M143 350q0 -142 82.5 -246t204.5 -104h451q96 0 158 39l24 -23q20 -17 43 -17h4q26 2 41 20t18 41v5q0 21 -20 41l-26 25q44 83 44 219v733q0 55 -7.5 103t-27.5 94.5t-51 79.5t-82.5 53.5t-117.5 20.5h-449q-124 0 -205.5 -102t-83.5 -249v-733zM266 350v733 q3 228 166 228h449q99 0 131 -52.5t32 -175.5v-733q0 -92 -12 -133l-190 178q-22 19 -47.5 17t-40.5 -20t-18 -41t20 -46l187 -176q-27 -6 -62 -6h-451q-78 0 -121 59t-43 168z" />
<glyph unicode="R" horiz-adv-x="1351" d="M143 61q0 -29 19 -45.5t42.5 -16.5t42.5 16.5t19 45.5v594h615q89 0 126 -55.5t37 -210.5v-328q0 -29 19 -45.5t42.5 -16.5t42.5 16.5t19 45.5v328q0 240 -127 337q59 57 93 145t34 173q0 101 -35.5 190t-102 144.5t-148.5 55.5h-676q-26 0 -44 -18t-18 -44v-655v-656z M266 778v533h615q75 0 119 -72t44 -195q0 -110 -45.5 -188t-117.5 -78h-615z" />
<glyph unicode="S" horiz-adv-x="1351" d="M143 389q0 -159 82 -274t205 -115h451q82 0 148 53.5t102 142.5t36 193q0 190 -79 289.5t-207 99.5h-451q-72 0 -118 77.5t-46 188.5q1 131 44 199t120 68h410q75 0 119.5 -72t44.5 -195q0 -29 19 -45.5t42 -16.5t42 16.5t19 45.5q0 101 -35.5 190t-102 144.5 t-148.5 55.5h-410q-124 0 -204.5 -113.5t-82.5 -276.5q0 -91 35 -179.5t102.5 -149t149.5 -60.5h451q89 0 126 -55.5t37 -210.5q0 -128 -43 -197t-120 -69h-451q-77 0 -120.5 69.5t-43.5 196.5q0 29 -19 45.5t-42.5 16.5t-42.5 -16.5t-19 -45.5z" />
<glyph unicode="T" horiz-adv-x="1208" d="M-1 1372.5q0 -23.5 16.5 -42.5t45.5 -19h390v-1250q0 -29 19 -45.5t42 -16.5t42 16.5t19 45.5v1250h390q29 0 45.5 19t16.5 42.5t-16.5 42.5t-45.5 19h-451h-451q-29 0 -45.5 -19t-16.5 -42.5z" />
<glyph unicode="U" horiz-adv-x="1351" d="M143 350q0 -142 82.5 -246t204.5 -104h451q122 0 204 103t82 247v1022q0 29 -19 45.5t-42.5 16.5t-42.5 -16.5t-19 -45.5v-1022q0 -110 -42.5 -168.5t-120.5 -58.5h-451q-78 0 -121 59t-43 168v1022q0 29 -19 45.5t-42.5 16.5t-42.5 -16.5t-19 -45.5v-1022z" />
<glyph unicode="V" horiz-adv-x="1290" d="M-57 1348l553 -1311q15 -34 57 -34t57 34l553 1311q5 13 5 25q0 13 -6 25q-12 23 -32 32q-11 5 -24 5q-10 1 -21 -3q-24 -8 -36 -35l-496 -1178l-496 1178q-12 27 -36 35q-11 3 -21 3q-12 0 -24 -5q-20 -9 -32 -32q-6 -12 -6 -25q0 -12 5 -25z" />
<glyph unicode="W" horiz-adv-x="1906" d="M-59 1354l419 -1311q12 -38 58 -39h3q44 0 56 37l383 1135l363 -1133q12 -38 58 -39h2q44 0 56 37l441 1311q5 13 5 25q0 21 -16 37q-20 21 -47 21q-5 0 -11 -1q-34 -5 -46 -41l-381 -1135l-362 1133q-12 38 -58 39h-3q-44 0 -56 -37l-383 -1135l-363 1133q-13 37 -47 43 q-7 1 -13 1q-25 1 -45 -19q-16 -16 -17 -39q0 -11 4 -23z" />
<glyph unicode="X" horiz-adv-x="1290" d="M82 47q8 -23 27 -37q14 -12 34 -11q5 1 9 1q26 4 43 27l399 581l399 -581q17 -23 43 -27q5 -1 9 -1q19 -1 34 11q19 14 27 37q3 7 2 15q0 16 -12 34l-427 621l427 620q12 18 12 34q0 8 -2 15q-8 22 -27 37q-15 12 -34 12q-5 -1 -9 -1q-26 -4 -43 -27l-399 -581l-399 581 q-17 23 -43 27q-5 1 -9 1q-20 0 -34 -12q-19 -15 -27 -37q-3 -7 -2 -15q0 -16 12 -34l427 -620l-427 -621q-12 -18 -12 -34q-1 -8 2 -15z" />
<glyph unicode="Y" horiz-adv-x="1146" d="M-62 1374q0 -20 13 -39l469 -638v-636q0 -29 19 -45.5t42.5 -16.5t42.5 16.5t19 45.5v636l469 638q13 19 13 39t-13 34.5t-30 21.5q-9 5 -21 5q-7 0 -15 -2q-20 -5 -33 -24l-432 -588l-432 588q-13 19 -33 24q-7 2 -15 2q-11 0 -21 -5q-16 -7 -29 -21.5t-13 -34.5z" />
<glyph unicode="Z" horiz-adv-x="1310" d="M111 32q18 -32 53 -32h901q29 0 45.5 19t16.5 42.5t-16.5 42.5t-45.5 19h-786l796 1216q11 15 11 32q0 15 -9 30q-18 33 -53 33h-799q-29 0 -45.5 -19t-16.5 -42.5t16.5 -42.5t45.5 -19h684l-796 -1217q-11 -15 -11 -31t9 -31z" />
<glyph unicode="[" horiz-adv-x="628" d="M109 -55q0 -116 56 -203.5t146 -87.5h72q29 0 45.5 19t16.5 42.5t-16.5 42.5t-45.5 19h-72q-80 0 -80 168v1151q0 168 80 168h72q29 0 45.5 19t16.5 42t-16.5 42t-45.5 19h-72q-90 0 -146 -86t-56 -204v-1151z" />
<glyph unicode="\" horiz-adv-x="743" d="M111 1358l327 -1311q6 -23 22 -35.5t34.5 -12t35 8.5t25 26.5t2.5 41.5l-328 1310q-6 23 -22 35.5t-34 12t-34.5 -8t-25 -26t-2.5 -41.5z" />
<glyph unicode="]" horiz-adv-x="628" d="M108 -284.5q0 -23.5 16.5 -42.5t45.5 -19h72q89 0 145.5 87.5t56.5 203.5v1151q0 114 -56.5 202t-145.5 88h-72q-29 0 -45.5 -19t-16.5 -42t16.5 -42t45.5 -19h72q38 0 59 -42.5t21 -125.5v-1151q0 -168 -80 -168h-72q-29 0 -45.5 -19t-16.5 -42.5z" />
<glyph unicode="^" horiz-adv-x="954" d="M109.5 698q4.5 -19 20.5 -29.5t33.5 -13.5t36 7t27.5 32l213 516l211 -516q15 -36 49.5 -39.5t57.5 22.5t8 62l-268 656q-15 35 -57.5 35t-57.5 -35l-270 -656q-8 -22 -3.5 -41z" />
<glyph unicode="_" horiz-adv-x="1060" d="M-17 61.5q0 -23.5 16.5 -42.5t45.5 -19l973 -2q29 0 45.5 19t16.5 42.5t-16.5 42.5t-45.5 19l-973 2q-29 0 -45.5 -19t-16.5 -42.5z" />
<glyph unicode="`" horiz-adv-x="530" d="M111.5 1394q-5.5 -19 1.5 -42l114 -328q8 -22 25.5 -33t35 -8.5t34 12t22 28.5t-1.5 42l-115 328q-8 22 -25 33t-35 8.5t-34 -12t-21.5 -28.5z" />
<glyph unicode="a" d="M61 301q6 -80 42 -150q35 -69 101 -113q58 -38 127 -39q9 0 19 1h285q59 0 107 35q11 -25 40 -33q9 -2 18 -3q20 -1 36 11q24 16 24 51v242v1v1v227v244q0 103 -66 185.5t-159 82.5h-287q-93 0 -159 -82.5t-66 -185.5q0 -29 19 -45.5t42.5 -16.5t42.5 16.5t19 45.5 q0 69 26.5 107.5t75.5 38.5h287q49 0 75.5 -38.5t26.5 -107.5v-182h-389q-115 0 -201 -85.5t-86 -203.5v-4zM184 307q0 77 44 120.5t120 43.5h389v-166q0 -182 -102 -182h-287h-4q-8 -1 -16 -1q-62 0 -98 44q-40 48 -46 141z" />
<glyph unicode="b" d="M123 61q0 -26 17.5 -43.5t43.5 -17.5h451q100 0 162.5 82t62.5 186v506q0 104 -66 187t-159 83h-389v390q0 29 -19 45.5t-42.5 16.5t-42.5 -16.5t-19 -45.5v-451v-922zM246 123v799h389q49 0 75.5 -38.5t26.5 -109.5v-506q0 -73 -24.5 -109t-77.5 -36h-389z" />
<glyph unicode="c" d="M123 266q0 -102 62.5 -184t162.5 -82h289q99 0 161 82t62 186q0 29 -19 45.5t-42.5 16.5t-42.5 -16.5t-19 -45.5q0 -145 -100 -145h-289q-102 0 -102 143v510q0 70 26.5 108t77.5 38h285q49 0 75.5 -38.5t26.5 -109.5q0 -29 19 -45.5t42.5 -16.5t42.5 16.5t19 45.5 q0 104 -66 187t-159 83h-285q-94 0 -160.5 -82.5t-66.5 -185.5v-510z" />
<glyph unicode="d" d="M123 268q0 -104 62.5 -186t164.5 -82h449q26 0 43.5 17.5t17.5 43.5v922v451q0 29 -19 45.5t-42.5 16.5t-42.5 -16.5t-19 -45.5v-390h-389q-93 0 -159 -83t-66 -187v-506zM246 268v506q0 71 26.5 109.5t75.5 38.5h389v-799h-387q-55 0 -79.5 36t-24.5 109z" />
<glyph unicode="e" horiz-adv-x="1073" d="M123 266q0 -104 64 -185t169 -81h303q102 0 166 81.5t64 186.5q0 29 -19 45.5t-42.5 16.5t-42.5 -16.5t-19 -45.5q0 -145 -107 -145h-303q-110 0 -110 143v193h581q26 0 44 17.5t18 43.5v254q0 104 -68 187t-164 83h-301q-97 0 -165 -82.5t-68 -185.5v-256v-254zM246 582 v194q0 70 28 108t82 38h301q52 0 80.5 -38.5t28.5 -109.5v-192h-520z" />
<glyph unicode="f" horiz-adv-x="702" d="M81 983q0 -23 16.5 -42t45.5 -19h31v-861q0 -29 19 -45.5t42.5 -16.5t42.5 16.5t19 45.5v861h160q29 0 45.5 19t16.5 42t-16.5 42t-45.5 19h-160v132q0 99 26.5 147.5t71.5 48.5h123q29 0 45.5 19t16.5 42.5t-16.5 42.5t-45.5 19h-123q-90 0 -155.5 -93.5t-65.5 -225.5 v-132h-31q-29 0 -45.5 -19t-16.5 -42z" />
<glyph unicode="g" d="M123 266q0 -102 62.5 -184t162.5 -82h389v-150q0 -61 -28 -104t-74 -43h-285q-29 0 -45.5 -19t-16.5 -42.5t16.5 -42.5t45.5 -19h285q65 0 118.5 45t80 106t26.5 119v211v922q0 26 -17.5 43.5t-43.5 17.5h-449q-94 0 -160.5 -82.5t-66.5 -185.5v-510zM246 266v510 q0 70 26.5 108t77.5 38h387v-799h-389q-102 0 -102 143z" />
<glyph unicode="h" d="M123 61q0 -29 19 -45.5t42.5 -16.5t42.5 16.5t19 45.5v713q0 71 26.5 109.5t75.5 38.5h287q49 0 75.5 -38.5t26.5 -107.5v-715q0 -29 19 -45.5t42.5 -16.5t42.5 16.5t19 45.5v715q0 103 -66 185.5t-159 82.5h-287q-54 0 -102 -31v421q0 29 -19 45.5t-42.5 16.5 t-42.5 -16.5t-19 -45.5v-660v-713z" />
<glyph unicode="i" horiz-adv-x="448" d="M133 61q0 -29 19 -45.5t42.5 -16.5t42.5 16.5t19 45.5v922q0 29 -19 45.5t-42.5 16.5t-42.5 -16.5t-19 -45.5v-922zM135 1331.5q0 -23.5 16.5 -42.5t45.5 -19h2q29 0 45.5 19t16.5 42.5t-16.5 42.5t-45.5 19h-2q-29 0 -45.5 -19t-16.5 -42.5z" />
<glyph unicode="j" horiz-adv-x="477" d="M1 -358.5q0 -23.5 16.5 -42.5t45.5 -19q89 0 159.5 85t70.5 175v1143q0 29 -19 45.5t-42.5 16.5t-42.5 -16.5t-19 -45.5v-1143q0 -56 -31 -96.5t-76 -40.5q-29 0 -45.5 -19t-16.5 -42.5zM169 1331.5q0 -23.5 16.5 -42.5t45.5 -19h2q29 0 45.5 19t16.5 42.5t-16.5 42.5 t-45.5 19h-2q-29 0 -45.5 -19t-16.5 -42.5z" />
<glyph unicode="k" d="M123 61q0 -29 19 -45.5t42.5 -16.5t42.5 16.5t19 45.5v398h79l431 -441q16 -18 36 -20h8q16 0 28 8q16 10 25 25q8 12 8 28q-1 3 -1 7q-2 20 -18 38l-406 416l408 420q17 19 17 42q0 28 -20 45q-18 15 -41 18.5t-46 -19.5l-431 -444h-77v852q0 29 -19 45.5t-42.5 16.5 t-42.5 -16.5t-19 -45.5v-914v-459z" />
<glyph unicode="l" horiz-adv-x="595" d="M123 266q0 -107 67 -186.5t160 -79.5q29 0 45.5 19t16.5 42.5t-16.5 42.5t-45.5 19q-104 0 -104 143v1168q0 29 -19 45.5t-42.5 16.5t-42.5 -16.5t-19 -45.5v-1168z" />
<glyph unicode="m" horiz-adv-x="1654" d="M123 61q0 -29 19 -45.5t42.5 -16.5t42.5 16.5t19 45.5v715q0 68 41 107t121 39h94h80q72 0 112.5 -37.5t40.5 -108.5v-715q0 -29 19 -45t44 -16t43.5 16t18.5 45l-2 715q0 76 32.5 111t110.5 35h93h92q79 0 120.5 -38t41.5 -108v-715q0 -29 19 -45.5t42 -16.5t42 16.5 t19 45.5v715q0 109 -83.5 188.5t-200.5 79.5h-92h-93q-133 0 -209 -97q-40 45 -95.5 71t-114.5 26h-80h-94q-119 0 -202 -81.5t-83 -186.5v-715z" />
<glyph unicode="n" d="M123 61q0 -29 19 -45.5t42.5 -16.5t42.5 16.5t19 45.5v713q0 71 26.5 109.5t75.5 38.5h287q49 0 75.5 -38.5t26.5 -107.5v-715q0 -29 19 -45.5t42.5 -16.5t42.5 16.5t19 45.5v715q0 103 -66 185.5t-159 82.5h-287q-93 0 -159 -83t-66 -187v-713z" />
<glyph unicode="o" d="M123 268q0 -104 62.5 -186t162.5 -82h287q100 0 162.5 82t62.5 186v508q0 103 -66 185.5t-159 82.5h-287q-93 0 -159 -82.5t-66 -185.5v-508zM246 268v508q0 69 26.5 107.5t75.5 38.5h287q49 0 75.5 -38.5t26.5 -107.5v-508q0 -73 -24.5 -109t-77.5 -36h-287 q-53 0 -77.5 36t-24.5 109z" />
<glyph unicode="p" d="M123 61v-419q0 -29 19 -45.5t42.5 -16.5t42.5 16.5t19 45.5v358h389q100 0 162.5 82t62.5 186v508q0 103 -66 185.5t-159 82.5h-451q-26 0 -43.5 -17.5t-17.5 -43.5v-922zM246 123v799h389q49 0 75.5 -38.5t26.5 -107.5v-508q0 -73 -24.5 -109t-77.5 -36h-389z" />
<glyph unicode="q" d="M123 266q0 -102 62.5 -184t162.5 -82h389v-358q0 -29 19 -45.5t42.5 -16.5t42.5 16.5t19 45.5v419v922q0 26 -17.5 43.5t-43.5 17.5h-449q-94 0 -160.5 -82.5t-66.5 -185.5v-510zM246 266v510q0 70 26.5 108t77.5 38h387v-799h-389q-102 0 -102 143z" />
<glyph unicode="r" horiz-adv-x="782" d="M123 61q0 -29 19 -45.5t42.5 -16.5t42.5 16.5t19 45.5v715q0 67 32 106.5t82 39.5h258q29 0 45.5 19t16.5 42t-16.5 42t-45.5 19h-258q-92 0 -164.5 -83t-72.5 -185v-715z" />
<glyph unicode="s" d="M123 268q0 -104 62.5 -186t162.5 -82h287q100 0 162.5 82t62.5 186v11q0 121 -61 211q-64 94 -164 94h-285q-52 1 -80 52q-25 46 -24 121v17v2q0 70 26.5 108t77.5 38h244q49 0 75.5 -38.5t26.5 -107.5q0 -29 19 -45.5t42.5 -16.5t42.5 16.5t19 45.5q0 103 -66 185.5 t-159 82.5h-244q-94 0 -160.5 -82.5t-66.5 -185.5v-11q0 -67 24 -133q26 -70 79 -119t120 -52h2h287q102 0 102 -171v-20v-2q0 -73 -24.5 -109t-77.5 -36h-287q-53 0 -77.5 36t-24.5 109q0 29 -19 45.5t-42.5 16.5t-42.5 -16.5t-19 -45.5z" />
<glyph unicode="t" horiz-adv-x="651" d="M81 983q0 -23 16.5 -42t45.5 -19h19v-656q0 -62 21.5 -121t68 -102t108.5 -43h107q29 0 45.5 19t16.5 42.5t-16.5 42.5t-45.5 19h-107q-75 0 -75 143v656h121q29 0 45.5 19t16.5 42t-16.5 42t-45.5 19h-121v390q0 29 -19 45.5t-42.5 16.5t-42.5 -16.5t-19 -45.5v-390h-19 q-29 0 -45.5 -19t-16.5 -42z" />
<glyph unicode="u" d="M123 266q0 -102 62.5 -184t162.5 -82h289q99 0 161 82t62 186v715q0 29 -19 45.5t-42.5 16.5t-42.5 -16.5t-19 -45.5v-715q0 -145 -100 -145h-289q-102 0 -102 143v717q0 29 -19 45.5t-42.5 16.5t-42.5 -16.5t-19 -45.5v-717z" />
<glyph unicode="v" horiz-adv-x="1015" d="M47 961l354 -922q14 -35 57.5 -35t57.5 35l352 922q5 14 5 26q0 20 -14 37q-20 23 -48 23q-4 0 -9 -1q-34 -4 -48 -40l-295 -773l-297 773q-14 36 -48 40q-5 1 -9 1q-29 0 -49 -23q-15 -16 -14 -37q0 -12 5 -26z" />
<glyph unicode="w" horiz-adv-x="1488" d="M31 965l301 -922q8 -25 34 -35q13 -5 26 -4l26 4q26 10 33 35l221 727l215 -727q7 -25 33 -35q13 -5 26 -4l26 4q26 10 34 35l297 922q4 12 4 23q-1 22 -17 38q-20 19 -45 19q-5 0 -13 -1q-34 -6 -48 -43l-236 -733l-217 733q-8 25 -33.5 34.5t-51.5 0t-34 -34.5 l-223 -735l-239 735q-14 37 -48 43q-7 1 -13 1q-25 0 -45 -19q-16 -16 -17 -38q0 -11 4 -23z" />
<glyph unicode="x" horiz-adv-x="1028" d="M67 57q0 -20 13 -33.5t29 -20.5q9 -4 18 -4q8 0 18 3q20 6 33 25l278 391l277 -391q13 -19 33 -25q9 -3 18 -3q10 0 18 4q16 7 29 20.5t13 33.5t-13 39l-301 426l301 426q13 19 13 39t-13 34t-29 21q-9 4 -18 4q-8 0 -18 -3q-20 -6 -33 -25l-277 -392l-278 392 q-13 19 -33 25q-9 3 -18 3q-10 0 -18 -4q-16 -7 -29 -21t-13 -34t13 -39l302 -426l-302 -426q-13 -19 -13 -39z" />
<glyph unicode="y" d="M122 -358.5q0 -23.5 16.5 -42.5t45.5 -19h82q59 0 115 67.5t97.5 167.5t74.5 230l303 920q4 11 4 22q0 25 -19 41.5t-43 16.5q-42 0 -57 -44l-247 -745l-252 748q-12 36 -46 41q-6 1 -11 1q-27 0 -47 -21q-16 -16 -16 -37q0 -12 5 -25l303 -903q-43 -167 -87 -262 t-77 -95h-82q-29 0 -45.5 -19t-16.5 -42.5z" />
<glyph unicode="z" horiz-adv-x="1003" d="M70 34q18 -34 53 -34h635q29 0 45.5 19t16.5 42.5t-16.5 42.5t-45.5 19h-520l546 825q11 15 11 32q0 14 -9 30q-18 34 -53 34h-569q-29 0 -45.5 -19t-16.5 -42t16.5 -42t45.5 -19h454l-546 -826q-11 -15 -11 -32q0 -14 9 -30z" />
<glyph unicode="{" horiz-adv-x="716" d="M1.5 516q1.5 -32 27.5 -47q176 -110 176 -352q0 -195 43.5 -329t122.5 -134h100q29 0 45.5 19t16.5 42.5t-16.5 42.5t-45.5 19h-100q-9 0 -18.5 36t-17 117t-7.5 187q0 74 -16.5 143t-38 114t-46.5 82t-39.5 52t-19.5 18l1 1q11 11 23 23.5t39 51t46 80t35 107t16 133.5 q0 102 8 184.5t17.5 120t17.5 37.5h100q29 0 45.5 19t16.5 42t-16.5 42t-45.5 19h-100q-54 0 -92.5 -68.5t-56 -171.5t-17.5 -224q0 -70 -16.5 -129t-48 -102.5t-56.5 -69.5t-61 -54q-23 -19 -21.5 -51z" />
<glyph unicode="|" horiz-adv-x="579" d="M127 -285q0 -29 19 -45.5t42.5 -16.5t42.5 16.5t19 45.5v1610q0 29 -19 45.5t-42.5 16.5t-42.5 -16.5t-19 -45.5v-1610z" />
<glyph unicode="}" horiz-adv-x="716" d="M-1 -284.5q0 -23.5 16.5 -42.5t45.5 -19h105q75 0 118.5 134t43.5 329q0 49 7 88.5t16.5 65.5t30 55.5t36 46.5t48 50t52.5 56q15 19 15 41t-15 41q-20 23 -52 56t-48 50.5t-37 47t-31 55.5t-16.5 64.5t-5.5 85.5q2 125 -16 230t-56.5 170.5t-89.5 65.5h-105 q-29 0 -45.5 -19t-16.5 -42t16.5 -42t45.5 -19h105q7 0 16.5 -36t17 -118.5t5.5 -185.5q-1 -78 11 -139.5t36 -103.5t44.5 -67t51.5 -54t41 -40q-10 -12 -40 -39t-50.5 -51.5t-44.5 -66t-36.5 -104t-12.5 -142.5q0 -106 -8 -188.5t-16.5 -117t-14.5 -34.5h-105 q-29 0 -45.5 -19t-16.5 -42.5z" />
<glyph unicode="~" horiz-adv-x="1159" d="M109 606q0 -29 19 -45.5t42 -16.5t42 16.5t19 45.5q0 69 33 110.5t92 41.5q34 0 62 -21.5t52.5 -53t55 -62.5t82.5 -53t121 -23q102 -1 174 86t72 188q0 29 -19 45.5t-42.5 16.5t-42.5 -16.5t-19 -45.5q0 -69 -32.5 -110.5t-88.5 -40.5h-2q-34 1 -62 23t-52.5 53 t-55 62.5t-82.5 53t-121 21.5q-102 0 -174.5 -86t-72.5 -189z" />
<glyph unicode="&#xad;" horiz-adv-x="868" d="M108 716.5q0 -23.5 16.5 -42.5t45.5 -19h453q29 0 45.5 19t16.5 42.5t-16.5 42.5t-45.5 19h-453q-29 0 -45.5 -19t-16.5 -42.5z" />
<glyph unicode="&#x2000;" horiz-adv-x="748" />
<glyph unicode="&#x2001;" horiz-adv-x="1496" />
<glyph unicode="&#x2002;" horiz-adv-x="748" />
<glyph unicode="&#x2003;" horiz-adv-x="1496" />
<glyph unicode="&#x2004;" horiz-adv-x="498" />
<glyph unicode="&#x2005;" horiz-adv-x="374" />
<glyph unicode="&#x2006;" horiz-adv-x="249" />
<glyph unicode="&#x2007;" horiz-adv-x="249" />
<glyph unicode="&#x2008;" horiz-adv-x="187" />
<glyph unicode="&#x2009;" horiz-adv-x="299" />
<glyph unicode="&#x200a;" horiz-adv-x="83" />
<glyph unicode="&#x2010;" horiz-adv-x="868" d="M108 716.5q0 -23.5 16.5 -42.5t45.5 -19h453q29 0 45.5 19t16.5 42.5t-16.5 42.5t-45.5 19h-453q-29 0 -45.5 -19t-16.5 -42.5z" />
<glyph unicode="&#x2011;" horiz-adv-x="868" d="M108 716.5q0 -23.5 16.5 -42.5t45.5 -19h453q29 0 45.5 19t16.5 42.5t-16.5 42.5t-45.5 19h-453q-29 0 -45.5 -19t-16.5 -42.5z" />
<glyph unicode="&#x2012;" horiz-adv-x="868" d="M108 716.5q0 -23.5 16.5 -42.5t45.5 -19h453q29 0 45.5 19t16.5 42.5t-16.5 42.5t-45.5 19h-453q-29 0 -45.5 -19t-16.5 -42.5z" />
<glyph unicode="&#x2013;" horiz-adv-x="1315" d="M108 716.5q0 -23.5 29.5 -42.5t80.5 -19h804q51 0 80.5 19t29.5 42.5t-29.5 42.5t-80.5 19h-804q-51 0 -80.5 -19t-29.5 -42.5z" />
<glyph unicode="&#x2014;" horiz-adv-x="2339" d="M108 716.5q0 -23.5 58.5 -42.5t161.5 -19h1608q103 0 161.5 19t58.5 42.5t-58.5 42.5t-161.5 19h-1608q-103 0 -161.5 -19t-58.5 -42.5z" />
<glyph unicode="&#x202f;" horiz-adv-x="299" />
<glyph unicode="&#x205f;" horiz-adv-x="374" />
<glyph unicode="&#x25fc;" d="M0 0v1044h1044v-1044h-1044z" />
</font>
</defs>
</svg>
