<?xml version="1.0" standalone="no"?>
<!DOCTYPE svg PUBLIC "-//W3C//DTD SVG 1.1//EN" "http://www.w3.org/Graphics/SVG/1.1/DTD/svg11.dtd" >
<svg xmlns="http://www.w3.org/2000/svg">
<metadata></metadata>
<defs>
<font id="rodussquare100thin" horiz-adv-x="1232" >
<font-face units-per-em="2048" ascent="1638" descent="-410" />
<missing-glyph horiz-adv-x="500" />
<glyph horiz-adv-x="0" />
<glyph unicode="&#xd;" horiz-adv-x="2048" />
<glyph unicode="!" horiz-adv-x="507" d="M172 0h21h2h20v41h-20h-2h-21v-41zM172 348h41v21v1044v21h-41v-21v-1044v-21z" />
<glyph unicode="&#x22;" horiz-adv-x="573" d="M102 1044h41v21v348v21h-41v-21v-348v-21zM348 1044h41v21v348v21h-41v-21v-348v-21z" />
<glyph unicode="#" horiz-adv-x="1208" d="M-8 0h43l4 14l118 334h450l-113 -321l-11 -27h43l4 14l118 334h356h20v41h-20h-341l231 655h110h20v41h-20h-96l114 322l10 27h-43l-4 -15l-118 -334h-450l113 322l11 27h-43l-4 -15l-118 -334h-356h-20v-41h20h341l-231 -655h-110h-20v-41h20h96l-114 -321zM171 389 l231 655h451l-231 -655h-451z" />
<glyph unicode="$" horiz-adv-x="1021" d="M27 967q0 -305 276 -305h150v-562h-324h-20v-41h20h324v-153v-21h41v21v153h153q128 0 202.5 78.5t74.5 243.5t-74.5 243t-202.5 78h-153v527h323h21v41h-21h-323v188v21h-41v-21v-188h-150q-129 0 -202.5 -72t-73.5 -231zM68 967q0 145 59 203.5t176 58.5h150v-527h-150 q-117 0 -176 59t-59 206zM494 100v562h153q116 0 176 -64.5t60 -216.5q0 -150 -60.5 -215.5t-175.5 -65.5h-153z" />
<glyph unicode="%" horiz-adv-x="1316" d="M90 0h49l6 8l983 1393l23 33h-49l-6 -9l-983 -1392zM109 1065q0 -156 74.5 -262.5t191.5 -106.5t191.5 106t74.5 263t-74.5 263t-191.5 106t-191.5 -106.5t-74.5 -262.5zM150 1065q0 146 61.5 237t163.5 91t163.5 -90.5t61.5 -237.5t-61.5 -237.5t-163.5 -90.5t-163.5 91 t-61.5 237zM600 369q0 -99 32.5 -182.5t94 -134.5t139.5 -52q116 -1 191.5 109t75.5 260q0 97 -33 180.5t-94.5 135.5t-139.5 52q-117 0 -191.5 -108t-74.5 -260zM641 369q0 140 62.5 233.5t162.5 93.5q99 0 162.5 -94.5t63.5 -232.5t-63.5 -233.5t-162.5 -94.5 q-100 1 -162.5 94.5t-62.5 233.5z" />
<glyph unicode="&#x26;" horiz-adv-x="1363" d="M109 473q-39 -184 28.5 -314.5t190.5 -158.5q105 -24 198 7t199 110l115 86l69 -82q50 -60 123 -90.5t127 -30.5h21v41h-21q-49 0 -110.5 26t-106.5 78l-69 83l298 225l17 12l-25 33l-16 -13l-301 -226l-486 580q53 72 73 101t54.5 83t48 90t13.5 67q1 121 -59 187.5 t-156 66.5q-97 0 -160.5 -62t-64.5 -172q-1 -43 9.5 -82t34.5 -78.5t42.5 -64.5t57 -70.5t54.5 -66.5q-169 -234 -198 -365zM150 465q26 122 185 340l479 -570l-114 -85q-102 -74 -185 -102.5t-179 -6.5q-110 25 -166 138t-20 286zM150 1200q1 96 50.5 144.5t133.5 48.5 q83 0 129 -52t45 -161q0 -34 -30 -90.5t-55.5 -93t-90.5 -124.5q-12 14 -53.5 63.5t-54 67.5t-36 56t-31.5 71t-7 70z" />
<glyph unicode="'" horiz-adv-x="389" d="M74 1044h41v21v348v21h-41v-21v-348v-21z" />
<glyph unicode="(" horiz-adv-x="628" d="M109 520q0 -233 76 -455.5t223 -402.5l6 -8h53l-27 33q-144 177 -217 391.5t-73 441.5t73 442t217 392l27 32h-53l-6 -8q-147 -180 -223 -402.5t-76 -455.5z" />
<glyph unicode=")" horiz-adv-x="628" d="M80 -346h57l6 6q69 71 123 161t87 178t54 184t29 177t8 160t-8 160t-29 177t-54 184t-87 178t-123 161l-6 6h-57l35 -34q82 -85 141.5 -194.5t90 -223t43.5 -214.5t13 -200t-13 -200t-43.5 -214t-90 -222.5t-141.5 -194.5z" />
<glyph unicode="*" horiz-adv-x="923" d="M102 997l19 -34l16 8l266 134v-265v-21h41v21v265l267 -134l16 -8l18 34l-18 11l-258 130l258 130l18 10l-18 35l-16 -8l-267 -134v265v20h-41v-20v-265l-266 134l-16 8l-19 -35l19 -10l258 -130l-258 -130z" />
<glyph unicode="+" horiz-adv-x="1120" d="M109 696h20h373v-377v-20h41v20v377h372h21v41h-21h-372v377v21h-41v-21v-377h-373h-20v-41z" />
<glyph unicode="," horiz-adv-x="432" d="M98 -154h45l4 13l99 247l12 29h-45l-4 -12l-98 -248z" />
<glyph unicode="-" horiz-adv-x="868" d="M109 696h20h535h20v41h-20h-535h-20v-41z" />
<glyph unicode="." horiz-adv-x="430" d="M158 0h20h2h21v41h-21h-2h-20v-41z" />
<glyph unicode="/" horiz-adv-x="796" d="M100 0h43l4 14l463 1393l11 27h-43l-5 -15l-462 -1392z" />
<glyph unicode="0" horiz-adv-x="1363" d="M94 328q0 -139 79.5 -233.5t203.5 -94.5h522q123 0 202 93.5t79 234.5v778q0 139 -79 233.5t-202 94.5h-520q-126 0 -204.5 -92t-80.5 -236v-778zM135 328v778q2 131 67 209t177 78h520q108 0 174 -79.5t66 -207.5v-778q0 -128 -66 -207.5t-174 -79.5h-522 q-110 0 -176 79.5t-66 207.5z" />
<glyph unicode="1" horiz-adv-x="1071" d="M76 850h49l6 8l340 490v-1307h-356h-21v-41h21h356h41h354h21v41h-21h-354v1372v21h-31l-6 -9l-377 -542z" />
<glyph unicode="2" horiz-adv-x="1363" d="M94 0h21h1044h21v41h-21h-1024v287q0 171 65.5 270.5t176.5 97.5h522q81 0 146.5 58t100 151t34.5 201q0 139 -79 233.5t-202 94.5h-520q-126 0 -204.5 -92t-80.5 -236v-21h41v21q2 131 67 209t177 78h520q108 0 174 -79.5t66 -207.5q0 -155 -67.5 -262t-172.5 -107h-522 q-126 1 -204.5 -113t-78.5 -296v-308v-20z" />
<glyph unicode="3" horiz-adv-x="1363" d="M94 0h21h784q125 0 203 124.5t78 315.5q0 196 -78 322t-203 125h-457l729 510l9 6v31h-21h-1044h-21v-41h21h979l-729 -510l-9 -6v-31h21h522q107 2 173.5 -110t66.5 -296q0 -180 -66.5 -289.5t-173.5 -109.5h-784h-21v-41z" />
<glyph unicode="4" horiz-adv-x="1345" d="M4 307h25h20h959v-287v-20h41v20v287h153h21v41h-21h-153v1065v21h-29l-6 -7l-979 -1085zM94 348l914 1012v-1012h-914z" />
<glyph unicode="5" horiz-adv-x="1363" d="M94 328q0 -139 79.5 -233.5t203.5 -94.5h522q123 0 202 93.5t79 234.5v348q0 106 -37.5 200.5t-102.5 151.5t-141 57h-522h-180v310h888h21v41h-21h-909h-20v-21v-350v-21h20h201h522q101 0 170.5 -107.5t69.5 -260.5v-348q0 -128 -66 -207.5t-174 -79.5h-522 q-110 0 -176 79.5t-66 207.5v20h-41v-20z" />
<glyph unicode="6" horiz-adv-x="1363" d="M94 328q0 -139 79.5 -233.5t203.5 -94.5h522q123 0 202 93.5t79 234.5q0 217 -78 354.5t-203 136.5h-764v287q2 131 67 209t175 78h522q108 0 174 -79.5t66 -207.5v-21h41v21q0 139 -79 233.5t-202 94.5h-522q-125 0 -203 -92t-80 -236v-287v-41v-450zM135 328v450h764 q108 2 174 -121.5t66 -328.5q0 -128 -66 -207.5t-174 -79.5h-522q-110 0 -176 79.5t-66 207.5z" />
<glyph unicode="7" horiz-adv-x="1363" d="M94 1393h21h1015l-512 -1364l-10 -29h43l4 12l523 1393l10 29h-8h-21h-1044h-21v-41z" />
<glyph unicode="8" horiz-adv-x="1363" d="M94 328q0 -139 79.5 -233.5t203.5 -94.5h522q123 0 202 93.5t79 234.5t-50.5 246t-135.5 144q85 40 135.5 141.5t50.5 225.5q0 148 -79 248.5t-202 100.5h-520q-126 0 -204.5 -98.5t-80.5 -250.5q0 -126 50.5 -226.5t135.5 -140.5q-86 -38 -136 -142.5t-50 -247.5z M135 328q0 170 64.5 269t174.5 99h3h522h3q108 0 172.5 -100t64.5 -268q0 -128 -66 -207.5t-174 -79.5h-522q-110 0 -176 79.5t-66 207.5zM135 1085q2 142 67 225t177 83h520q108 0 174 -85.5t66 -222.5q0 -147 -67 -247.5t-173 -100.5h-522q-107 0 -174.5 99t-67.5 249z " />
<glyph unicode="9" horiz-adv-x="1363" d="M94 328q0 -139 79.5 -233.5t203.5 -94.5h522q123 0 202 93.5t79 234.5v368v41v369q0 139 -79 233.5t-202 94.5h-522q-125 0 -203 -92t-80 -236q0 -111 35 -204t100 -149.5t148 -56.5h762v-368q0 -128 -66 -207.5t-174 -79.5h-522q-110 0 -176 79.5t-66 207.5v20h-41v-20z M135 1106q2 131 67 209t175 78h522q108 0 174 -79.5t66 -207.5v-369h-762q-107 0 -174.5 105t-67.5 264z" />
<glyph unicode=":" horiz-adv-x="518" d="M201 0h20h2h21v41h-21h-2h-20v-41zM201 879h20h2h21v41h-21h-2h-20v-41z" />
<glyph unicode=";" horiz-adv-x="411" d="M78 -154h45l4 13l98 247l13 29h-45l-5 -12l-98 -248zM137 891h21h2h20v41h-20h-2h-21v-41z" />
<glyph unicode="&#x3c;" horiz-adv-x="1171" d="M109 702l12 -4l837 -348l29 -12v45l-12 4l-793 330l793 330l12 4v45l-29 -13l-837 -348l-12 -4v-29z" />
<glyph unicode="=" horiz-adv-x="1171" d="M109 498h20h838h20v41h-20h-838h-20v-41zM109 895h20h838h20v41h-20h-838h-20v-41z" />
<glyph unicode="&#x3e;" horiz-adv-x="1171" d="M109 338l28 12l838 348l12 4v29l-12 4l-838 348l-28 13v-45l12 -4l792 -330l-792 -330l-12 -4v-45z" />
<glyph unicode="?" horiz-adv-x="1046" d="M109 1085h41v21q2 132 45 209.5t116 77.5h355q69 0 112 -80.5t43 -206.5v-195q0 -165 -39.5 -233t-115.5 -68h-84q-48 0 -82.5 -74t-34.5 -161v-21h41v21q0 75 24 134.5t52 59.5h84q89 0 142.5 82.5t53.5 259.5v195q0 136 -55 232t-141 96h-355q-91 0 -145.5 -92 t-56.5 -236v-21zM465 0h20h2h21v41h-21h-2h-20v-41z" />
<glyph unicode="A" horiz-adv-x="1691" d="M-35 0h47l6 10l179 319v-22h20h1108h21v37l184 -334l6 -10h47l-16 31l-770 1392l-6 11h-25l-6 -11l-778 -1392zM207 348l571 1022l565 -1022h-18h-1108h-10z" />
<glyph unicode="B" horiz-adv-x="1597" d="M143 0h21h923q144 0 235 104.5t91 264.5q0 290 -209 353q94 42 151.5 140t57.5 203q0 155 -92 262t-234 107h-923h-21v-21v-676v-41v-676v-20zM184 41v655h903q140 0 212.5 -75.5t72.5 -251.5q0 -147 -78 -237.5t-207 -90.5h-903zM184 737v656h903q127 0 206 -93t79 -235 q0 -82 -34.5 -156.5t-101 -123t-149.5 -48.5h-903z" />
<glyph unicode="C" horiz-adv-x="1617" d="M143 328q0 -140 94 -234t240 -94h625q145 0 238.5 93.5t93.5 234.5v20h-41v-20q0 -128 -79.5 -207.5t-211.5 -79.5h-625q-133 0 -213 79.5t-80 207.5v778q2 131 80.5 209t212.5 78h625q131 0 211 -81t80 -206v-21h41v21q0 137 -94 232.5t-238 95.5h-625 q-147 0 -239.5 -92.5t-94.5 -235.5v-778z" />
<glyph unicode="D" horiz-adv-x="1617" d="M143 0h21h938q145 0 238.5 93.5t93.5 234.5v778q0 137 -94 232.5t-238 95.5h-938h-21v-21v-1393v-20zM184 41v1352h918q131 0 211 -81t80 -206v-778q0 -128 -79.5 -207.5t-211.5 -79.5h-918z" />
<glyph unicode="E" horiz-adv-x="1617" d="M143 0h21h1249h21v41h-21h-1229v655h918h20v41h-20h-918v656h1229h21v41h-21h-1249h-21v-21v-676v-41v-676v-20z" />
<glyph unicode="F" horiz-adv-x="1413" d="M143 0h41v20v676h766h21v41h-21h-766v656h1084h20v41h-20h-1104h-21v-21v-676v-41v-676v-20z" />
<glyph unicode="G" horiz-adv-x="1617" d="M143 328q0 -140 94 -234t240 -94h625q145 0 238.5 93.5t93.5 234.5v389v20h-21h-625h-20v-41h20h605v-368q0 -128 -79.5 -207.5t-211.5 -79.5h-625q-133 0 -213 79.5t-80 207.5v778q2 131 80.5 209t212.5 78h625q131 0 211 -81t80 -206v-21h41v21q0 137 -94 232.5 t-238 95.5h-625q-147 0 -239.5 -92.5t-94.5 -235.5v-778z" />
<glyph unicode="H" horiz-adv-x="1617" d="M143 0h41v20v676h1209v-676v-20h41v20v676v41v676v21h-41v-21v-676h-1209v676v21h-41v-21v-676v-41v-676v-20z" />
<glyph unicode="I" horiz-adv-x="1005" d="M143 0h21h299h41h297h20v41h-20h-297v1352h297h20v41h-20h-297h-41h-299h-21v-41h21h299v-1352h-299h-21v-41z" />
<glyph unicode="J" horiz-adv-x="1382" d="M143 328q0 -136 102 -232t230 -96h391q130 0 231 95.5t101 232.5v1085v21h-41v-21v-1085q0 -123 -87 -205t-204 -82h-391q-116 0 -203.5 83t-87.5 204v20h-41v-20z" />
<glyph unicode="K" horiz-adv-x="1617" d="M143 0h41v20v676h286l931 -692l6 -4h68l-50 37l-913 680l913 680l50 37h-68l-6 -4l-931 -693h-286v676v21h-41v-21v-676v-41v-676v-20z" />
<glyph unicode="L" horiz-adv-x="1382" d="M143 0h21h1014h20v41h-20h-994v1372v21h-41v-21v-1393v-20z" />
<glyph unicode="M" horiz-adv-x="1953" d="M143 0h41v20v1315l754 -1325l6 -10h25l6 10l754 1325v-1315v-20h40v20v1393v21h-32l-6 -11l-775 -1362l-774 1362l-6 11h-33v-21v-1393v-20z" />
<glyph unicode="N" horiz-adv-x="1617" d="M143 0h41v20v1340l1215 -1354l6 -6h29v20v1393v21h-41v-21v-1339l-1215 1353l-6 7h-29v-21v-1393v-20z" />
<glyph unicode="O" horiz-adv-x="1617" d="M143 328q0 -140 94 -234t240 -94h625q145 0 238.5 93.5t93.5 234.5v778q0 137 -94 232.5t-238 95.5h-623q-148 0 -241 -92t-95 -236v-778zM184 328v778q2 131 80.5 209t214.5 78h623q131 0 211 -81t80 -206v-778q0 -128 -79.5 -207.5t-211.5 -79.5h-625q-133 0 -213 79.5 t-80 207.5z" />
<glyph unicode="P" horiz-adv-x="1617" d="M143 0h41v20v676h918q94 0 172 56.5t119 140.5t41 172q0 155 -93.5 262t-238.5 107h-938h-21v-21v-676v-41v-676v-20zM184 737v656h918q130 0 210.5 -93t80.5 -235q0 -82 -35 -156.5t-103 -123t-153 -48.5h-918z" />
<glyph unicode="Q" horiz-adv-x="1617" d="M143 328q0 -140 94 -234t240 -94h625q143 0 225 58l74 -54l6 -4h70l-52 37l-67 48q76 80 76 243v778q0 56 -8.5 102t-31.5 89t-59.5 72.5t-95.5 47t-137 17.5h-623q-148 0 -241 -92t-95 -236v-778zM184 328v778q2 131 80.5 209t214.5 78h623q87 0 146 -20.5t90 -61 t43 -89t12 -116.5v-778q0 -155 -66 -220l-328 236l-6 4h-69l51 -37l318 -229q-69 -41 -191 -41h-625q-133 0 -213 79.5t-80 207.5z" />
<glyph unicode="R" horiz-adv-x="1617" d="M143 0h41v20v676h897h21q144 0 217.5 -75.5t73.5 -251.5v-349v-20h41v20v349q0 290 -213 353q95 42 154 140t59 203q0 155 -93.5 262t-238.5 107h-938h-21v-21v-676v-41v-676v-20zM184 737v656h918q130 0 210.5 -93t80.5 -235q0 -82 -35 -156.5t-103 -123t-153 -48.5h-21 h-897z" />
<glyph unicode="S" horiz-adv-x="1617" d="M143 369q0 -159 93 -264t241 -105h625q146 0 239 104.5t93 264.5q0 190 -88.5 279t-243.5 89h-625q-129 0 -211 99t-82 229q2 150 81 239t212 89h584q130 0 210.5 -93t80.5 -235v-21h41v21q0 155 -93.5 262t-238.5 107h-584q-148 0 -240 -103t-94 -266q0 -90 41 -174 t119.5 -139.5t173.5 -55.5h625q144 0 217.5 -75.5t73.5 -251.5q0 -147 -80 -237.5t-211 -90.5h-625q-133 0 -213 91t-80 237v20h-41v-20z" />
<glyph unicode="T" horiz-adv-x="1474" d="M0 1393h20h605v-1373v-20h41v20v1373h604h20v41h-20h-604h-41h-605h-20v-41z" />
<glyph unicode="U" horiz-adv-x="1617" d="M143 328q0 -140 94 -234t240 -94h625q145 0 238.5 93.5t93.5 234.5v1085v21h-41v-21v-1085q0 -128 -79.5 -207.5t-211.5 -79.5h-625q-133 0 -213 79.5t-80 207.5v1085v21h-41v-21v-1085z" />
<glyph unicode="V" horiz-adv-x="1593" d="M-76 1434l17 -31l745 -1393l6 -10h25l6 10l745 1393l17 31h-47l-6 -11l-727 -1360l-728 1360l-6 11h-47z" />
<glyph unicode="W" horiz-adv-x="2330" d="M-72 1434l13 -29l544 -1393l4 -12h29l4 12l553 1346l529 -1346l4 -12h28l4 12l566 1393l12 29h-45l-4 -13l-547 -1345l-528 1345l-4 13h-29l-4 -13l-553 -1345l-527 1345l-4 13h-45z" />
<glyph unicode="X" horiz-adv-x="1556" d="M57 0h54l6 6l610 680l610 -680l6 -6h54l-31 35l-612 682l612 682l31 35h-54l-6 -7l-610 -680l-610 680l-6 7h-54l31 -35l612 -682l-612 -682z" />
<glyph unicode="Y" horiz-adv-x="1413" d="M-88 1434l33 -35l649 -690v-689v-20h41v20v689l649 690l33 35h-55l-7 -7l-641 -679l-641 679l-6 7h-55z" />
<glyph unicode="Z" horiz-adv-x="1576" d="M78 0h24h21h1249h21v41h-21h-1204l1180 1358l28 35h-24h-21h-1147h-20v-41h20h1102l-1180 -1358z" />
<glyph unicode="[" horiz-adv-x="628" d="M109 -84q0 -112 59.5 -187t157.5 -75h98h20v41h-20h-98q-83 0 -129.5 60t-46.5 161v1208q0 103 46 162.5t130 59.5h98h20v40h-20h-98q-98 0 -157.5 -74.5t-59.5 -187.5v-1208z" />
<glyph unicode="\" horiz-adv-x="743" d="M102 1434l7 -27l409 -1393l6 -14h41l-6 27l-409 1392l-7 15h-41z" />
<glyph unicode="]" horiz-adv-x="628" d="M109 -305v-41h20h98q95 0 156 75.5t61 186.5v1208q0 108 -61 185t-156 77h-98h-20v-40h20h98q81 0 128.5 -62t47.5 -160v-1208q0 -100 -47.5 -160.5t-128.5 -60.5h-98h-20z" />
<glyph unicode="^" horiz-adv-x="954" d="M98 696h43l6 13l293 653l291 -653l4 -13h45l-12 29l-309 696l-19 43l-18 -43l-311 -696z" />
<glyph unicode="_" horiz-adv-x="1060" d="M-16 0h20l1055 -2h20v41h-20l-1055 2h-20v-41z" />
<glyph unicode="`" horiz-adv-x="530" d="M94 1434l17 -31l196 -348l6 -11h47l-16 31l-197 348l-6 11h-47z" />
<glyph unicode="a" d="M61 287q9 -127 91 -211q76 -77 193 -77q10 0 20 1h442q134 0 201 120v-100v-20h41v20v265v2v18v207v41v246q0 100 -69 172.5t-173 72.5h-442q-104 0 -173 -72.5t-69 -172.5v-21h41v21q0 88 56 146.5t145 58.5h442q89 0 145 -58.5t56 -146.5v-246h-643 q-127 0 -215.5 -76.5t-88.5 -189.5zM102 287q0 98 74.5 161.5t188.5 63.5h643v-207v-18q0 -109 -52.5 -177.5t-148.5 -68.5h-442h-3q-10 -1 -20 -1q-100 0 -162 64q-68 70 -78 183z" />
<glyph unicode="b" d="M123 0h20h664q111 0 176.5 72t65.5 174v551q0 102 -69 174.5t-173 72.5h-643v390v20h-41v-20v-390v-40v-984v-20zM164 41v963h643q89 0 145 -59t56 -148v-551q0 -91 -52 -148t-149 -57h-643z" />
<glyph unicode="c" d="M123 244q0 -100 65.5 -172t176.5 -72h444q110 0 175 72t65 174v20h-41v-20q0 -91 -52 -148t-147 -57h-444q-96 0 -148.5 56.5t-52.5 146.5v555q0 88 56 146.5t147 58.5h440q89 0 145 -59t56 -148v-21h41v21q0 102 -69 174.5t-173 72.5h-440q-105 0 -174.5 -72.5 t-69.5 -172.5v-555z" />
<glyph unicode="d" d="M123 246q0 -102 66 -174t178 -72h661h21v20v984v40v390v20h-41v-20v-390h-643q-104 0 -173 -72.5t-69 -174.5v-551zM164 246v551q0 89 56 148t145 59h643v-963h-641q-98 0 -150.5 57t-52.5 148z" />
<glyph unicode="e" horiz-adv-x="1271" d="M123 244q0 -101 68 -172.5t184 -71.5h465q114 0 180.5 72t66.5 174v20h-40v-20q0 -91 -54 -148t-153 -57h-465q-102 0 -156.5 56.5t-54.5 146.5v256h903h20v20v277q0 101 -71.5 174t-177.5 73h-463q-107 0 -179.5 -72.5t-72.5 -172.5v-258v-41v-256zM164 541v258 q0 88 58 146.5t153 58.5h463q94 0 151.5 -59t57.5 -148v-256h-883z" />
<glyph unicode="f" horiz-adv-x="804" d="M82 1004h20h111v-984v-20h41v20v984h346h21v40h-21h-346v123q0 114 53.5 180t134.5 66h220h20v41h-20h-220q-94 0 -161.5 -80.5t-67.5 -206.5v-123h-111h-20v-40z" />
<glyph unicode="g" d="M123 244q0 -100 65.5 -172t176.5 -72h643v-143q0 -73 -56 -134t-145 -61h-440h-21v-41h21h440q102 0 172 76t70 160v143v41v983v20h-21h-661q-105 0 -174.5 -72.5t-69.5 -172.5v-555zM164 244v555q0 88 56 146.5t147 58.5h641v-963h-643q-96 0 -148.5 56.5t-52.5 146.5z " />
<glyph unicode="h" d="M123 0h41v20v756v21q0 89 56 148t145 59h442q89 0 145 -58.5t56 -146.5v-779v-20h41v20v779q0 100 -69 172.5t-173 72.5h-442q-64 0 -116.5 -29t-84.5 -79v498v20h-41v-20v-637v-21v-756v-20z" />
<glyph unicode="i" horiz-adv-x="473" d="M186 0h41v20v1004v20h-41v-20v-1004v-20zM188 1311h21h2h20v41h-20h-2h-21v-41z" />
<glyph unicode="j" horiz-adv-x="471" d="M2 -338v-41h21q103 0 183.5 72t80.5 153v1178v20h-41v-20v-1178q0 -69 -66 -126.5t-157 -57.5h-21zM246 1311h20h2h21v41h-21h-2h-20v-41z" />
<glyph unicode="k" d="M123 0h41v20v480h196l656 -496l6 -4h68l-50 37l-639 483l639 488l50 36h-68l-6 -4l-656 -499h-196v893v20h-41v-20v-893v-41v-480v-20z" />
<glyph unicode="l" horiz-adv-x="624" d="M123 244q0 -104 85 -174t212 -70h20v41h-20q-115 0 -185.5 56.5t-70.5 146.5v1190v20h-41v-20v-1190z" />
<glyph unicode="m" horiz-adv-x="2004" d="M123 0h41v20v779q0 89 74 147t198 58h123h111q121 0 201.5 -56.5t80.5 -148.5v-779v-20h2h39h2v20l-2 779q0 95 67 150t197 55h129h121q123 0 198 -57.5t75 -147.5v-779v-20h41v20v779q0 105 -89 175t-225 70h-121h-129q-108 0 -182 -41.5t-104 -111.5q-36 70 -119 111.5 t-182 41.5h-111h-123q-136 0 -224.5 -72t-88.5 -173v-779v-20z" />
<glyph unicode="n" d="M123 0h41v20v777q0 89 56 148t145 59h442q89 0 145 -58.5t56 -146.5v-779v-20h41v20v779q0 100 -69 172.5t-173 72.5h-442q-104 0 -173 -72.5t-69 -174.5v-777v-20z" />
<glyph unicode="o" d="M123 246q0 -102 65.5 -174t176.5 -72h442q111 0 176.5 72t65.5 174v553q0 100 -69 172.5t-173 72.5h-442q-104 0 -173 -72.5t-69 -172.5v-553zM164 246v553q0 88 56 146.5t145 58.5h442q89 0 145 -58.5t56 -146.5v-553q0 -91 -52 -148t-149 -57h-442q-97 0 -149 57 t-52 148z" />
<glyph unicode="p" d="M123 0v-358v-21h41v21v358h643q111 0 176.5 72t65.5 174v553q0 100 -69 172.5t-173 72.5h-664h-20v-20v-983v-41zM164 41v963h643q89 0 145 -58.5t56 -146.5v-553q0 -91 -52 -148t-149 -57h-643z" />
<glyph unicode="q" d="M123 244q0 -100 65.5 -172t176.5 -72h643v-358v-21h41v21v358v41v983v20h-21h-661q-105 0 -174.5 -72.5t-69.5 -172.5v-555zM164 244v555q0 88 56 146.5t147 58.5h641v-963h-643q-96 0 -148.5 56.5t-52.5 146.5z" />
<glyph unicode="r" horiz-adv-x="894" d="M123 0h41v20v779q0 88 48 146.5t122 58.5h438h21v40h-21h-438q-89 0 -150 -73t-61 -172v-779v-20z" />
<glyph unicode="s" d="M123 246q0 -102 65.5 -174t176.5 -72h442q111 0 176.5 72t65.5 174v17q1 117 -63 195q-68 84 -179 85h-442q-96 3 -151 77q-50 67 -50 162v17q0 88 56 146.5t147 58.5h399q89 0 145 -58.5t56 -146.5v-21h41v21q0 100 -69 172.5t-173 72.5h-399q-105 0 -174.5 -72.5 t-69.5 -172.5v-16q-1 -107 63 -189q68 -88 179 -92h442q97 0 151 -69q51 -64 50 -171v-16q0 -91 -52 -148t-149 -57h-442q-97 0 -149 57t-52 148v20h-41v-20z" />
<glyph unicode="t" horiz-adv-x="743" d="M82 1004h20h97v-760q0 -98 75 -171t207 -73h119h21v41h-21h-119q-118 0 -179.5 57.5t-61.5 145.5v760h299h20v40h-20h-299v390v20h-41v-20v-390h-97h-20v-40z" />
<glyph unicode="u" d="M123 244q0 -100 65.5 -172t176.5 -72h444q110 0 175 72t65 174v778v20h-41v-20v-778q0 -91 -52 -148t-147 -57h-444q-96 0 -148.5 56.5t-52.5 146.5v780v20h-41v-20v-780z" />
<glyph unicode="v" horiz-adv-x="1220" d="M31 1044l14 -28l498 -1004l6 -12h24l7 12l495 1004l15 28h-46l-6 -12l-477 -964l-479 964l-6 12h-45z" />
<glyph unicode="w" horiz-adv-x="1822" d="M18 1044l13 -28l395 -1004l4 -12h29l4 12l377 955l368 -955l4 -12h29l4 12l391 1004l13 28h-45l-5 -12l-372 -954l-369 954l-4 12h-29l-4 -12l-377 -956l-376 956l-5 12h-45z" />
<glyph unicode="x" horiz-adv-x="1226" d="M41 0h55l6 6l453 486l453 -486l6 -6h55l-33 35l-453 487l453 488l33 34h-55l-6 -6l-453 -486l-453 486l-6 6h-55l33 -34l453 -488l-453 -487z" />
<glyph unicode="y" d="M113 1044l12 -28l441 -996q-68 -166 -147 -262t-159 -96h-117h-20v-41h20h117q93 0 181.5 104t159.5 275h1l4 12l441 1004l12 28h-45l-4 -12l-422 -960l-426 960l-4 12h-45z" />
<glyph unicode="z" horiz-adv-x="1200" d="M37 0h24h21h913h21v41h-21h-868l858 969l31 34h-25h-20h-848h-21v-40h21h803l-858 -969z" />
<glyph unicode="{" horiz-adv-x="716" d="M0 508q33 -18 63.5 -40t65 -59t59.5 -79.5t41.5 -103.5t16.5 -130q0 -193 39 -317.5t106 -124.5h121h20v41h-20h-121q-45 0 -74.5 110t-29.5 291q0 74 -18 140.5t-43.5 112t-59 83.5t-59 57.5t-48.5 32.5q228 161 228 420q0 177 29.5 290.5t74.5 113.5h121h20v40h-20 h-121q-67 0 -106 -127.5t-39 -316.5q0 -65 -17 -124t-40.5 -99t-59.5 -78.5t-61.5 -59.5t-59.5 -44l-8 -7v-22z" />
<glyph unicode="|" horiz-adv-x="430" d="M92 -326v-20h41v20v1692v20h-41v-20v-1692z" />
<glyph unicode="}" horiz-adv-x="716" d="M0 -305v-41h20h125q63 0 102.5 125t39.5 317q0 58 10 105.5t23.5 79t39.5 63.5t47.5 52t58 53t60.5 57l6 6v16q-24 24 -63 59.5t-60.5 55.5t-49 54t-41 65t-23 77.5t-8.5 102.5q3 189 -37.5 316.5t-104.5 127.5h-125h-20v-40h20h125q44 0 74 -112.5t27 -291.5 q-1 -63 9.5 -115t26 -86t42.5 -68t49 -53.5t56.5 -50t53.5 -49.5q-19 -19 -53.5 -48.5t-55.5 -48.5t-48.5 -53t-42.5 -68.5t-26 -87.5t-11 -118q0 -182 -29 -291.5t-72 -109.5h-125h-20z" />
<glyph unicode="~" horiz-adv-x="1159" d="M109 580h41v20q0 86 51.5 145.5t134.5 59.5q38 0 69.5 -12.5t54.5 -32t45 -43.5t45.5 -48t50 -43.5t65 -32.5t84.5 -13q96 -1 160.5 74.5t64.5 170.5v21h-41v-21q0 -85 -51 -145t-133 -59q-51 1 -91.5 24t-70 56t-61 66t-80 56t-111.5 23q-96 0 -161.5 -75t-65.5 -171 v-20z" />
<glyph unicode="&#xad;" horiz-adv-x="868" d="M109 696h20h535h20v41h-20h-535h-20v-41z" />
<glyph unicode="&#x2000;" horiz-adv-x="739" />
<glyph unicode="&#x2001;" horiz-adv-x="1479" />
<glyph unicode="&#x2002;" horiz-adv-x="739" />
<glyph unicode="&#x2003;" horiz-adv-x="1479" />
<glyph unicode="&#x2004;" horiz-adv-x="493" />
<glyph unicode="&#x2005;" horiz-adv-x="369" />
<glyph unicode="&#x2006;" horiz-adv-x="246" />
<glyph unicode="&#x2007;" horiz-adv-x="246" />
<glyph unicode="&#x2008;" horiz-adv-x="184" />
<glyph unicode="&#x2009;" horiz-adv-x="295" />
<glyph unicode="&#x200a;" horiz-adv-x="82" />
<glyph unicode="&#x2010;" horiz-adv-x="868" d="M109 696h20h535h20v41h-20h-535h-20v-41z" />
<glyph unicode="&#x2011;" horiz-adv-x="868" d="M109 696h20h535h20v41h-20h-535h-20v-41z" />
<glyph unicode="&#x2012;" horiz-adv-x="868" d="M109 696h20h535h20v41h-20h-535h-20v-41z" />
<glyph unicode="&#x2013;" horiz-adv-x="1317" d="M109 696h36h952h36v41h-36h-952h-36v-41z" />
<glyph unicode="&#x2014;" horiz-adv-x="2341" d="M109 696h71h1906h71v41h-71h-1906h-71v-41z" />
<glyph unicode="&#x202f;" horiz-adv-x="295" />
<glyph unicode="&#x205f;" horiz-adv-x="369" />
<glyph unicode="&#x25fc;" horiz-adv-x="1044" d="M0 0v1044h1044v-1044h-1044z" />
</font>
</defs>
</svg>
