<?xml version="1.0" standalone="no"?>
<!DOCTYPE svg PUBLIC "-//W3C//DTD SVG 1.1//EN" "http://www.w3.org/Graphics/SVG/1.1/DTD/svg11.dtd" >
<svg xmlns="http://www.w3.org/2000/svg">
<metadata></metadata>
<defs>
<font id="roduscut100thin" horiz-adv-x="1044" >
<font-face units-per-em="2048" ascent="1638" descent="-410" />
<missing-glyph horiz-adv-x="500" />
<glyph horiz-adv-x="0" />
<glyph unicode="&#xd;" horiz-adv-x="2048" />
<glyph unicode="!" horiz-adv-x="507" d="M172 0h21h2h20v41h-20h-2h-21v-41zM172 348h41v21v1044v21h-41v-21v-1044v-21z" />
<glyph unicode="&#x22;" horiz-adv-x="573" d="M102 1044h41v21v348v21h-41v-21v-348v-21zM348 1044h41v21v348v21h-41v-21v-348v-21z" />
<glyph unicode="#" horiz-adv-x="1208" d="M-6 8l39 -14l6 20l118 334h450l-113 -321l-9 -19l39 -14l6 20l118 334h356h20v41h-20h-341l231 655h110h20v41h-20h-96l114 322l8 18l-39 15l-6 -21l-118 -334h-450l113 322l9 18l-39 15l-6 -21l-118 -334h-356h-20v-41h20h341l-231 -655h-110h-20v-41h20h96l-114 -321z M171 389l231 655h451l-231 -655h-451z" />
<glyph unicode="$" horiz-adv-x="1021" d="M27 967q0 -305 276 -305h150v-562h-324h-20v-41h20h324v-153v-21h41v21v153h153q128 0 202.5 78.5t74.5 243.5t-74.5 243t-202.5 78h-153v527h323h21v41h-21h-323v188v21h-41v-21v-188h-150q-129 0 -202.5 -72t-73.5 -231zM68 967q0 145 59 203.5t176 58.5h150v-527h-150 q-117 0 -176 59t-59 206zM494 100v562h153q116 0 176 -64.5t60 -216.5q0 -150 -60.5 -215.5t-175.5 -65.5h-153z" />
<glyph unicode="%" horiz-adv-x="1316" d="M100 16l33 -24l12 16l983 1393l13 16l-33 25l-12 -17l-983 -1392zM104 1065l9 -12l245 -348l7 -9h20l6 9l246 348l8 12l-8 12l-246 348l-6 9h-20l-7 -9l-245 -348zM154 1065l221 313l221 -313l-221 -313zM596 369l8 -13l246 -348l6 -8h21l6 8l245 348l9 13l-9 12 l-245 348l-6 8h-21l-6 -8l-246 -348zM645 369l221 313l221 -313l-221 -314z" />
<glyph unicode="&#x26;" horiz-adv-x="1363" d="M104 1204l7 -14l194 -350l2 -2l3 -4l-199 -355l-5 -10l5 -8l202 -449l6 -12v-4l19 4l381 113l4 2l2 2l115 86l69 -82l4 -4l5 -2l233 -113l18 -8l17 37l-19 8l-229 111l-66 78l299 225l17 12l-25 33l-16 -13l-301 -226l-486 579l187 331l6 13l-8 10l-197 233l-6 9h-18 l-7 -7l-202 -213zM152 469l187 331l474 -565l-111 -83l-358 -107zM154 1196l178 186l172 -204l-171 -304z" />
<glyph unicode="'" horiz-adv-x="389" d="M74 1044h41v21v348v21h-41v-21v-348v-21z" />
<glyph unicode="(" horiz-adv-x="628" d="M109 520q0 -233 76 -455.5t223 -402.5l14 -16l31 26l-13 15q-144 177 -217 391.5t-73 441.5t73 442t217 392l13 14l-31 27l-14 -17q-147 -180 -223 -402.5t-76 -455.5z" />
<glyph unicode=")" horiz-adv-x="628" d="M100 -326l29 -28l14 14q69 71 123 161t87 178t54 184t29 177t8 160t-8 160t-29 177t-54 184t-87 178t-123 161l-14 15l-29 -29l15 -14q82 -85 141.5 -194.5t90 -223t43.5 -214.5t13 -200t-13 -200t-43.5 -214t-90 -222.5t-141.5 -194.5z" />
<glyph unicode="*" horiz-adv-x="923" d="M102 997l19 -34l16 8l266 134v-265v-21h41v21v265l267 -134l16 -8l18 34l-18 11l-258 130l258 130l18 10l-18 35l-16 -8l-267 -134v265v20h-41v-20v-265l-266 134l-16 8l-19 -35l19 -10l258 -130l-258 -130z" />
<glyph unicode="+" horiz-adv-x="1120" d="M109 696h20h373v-377v-20h41v20v377h372h21v41h-21h-372v377v21h-41v-21v-377h-373h-20v-41z" />
<glyph unicode="," horiz-adv-x="432" d="M102 -145l39 -15l6 19l99 247l8 21l-39 14l-6 -18l-98 -248z" />
<glyph unicode="-" horiz-adv-x="868" d="M109 696h20h535h20v41h-20h-535h-20v-41z" />
<glyph unicode="." horiz-adv-x="430" d="M158 0h20h2h21v41h-21h-2h-20v-41z" />
<glyph unicode="/" horiz-adv-x="796" d="M102 8l39 -14l6 20l463 1393l8 18l-38 15l-7 -21l-462 -1392z" />
<glyph unicode="0" horiz-adv-x="1138" d="M94 322l4 -7l205 -307l6 -8h10h410h10l6 8l205 307l4 7v6v778v6l-4 6l-205 307l-6 9h-10h-407h-11l-6 -9l-207 -307l-4 -6v-6v-778v-6zM135 334v766l197 293h387l194 -293v-766l-194 -293h-389z" />
<glyph unicode="1" horiz-adv-x="907" d="M86 862l37 -20l10 18l256 473v-1292h-274h-21v-41h21h274h41h272h21v41h-21h-272v1372v21h-33l-6 -11l-295 -542z" />
<glyph unicode="2" horiz-adv-x="1138" d="M86 1100l35 -23l10 17l201 299h387l190 -289l-192 -367h-398h-12l-6 -10l-205 -389l-2 -6v-4v-308v-20h21h819h20v41h-20h-799v283l197 372h397h12l7 11l204 389l6 12l-8 10l-205 307l-6 9h-10h-407h-11l-6 -9l-207 -307z" />
<glyph unicode="3" horiz-adv-x="1138" d="M94 0h21h614h12l7 12l204 420l4 8l-4 9l-204 425l-7 13h-12h-356l575 512l6 6v29h-20h-819h-21v-41h21h766l-576 -512l-6 -7v-28h20h398l194 -406l-194 -399h-602h-21v-41z" />
<glyph unicode="4" horiz-adv-x="1112" d="M10 307h19h20h750v-287v-20h41v20v287h129h20v41h-20h-129v1065v21h-31l-6 -9l-770 -1085zM88 348l711 1002v-1002h-711z" />
<glyph unicode="5" horiz-adv-x="1138" d="M86 334l12 -19l205 -307l6 -8h10h410h10l6 8l205 307l4 7v6v348v4l-2 6l-204 389l-7 10h-12h-410h-122v310h663h21v41h-21h-684h-20v-21v-350v-21h20h143h398l196 -372v-338l-194 -293h-389l-199 299l-10 16z" />
<glyph unicode="6" horiz-adv-x="1138" d="M94 322l4 -7l205 -307l6 -8h10h410h10l6 8l205 307l6 11l-4 10l-204 471l-5 12h-14h-594v281l195 293h389l199 -299l10 -17l35 23l-13 18l-205 307l-6 9h-10h-410h-10l-6 -9l-205 -307l-4 -6v-6v-287v-41v-450v-6zM135 334v444h580l196 -448l-192 -289h-389z" />
<glyph unicode="7" horiz-adv-x="1138" d="M94 1393h21h792l-403 -1366l-4 -21l39 -10l6 18l409 1393l7 27h-7h-20h-819h-21v-41z" />
<glyph unicode="8" horiz-adv-x="1138" d="M90 326l8 -11l205 -307l6 -8h10h410h10l6 8l205 307l8 11l-6 12l-199 379l199 358l6 10l-8 11l-205 327l-4 11h-12h-407h-13l-4 -11l-207 -327l-8 -11l6 -10l200 -358l-200 -379zM139 330l193 366h385l192 -366l-190 -289h-389zM139 1085l195 308h383l192 -308l-192 -348 h-385z" />
<glyph unicode="9" horiz-adv-x="1138" d="M86 334l12 -19l205 -307l6 -8h10h410h10l6 8l205 307l4 7v6v368v41v369v6l-4 6l-205 307l-6 9h-10h-410h-10l-6 -9l-205 -307l-8 -10l6 -12l205 -389l6 -11h12h594v-362l-194 -293h-389l-199 299l-10 16zM139 1104l191 289h389l194 -293v-363h-581z" />
<glyph unicode=":" horiz-adv-x="518" d="M201 0h20h2h21v41h-21h-2h-20v-41zM201 879h20h2h21v41h-21h-2h-20v-41z" />
<glyph unicode=";" horiz-adv-x="411" d="M82 -145l39 -15l6 19l98 247l8 21l-38 14l-7 -18l-98 -248zM137 891h21h2h20v41h-20h-2h-21v-41z" />
<glyph unicode="&#x3c;" horiz-adv-x="1171" d="M109 702l12 -4l837 -348l19 -8l16 37l-18 8l-793 330l793 330l18 8l-16 37l-19 -9l-837 -348l-12 -4v-29z" />
<glyph unicode="=" horiz-adv-x="1171" d="M109 498h20h838h20v41h-20h-838h-20v-41zM109 895h20h838h20v41h-20h-838h-20v-41z" />
<glyph unicode="&#x3e;" horiz-adv-x="1171" d="M102 379l17 -37l18 8l838 348l12 4v29l-12 4l-838 348l-18 9l-17 -37l19 -8l792 -330l-792 -330z" />
<glyph unicode="?" horiz-adv-x="1046" d="M100 1098l37 -21l10 19l175 297h331l168 -293v-182l-164 -304h-172h-20v-20v-219v-21h41v21v198h164h12l6 11l172 317l2 4v6v195v6l-2 4l-176 307l-6 11h-12h-357h-12l-6 -11l-180 -307zM465 0h20h2h21v41h-21h-2h-20v-41z" />
<glyph unicode="A" horiz-adv-x="1374" d="M-27 10l37 -16l8 18l132 295h20h872h21v41h-21h-872h-2l450 1014l594 -1350l9 -18l36 16l-8 19l-612 1392l-4 13h-29l-4 -13l-618 -1392z" />
<glyph unicode="B" horiz-adv-x="1331" d="M143 0h21h723h10l6 8l240 348l8 13l-8 12l-232 337l232 335l8 12l-8 12l-240 348l-6 9h-10h-723h-21v-21v-676v-41v-676v-20zM184 41v655h693l225 -327l-225 -328h-693zM184 737v656h693l225 -328l-228 -328h-690z" />
<glyph unicode="C" horiz-adv-x="1351" d="M143 319l4 -4l246 -307l6 -8h11h491h10l7 8l245 307l13 17l-33 24l-13 -16l-239 -299h-471l-236 295v762l236 295h471l239 -299l13 -17l33 25l-13 16l-245 307l-7 9h-10h-491h-11l-6 -9l-246 -307l-4 -4v-8v-778v-9z" />
<glyph unicode="D" horiz-adv-x="1351" d="M143 0h21h737h10l7 8l245 307l4 4v9v778v8l-4 4l-245 307l-7 9h-10h-737h-21v-21v-1393v-20zM184 41v1352h707l235 -295v-762l-235 -295h-707z" />
<glyph unicode="E" horiz-adv-x="1351" d="M143 0h21h983h20v41h-20h-963v655h717h21v41h-21h-717v656h963h20v41h-20h-983h-21v-21v-676v-41v-676v-20z" />
<glyph unicode="F" horiz-adv-x="1187" d="M143 0h41v20v676h596h21v41h-21h-596v656h858h21v41h-21h-878h-21v-21v-676v-41v-676v-20z" />
<glyph unicode="G" horiz-adv-x="1351" d="M143 319l4 -4l246 -307l6 -8h11h491h10l7 8l245 307l4 4v9v389v20h-20h-492h-20v-41h20h471v-360l-235 -295h-471l-236 295v762l236 295h471l239 -299l13 -17l33 25l-13 16l-245 307l-7 9h-10h-491h-11l-6 -9l-246 -307l-4 -4v-8v-778v-9z" />
<glyph unicode="H" horiz-adv-x="1351" d="M143 0h41v20v676h942v-676v-20h41v20v676v41v676v21h-41v-21v-676h-942v676v21h-41v-21v-676v-41v-676v-20z" />
<glyph unicode="I" horiz-adv-x="862" d="M143 0h21h227h41h225h21v41h-21h-225v1352h225h21v41h-21h-225h-41h-227h-21v-41h21h227v-1352h-227h-21v-41z" />
<glyph unicode="J" horiz-adv-x="1167" d="M135 332l12 -17l246 -307l6 -8h11h307h10l6 8l246 307l4 4v9v1085v21h-41v-21v-1077l-235 -295h-287l-240 299l-12 16z" />
<glyph unicode="K" horiz-adv-x="1351" d="M143 0h41v20v676h218l731 -690l14 -14l29 28l-15 15l-721 682l721 682l15 14l-29 29l-14 -15l-731 -690h-218v676v21h-41v-21v-676v-41v-676v-20z" />
<glyph unicode="L" horiz-adv-x="1167" d="M143 0h21h799h20v41h-20h-779v1372v21h-41v-21v-1393v-20z" />
<glyph unicode="M" horiz-adv-x="1617" d="M143 0h41v20v1297l586 -1305l6 -12h25l6 12l586 1305v-1297v-20h41v20v1393v21h-33l-6 -13l-607 -1351l-606 1351l-6 13h-33v-21v-1393v-20z" />
<glyph unicode="N" horiz-adv-x="1351" d="M143 0h41v20v1328l946 -1340l7 -8h30v20v1393v21h-41v-21v-1327l-946 1339l-6 9h-31v-21v-1393v-20z" />
<glyph unicode="O" horiz-adv-x="1351" d="M143 319l4 -4l246 -307l6 -8h11h491h10l7 8l245 307l4 4v9v778v8l-4 4l-245 307l-7 9h-10h-489h-11l-6 -9l-248 -307l-4 -4v-8v-778v-9zM184 336v762l238 295h469l235 -295v-762l-235 -295h-471z" />
<glyph unicode="P" horiz-adv-x="1351" d="M143 0h41v20v676h717h10l7 9l245 348l8 12l-8 12l-245 348l-7 9h-10h-737h-21v-21v-676v-41v-676v-20zM184 737v656h707l231 -328l-231 -328h-707z" />
<glyph unicode="Q" horiz-adv-x="1351" d="M143 319l4 -4l246 -307l6 -8h11h491h10l7 8l89 113l126 -115l16 -14l27 31l-15 12l-128 117l130 163l4 4v9v778v8l-4 4l-245 307l-7 9h-10h-489h-11l-6 -9l-248 -307l-4 -4v-8v-778v-9zM184 336v762l238 295h469l235 -295v-762l-124 -156l-177 162l-16 14l-27 -30l15 -13 l180 -164l-86 -108h-471z" />
<glyph unicode="R" horiz-adv-x="1351" d="M143 0h41v20v676h707l235 -334v-342v-20h41v20v349v6l-4 6l-237 336l237 336l8 12l-8 12l-245 348l-7 9h-10h-737h-21v-21v-676v-41v-676v-20zM184 737v656h707l231 -328l-231 -328h-707z" />
<glyph unicode="S" horiz-adv-x="1351" d="M135 373l12 -17l246 -348l6 -8h11h491h10l7 8l245 348l8 13l-8 12l-245 348l-7 8h-10h-481l-232 328l232 328h430l240 -340l12 -17l33 25l-13 16l-245 348l-7 9h-10h-450h-11l-6 -9l-246 -348l-8 -12l8 -12l246 -348l6 -9h11h481l231 -327l-231 -328h-471l-240 340 l-12 16z" />
<glyph unicode="T" horiz-adv-x="1208" d="M0 1393h20h472v-1373v-20h40v20v1373h472h20v41h-20h-472h-40h-472h-20v-41z" />
<glyph unicode="U" horiz-adv-x="1351" d="M143 319l4 -4l246 -307l6 -8h11h491h10l7 8l245 307l4 4v9v1085v21h-41v-21v-1077l-235 -295h-471l-236 295v1077v21h-41v-21v-1085v-9z" />
<glyph unicode="V" horiz-adv-x="1290" d="M-68 1423l9 -18l594 -1393l4 -12h28l4 12l594 1393l9 18l-37 17l-9 -19l-575 -1349l-576 1349l-8 19z" />
<glyph unicode="W" horiz-adv-x="1906" d="M-68 1427l7 -20l440 -1393l6 -14h29l4 14l444 1334l420 -1334l6 -14h29l4 14l461 1393l8 18l-39 15l-6 -21l-442 -1333l-420 1333l-6 15h-29l-4 -15l-445 -1333l-419 1333l-7 21z" />
<glyph unicode="X" horiz-adv-x="1290" d="M74 16l32 -24l13 16l475 673l475 -673l12 -16l33 24l-12 17l-483 684l483 684l12 16l-33 25l-12 -17l-475 -673l-475 673l-13 17l-32 -25l12 -16l483 -684l-483 -684z" />
<glyph unicode="Y" horiz-adv-x="1146" d="M-70 1417l13 -16l518 -691v-690v-20h41v20v690l518 691l12 16l-33 25l-12 -17l-506 -673l-506 673l-12 17z" />
<glyph unicode="Z" horiz-adv-x="1310" d="M84 0h18h21h983h20v41h-20h-944l919 1360l23 33h-19h-20h-881h-20v-41h20h842l-920 -1360z" />
<glyph unicode="[" horiz-adv-x="628" d="M109 -84v-8l4 -4l196 -242l6 -8h11h98h20v41h-20h-88l-186 229v1192l186 230h88h20v40h-20h-98h-11l-6 -8l-196 -241l-4 -4v-9v-1208z" />
<glyph unicode="\" horiz-adv-x="743" d="M104 1427l5 -20l409 -1393l6 -18l39 10l-4 21l-409 1392l-7 19z" />
<glyph unicode="]" horiz-adv-x="628" d="M109 -305v-41h20h98h11l6 8l196 242l4 4v8v1208v9l-4 4l-196 241l-6 8h-11h-98h-20v-40h20h88l186 -230v-1192l-186 -229h-88h-20z" />
<glyph unicode="^" horiz-adv-x="954" d="M102 707l37 -17l8 19l293 653l291 -653l8 -19l37 17l-8 18l-309 696l-4 13h-27l-6 -13l-311 -696z" />
<glyph unicode="_" horiz-adv-x="1060" d="M-16 0h20l1055 -2h20v41h-20l-1055 2h-20v-41z" />
<glyph unicode="`" horiz-adv-x="530" d="M100 1421l11 -18l196 -348l10 -19l37 21l-10 18l-197 348l-10 19z" />
<glyph unicode="a" d="M55 287l13 -15l235 -266l4 -6h10h349h10l6 10l137 210v-200v-20h41v20v261v4v2v18v268v41v185v6l-4 6l-174 225l-6 8h-10h-347h-10l-6 -8l-176 -225l-12 -16l32 -25l13 16l170 218h325l164 -211v-179h-502h-10l-6 -8l-235 -307zM109 287l219 286h491v-268v-12l-164 -252 h-327z" />
<glyph unicode="b" d="M123 0h20h523h10l6 8l174 225l4 7v6v551v6l-4 6l-174 227l-6 8h-10h-502v390v20h-41v-20v-390v-40v-984v-20zM164 41v963h491l164 -213v-539l-164 -211h-491z" />
<glyph unicode="c" d="M123 238l4 -7l174 -223l6 -8h10h351h10l6 8l172 225l12 17l-32 24l-13 -16l-166 -217h-329l-164 209v543l166 211h325l168 -220l13 -16l32 25l-12 16l-174 227l-6 8h-10h-347h-10l-6 -8l-176 -225l-4 -6v-6v-555v-6z" />
<glyph unicode="d" d="M123 240l4 -7l176 -225l6 -8h10h521h20v20v984v40v390v20h-41v-20v-390h-500h-10l-6 -8l-176 -227l-4 -6v-6v-551v-6zM164 252v539l166 213h489v-963h-489z" />
<glyph unicode="e" horiz-adv-x="1073" d="M123 236l4 -5l182 -223l6 -8h11h364h10l7 8l178 225l12 17l-33 24l-12 -16l-172 -217h-344l-172 211v248h704h21v20v277v6l-4 6l-180 227l-7 8h-10h-362h-11l-6 -8l-182 -225l-4 -4v-8v-258v-41v-256v-8zM164 541v250l172 213h342l170 -213v-250h-684z" />
<glyph unicode="f" horiz-adv-x="702" d="M82 1004h20h84v-984v-20h41v20v984h271h20v40h-20h-271v117l158 252h174h21v41h-21h-186h-13l-4 -10l-166 -266l-4 -4v-7v-123h-84h-20v-40z" />
<glyph unicode="g" d="M123 238l4 -7l174 -223l6 -8h10h502v-135l-164 -203h-336h-20v-41h20h347h10l6 8l174 215l4 4v9v143v41v983v20h-20h-521h-10l-6 -8l-176 -225l-4 -6v-6v-555v-6zM164 250v543l166 211h489v-963h-491z" />
<glyph unicode="h" d="M115 793l8 -7v-766v-20h41v20v770l166 214h325l164 -211v-773v-20h41v20v779v6l-4 6l-174 225l-6 8h-10h-347h-10l-6 -8l-139 -179v577v20h-41v-20v-631z" />
<glyph unicode="i" horiz-adv-x="448" d="M174 0h41v20v1004v20h-41v-20v-1004v-20zM176 1311h21h2h20v41h-20h-2h-21v-41z" />
<glyph unicode="j" horiz-adv-x="417" d="M-6 -360l31 -27l12 14l190 205l6 6v8v1178v20h-40v-20v-1169l-185 -199zM193 1311h20h2h21v41h-21h-2h-20v-41z" />
<glyph unicode="k" d="M123 0h41v20v480h148l513 -494l15 -14l28 28l-14 15l-506 485l506 490l14 14l-28 29l-15 -15l-514 -497h-147v893v20h-41v-20v-893v-41v-480v-20z" />
<glyph unicode="l" horiz-adv-x="569" d="M123 236l6 -7l221 -223l15 -14l28 28l-14 15l-215 217v1182v20h-41v-20v-1190v-8z" />
<glyph unicode="m" horiz-adv-x="1658" d="M123 0h41v20v768l256 216h104l254 -216v-768v-20h2h39h2v20q-1 128 -1 384.5t-1 384.5l258 215h107l250 -216v-768v-20h41v20v779v10l-7 6l-262 225l-6 4h-8h-123h-8l-4 -4l-258 -215l-254 215l-4 4h-9h-120h-9l-4 -4l-268 -225l-8 -6v-10v-779v-20z" />
<glyph unicode="n" d="M123 0h41v20v771l166 213h325l164 -211v-773v-20h41v20v779v6l-4 6l-174 225l-6 8h-10h-347h-10l-6 -8l-176 -227l-4 -6v-6v-777v-20z" />
<glyph unicode="o" d="M123 240l4 -7l174 -225l6 -8h10h349h10l6 8l174 225l4 7v6v553v6l-4 6l-174 225l-6 8h-10h-347h-10l-6 -8l-176 -225l-4 -6v-6v-553v-6zM164 252v541l166 211h325l164 -211v-541l-164 -211h-327z" />
<glyph unicode="p" d="M123 0v-358v-21h41v21v358h502h10l6 8l174 225l4 7v6v553v6l-4 6l-174 225l-6 8h-10h-523h-20v-20v-983v-41zM164 41v963h491l164 -211v-541l-164 -211h-491z" />
<glyph unicode="q" d="M123 238l4 -7l174 -223l6 -8h10h502v-358v-21h41v21v358v41v983v20h-20h-521h-10l-6 -8l-176 -225l-4 -6v-6v-555v-6zM164 250v543l166 211h489v-963h-491z" />
<glyph unicode="r" horiz-adv-x="782" d="M123 0h41v20v773l143 211h352h21v40h-21h-362h-10l-6 -8l-154 -225l-4 -6v-6v-779v-20z" />
<glyph unicode="s" d="M115 250l12 -17l174 -225l6 -8h10h349h10l6 8l174 225l8 11l-8 12l-174 276l-4 11h-12h-336l-162 254l162 207h284l168 -218l13 -16l32 25l-12 16l-174 225l-6 8h-10h-306h-10l-6 -8l-176 -225l-8 -10l8 -13l174 -276l4 -10h12h336l162 -254l-160 -207h-327l-168 217 l-13 16z" />
<glyph unicode="t" horiz-adv-x="651" d="M82 1004h20h72v-760v-8l6 -7l207 -223l6 -6h8h107h20v41h-20h-98l-195 211v752h231h21v40h-21h-231v390v20h-41v-20v-390h-72h-20v-40z" />
<glyph unicode="u" d="M123 238l4 -7l174 -223l6 -8h10h351h10l6 8l172 225l4 7v6v778v20h-41v-20v-772l-162 -211h-329l-164 209v774v20h-41v-20v-780v-6z" />
<glyph unicode="v" horiz-adv-x="1015" d="M37 1036l8 -20l395 -1004l4 -12h29l4 12l393 1004l9 20l-39 15l-6 -19l-375 -956l-377 956l-6 19z" />
<glyph unicode="w" horiz-adv-x="1488" d="M23 1038l6 -20l311 -1004l6 -14h29l6 14l291 940l284 -940l7 -14h28l6 14l308 1004l4 20l-39 11l-6 -19l-287 -940l-285 940l-6 14h-29l-6 -14l-291 -940l-290 940l-7 21z" />
<glyph unicode="x" horiz-adv-x="1028" d="M59 16l33 -24l12 16l352 480l351 -480l12 -16l33 24l-12 17l-359 489l359 490l12 16l-33 25l-12 -17l-351 -479l-352 479l-12 17l-33 -25l13 -16l358 -490l-358 -489z" />
<glyph unicode="y" d="M117 1036l8 -18l348 -997l-131 -359h-199h-20v-41h20h213h15l4 14l132 365h1l4 14l346 1004l8 18l-39 15l-6 -21l-327 -946l-332 946l-6 21z" />
<glyph unicode="z" horiz-adv-x="1003" d="M43 0h18h21h717h20v41h-20h-678l670 971l22 32h-18h-21h-651h-21v-40h21h612l-669 -971z" />
<glyph unicode="{" horiz-adv-x="716" d="M0 508l10 -6l236 -125v-281v-2v-4l125 -422l6 -14h14h121h20v41h-20h-106l-119 403v291v12l-11 7l-213 112l213 123l11 6v13v278l119 406h106h20v40h-20h-121h-14l-6 -14l-125 -424v-4v-2v-268l-236 -135l-10 -7v-24z" />
<glyph unicode="|" horiz-adv-x="430" d="M92 -326v-20h41v20v1692v20h-41v-20v-1692z" />
<glyph unicode="}" horiz-adv-x="716" d="M0 -305v-41h20h125h17l4 14l121 422v4v2v260l235 146l10 6v24l-10 5l-235 151v254v2v4l-121 424l-4 14h-17h-125h-20v-40h20h109l117 -406v-264v-12l10 -5l217 -139l-217 -133l-10 -6v-12v-271l-117 -403h-109h-20z" />
<glyph unicode="~" horiz-adv-x="1159" d="M100 598l31 -27l12 15l197 213l399 -217l15 -9l4 7l6 6l205 225l14 16l-31 27l-12 -14l-195 -213l-399 217l-14 8l-4 -6l-6 -6l-207 -226z" />
<glyph unicode="&#xad;" horiz-adv-x="868" d="M109 696h20h535h20v41h-20h-535h-20v-41z" />
<glyph unicode="&#x2000;" horiz-adv-x="739" />
<glyph unicode="&#x2001;" horiz-adv-x="1479" />
<glyph unicode="&#x2002;" horiz-adv-x="739" />
<glyph unicode="&#x2003;" horiz-adv-x="1479" />
<glyph unicode="&#x2004;" horiz-adv-x="493" />
<glyph unicode="&#x2005;" horiz-adv-x="369" />
<glyph unicode="&#x2006;" horiz-adv-x="246" />
<glyph unicode="&#x2007;" horiz-adv-x="246" />
<glyph unicode="&#x2008;" horiz-adv-x="184" />
<glyph unicode="&#x2009;" horiz-adv-x="295" />
<glyph unicode="&#x200a;" horiz-adv-x="82" />
<glyph unicode="&#x2010;" horiz-adv-x="868" d="M109 696h20h535h20v41h-20h-535h-20v-41z" />
<glyph unicode="&#x2011;" horiz-adv-x="868" d="M109 696h20h535h20v41h-20h-535h-20v-41z" />
<glyph unicode="&#x2012;" horiz-adv-x="868" d="M109 696h20h535h20v41h-20h-535h-20v-41z" />
<glyph unicode="&#x2013;" horiz-adv-x="1317" d="M109 696h36h952h36v41h-36h-952h-36v-41z" />
<glyph unicode="&#x2014;" horiz-adv-x="2341" d="M109 696h71h1906h71v41h-71h-1906h-71v-41z" />
<glyph unicode="&#x202f;" horiz-adv-x="295" />
<glyph unicode="&#x205f;" horiz-adv-x="369" />
<glyph unicode="&#x25fc;" horiz-adv-x="1054" d="M0 0v1055h1055v-1055h-1055z" />
</font>
</defs>
</svg>
