<?xml version="1.0" standalone="no"?>
<!DOCTYPE svg PUBLIC "-//W3C//DTD SVG 20010904//EN"
 "http://www.w3.org/TR/2001/REC-SVG-20010904/DTD/svg10.dtd">
<svg version="1.0" xmlns="http://www.w3.org/2000/svg"
 width="898.000000pt" height="681.000000pt" viewBox="0 0 898.000000 681.000000"
 preserveAspectRatio="xMidYMid meet">
<metadata>
Created by potrace 1.11, written by Peter Selinger 2001-2013
</metadata>
<g transform="translate(0.000000,681.000000) scale(0.100000,-0.100000)"
fill="#000000" stroke="none">
<path d="M580 6748 c-36 -11 -68 -25 -72 -32 -4 -6 -8 -7 -8 -3 0 14 -72 -34
-123 -82 -26 -25 -45 -51 -43 -58 3 -7 0 -12 -6 -10 -13 2 -69 -93 -62 -104 2
-4 -1 -9 -6 -11 -6 -2 -13 -17 -16 -33 -3 -17 -9 -46 -14 -65 -14 -50 -12 -97
6 -160 9 -30 16 -63 15 -73 0 -10 5 -15 11 -11 6 4 8 3 4 -4 -9 -14 14 -63 27
-55 6 3 7 1 3 -6 -10 -16 22 -64 36 -55 6 4 8 3 4 -4 -3 -6 3 -17 14 -25 11
-7 17 -17 12 -22 -4 -5 -1 -5 6 -1 6 4 12 3 12 -3 0 -15 52 -61 62 -55 4 3 8
0 8 -6 0 -10 54 -38 74 -38 5 0 12 -5 15 -10 9 -14 71 -26 71 -13 0 13 -37 24
-52 15 -7 -4 -10 -4 -6 0 4 5 -21 22 -54 40 -63 32 -148 106 -148 127 0 7 3
10 6 6 4 -3 23 0 43 8 32 12 72 23 109 31 6 1 12 -1 12 -6 0 -4 7 -24 15 -44
8 -20 16 -39 16 -43 2 -16 39 -82 49 -88 19 -12 10 32 -10 50 -11 10 -18 20
-15 23 2 2 -2 17 -10 33 -8 15 -15 37 -15 49 0 11 -5 20 -11 20 -5 0 -7 5 -4
10 3 6 22 10 41 10 26 0 34 4 34 18 0 9 -4 13 -8 7 -7 -11 -71 -16 -73 -6 0 3
-4 48 -7 99 l-7 92 200 -2 c154 -2 199 -6 197 -15 -1 -7 5 -13 13 -13 8 0 15
6 15 14 0 12 25 15 129 18 120 3 128 2 120 -14 -7 -14 -6 -18 6 -18 18 0 20
63 4 125 -6 22 -13 52 -16 68 -3 15 -10 27 -16 27 -6 0 -7 3 -4 6 3 4 1 16 -5
28 -7 11 -12 23 -13 26 -1 23 -124 162 -136 155 -4 -3 -10 2 -13 11 -3 8 -10
12 -16 9 -5 -3 -10 -2 -10 4 0 7 -81 53 -100 56 -3 1 -30 6 -60 12 -81 17
-157 14 -230 -9z m45 -8 c-3 -5 -2 -10 4 -10 6 0 8 -6 5 -14 -3 -9 -12 -12
-21 -9 -11 4 -14 2 -9 -5 4 -7 3 -12 -3 -12 -17 0 -84 -156 -74 -173 4 -7 0
-8 -13 -3 -16 7 -75 23 -94 26 -18 3 -70 25 -70 31 0 9 115 114 126 115 8 0
60 22 129 53 26 13 27 13 20 1z m270 -25 c6 -1 20 -6 33 -10 12 -4 22 -11 22
-15 0 -5 9 -12 20 -15 25 -8 110 -89 110 -104 0 -7 5 -9 10 -6 6 4 15 -7 21
-24 6 -17 14 -29 18 -26 4 2 8 -1 8 -8 1 -7 10 -37 21 -67 11 -30 22 -77 26
-105 l6 -50 -121 2 c-67 1 -123 3 -125 5 -1 2 -5 26 -8 53 -9 84 -16 127 -22
136 -6 10 31 31 39 22 8 -7 67 17 67 27 0 4 10 5 23 3 12 -2 31 3 42 11 19 14
18 15 -16 11 -20 -1 -46 -8 -57 -14 -12 -6 -25 -11 -29 -10 -4 1 -10 0 -13 -1
-3 -1 -17 -4 -31 -6 -23 -4 -29 1 -43 36 -9 22 -16 47 -16 55 0 8 -4 15 -10
15 -5 0 -10 7 -10 15 0 8 -16 32 -35 54 -19 21 -35 41 -35 44 0 5 45 -7 105
-28z m-122 3 c18 -12 34 -26 35 -30 2 -5 9 -5 14 -2 7 5 8 2 4 -5 -5 -7 -2
-20 6 -29 17 -20 44 -83 40 -94 -1 -5 2 -8 7 -8 4 0 6 -11 4 -24 -5 -23 -6
-24 -146 -24 -78 -1 -152 1 -164 4 -27 7 -33 31 -17 64 7 14 14 34 16 45 1 11
27 43 55 72 60 61 94 68 146 31z m-413 -181 c0 -6 3 -8 6 -5 3 4 24 -2 47 -13
23 -10 55 -19 71 -19 28 0 28 -1 22 -42 -3 -24 -9 -72 -13 -108 -6 -60 -5 -64
10 -51 13 10 17 28 15 77 -1 35 1 66 5 70 4 4 7 16 7 27 0 15 5 18 23 13 36
-12 261 -20 255 -10 -3 5 15 10 41 10 25 1 49 -2 52 -8 3 -5 7 -39 8 -76 1
-37 3 -76 5 -87 3 -19 -4 -20 -203 -25 -113 -3 -263 -4 -333 -2 l-128 3 0 36
c0 39 39 166 52 171 4 2 8 9 8 16 0 7 5 17 10 22 14 14 40 14 40 1z m134 -346
c3 -39 10 -81 15 -94 11 -29 -2 -47 -35 -47 -12 0 -43 -9 -67 -19 -25 -11 -48
-17 -51 -14 -3 4 -6 1 -6 -5 0 -21 -39 10 -42 33 -2 11 -9 19 -16 17 -8 -1
-11 2 -8 7 3 5 -3 35 -14 66 -11 32 -20 73 -20 92 l0 33 119 0 118 0 7 -69z"/>
<path d="M8734 6611 c18 -7 18 -8 -5 -14 -42 -12 -1524 -8 -1535 3 -8 8 -15 5
-25 -7 -13 -17 -13 -17 5 -3 18 13 19 13 14 0 -5 -13 84 -14 776 -10 429 3
788 2 796 -2 11 -6 12 -7 1 -8 -8 0 -11 -7 -8 -20 6 -22 -8 -28 -16 -6 -3 7 0
19 6 25 8 8 8 11 -1 11 -7 0 -12 -5 -12 -11 0 -5 -4 -8 -9 -5 -5 3 -14 0 -20
-8 -9 -10 -8 -15 4 -20 9 -3 13 -2 10 4 -3 6 -2 10 3 10 6 0 13 -7 16 -16 3
-9 12 -14 20 -11 7 3 19 0 25 -6 15 -15 14 -30 -1 -20 -23 14 -40 12 -34 -4 3
-8 7 -220 8 -471 l3 -457 5 470 5 470 3 -534 c1 -294 5 -532 8 -528 3 3 6 51
6 106 -1 56 3 101 8 101 5 0 11 -12 13 -27 l4 -28 2 28 c0 15 -5 30 -11 32
-18 7 -13 812 5 834 9 11 9 15 -1 18 -6 3 -10 9 -6 14 3 5 2 8 -3 7 -9 -3 -13
5 -13 28 0 8 4 13 9 10 5 -4 7 3 4 13 -3 13 -10 18 -21 13 -14 -5 -15 -3 -5 9
9 12 6 14 -20 16 -24 1 -27 -1 -13 -6z"/>
<path d="M8647 6564 c-3 -3 -295 -5 -649 -5 -439 2 -640 -1 -633 -8 7 -7 234
-11 662 -13 633 -3 652 -2 657 16 4 14 2 16 -7 7 -14 -14 -30 -15 -22 -1 7 11
2 14 -8 4z"/>
<path d="M7270 6050 l0 -450 720 0 720 0 0 450 0 450 -720 0 -720 0 0 -450z
m1241 317 c-7 -7 -11 -78 -11 -201 0 -105 -4 -185 -9 -178 -6 10 -66 12 -284
10 l-277 -3 0 190 0 190 291 -3 c225 -2 289 0 283 9 -5 8 -3 9 5 4 9 -5 10
-10 2 -18z m-610 -317 l-2 -70 78 0 78 0 -3 -125 -3 -125 -285 0 -284 0 0 185
0 185 208 2 c178 3 207 5 204 18 -2 8 0 12 4 8 4 -5 6 -39 5 -78z"/>
<path d="M656 6184 c-14 -13 -16 -63 -16 -388 0 -349 1 -374 18 -389 16 -15
50 -17 270 -17 l252 0 0 -90 0 -90 -95 0 c-107 0 -144 -12 -163 -55 -7 -14
-12 -28 -12 -30 0 -3 162 -5 360 -5 255 0 360 3 360 11 0 6 -15 26 -34 45
l-34 34 -101 0 -101 0 0 90 0 90 253 0 c233 0 255 1 270 18 15 17 17 58 17
389 0 346 -1 371 -18 386 -17 15 -74 17 -615 17 -528 0 -597 -2 -611 -16z
m1154 -389 l0 -315 -540 0 -540 0 0 315 0 315 540 0 540 0 0 -315z"/>
<path d="M760 5793 c0 -269 0 -285 17 -272 11 9 14 10 9 2 -6 -10 96 -13 493
-13 l501 0 0 268 c0 201 -3 271 -12 281 -10 11 -10 13 0 7 6 -4 12 -2 12 4 0
7 -152 10 -509 10 l-510 -1 -1 -286z"/>
<path d="M5276 6184 c-14 -13 -16 -63 -16 -388 0 -352 1 -374 19 -390 10 -9
22 -16 27 -15 5 1 118 1 252 0 l242 -1 0 -90 0 -90 -95 0 c-107 0 -144 -12
-163 -55 -7 -14 -12 -28 -12 -30 0 -3 162 -5 360 -5 255 0 360 3 360 11 0 6
-15 26 -34 45 l-34 34 -101 0 -101 0 0 90 0 90 253 0 c233 0 255 1 270 18 15
17 17 58 17 389 0 346 -1 371 -18 386 -17 15 -74 17 -615 17 -528 0 -597 -2
-611 -16z m1154 -389 l0 -315 -540 0 -540 0 0 315 0 315 540 0 540 0 0 -315z"/>
<path d="M5380 6069 c0 -5 6 -7 13 -3 10 6 10 4 0 -7 -10 -10 -13 -80 -13
-280 l0 -268 510 -1 510 -1 0 286 0 285 -510 0 c-352 0 -510 -3 -510 -11z"/>
<path d="M3950 6129 c0 -6 5 -7 10 -4 10 6 15 -9 10 -30 -1 -5 2 -7 6 -3 8 9
34 -9 34 -23 0 -10 -1283 -12 -1293 -2 -4 3 -2 12 5 20 7 9 0 8 -20 -4 -17
-10 -28 -21 -26 -25 6 -10 1353 -9 1379 1 17 7 17 8 -8 15 -15 3 -26 10 -23
15 3 4 -6 14 -19 21 -13 7 -23 16 -20 19 2 4 -5 8 -16 8 -10 1 -19 -3 -19 -8z"/>
<path d="M8660 5550 c-6 -9 -10 -10 -10 -3 0 16 -1280 19 -1280 3 0 -7 212
-10 634 -10 349 0 641 -3 650 -6 11 -4 16 0 17 12 0 18 1 18 7 2 7 -17 8 -17
18 0 10 15 8 18 -8 18 -11 0 -23 -7 -28 -16z"/>
<path d="M8750 5510 c-1 -30 -3 -70 -5 -87 -1 -18 1 -33 4 -33 4 0 12 -14 18
-31 8 -21 9 -29 1 -27 -6 2 -12 12 -14 23 -4 29 -45 47 -58 26 -4 -5 4 -7 16
-3 14 3 19 2 14 -6 -4 -7 -2 -12 3 -12 6 0 11 -7 11 -16 0 -13 -3 -14 -13 -5
-10 8 -235 12 -773 13 -417 2 -768 7 -779 11 -18 7 -18 7 1 -5 12 -7 20 -20
19 -28 -2 -13 88 -15 768 -13 423 2 772 5 775 8 12 12 23 4 12 -9 -9 -12 -8
-15 9 -13 11 0 17 5 14 10 -3 4 4 11 14 13 10 3 25 15 32 27 8 12 10 19 6 15
-16 -15 -33 13 -29 48 3 23 1 33 -6 29 -6 -4 -8 -10 -5 -14 2 -5 -2 -17 -10
-27 -8 -10 -15 -14 -15 -8 0 5 5 15 12 22 9 9 8 13 -3 17 -10 4 -13 18 -11 49
2 24 2 52 -1 62 -3 11 -6 -6 -7 -36z m-27 -177 c5 -7 -536 -7 -1253 0 -151 1
68 3 487 5 419 1 764 -1 766 -5z"/>
<path d="M6180 4895 c-21 -26 -25 -101 -6 -130 36 -55 96 -17 96 60 0 22 -7
51 -16 63 -17 25 -56 29 -74 7z"/>
<path d="M8620 4895 c-21 -26 -25 -101 -6 -130 19 -28 57 -33 76 -10 21 26 25
101 6 130 -19 28 -57 33 -76 10z"/>
<path d="M699 4566 c-2 -2 -26 -7 -54 -10 -89 -11 -128 -23 -120 -37 3 -5 0
-6 -8 -4 -17 7 -69 -33 -61 -46 3 -5 2 -8 -3 -7 -4 2 -18 -7 -31 -19 -12 -13
-19 -23 -14 -23 4 0 2 -4 -5 -8 -6 -4 -13 -14 -15 -22 -2 -8 -8 -20 -14 -26
-6 -7 -10 -26 -9 -43 1 -16 -2 -28 -7 -25 -4 3 -9 4 -9 2 -1 -2 -4 -83 -8
-181 l-6 -178 -84 85 c-47 47 -89 82 -94 79 -6 -3 -7 -1 -3 5 3 6 -6 20 -21
32 l-28 22 -3 -107 -3 -108 38 -38 c21 -20 42 -35 47 -32 5 3 6 2 3 -4 -7 -10
43 -59 55 -55 5 1 7 -4 5 -11 -1 -6 4 -11 11 -9 8 1 11 -1 9 -5 -3 -5 32 -46
79 -92 82 -83 84 -84 104 -66 11 10 17 22 14 27 -3 4 -2 7 3 6 10 -3 53 33 49
41 -2 3 6 15 17 26 11 11 16 13 12 5 -4 -8 8 1 28 20 35 34 49 59 25 44 -7 -4
-8 -3 -4 5 4 6 12 9 17 5 12 -7 56 36 51 49 -1 5 1 6 6 3 4 -2 27 15 51 39 42
42 42 44 40 107 -1 37 -8 70 -16 80 -11 12 -11 18 -2 24 7 4 10 3 5 -4 -3 -6
-2 -13 4 -17 6 -4 10 10 10 37 l0 43 -37 -37 c-33 -33 -35 -39 -22 -55 13 -16
12 -17 -3 -5 -18 14 -43 7 -33 -9 4 -5 1 -9 -5 -9 -18 0 -80 -62 -73 -74 3 -6
2 -8 -2 -3 -5 4 -21 -5 -37 -20 l-28 -27 -1 125 c-1 68 -2 138 -3 154 0 17 2
40 6 52 4 13 2 24 -5 27 -7 2 -5 5 4 5 17 1 55 49 51 64 -1 5 2 5 8 2 6 -4 20
1 30 10 15 13 36 18 84 17 l65 0 0 89 0 89 -28 0 c-15 0 -30 -2 -32 -4z"/>
<path d="M793 4435 c0 -13 42 -15 330 -15 258 0 328 3 325 13 -4 9 -80 13
-330 15 -284 2 -325 0 -325 -13z"/>
<path d="M3709 4351 c-44 -14 -70 -32 -63 -43 5 -7 2 -9 -9 -5 -25 10 -76 -73
-68 -112 1 -7 -2 -10 -8 -6 -7 4 -11 -7 -11 -30 l0 -35 48 -1 c71 0 91 -2 86
-11 -3 -4 2 -9 10 -9 29 -3 34 -4 42 -11 4 -5 16 -8 26 -8 11 0 16 -4 13 -10
-3 -5 -4 -10 -1 -10 2 0 12 -3 22 -7 13 -5 15 -3 9 8 -5 8 -5 11 1 6 5 -5 9
-12 9 -16 0 -5 14 -19 30 -33 31 -25 65 -27 65 -3 0 7 7 16 15 19 13 4 14 10
5 26 -8 15 -8 18 3 14 8 -3 17 2 20 10 4 9 1 16 -5 16 -7 0 -4 6 7 13 14 11
17 22 12 54 -11 69 -59 143 -86 136 -10 -3 -22 0 -25 6 -4 7 -1 8 8 5 9 -3 16
-3 16 0 0 7 -44 26 -67 30 -7 1 -16 5 -19 9 -9 9 -51 8 -85 -2z"/>
<path d="M2780 3989 c0 -4 -10 -5 -22 -2 -17 3 -19 2 -9 -5 10 -7 4 -10 -22
-10 -38 0 -49 -7 -106 -64 -52 -54 -55 -59 -70 -108 -19 -61 -24 -117 -12
-124 6 -4 8 -13 4 -21 -3 -8 0 -15 7 -15 6 0 8 -5 5 -10 -4 -6 -1 -17 5 -25 7
-8 9 -15 6 -15 -4 0 -2 -6 4 -12 5 -7 20 -25 31 -41 11 -15 25 -25 30 -21 5 3
8 2 7 -3 -2 -4 0 -8 4 -8 4 0 15 -10 24 -23 9 -13 21 -21 28 -19 6 3 20 -1 30
-9 10 -7 38 -16 61 -19 44 -7 129 10 121 24 -3 5 5 7 19 6 13 -2 30 4 37 13
11 13 11 14 -1 7 -10 -6 -12 -4 -7 4 5 7 14 10 21 7 18 -7 75 59 75 87 0 16 3
18 9 9 6 -10 10 -8 13 10 3 12 9 32 13 42 7 15 5 17 -6 11 -8 -5 -7 0 4 12 12
13 16 31 13 54 -3 19 -5 42 -5 52 -1 10 -4 16 -8 14 -5 -3 -9 6 -9 19 -2 33
-52 107 -66 98 -6 -4 -8 -3 -5 3 4 6 0 16 -8 23 -8 7 -15 9 -15 4 0 -5 -7 1
-15 12 -23 33 -185 70 -185 43z"/>
<path d="M680 3805 c-11 -13 62 -15 649 -15 l661 0 0 -555 0 -555 -735 0 -735
0 0 487 c0 430 -2 485 -15 467 -12 -16 -14 -93 -15 -501 l0 -483 765 0 765 0
0 585 0 585 -664 0 c-578 0 -665 -2 -676 -15z"/>
<path d="M593 3717 l-42 -42 -1 -147 -1 -148 26 12 c14 6 25 15 25 20 0 5 5 6
10 3 6 -3 10 -1 10 5 0 6 4 8 10 5 5 -3 18 7 27 23 24 38 80 102 91 102 4 0
18 9 30 20 12 11 25 19 29 18 4 -1 27 4 50 10 30 9 53 10 85 2 24 -6 48 -12
55 -13 7 -2 20 -10 30 -18 40 -33 57 -44 49 -32 -5 9 -2 11 8 7 9 -3 14 -10
11 -14 -6 -10 27 -37 43 -34 25 4 27 4 15 12 -6 4 27 9 75 10 66 2 97 -1 127
-14 22 -10 43 -18 47 -18 3 -1 10 -5 15 -10 5 -5 2 -6 -7 -1 -8 4 -5 -3 7 -16
12 -12 26 -20 30 -15 4 4 2 11 -6 15 -10 6 -9 10 4 14 9 4 13 3 10 -3 -3 -6
-2 -10 4 -10 5 0 13 5 16 10 4 6 10 8 15 5 4 -3 11 2 14 11 3 8 10 12 16 9 5
-3 16 -3 23 2 6 4 21 10 32 12 26 7 206 6 225 -1 8 -3 24 -8 35 -12 11 -4 33
-13 48 -21 15 -8 25 -10 22 -5 -12 19 5 10 30 -17 l26 -28 -2 167 -1 167 -661
0 -662 1 -42 -43z"/>
<path d="M226 3693 c-3 -4 -6 -213 -6 -464 l1 -458 30 1 c36 1 47 14 19 23
-20 6 -20 14 -20 456 0 247 -4 449 -8 449 -5 0 -12 -3 -16 -7z"/>
<path d="M3797 3600 c-16 -5 -35 -17 -43 -27 -13 -17 -14 -17 -8 0 5 13 2 16
-10 11 -9 -3 -16 -10 -16 -16 0 -5 -4 -7 -9 -4 -9 6 -101 -62 -101 -75 0 -4
-9 -17 -21 -28 -11 -10 -21 -25 -23 -32 -1 -8 -12 -41 -25 -74 -26 -67 -25
-137 3 -189 8 -16 12 -34 9 -39 -4 -6 1 -8 12 -3 16 6 16 4 4 -11 -12 -15 -12
-16 5 -10 15 6 16 5 8 -5 -8 -10 -2 -22 23 -49 43 -47 98 -89 123 -94 12 -2
29 -8 39 -14 11 -5 31 -8 46 -7 14 2 24 -1 21 -5 -3 -5 11 -9 31 -9 25 0 34 4
29 12 -4 6 -3 8 4 4 14 -8 112 13 112 25 0 5 3 8 8 8 21 -4 23 3 6 24 l-19 22
23 -19 23 -20 52 52 c43 43 49 54 37 62 -12 8 -10 10 8 10 13 0 20 4 17 10 -3
6 -2 10 2 10 14 0 45 125 39 156 -11 65 -17 88 -26 104 -5 10 -6 20 -3 24 3 3
1 6 -6 6 -7 0 -9 5 -6 10 3 6 1 10 -4 10 -6 0 -11 5 -11 11 0 16 -36 59 -44
52 -3 -3 -6 -1 -6 6 0 7 -4 9 -10 6 -5 -3 -7 0 -4 8 5 15 -21 31 -37 22 -5 -4
-6 2 -2 12 6 16 5 17 -12 3 -17 -14 -18 -13 -12 4 6 16 5 17 -8 6 -13 -11 -14
-10 -9 5 5 13 4 16 -4 11 -7 -4 -12 -3 -12 3 0 5 -11 8 -25 7 -13 -2 -22 0
-20 4 11 18 -98 25 -148 10z"/>
<path d="M7330 3550 c-33 -32 -55 -100 -28 -85 10 6 11 5 1 -6 -10 -10 -13
-94 -13 -351 l0 -337 175 0 175 0 0 207 c0 114 4 214 10 222 6 9 5 17 -1 21
-7 4 -4 9 6 12 9 4 14 3 10 -3 -4 -7 103 -10 320 -10 213 1 331 -3 339 -9 7
-6 15 -9 17 -7 2 3 3 -94 2 -215 l-3 -219 175 0 175 0 0 359 c0 352 -5 421
-32 405 -6 -4 -8 -3 -5 3 4 6 -4 18 -17 27 -22 14 -97 15 -650 16 l-625 0 -31
-30z"/>
<path d="M550 2800 l0 -90 705 0 705 0 0 90 0 90 -705 0 -705 0 0 -90z"/>
<path d="M3800 2545 c-18 -22 -23 -96 -8 -125 18 -34 61 -39 82 -8 20 29 21
97 0 126 -17 25 -56 29 -74 7z"/>
<path d="M6110 2545 c-21 -26 -25 -101 -6 -130 19 -28 57 -33 76 -10 21 26 25
101 6 130 -19 28 -57 33 -76 10z"/>
<path d="M811 1723 c-14 -9 -21 -12 -18 -6 13 20 -31 2 -54 -23 -12 -13 -19
-24 -15 -24 4 0 0 -7 -9 -16 -9 -9 -14 -23 -11 -30 3 -7 1 -16 -4 -19 -5 -3
-9 -40 -9 -83 0 -46 -4 -78 -10 -80 -6 -2 -8 -9 -5 -14 4 -7 2 -8 -5 -4 -6 4
-9 12 -6 17 4 5 -14 30 -39 55 -39 39 -46 43 -46 25 0 -11 6 -21 13 -21 9 0 9
-2 0 -8 -23 -14 -9 -53 32 -89 22 -19 55 -49 72 -65 27 -25 35 -28 48 -18 8 7
12 17 8 23 -3 6 -1 7 6 3 13 -8 78 52 73 68 -2 6 0 8 4 3 4 -4 16 0 26 10 20
18 25 38 6 27 -10 -6 -10 -4 0 7 15 16 17 83 2 74 -6 -4 -7 -11 -4 -17 4 -6 2
-8 -3 -5 -6 4 -27 -12 -48 -34 -20 -22 -39 -38 -42 -35 -3 3 -5 42 -4 87 2 99
18 128 72 129 34 0 35 1 37 40 3 36 0 40 -20 40 -13 0 -34 -8 -47 -17z"/>
<path d="M3600 1552 c0 -44 4 -61 19 -74 11 -9 23 -13 27 -10 4 4 5 2 1 -3 -3
-6 12 -28 33 -48 l38 -38 1 115 2 116 -61 0 -60 0 0 -58z"/>
<path d="M4020 195 c-21 -26 -25 -101 -6 -130 19 -28 57 -33 76 -10 21 26 25
101 6 130 -19 28 -57 33 -76 10z"/>
</g>
</svg>
