
<svg version="1.0" xmlns="http://www.w3.org/2000/svg"
 width="60.000000pt" height="60.000000pt" viewBox="0 0 600.000000 600.000000"
 preserveAspectRatio="xMidYMid meet">
<g transform="translate(0.000000,600.000000) scale(0.100000,-0.100000)"
fill="black" stroke="none">
<path class="event" d="M2800 5994 c-19 -2 -82 -9 -140 -15 -147 -15 -371 -62 -527 -109
-463 -140 -869 -381 -1222 -724 -501 -489 -802 -1098 -892 -1806 -18 -138 -18
-542 0 -680 87 -682 367 -1268 835 -1749 489 -501 1098 -802 1806 -892 138
-18 542 -18 680 0 708 90 1317 391 1806 892 468 481 748 1067 835 1749 18 138
18 542 0 680 -87 682 -367 1268 -835 1749 -480 492 -1074 791 -1763 886 -102
15 -508 28 -583 19z m379 -475 c390 -36 690 -227 783 -498 43 -124 38 -173
-126 -1161 -80 -487 -151 -912 -157 -945 -18 -95 -88 -230 -154 -297 -53 -54
-139 -118 -156 -118 -4 0 -10 17 -12 38 -3 32 -4 31 -6 -13 -2 -70 -42 -177
-89 -239 -43 -56 -127 -118 -189 -140 l-38 -13 -5 -779 c-6 -858 -2 -816 -67
-860 -24 -16 -47 -19 -158 -19 -148 0 -171 9 -206 76 -18 37 -19 66 -19 892
l0 855 -32 68 c-31 64 -33 76 -33 174 0 97 2 110 31 171 53 112 144 194 258
232 67 23 186 22 254 -2 72 -25 51 -7 -24 21 -46 17 -81 22 -159 22 -107 0
-170 -17 -260 -70 -94 -55 -188 -186 -216 -300 -7 -27 -13 -50 -14 -52 -2 -2
-32 11 -66 29 -80 40 -192 151 -236 234 -90 172 -89 231 12 845 43 261 81 479
85 483 4 5 241 -17 526 -47 286 -31 533 -56 550 -56 40 0 54 16 54 62 0 30 -5
40 -22 47 -13 5 -243 33 -513 61 -629 66 -575 58 -575 84 1 53 -20 53 560 -9
390 -42 547 -56 558 -48 28 17 38 58 20 85 -15 23 -31 25 -559 82 -299 32
-546 60 -548 62 -2 1 1 25 5 51 8 43 12 48 34 46 14 -1 261 -28 550 -59 l524
-56 18 22 c10 12 18 32 18 44 0 53 10 51 -569 113 l-543 58 5 43 c2 24 8 46
11 49 3 4 252 -20 552 -52 392 -42 551 -56 562 -48 10 6 18 26 20 51 3 36 0
43 -20 52 -13 5 -264 35 -558 66 -294 31 -536 58 -537 59 -11 8 36 194 63 253
43 95 148 202 250 255 110 57 276 98 424 106 14 0 76 -4 139 -10z" />
</g>
</svg>