<?xml version="1.0" standalone="no"?>
<!DOCTYPE svg PUBLIC "-//W3C//DTD SVG 20010904//EN"
 "http://www.w3.org/TR/2001/REC-SVG-20010904/DTD/svg10.dtd">
<svg version="1.0" xmlns="http://www.w3.org/2000/svg"
 width="450.000000pt" height="470.000000pt" viewBox="0 0 450.000000 470.000000"
 preserveAspectRatio="xMidYMid meet">
<metadata>
Created by potrace 1.11, written by Peter Selinger 2001-2013
</metadata>
<g transform="translate(0.000000,470.000000) scale(0.100000,-0.100000)"
fill="#000000" stroke="none">
<path d="M1995 4465 c-103 -37 -135 -174 -58 -247 75 -71 173 -61 237 25 30
41 29 121 -2 165 -41 57 -112 80 -177 57z"/>
<path d="M324 4287 c-2 -7 -3 -134 -2 -282 l3 -270 249 -3 248 -2 -6 22 c-3
13 -6 33 -6 46 l0 22 -210 0 -210 0 0 210 0 210 355 0 355 0 0 -101 c0 -92 2
-102 23 -120 12 -10 25 -18 30 -19 4 0 7 67 7 149 l0 150 -416 0 c-313 0 -416
-3 -420 -12z"/>
<path d="M3355 4258 c-71 -6 -129 -15 -142 -23 -42 -27 -58 -105 -58 -275 0
-174 17 -258 58 -284 59 -38 629 -54 920 -27 169 16 173 18 204 120 25 80 23
303 -3 385 -28 85 -41 92 -209 105 -165 13 -598 12 -770 -1z m706 -68 l29 0
-2 -237 -3 -238 -332 -3 -333 -2 0 100 c-1 55 -1 134 -1 175 0 41 0 104 1 140
l0 65 293 2 c160 2 298 2 305 1 8 -2 27 -3 43 -3z m-749 -172 c3 -29 7 -33 36
-36 29 -3 33 -6 30 -30 -2 -22 -9 -28 -35 -30 -29 -3 -33 -7 -33 -33 0 -26 -3
-29 -30 -29 -27 0 -30 3 -30 30 0 27 -3 30 -30 30 -27 0 -30 3 -30 30 0 27 3
30 30 30 28 0 30 3 30 35 0 32 2 35 29 35 26 0 30 -4 33 -32z"/>
<path d="M115 4157 c-3 -7 -4 -123 -3 -257 l3 -245 80 0 80 0 3 258 2 257 -80
0 c-56 0 -82 -4 -85 -13z"/>
<path d="M2110 4160 c-8 -5 -35 -10 -58 -10 l-44 0 7 -47 c3 -27 12 -75 18
-108 l12 -60 68 -3 c79 -3 75 -13 50 136 -17 100 -23 111 -53 92z"/>
<path d="M970 4027 c-75 -38 -159 -234 -118 -275 15 -15 82 -16 111 -1 12 6
36 25 54 42 28 27 37 29 78 25 58 -7 91 -36 99 -90 4 -22 13 -52 21 -68 15
-29 62 -54 92 -48 51 9 95 216 60 284 -24 47 -40 55 -130 63 -73 7 -90 12
-137 44 -58 39 -89 45 -130 24z"/>
<path d="M1741 3897 c-14 -14 -15 -201 -1 -228 6 -10 20 -19 30 -19 11 0 20
-4 20 -10 0 -5 18 -10 39 -10 22 0 43 5 46 10 4 6 95 10 240 10 145 0 236 -4
240 -10 3 -5 24 -10 46 -10 21 0 39 5 39 10 0 6 9 10 20 10 12 0 24 9 28 21 8
21 6 204 -2 226 -7 16 -728 17 -745 0z"/>
<path d="M2510 3747 l0 -55 58 14 c75 18 107 17 122 -2 20 -23 -4 -41 -84 -63
-77 -21 -116 -52 -116 -91 0 -41 38 -69 118 -85 39 -8 83 -19 97 -25 41 -16
55 -12 55 14 0 28 -23 39 -123 60 -38 8 -74 19 -80 25 -18 18 10 38 71 50 75
15 123 53 124 99 2 49 -33 79 -107 91 -33 6 -77 13 -97 17 l-38 7 0 -56z"/>
<path d="M615 3700 c-3 -5 -17 -10 -30 -10 -22 0 -40 -22 -28 -34 4 -3 89 -6
190 -6 170 0 184 1 181 18 -2 9 -14 18 -28 20 -14 2 -29 8 -35 13 -13 12 -242
12 -250 -1z"/>
<path d="M3590 2947 c-90 -31 -152 -69 -215 -134 -64 -65 -120 -171 -136 -258
-12 -65 -7 -231 8 -261 6 -11 25 -50 43 -87 58 -121 180 -220 319 -261 62 -18
203 -21 271 -5 169 39 324 189 376 364 27 91 24 232 -8 315 -63 169 -194 291
-359 335 -84 23 -221 19 -299 -8z m333 -135 c37 -18 87 -54 112 -79 48 -48
100 -137 90 -153 -4 -6 -48 -10 -99 -10 -87 0 -94 2 -117 26 -39 42 -92 64
-154 64 -66 0 -108 -16 -157 -59 -34 -30 -39 -31 -126 -31 -52 0 -94 4 -97 10
-9 14 39 94 88 147 45 49 125 98 183 112 21 6 78 9 125 8 74 -3 96 -8 152 -35z
m-97 -283 c50 -46 39 -134 -20 -170 -39 -24 -73 -24 -112 0 -97 59 -43 211 69
197 22 -2 50 -14 63 -27z m-263 -207 c114 -86 117 -91 117 -176 0 -60 -3 -78
-15 -83 -25 -9 -103 26 -159 71 -84 68 -160 199 -131 227 2 3 34 4 70 3 60 -3
72 -7 118 -42z m562 34 c18 -13 17 -16 -12 -77 -38 -81 -106 -150 -188 -190
-90 -44 -99 -40 -103 48 -3 67 -1 73 27 106 43 49 131 114 161 120 51 9 97 7
115 -7z"/>
<path d="M2112 2906 c-13 -7 -40 -35 -61 -62 -33 -45 -41 -49 -82 -52 -56 -4
-73 13 -71 67 1 28 -3 41 -15 45 -21 8 -33 -10 -33 -51 0 -79 51 -120 139
-110 46 5 55 12 119 97 19 24 31 30 62 30 44 0 60 -18 60 -70 0 -27 3 -31 23
-28 19 3 22 8 20 48 -2 36 -8 50 -33 73 -34 30 -88 36 -128 13z"/>
<path d="M404 2831 c-70 -7 -88 -18 -106 -69 -28 -78 -11 -352 22 -352 8 0 40
117 40 150 0 15 -6 20 -26 20 -21 0 -25 4 -22 23 2 14 11 23 26 25 14 2 22 10
22 23 0 12 7 19 20 19 13 0 20 -7 20 -20 0 -15 7 -20 25 -20 20 0 25 -5 25
-25 0 -18 -5 -25 -20 -25 -11 0 -20 -4 -20 -10 0 -5 6 -10 13 -10 32 0 47 -35
47 -112 l0 -75 68 -6 c87 -9 304 -9 410 0 l82 6 0 76 c0 42 4 81 8 87 11 18
78 43 91 34 7 -4 11 -13 10 -21 -2 -8 0 -27 4 -44 24 -93 29 -107 37 -99 33
35 47 249 22 339 -19 68 -30 76 -113 86 -82 9 -589 9 -685 0z m596 -231 l0
-180 -249 0 -250 0 -6 43 c-4 32 -1 250 4 310 1 4 114 7 251 7 l250 0 0 -180z"/>
<path d="M2090 2611 c-9 -18 -22 -20 -152 -19 -184 1 -178 6 -202 -188 -9 -77
-23 -182 -30 -234 -21 -162 -2 -190 134 -190 104 0 113 6 138 101 l17 64 50 5
c72 7 116 46 139 123 5 17 16 19 95 20 30 0 35 -4 46 -37 23 -66 62 -97 134
-106 l45 -5 19 -65 c28 -96 34 -100 139 -100 82 0 91 2 115 26 25 25 26 28 20
117 -4 51 -15 151 -25 222 -11 72 -20 146 -21 165 -1 19 -11 44 -22 56 -19 20
-31 22 -162 23 -127 2 -142 4 -154 21 -13 18 -27 20 -163 20 -137 0 -150 -2
-160 -19z m4 -250 c9 -10 21 -33 26 -51 22 -77 -74 -137 -139 -86 -8 6 -20 26
-28 43 -12 30 -11 36 12 73 23 37 29 40 69 40 29 0 48 -6 60 -19z m433 -3 c33
-31 32 -96 -1 -127 -48 -45 -134 -20 -150 45 -7 28 15 78 41 93 31 18 85 13
110 -11z"/>
<path d="M1992 2344 c-41 -28 -22 -105 28 -115 34 -7 68 11 79 42 15 42 14 46
-9 69 -24 24 -67 26 -98 4z"/>
<path d="M208 2575 c-46 -43 -60 -73 -74 -157 -5 -29 2 -57 31 -130 25 -63 39
-115 43 -160 l5 -68 53 -1 c30 -1 65 -1 79 -1 14 0 30 0 35 1 6 1 10 23 10 50
0 28 12 87 27 133 22 66 27 103 27 182 1 83 -2 100 -16 110 -30 18 -51 -5 -68
-75 -16 -63 -16 -64 -52 -67 -30 -3 -40 2 -52 20 -28 43 -31 86 -8 111 18 20
26 76 12 91 -3 2 -26 -15 -52 -39z"/>
<path d="M1230 2582 c0 -24 7 -46 20 -60 24 -26 24 -31 4 -82 -13 -32 -23 -42
-52 -50 -20 -5 -37 -8 -38 -7 -10 11 -34 85 -34 106 0 33 -17 51 -46 51 -33 0
-38 -15 -35 -113 2 -65 11 -115 32 -184 16 -53 29 -115 29 -139 l0 -44 90 0
90 0 0 60 c0 47 10 86 41 170 l41 110 -17 57 c-24 80 -34 99 -61 114 -13 7
-24 16 -24 20 0 5 -9 13 -20 19 -18 10 -20 8 -20 -28z"/>
<path d="M2143 1415 c-86 -19 -157 -59 -229 -130 -196 -193 -191 -495 12 -684
102 -96 224 -139 362 -129 204 16 374 160 427 363 42 162 -6 329 -129 450 -74
73 -142 111 -233 130 -82 18 -129 18 -210 0z m233 -92 c67 -22 111 -51 164
-109 115 -123 138 -290 63 -444 -75 -153 -261 -245 -425 -211 -258 53 -398
327 -287 559 43 89 137 173 230 206 60 21 192 20 255 -1z"/>
<path d="M2137 1274 c-4 -4 -7 -51 -7 -105 l0 -98 -102 -3 -103 -3 0 -115 0
-115 102 -3 102 -3 3 -102 3 -102 115 0 115 0 3 102 3 102 102 3 102 3 0 115
0 115 -102 3 -102 3 -3 102 -3 102 -111 3 c-60 1 -113 -1 -117 -4z"/>
<path d="M4047 1403 c-7 -37 -5 -39 51 -47 84 -11 181 -84 231 -173 8 -15 11
-15 35 0 26 17 26 18 10 48 -24 47 -92 117 -142 146 -38 23 -133 52 -168 53
-7 0 -14 -12 -17 -27z"/>
<path d="M575 1357 c-23 -13 -54 -44 -72 -72 -18 -28 -42 -58 -54 -67 -36 -30
-126 -20 -152 16 -4 6 -6 33 -5 60 1 37 -2 50 -16 58 -28 16 -44 2 -51 -46 -9
-57 16 -111 65 -144 30 -21 45 -23 107 -20 81 4 96 13 148 93 41 64 55 76 104
82 56 8 91 -27 91 -92 0 -43 1 -45 30 -45 29 0 30 2 30 45 0 25 -6 61 -14 80
-31 72 -131 97 -211 52z"/>
<path d="M4040 1296 c0 -33 3 -36 28 -36 58 -1 135 -53 170 -116 7 -13 13 -13
35 -3 32 14 32 16 8 54 -44 72 -117 121 -196 132 l-45 6 0 -37z"/>
<path d="M3367 1189 c-99 -52 -167 -239 -167 -460 0 -155 24 -194 119 -193 99
2 164 51 230 173 51 97 91 121 195 121 96 0 141 -27 191 -118 73 -130 130
-174 228 -176 54 -1 61 2 87 31 34 38 46 107 35 221 -19 212 -82 359 -176 408
-42 21 -118 17 -205 -13 -110 -37 -220 -37 -323 0 -90 32 -160 34 -214 6z
m143 -129 l0 -40 41 0 40 0 -3 -42 c-3 -42 -4 -43 -40 -46 -35 -3 -37 -5 -40
-40 -3 -36 -4 -37 -43 -37 -39 0 -40 1 -43 37 -3 35 -5 37 -40 40 -36 3 -37 4
-40 46 l-3 42 40 0 41 0 0 40 0 40 45 0 45 0 0 -40z"/>
<path d="M715 1148 c-2 -7 -9 -33 -15 -58 -6 -25 -13 -53 -16 -62 -5 -16 3
-18 81 -18 l85 0 -7 28 c-32 128 -24 117 -76 120 -32 2 -49 -1 -52 -10z"/>
<path d="M267 973 c-4 -3 -7 -104 -7 -223 0 -167 3 -220 13 -228 9 -8 163 -11
494 -12 399 0 482 2 492 14 8 9 11 78 9 232 l-3 219 -496 3 c-272 1 -499 -1
-502 -5z m260 -85 c4 -7 8 -29 8 -48 0 -35 1 -35 48 -38 l47 -3 0 -49 0 -49
-47 -3 c-47 -3 -48 -4 -49 -38 -1 -19 -2 -41 -3 -48 -1 -9 -15 -12 -48 -10
l-48 3 -5 45 -5 45 -45 5 -45 5 0 45 0 45 48 3 47 3 0 43 c0 23 3 46 7 49 11
12 82 7 90 -5z"/>
</g>
</svg>
