<?xml version="1.0" standalone="no"?>
<!DOCTYPE svg PUBLIC "-//W3C//DTD SVG 20010904//EN"
 "http://www.w3.org/TR/2001/REC-SVG-20010904/DTD/svg10.dtd">
<svg version="1.0" xmlns="http://www.w3.org/2000/svg"
 width="450.000000pt" height="470.000000pt" viewBox="0 0 450.000000 470.000000"
 preserveAspectRatio="xMidYMid meet">
<metadata>
Created by potrace 1.11, written by Peter Selinger 2001-2013
</metadata>
<g transform="translate(0.000000,470.000000) scale(0.100000,-0.100000)"
fill="#000000" stroke="none">
<path d="M1430 4562 c0 -36 -3 -40 -41 -52 -22 -8 -43 -18 -46 -23 -3 -5 -18
4 -34 19 l-29 28 -50 -49 -50 -49 25 -26 25 -26 -22 -52 c-21 -50 -24 -52 -60
-52 l-38 0 0 -65 0 -65 38 0 c36 0 39 -2 60 -52 l22 -52 -26 -27 -27 -28 46
-45 c25 -26 49 -46 54 -46 5 0 20 11 32 24 l22 24 39 -19 c22 -11 44 -19 50
-19 5 0 10 -18 10 -40 l0 -40 70 0 70 0 0 38 c0 36 3 39 49 59 l49 20 26 -25
26 -26 50 49 50 49 -27 28 -26 27 21 48 c18 43 24 48 56 51 l36 3 0 64 0 64
-36 3 c-32 3 -38 8 -56 51 l-21 48 26 27 27 28 -50 49 -50 49 -26 -26 -26 -25
-49 20 c-46 20 -49 23 -49 59 l0 38 -70 0 -70 0 0 -38z m147 -87 c60 -18 135
-81 165 -139 64 -126 13 -292 -113 -360 -184 -101 -404 31 -403 241 1 116 73
215 186 254 65 23 100 23 165 4z"/>
<path d="M3194 4540 c-48 -15 -76 -52 -82 -110 l-5 -50 142 0 141 0 0 25 c0
39 -29 102 -56 120 -30 19 -100 27 -140 15z"/>
<path d="M3872 4530 c-36 -22 -62 -72 -62 -120 l0 -30 140 0 140 0 0 35 c0
108 -123 173 -218 115z"/>
<path d="M530 4492 c0 -21 -52 -51 -58 -33 -6 18 -27 13 -51 -12 -19 -21 -20
-26 -7 -36 19 -16 2 -58 -26 -66 -11 -4 -18 -16 -18 -31 0 -13 -1 -27 -2 -31
-2 -5 7 -9 19 -11 24 -4 40 -47 24 -66 -16 -19 33 -63 53 -47 19 16 66 -5 66
-30 0 -9 6 -19 13 -21 20 -7 62 7 62 21 0 7 11 19 25 26 21 11 27 11 41 -1 14
-12 18 -11 39 11 18 19 20 27 11 39 -16 19 6 66 31 66 14 0 18 8 18 35 0 28
-4 35 -19 35 -21 0 -50 62 -31 68 17 6 11 27 -13 51 -21 18 -26 20 -36 7 -16
-19 -71 1 -71 26 0 14 -8 18 -35 18 -27 0 -35 -4 -35 -18z m114 -61 c42 -28
66 -70 66 -119 0 -86 -57 -145 -141 -146 -145 -2 -199 190 -74 265 40 25 111
25 149 0z"/>
<path d="M2401 4266 c-128 -55 -145 -66 -157 -95 -7 -17 -10 -30 -6 -28 4 2
78 35 165 72 86 38 157 73 157 79 -1 36 -19 32 -159 -28z"/>
<path d="M2570 4151 c-19 -10 -122 -55 -228 -101 -160 -69 -196 -88 -208 -111
-8 -15 -14 -30 -14 -33 0 -2 82 32 183 76 100 44 216 93 257 111 41 17 76 32
78 33 6 4 -18 44 -26 44 -4 -1 -23 -9 -42 -19z"/>
<path d="M3146 4117 c-3 -12 -6 -43 -6 -69 l0 -48 110 0 110 0 0 44 c0 25 -5
57 -10 72 -10 25 -11 26 -29 9 -31 -27 -94 -31 -135 -7 l-34 20 -6 -21z"/>
<path d="M4020 4120 c-31 -24 -106 -26 -138 -4 -13 9 -26 14 -29 11 -2 -3 -7
-33 -10 -66 l-6 -61 112 0 111 0 -1 53 c0 28 -3 60 -7 69 -6 16 -9 15 -32 -2z"/>
<path d="M530 3951 c0 -24 -36 -37 -56 -20 -12 10 -19 8 -39 -11 -22 -21 -24
-26 -11 -38 19 -19 1 -62 -26 -62 -14 0 -18 -8 -18 -35 0 -27 4 -35 18 -35 27
0 45 -43 26 -62 -13 -12 -11 -17 11 -38 18 -17 28 -20 38 -12 19 16 57 3 57
-19 0 -15 7 -19 35 -19 25 0 35 4 35 15 0 24 46 41 65 25 14 -11 19 -10 37 8
17 17 19 24 9 35 -17 21 3 67 29 67 13 0 20 7 20 19 0 30 -11 51 -26 51 -22 0
-38 38 -23 56 10 12 8 19 -11 39 -17 18 -27 22 -36 14 -19 -15 -64 0 -64 22 0
15 -7 19 -35 19 -28 0 -35 -4 -35 -19z m97 -48 c133 -63 72 -267 -74 -250
-104 11 -155 131 -91 213 41 51 105 66 165 37z"/>
<path d="M1360 3580 c-14 -14 -20 -33 -20 -63 0 -48 5 -58 26 -50 9 3 14 21
14 49 0 54 7 56 140 52 l95 -3 5 -48 c3 -26 8 -47 13 -47 4 0 12 0 17 0 19 0
11 89 -10 110 -18 18 -33 20 -140 20 -107 0 -122 -2 -140 -20z"/>
<path d="M3231 3568 c-47 -13 -73 -32 -95 -68 l-18 -31 84 1 c45 1 91 1 101 1
14 -1 17 -11 17 -66 l0 -64 -101 -3 -102 -3 28 -33 c77 -92 205 -83 273 18
l23 35 302 5 302 5 3 33 c6 63 10 62 -317 62 l-296 0 -14 31 c-26 59 -119 98
-190 77z"/>
<path d="M530 3470 c0 -28 -44 -48 -65 -30 -13 11 -20 9 -40 -10 -19 -17 -22
-27 -14 -36 16 -20 1 -74 -21 -74 -19 0 -32 -32 -23 -56 3 -8 13 -14 23 -14
23 0 36 -46 19 -67 -10 -11 -7 -19 14 -40 21 -21 29 -24 40 -14 24 19 67 3 67
-25 0 -21 5 -24 35 -24 28 0 35 4 35 20 0 25 47 46 71 32 17 -11 26 -7 48 21
10 13 11 20 2 31 -16 19 6 66 31 66 14 0 18 8 18 35 0 27 -4 35 -18 35 -11 0
-24 12 -31 27 -10 22 -9 29 3 42 14 14 13 18 -11 43 -24 25 -28 26 -44 13 -13
-13 -21 -14 -43 -4 -14 7 -26 20 -26 31 0 14 -8 18 -35 18 -28 0 -35 -4 -35
-20z m50 -64 c0 -8 12 -21 27 -28 15 -7 37 -28 48 -45 11 -18 26 -32 33 -33 6
0 12 -7 12 -15 0 -8 -6 -15 -12 -15 -7 -1 -22 -15 -33 -33 -11 -17 -33 -38
-48 -45 -15 -7 -27 -20 -27 -28 0 -20 -21 -17 -27 4 -2 10 -18 23 -34 29 -19
8 -35 23 -42 42 -6 17 -17 31 -24 31 -21 0 -26 21 -5 27 11 3 23 16 26 29 4
14 22 34 40 45 19 11 37 26 40 34 7 19 26 19 26 1z"/>
<path d="M1182 3093 l3 -88 309 -3 c219 -2 313 1 322 9 10 8 14 36 14 90 l0
79 -325 0 -326 0 3 -87z"/>
<path d="M1297 2813 c-3 -5 -8 -35 -11 -68 -13 -107 -44 -238 -80 -337 l-35
-97 36 -12 c43 -14 51 -6 83 78 40 107 58 133 90 133 35 0 40 19 10 38 -30 18
-27 69 5 84 19 9 25 19 25 43 0 18 -7 38 -15 45 -8 7 -15 23 -15 37 0 13 7 26
15 29 8 4 15 12 15 20 0 10 -15 14 -59 14 -33 0 -62 -3 -64 -7z"/>
<path d="M2160 2775 c0 -4 29 -39 65 -77 36 -39 64 -72 63 -73 -2 -1 -25 -21
-51 -45 l-48 -44 -69 75 -68 74 -7 -38 c-22 -116 97 -231 204 -198 33 10 37 8
61 -19 l25 -30 39 33 38 33 -26 31 c-22 26 -25 35 -16 58 25 66 -2 154 -62
196 -21 16 -50 24 -90 27 -32 3 -58 1 -58 -3z"/>
<path d="M3896 2734 c-3 -9 -6 -24 -6 -34 0 -16 -18 -30 -39 -30 -4 0 -14 13
-24 29 -12 20 -23 28 -36 24 -16 -4 -18 -11 -14 -44 7 -47 -14 -60 -53 -34
-24 15 -28 16 -42 1 -14 -14 -14 -17 2 -35 10 -11 16 -28 14 -38 -3 -14 -12
-18 -45 -16 -33 1 -42 -2 -46 -18 -4 -14 3 -24 25 -35 19 -10 28 -20 24 -30
-3 -9 -6 -19 -6 -24 0 -5 -15 -10 -32 -12 -25 -2 -34 -8 -36 -25 -3 -20 1 -23
30 -23 42 0 80 37 96 96 17 59 81 120 147 139 67 20 95 49 88 93 -6 35 -36 45
-47 16z"/>
<path d="M3144 2673 c3 -21 6 -57 6 -81 l0 -43 63 3 62 3 5 78 5 77 -74 0 -74
0 7 -37z"/>
<path d="M3299 2533 c-1 -43 -2 -85 -3 -93 -1 -12 19 -66 29 -78 2 -2 12 1 24
7 13 7 22 8 26 1 3 -5 16 -10 27 -10 20 0 20 1 5 18 -23 25 -22 34 13 67 27
26 41 65 23 65 -5 0 -29 -23 -55 -52 l-48 -53 0 103 c0 95 -1 102 -20 102 -18
0 -20 -7 -21 -77z"/>
<path d="M4164 2418 c-12 -13 -27 -39 -33 -58 -19 -59 -49 -99 -98 -130 -26
-17 -59 -30 -73 -30 -40 0 -79 -47 -73 -87 9 -54 53 -40 53 17 0 19 43 37 48
20 9 -26 38 -51 53 -45 13 5 15 13 9 41 -7 29 -5 36 11 45 15 8 25 5 46 -11
23 -18 28 -19 41 -6 13 12 12 18 -6 43 -17 24 -18 31 -7 46 9 13 20 15 45 11
48 -10 58 14 19 46 -33 27 -32 60 1 60 32 0 50 11 50 31 0 10 -6 19 -12 19 -7
0 -22 3 -33 6 -14 3 -28 -3 -41 -18z"/>
<path d="M2446 2357 l-38 -33 67 -74 c96 -106 202 -217 214 -224 12 -8 57 19
65 39 6 17 -26 57 -156 197 -57 61 -105 114 -108 119 -3 4 -23 -7 -44 -24z"/>
<path d="M520 1810 c-29 -48 -54 -92 -54 -96 0 -5 7 -10 16 -12 10 -2 33 25
66 78 29 44 57 80 64 80 7 0 35 -37 62 -81 56 -90 59 -94 75 -76 8 10 -2 34
-43 98 -43 68 -57 84 -75 82 -12 -2 -30 1 -40 6 -14 8 -26 -5 -71 -79z"/>
<path d="M1555 1768 c-2 -7 -5 -24 -7 -38 -5 -38 -41 -38 -68 -1 -17 25 -25
29 -40 21 -15 -8 -17 -15 -10 -42 16 -54 -16 -74 -62 -38 -24 18 -26 18 -41 2
-14 -15 -14 -19 4 -41 36 -44 15 -77 -40 -61 -28 8 -33 6 -40 -13 -7 -18 -3
-25 23 -42 39 -25 39 -65 1 -65 -23 0 -55 -23 -55 -40 0 -11 26 -20 56 -20 34
0 33 -43 -2 -66 -24 -16 -31 -61 -9 -58 6 1 24 5 42 9 26 5 32 3 38 -14 4 -12
-1 -33 -11 -50 -15 -25 -15 -32 -5 -45 12 -14 16 -14 42 5 19 13 36 18 50 14
18 -6 20 -12 15 -46 -5 -31 -3 -40 12 -48 15 -8 22 -4 36 20 11 19 25 29 41
29 19 0 24 -6 27 -32 2 -25 8 -34 25 -36 18 -3 23 3 28 31 9 48 45 56 70 15
25 -44 51 -33 47 19 -2 35 1 43 19 48 14 5 31 0 49 -14 25 -18 30 -19 41 -5
10 13 9 21 -5 45 -10 17 -15 38 -11 49 7 23 9 23 52 11 28 -8 33 -7 39 12 5
15 0 25 -20 40 -15 11 -26 28 -26 42 0 19 6 24 31 27 38 4 62 33 39 48 -8 5
-27 10 -42 10 -39 0 -39 43 0 68 18 11 26 24 24 35 -3 15 -12 18 -44 15 -55
-4 -70 18 -40 60 19 26 20 31 7 42 -13 11 -22 9 -49 -5 -46 -25 -69 -9 -55 37
4 17 6 35 3 39 -11 18 -41 8 -54 -16 -9 -17 -22 -25 -40 -25 -24 0 -28 5 -34
40 -5 31 -11 40 -26 40 -12 0 -23 -6 -25 -12z m73 -128 c4 -35 53 -55 76 -32
14 15 18 13 46 -13 27 -26 28 -30 15 -45 -23 -25 -2 -80 31 -80 22 0 24 -4 24
-45 0 -41 -2 -45 -24 -45 -33 0 -54 -55 -31 -80 13 -15 12 -19 -15 -45 -23
-22 -33 -26 -42 -17 -25 25 -77 4 -82 -33 -2 -16 -11 -20 -47 -20 -38 0 -44 3
-47 23 -2 12 -16 29 -31 37 -25 12 -30 12 -44 -3 -16 -15 -19 -14 -47 13 -27
26 -28 30 -15 45 22 24 -1 80 -32 80 -21 0 -23 5 -23 45 0 40 2 45 23 45 31 0
51 50 31 78 -12 17 -10 22 17 48 27 26 30 27 46 12 14 -15 19 -15 45 -2 16 8
28 23 28 33 0 23 13 29 60 27 30 -1 35 -5 38 -26z"/>
<path d="M2543 1540 c-108 -66 -65 -230 62 -230 77 0 125 49 125 126 0 41 -5
51 -39 85 -32 32 -46 39 -77 39 -22 0 -53 -9 -71 -20z m122 -45 c55 -54 19
-145 -57 -145 -79 0 -114 78 -62 139 33 40 83 43 119 6z"/>
<path d="M3070 1365 c-52 -55 -12 -145 64 -145 47 0 76 27 83 75 4 33 1 45
-21 68 -34 37 -92 38 -126 2z"/>
<path d="M290 710 l0 -390 395 0 395 0 0 390 0 390 -395 0 -395 0 0 -390z
m700 325 c0 -33 2 -35 35 -35 l35 0 0 -290 0 -290 -35 0 c-33 0 -35 -2 -35
-35 l0 -34 -300 -3 -300 -3 0 33 c0 30 -2 32 -35 32 l-35 0 0 294 0 295 33 3
c29 3 32 6 32 36 l0 32 302 0 303 0 0 -35z"/>
<path d="M4020 841 l0 -151 95 0 c84 0 95 2 95 18 0 9 -32 76 -70 147 -58 110
-72 130 -94 133 l-26 3 0 -150z"/>
<path d="M4020 445 l0 -105 95 0 95 0 0 105 0 105 -95 0 -95 0 0 -105z"/>
<path d="M1850 453 l0 -88 -157 0 c-142 0 -158 -2 -161 -17 -3 -17 10 -18 172
-18 l176 0 0 90 0 90 78 0 79 0 19 -87 19 -88 333 -3 c314 -2 333 -1 330 15
-3 17 -27 18 -320 21 l-316 2 -16 70 c-9 38 -16 76 -16 84 0 14 -17 16 -110
16 l-110 0 0 -87z"/>
</g>
</svg>
