<?xml version="1.0" standalone="no"?>
<!DOCTYPE svg PUBLIC "-//W3C//DTD SVG 20010904//EN"
 "http://www.w3.org/TR/2001/REC-SVG-20010904/DTD/svg10.dtd">
<svg version="1.0" xmlns="http://www.w3.org/2000/svg"
 width="450.000000pt" height="470.000000pt" viewBox="0 0 450.000000 470.000000"
 preserveAspectRatio="xMidYMid meet">
<metadata>
Created by potrace 1.11, written by Peter Selinger 2001-2013
</metadata>
<g transform="translate(0.000000,470.000000) scale(0.100000,-0.100000)"
fill="#000000" stroke="none">
<path d="M477 4243 c-4 -3 -7 -82 -7 -175 l0 -168 265 0 265 0 0 175 0 175
-258 0 c-142 0 -262 -3 -265 -7z m491 -170 l-3 -138 -227 -3 -228 -2 0 140 0
140 230 0 231 0 -3 -137z"/>
<path d="M1360 4045 l0 -205 135 0 c113 0 135 -2 135 -15 0 -11 -11 -15 -40
-15 -22 0 -40 -4 -40 -10 0 -6 50 -10 130 -10 80 0 130 4 130 10 0 6 -18 10
-40 10 -29 0 -40 4 -40 15 0 13 22 15 135 15 l135 0 0 205 0 205 -320 0 -320
0 0 -205z m602 0 l3 -165 -287 0 -288 0 0 165 0 165 285 0 284 0 3 -165z"/>
<path d="M2370 4089 l0 -162 -31 -50 c-16 -27 -28 -56 -25 -63 4 -12 61 -14
320 -14 202 0 317 4 321 10 4 6 -7 34 -24 64 l-31 53 0 162 0 161 -265 0 -265
0 0 -161z m488 -16 l-3 -138 -225 0 -225 0 -1 138 -2 137 229 0 230 0 -3 -137z
m26 -195 c9 -12 16 -26 16 -30 0 -12 -188 -10 -195 2 -3 6 -37 10 -76 10 -39
0 -69 -4 -69 -10 0 -6 -38 -10 -95 -10 -52 0 -95 3 -95 8 0 4 7 18 16 30 15
22 19 22 249 22 230 0 234 0 249 -22z"/>
<path d="M3295 4228 c-3 -13 -4 -90 -3 -173 l3 -150 108 -3 c86 -2 107 -6 107
-17 0 -11 -12 -15 -40 -15 -22 0 -40 -4 -40 -10 0 -6 50 -10 130 -10 80 0 130
4 130 10 0 6 -18 10 -41 10 -28 0 -39 4 -37 13 3 8 37 13 112 15 l106 3 -2
172 -3 172 -262 3 -263 2 -5 -22z m495 -158 l0 -140 -230 0 -230 0 0 140 0
140 230 0 230 0 0 -140z"/>
<path d="M3870 4045 l0 -206 123 3 122 3 0 200 0 200 -122 3 -123 3 0 -206z
m210 120 l0 -45 -90 0 -90 0 0 45 0 45 90 0 90 0 0 -45z m-2 -172 l3 -113 -41
0 -40 0 0 42 c0 23 -3 38 -7 35 -3 -4 -6 -23 -5 -42 1 -35 1 -35 -43 -35 l-45
0 0 108 c0 60 3 112 6 115 4 4 43 6 88 4 l81 -2 3 -112z"/>
<path d="M637 3842 l-168 -2 3 -73 3 -72 190 -3 c152 -2 192 0 200 11 5 8 8
41 7 74 -4 60 -4 61 -35 65 -18 1 -108 2 -200 0z"/>
<path d="M562 3278 c-17 -17 -17 -549 0 -566 8 -8 59 -12 164 -12 129 0 153 2
158 16 3 9 6 136 6 283 0 194 -3 270 -12 279 -8 8 -58 12 -158 12 -100 0 -150
-4 -158 -12z m288 -273 l0 -205 -130 0 -130 0 0 205 0 205 130 0 130 0 0 -205z"/>
<path d="M1521 3276 c-8 -9 -11 -95 -9 -292 l3 -279 159 -3 c121 -2 161 1 168
10 13 22 10 552 -4 566 -18 18 -302 17 -317 -2z m289 -271 l0 -205 -130 0
-130 0 0 205 0 205 130 0 130 0 0 -205z"/>
<path d="M2427 3272 c-15 -16 -17 -51 -17 -283 0 -193 3 -268 12 -277 9 -9 70
-12 215 -12 190 0 203 1 213 19 6 12 10 120 10 280 0 257 0 260 -22 275 -18
13 -56 16 -209 16 -167 0 -188 -2 -202 -18z m395 -134 c2 -62 2 -170 0 -240
l-3 -128 -185 0 -184 0 0 240 0 240 185 0 184 0 3 -112z"/>
<path d="M3290 2970 l0 -270 415 0 415 0 0 270 0 270 -415 0 -415 0 0 -270z
m427 248 c-3 -10 37 -13 182 -13 l186 0 0 -230 0 -230 -377 -3 -378 -2 0 234
0 235 185 -2 c145 -2 184 1 180 11 -2 6 3 12 11 12 9 0 14 -6 11 -12z"/>
<path d="M3879 2988 c-1 -34 -4 -53 -6 -40 -8 41 -28 17 -31 -38 -2 -42 1 -60
17 -81 12 -16 21 -33 21 -39 0 -5 17 -10 38 -10 37 0 38 1 55 58 9 32 17 67
17 78 0 28 -30 61 -64 70 -22 5 -27 11 -24 32 2 14 -3 27 -9 29 -10 4 -13 -13
-14 -59z"/>
<path d="M567 2198 c-16 -12 -17 -39 -15 -293 l3 -280 165 0 165 0 3 31 3 32
84 3 c80 4 86 6 117 37 l33 32 7 148 c4 81 10 173 14 205 7 63 1 69 -41 41
-15 -10 -25 -12 -25 -5 0 16 -45 14 -60 -4 -28 -34 13 -80 51 -57 13 8 25 10
31 4 14 -14 19 -272 5 -311 -19 -54 -54 -73 -141 -79 l-76 -5 0 32 0 31 60 0
c51 0 65 4 85 25 21 20 25 34 25 80 0 30 5 55 10 55 6 0 10 20 10 45 0 47 -15
57 -49 36 -9 -6 -24 -5 -39 2 -21 10 -27 8 -43 -12 -15 -18 -16 -27 -8 -43 8
-15 19 -19 52 -16 l42 3 3 -65 c4 -82 -13 -100 -94 -100 l-54 0 0 210 c0 197
-1 210 -19 220 -29 15 -283 13 -304 -2z m283 -188 l0 -120 -130 0 -130 0 0
119 0 118 130 1 130 1 0 -119z m-71 -206 c24 -30 26 -52 10 -87 -11 -25 -47
-47 -75 -47 -24 0 -74 56 -74 83 0 42 36 77 80 77 30 0 43 -6 59 -26z"/>
<path d="M2582 2191 c-59 -15 -108 -56 -137 -115 -25 -52 -27 -61 -22 -161 4
-79 1 -113 -9 -135 -30 -60 18 -110 130 -135 94 -21 141 -18 141 10 0 18 -7
20 -90 20 -103 1 -151 19 -161 61 -8 31 11 56 20 27 7 -21 70 -53 104 -53 12
0 26 9 33 21 9 17 5 37 -21 108 -40 105 -44 111 -85 111 l-32 0 8 49 c9 61 20
82 59 115 69 57 173 59 236 4 42 -37 59 -69 69 -125 l7 -42 -39 -3 c-38 -3
-38 -3 -75 -95 -31 -74 -36 -97 -28 -117 9 -24 25 -31 60 -26 8 1 17 5 20 10
3 4 15 10 26 14 58 18 87 236 44 334 -11 25 -28 55 -38 65 -42 47 -150 75
-220 58z"/>
<path d="M3418 2173 c-16 -2 -28 -10 -29 -16 0 -7 -2 -22 -3 -34 -4 -38 8 -45
91 -50 74 -5 81 -4 95 16 15 21 20 21 219 19 l204 -3 0 -30 0 -30 -136 -5
c-142 -5 -169 -13 -169 -51 0 -23 -19 -27 -127 -31 -97 -4 -126 -20 -161 -91
-34 -66 -24 -117 33 -174 40 -41 45 -43 101 -43 62 0 102 18 130 59 20 28 52
27 76 -4 29 -37 70 -55 126 -55 153 0 206 189 79 284 -21 16 -49 21 -127 26
-54 3 -102 9 -106 13 -4 3 -1 13 6 22 10 12 38 15 145 15 147 0 165 7 165 68
0 57 -19 62 -245 62 -188 0 -202 1 -218 20 -17 20 -72 25 -149 13z m502 -268
c36 -19 60 -62 60 -109 0 -46 -48 -103 -94 -111 -45 -9 -102 17 -124 55 -15
26 -22 30 -62 30 -40 0 -47 -4 -62 -30 -25 -44 -81 -65 -129 -51 -67 20 -100
84 -80 152 22 72 45 79 269 79 153 0 199 -3 222 -15z"/>
<path d="M1830 2159 c0 -6 -16 -8 -44 -4 -38 6 -46 4 -55 -14 -9 -16 -9 -26 0
-42 9 -18 17 -20 54 -15 l43 7 6 -73 c8 -96 1 -240 -13 -267 -18 -32 -64 -51
-126 -51 -52 0 -55 1 -55 25 0 23 3 25 49 25 64 0 86 26 96 110 4 33 11 60 16
60 5 0 9 20 9 45 0 43 -1 45 -29 45 -16 0 -31 -6 -33 -12 -4 -10 -10 -10 -29
-2 -37 17 -71 1 -67 -32 4 -36 31 -53 58 -36 30 18 37 9 45 -59 9 -77 -7 -99
-72 -99 -23 0 -43 5 -43 10 0 6 -11 10 -25 10 -21 0 -25 -5 -25 -30 0 -25 -4
-30 -23 -30 -13 0 -32 9 -42 20 -16 17 -17 33 -13 130 6 109 5 111 -16 108
-13 -2 -19 -9 -17 -18 2 -8 7 -62 10 -118 5 -93 8 -106 30 -123 13 -10 34 -19
47 -19 19 0 24 -5 24 -25 0 -20 5 -25 25 -25 14 0 25 5 25 10 0 6 25 10 55 10
136 0 164 44 165 253 0 84 4 137 10 137 6 0 10 23 10 50 0 47 -2 50 -25 50
-14 0 -25 -5 -25 -11z"/>
<path d="M613 1110 c-29 -40 -53 -52 -53 -25 0 11 -12 15 -45 15 -28 0 -45 -4
-45 -12 0 -6 -15 -24 -32 -39 l-33 -27 -3 -157 c-4 -176 -1 -196 30 -225 21
-19 34 -20 278 -20 l257 0 24 26 c23 24 24 33 27 178 4 171 -7 217 -52 238
-15 6 -26 17 -26 25 0 9 -14 13 -45 13 -33 0 -45 -4 -45 -15 0 -26 -16 -17
-44 25 l-26 40 -69 0 -70 0 -28 -40z m-33 -111 c0 -17 4 -28 10 -24 6 3 10 17
10 31 l0 25 108 -3 c93 -3 107 -5 107 -20 0 -10 6 -23 13 -30 9 -9 12 -5 12
20 l0 32 54 0 c61 0 89 -18 84 -54 -3 -19 -9 -21 -60 -21 -32 0 -58 -3 -58 -8
0 -4 7 -22 16 -39 23 -45 15 -126 -18 -176 -66 -99 -221 -102 -295 -5 -34 44
-43 130 -20 186 l16 37 -47 1 c-26 1 -51 1 -55 0 -14 -2 -20 30 -9 55 10 22
18 24 72 24 l60 0 0 -31z"/>
<path d="M635 981 c-55 -29 -86 -77 -87 -137 -3 -128 121 -209 232 -152 61 32
90 77 90 143 0 123 -126 201 -235 146z m143 -21 c90 -55 97 -180 13 -239 -107
-77 -248 18 -220 148 8 35 51 88 84 101 35 15 89 11 123 -10z"/>
<path d="M663 935 c-20 -9 -39 -27 -49 -48 -52 -109 79 -208 168 -128 28 25
33 36 33 75 0 38 -5 51 -30 75 -37 35 -79 44 -122 26z"/>
<path d="M1460 1088 c0 -7 -15 -20 -33 -28 -50 -24 -57 -48 -57 -218 0 -164 9
-204 51 -217 37 -12 504 -8 527 4 35 18 45 80 40 245 -4 148 -4 149 -32 172
-26 23 -32 24 -217 24 -161 0 -189 2 -189 15 0 11 -12 15 -45 15 -29 0 -45 -4
-45 -12z m472 -75 c16 -14 18 -34 18 -167 0 -121 -3 -156 -16 -174 -15 -22
-18 -22 -254 -22 -139 0 -241 4 -245 9 -3 6 16 11 42 13 l48 3 0 165 0 165
-48 3 c-26 2 -45 7 -42 13 4 5 105 9 242 9 206 0 239 -2 255 -17z"/>
<path d="M1680 988 c-84 -43 -116 -165 -63 -236 75 -101 210 -97 281 8 20 29
23 45 20 91 -5 68 -35 114 -92 140 -54 25 -93 24 -146 -3z m136 -17 c92 -42
113 -157 41 -229 -30 -30 -44 -36 -89 -39 -59 -5 -104 16 -133 60 -45 70 -18
169 58 206 51 26 70 26 123 2z"/>
<path d="M1720 949 c-122 -49 -92 -219 39 -219 116 0 152 164 47 214 -39 18
-51 19 -86 5z"/>
<path d="M2420 1086 c0 -8 -11 -17 -25 -20 -13 -3 -34 -16 -45 -28 -18 -20
-20 -35 -20 -194 0 -166 1 -174 23 -199 l23 -27 229 1 c127 0 243 0 258 1 16
0 38 11 52 25 25 24 25 27 25 189 0 176 -6 207 -47 225 -15 7 -93 11 -203 11
-153 0 -180 2 -180 15 0 11 -12 15 -45 15 -32 0 -45 -4 -45 -14z m468 -68 c8
-8 12 -63 12 -180 0 -155 -1 -168 -19 -178 -30 -15 -473 -13 -494 3 -14 10
-17 36 -18 174 -1 118 2 167 11 178 10 13 51 15 254 15 175 0 245 -3 254 -12z"/>
<path d="M2564 986 c-58 -26 -102 -112 -88 -173 17 -72 89 -133 157 -133 69 0
138 55 155 122 26 101 -47 198 -148 198 -25 -1 -59 -7 -76 -14z m137 -21 c43
-23 69 -71 69 -129 0 -43 -4 -53 -38 -86 -50 -50 -96 -60 -154 -31 -53 25 -81
70 -80 127 1 102 111 166 203 119z"/>
<path d="M2594 930 c-56 -22 -72 -107 -29 -154 19 -21 33 -26 69 -26 37 0 48
5 70 31 43 51 32 115 -24 144 -32 17 -54 18 -86 5z"/>
<path d="M3439 1041 c-27 -27 -29 -35 -29 -105 0 -69 -2 -76 -20 -76 -13 0
-20 -7 -20 -20 0 -13 7 -20 20 -20 17 0 20 -7 20 -45 0 -43 -1 -45 -30 -45
l-29 0 -3 73 c-3 69 -4 72 -27 72 -25 0 -25 -1 -24 -94 1 -101 11 -124 43
-103 24 15 70 16 70 2 0 -6 11 -22 25 -35 22 -23 31 -25 129 -25 101 0 105 1
125 26 14 18 21 41 21 69 0 29 5 45 15 49 8 3 15 16 16 28 l0 23 9 -22 c15
-37 42 -43 189 -43 139 0 140 0 160 26 18 22 21 41 21 113 0 130 -1 131 -189
131 -164 0 -181 -6 -181 -65 0 -36 -9 -28 -12 11 -2 31 -46 80 -86 95 -13 5
-59 9 -103 9 -76 0 -82 -2 -110 -29z m219 -23 c8 -8 12 -51 12 -130 0 -115 0
-117 -22 -116 -45 2 -68 -2 -68 -12 0 -5 20 -10 45 -10 33 0 45 -4 45 -15 0
-11 -12 -15 -45 -15 -25 0 -45 -4 -45 -10 0 -5 20 -10 45 -10 33 0 45 -4 45
-15 0 -24 -35 -35 -114 -35 -108 0 -106 -3 -106 194 0 113 4 166 12 174 7 7
44 12 98 12 54 0 91 -5 98 -12z m411 -42 c14 -9 15 -172 1 -181 -5 -3 -69 -6
-141 -6 -97 0 -135 4 -141 13 -4 7 -8 48 -8 90 0 56 4 79 14 85 18 10 259 9
275 -1z"/>
<path d="M3507 999 c-9 -5 -24 -24 -33 -41 -42 -80 42 -173 126 -138 98 40 69
191 -37 190 -21 0 -46 -5 -56 -11z m110 -31 c42 -39 26 -106 -30 -127 -52 -20
-101 17 -101 76 0 66 81 98 131 51z"/>
<path d="M3842 884 c-20 -16 -32 -34 -32 -50 l0 -24 120 0 120 0 0 34 c0 30
-4 35 -31 41 -17 4 -43 2 -60 -5 -24 -11 -33 -10 -47 2 -31 27 -38 27 -70 2z"/>
</g>
</svg>
